<?xml version="1.0" standalone="no"?><!DOCTYPE svg PUBLIC "-//W3C//DTD SVG 1.1//EN" "http://www.w3.org/Graphics/SVG/1.1/DTD/svg11.dtd"><svg t="1743309909241" class="icon" viewBox="0 0 1024 1024" version="1.1" xmlns="http://www.w3.org/2000/svg" p-id="96002" xmlns:xlink="http://www.w3.org/1999/xlink" width="200" height="200"><path d="M223.799754 491.0904s-17.019636 17.010101-37.948545 17.010101c-20.938443 0-37.948545-17.010101-37.948544-17.010101 0-61.509061 18.325905-137.415685 26.173054-163.588739-6.54088-5.234611-9.162953-9.162953-9.162953-18.325905 0-9.153418 6.550415-18.31637 17.010101-20.938444v-43.183155l11.785026 6.54088v35.336006c9.153418 2.612538 17.010101 11.775491 17.010101 20.938444 0 6.550415-5.234611 14.397563-9.153418 18.325905 5.225076 17.010101 14.388029 52.346108 18.316371 94.232529 1.296734 23.550981 3.918807 47.101962 3.918807 70.662479z m30.101396-11.785026v26.182589c2.612538 23.550981 9.153418 47.111497 26.173054 69.365744 9.153418 11.765956 14.397563 11.765956 28.795126 6.54088 5.234611 0 11.775491 20.938443 14.397564 26.173054 17.019636 37.948545 44.498959 82.447504 96.845067 102.079678 35.336007 14.397563 75.897089 17.010101 111.242631 6.550415 37.948545-11.775491 69.356209-37.948545 92.916725-70.672014 20.938443-28.795127 28.795127-47.111497 32.723469-54.96818 2.612538-2.612538 2.612538-6.550415 5.234611-6.550415s6.550415 2.612538 9.162952 2.612538c6.550415 0 11.765956-5.234611 17.010102-9.153418 14.397563-18.325905 23.560516-43.19269 26.173054-69.365744v-26.173054c0-14.397563-9.162953-26.173054-26.173054-26.173054h-2.631608l-2.622073-5.234611s0-11.775491 2.622073-17.019636c0-18.31637 2.612538-40.570617 5.234611-58.886988 0-6.550415 2.612538-17.010101 2.612538-23.560516l-49.73357-14.397563c-2.612538 0-23.550981-5.234611-23.550981-5.234611-11.785025-2.612538-81.15077-6.550415-146.588172-9.162953-52.346108 0-102.079678 5.234611-113.855169 6.550415-5.234611 0-11.775491 2.612538-14.397564 2.612538 0 0-37.948545 6.54088-52.346108 14.397563l-14.397563 5.234611c0 18.31637 2.612538 37.948545 2.612538 56.27445 0 14.397563 2.622073 31.407665 2.622073 44.498959h-2.622073c-18.306836 1.306269-24.847715 14.397563-27.460253 27.479323z m78.519162-40.561082c43.183155 0 81.141235-2.622073 113.855168-9.162953a329.694667 329.694667 0 0 1 40.570618-6.550415c43.19269-9.153418 75.897089-26.173054 104.692216-47.111497 14.397563 17.010101 32.723469 31.407665 61.50906 43.19269h2.612538v11.775491c-2.612538 37.948545-6.54088 87.682115-14.397563 113.855169-6.550415 31.407665-58.896523 154.416251-160.966666 151.813248-17.019636 0-32.713934-5.234611-47.111497-9.162953-52.355643-17.019636-81.141235-66.743671-102.079678-132.181074-9.162953-28.795127-14.397563-61.509061-14.397564-99.457605 0-6.54088 0-17.010101-2.612538-23.560516 6.550415 6.550415 13.091294 6.550415 18.325906 6.550415z m0 0" fill="#5D5D5D" p-id="96003"></path><path d="M683.14877 260.757989c0-14.388029 0-6.550415-2.603003-20.938443-2.612538-6.550415-2.612538-11.775491-9.162953-14.397563-6.550415-5.234611-14.397563-9.153418-20.938443-11.775491-18.325905-9.162953-37.948545-17.019636-58.896522-18.325905-44.489424-9.153418-90.304187-11.775491-134.793612-9.153418-18.325905 0-37.958079 2.612538-56.27445 5.234611-31.407665 5.225076-61.509061 11.775491-90.304188 28.785592-9.162953 2.612538-17.010101 6.54088-18.325905 18.325905-6.54088 28.795127-6.54088 54.968181-6.54088 82.447504v2.612538c17.010101-6.550415 35.336007-11.775491 54.968181-14.397563 11.775491-2.622073 26.173054-5.234611 40.561083-5.234611 9.162953-2.612538 47.111497-5.234611 82.447504-5.234611 32.723469 0 66.753206 0 102.089213 2.622073 23.550981 2.612538 49.724035 5.225076 73.284551 9.153418 5.234611 0 11.775491 2.612538 17.010101 5.23461l32.723469 9.162953c-2.622073-17.010101-2.622073-49.724035-5.244146-64.121599z m132.181074 564.050768c-52.346108-32.713934-177.986302-78.509627-180.59884-78.509627 0 0-31.407665 64.131133-43.183155 90.304187-9.162953 17.000567-23.560516 18.31637-32.713934 2.612538-9.162953-14.407098-32.723469-47.111497-35.336007-52.355643-6.550415-9.153418-14.407098-11.765956-23.560516-2.612538-2.612538 2.612538-11.775491 11.775491-17.019636 11.775491-5.234611 0-14.397563-9.162953-17.010101-11.775491-9.153418-9.153418-14.397563-9.153418-23.560516 2.612538-9.153418 11.775491-23.560516 35.336007-32.723469 44.498959-18.31637 23.560516-35.326472 18.325905-44.489425 0-11.785025-31.407665-35.336007-87.682115-35.336006-87.682114-2.622073 0-128.252732 44.498959-180.59884 78.519162-119.089779 73.294086-116.477241 201.546818-116.477242 201.546818h906.941612c3.918807 5.225076 18.31637-104.711286-124.333925-198.93428z m0 0" fill="#5D5D5D" p-id="96004"></path><path d="M702.780944 293.471923c-2.612538 0-5.234611 0-6.550414-2.612538-5.234611-2.622073-6.550415-6.550415-6.550415-14.397563v-9.153418c0-9.162953 0-18.31637-2.612538-31.407665-2.612538-9.162953-5.234611-14.388029-11.765956-18.325905-6.550415-5.225076-17.019636-11.775491-20.947978-14.388029-18.31637-9.162953-37.93901-17.010101-58.886987-20.938443-32.723469-6.550415-69.356209-9.162953-106.00802-9.162952-9.162953 0-69.356209 2.612538-85.069577 5.23461-37.948545 5.234611-66.743671 14.397563-92.916725 28.795127-11.785025 6.550415-18.325905 11.785025-23.560516 26.173054-2.612538 11.775491-5.234611 26.173054-5.234611 43.183156 0 5.234611-2.612538 9.162953-6.54088 14.397563a19.441478 19.441478 0 0 1-17.010101 0s-104.701751-58.896523-120.396049-70.672013c-11.785025 0-14.397563-5.234611-14.397563-9.153418 0-5.234611 2.612538-11.785025 6.550414-14.397563 2.612538-2.612538 5.234611-2.612538 6.54088-5.225076 5.234611-2.622073 9.153418-6.550415 14.397564-9.162953 20.938443-11.785025 44.498959-23.560516 66.743671-37.958079 81.141235-44.498959 160.966666-92.916725 243.41417-137.415685 17.019636-9.162953 31.407665-9.162953 44.498959 0a31835.015008 31835.015008 0 0 0 215.925312 123.018121c32.723469 18.31637 64.131133 37.948545 96.845067 56.27445 5.234611 2.612538 9.153418 5.234611 14.397564 9.153418l2.612537 2.612538c5.234611 2.622073 6.550415 6.550415 6.550415 11.785025 0 5.234611-2.612538 9.162953-6.550415 11.775491-37.948545 20.938443-123.018121 70.672013-123.018121 70.672013-6.531345 1.296734-9.143883 1.296734-10.459687 1.296734z m0 0" fill="#5D5D5D" p-id="96005"></path></svg>