<?xml version="1.0" standalone="no"?><!DOCTYPE svg PUBLIC "-//W3C//DTD SVG 1.1//EN" "http://www.w3.org/Graphics/SVG/1.1/DTD/svg11.dtd"><svg t="1743308107082" class="icon" viewBox="0 0 1024 1024" version="1.1" xmlns="http://www.w3.org/2000/svg" p-id="95265" xmlns:xlink="http://www.w3.org/1999/xlink" width="200" height="200"><path d="M240.479552 483.098469s-17.594078 17.547533-38.469591 17.547533c-20.85224 0-38.446318-17.547533-38.446318-17.547533 0-63.464352 19.223159-139.682084 26.135118-165.468113a21.969325 21.969325 0 0 1-10.170121-18.664617 22.341686 22.341686 0 0 1 16.872627-21.527146v-42.123387l11.240661 6.632688v35.490699a22.364959 22.364959 0 0 1 16.872628 21.527146 22.10896 22.10896 0 0 1-10.356303 18.641344c4.538155 16.523539 14.149735 53.782955 20.316971 95.231437 3.653797 23.109682 6.004328 47.476083 6.004328 70.283222z m500.709769-14.266098c0.744723 8.680676 0.884358 17.663896 0 26.298027-2.862529 24.994761-10.891572 48.383714-26.647116 68.514504-4.026158 5.282878-9.07631 10.146849-16.058086 10.751937-3.1418 0.139636-7.144685-2.234169-9.983941-1.768717-3.560706 0.581815-3.560706 3.677069-5.189788 7.051594-3.723614 7.912681-11.101025 26.763478-33.512529 56.366213-24.250039 32.465263-55.830943 60.625096-95.78998 71.726121-37.515415 10.402848-77.82354 6.097419-114.035689-7.144685-52.758961-19.316249-80.755886-65.395977-98.349965-102.678666-1.88508-4.049431-10.868299-24.6224-15.197001-25.599848-12.474108 4.538155-19.316249 2.792711-27.95038-8.26177-15.63918-20.293698-23.644951-43.519743-26.484207-68.654139a140.473352 140.473352 0 0 1-0.162908-26.344572c1.186902-13.242104 9.215946-27.22893 26.623842-27.042749 0.884358 0 1.791989-0.465452 3.258163-0.884359-1.326538-15.429727-2.815983-31.022362-3.560706-46.475362-1.047267-19.083524-2.815983-38.376501-3.258163-57.320388l13.823918-5.143242c14.894457-5.585422 53.713137-13.963554 53.713138-13.963554 0.418907-0.116363 9.471944-2.001443 13.521374-2.676348 13.381739-2.001443 64.302165-7.284321 117.433488-6.935232 66.955241 0.465452 138.099548 7.00505 149.456571 8.727221 0 0 21.736599 3.23489 23.668224 4.119249l51.03679 13.242103c-0.605087 8.378132-1.629081 16.756265-2.234169 25.134397-1.210175 19.851519-2.676348 39.703038-3.723614 59.694193-0.302544 6.167236-1.512718 17.640623-1.512719 17.640623l1.34981 3.677069c1.489446 0.465452 2.373804 0.884358 3.258163 0.884359 17.291534-0.139636 25.436941 13.823918 26.50748 27.066021z m-60.020009-53.433866l0.581815-11.194115-2.559985-1.047267c-28.625285-11.333751-48.569895-24.436219-63.697078-42.076842-28.695103 22.690775-62.649812 38.376501-106.076465 48.988801-14.452278 3.514161-28.695103 6.120691-40.773577 8.191952-34.629614 5.911238-72.70357 8.750494-116.409494 8.750494-6.46978 0-12.962832-0.069818-20.479879-12.916288 0.837813 7.656682 1.326538 15.383182 1.512719 23.505316 0 38.632499 4.770881 71.819212 14.591913 101.608127 22.458049 68.328324 51.665149 116.991309 104.773199 134.515569a142.032615 142.032615 0 0 0 48.639713 10.007213c105.611012 2.746166 158.672517-122.250914 165.88702-153.599092 6.004328-26.065301 12.055201-76.683183 14.010099-114.733868z m31.045635-166.980831c0.72145 14.405733 0.884358 46.73136 1.163629 61.160366v0.279271l-33.908163-8.843584c-5.352696-2.187623-11.124298-3.071982-16.942446-3.956341-24.994761-3.653797-50.268794-8.075589-75.566099-9.402126-34.373615-1.908352-68.863593-1.186902-103.400116-1.489446-37.189598-0.116363-73.913745 1.489446-84.805317 4.724336a193.11595 193.11595 0 0 0-42.076842 5.585422c-19.199887 3.374526-38.981588 8.238497-56.831664 14.847912-0.139636-0.884358-0.139636-1.745444-0.139636-2.629803 0.884358-29.719097 0.442179-55.365491 7.586864-84.4795 3.118527-12.334473 10.845027-16.17445 21.550419-22.178778 28.858011-16.058087 60.39237-23.831132 92.671452-28.532196 19.199887-2.792711 38.399773-4.119248 57.716023-4.863971 46.149545-1.745444 92.11291 0.465452 137.773731 9.727943 21.131511 4.398519 41.052848 10.705391 60.089827 20.270425 7.7265 3.700342 14.731549 8.378132 21.876234 13.102468 6.074146 3.816705 8.029043 8.517768 9.79776 15.592636 3.723614 13.381739 2.559985 6.795596 3.304708 20.479879 0 0.162908 0.139636 0.302544 0.139636 0.605087z m147.175857-53.876045c-40.16849 22.807138-126.137436 71.912302-126.137436 71.912302s-0.325816-7.517046-0.325817-10.146849c-0.162908-10.449393-0.302544-22.364959-3.583978-34.559796-2.676348-10.007214-6.818869-20.456606-19.31625-28.532195 0 0-16.523539-10.705391-24.110403-14.429006-19.781701-9.70467-41.355392-16.8959-65.60543-22.039142-35.537245-7.19123-72.750116-10.705391-113.663329-10.705391-9.821033 0-71.842485 3.071982-89.390017 5.585421-41.076121 6.050873-72.913024 15.895179-101.305583 31.767085-11.636295 6.306872-26.181663 14.429006-31.417996 35.723425-3.397798 13.544647-5.189788 29.719097-6.097419 46.172818L153.602975 194.122722c8.331587-5.143242 14.429006-9.122855 20.689332-12.660289C279.903319 122.652599 385.67724 64.005673 491.032254 4.730387c11.426842-6.330144 19.921337-6.330144 31.37145 0.139635C629.527435 65.169302 737.070072 124.747132 844.333439 184.557688c4.654518 2.490167 8.98322 5.725057 15.057365 10.007213z m-13.03265 625.334486c145.616594 95.301255 130.675591 205.915874 130.652319 204.100612H46.572334s-3.258163-128.581058 117.99203-204.100612c53.294231-35.001975 182.806193-79.592257 185.086907-80.104254 0.53527 0.861086 22.900228 58.344383 36.002696 88.59875 8.378132 19.362795 26.181663 23.551861 44.916098 0 8.843584-11.496659 25.483486-34.792522 34.23398-46.731361 8.773766-11.938839 14.941003-11.124298 23.90095-2.094533 1.396355 1.396355 12.916287 11.706113 16.756264 11.775931 3.816705-0.069818 15.336637-10.379575 16.70972-11.775931 8.959947-9.029765 16.523539-8.308315 23.924222 2.094533 2.60653 3.839977 26.530752 38.423046 35.839788 51.967693 11.263933 15.988269 26.367844 14.778094 35.001975-2.932346 12.660289-26.088573 43.775741-90.04165 44.311011-90.902736 2.280714 0.511997 131.629768 45.311732 185.110179 80.104254z" fill="#FF8F2A" p-id="95266"></path></svg>