<?xml version="1.0" encoding="utf-8"?>
<svg version="1.1" xmlns:xlink="http://www.w3.org/1999/xlink" width="12px" height="10px" xmlns="http://www.w3.org/2000/svg">
  <g transform="matrix(1 0 0 1 -697 -2002 )">
    <path d="M 11.8515625 8.1484375  C 11.950520833333332 8.247395833333334  12 8.364583333333334  12 8.5  L 12 9.5  C 12 9.635416666666666  11.950520833333332 9.752604166666666  11.8515625 9.8515625  C 11.752604166666668 9.950520833333334  11.635416666666668 10  11.5 10  L 0.5 10  C 0.36458333333333337 10  0.24739583333333331 9.950520833333334  0.1484375 9.8515625  C 0.04947916666666667 9.752604166666666  0 9.635416666666666  0 9.5  L 0 8.5  C 0 8.364583333333334  0.04947916666666667 8.247395833333334  0.1484375 8.1484375  C 0.24739583333333331 8.049479166666666  0.36458333333333337 8  0.5 8  L 11.5 8  C 11.635416666666668 8  11.752604166666668 8.049479166666666  11.8515625 8.1484375  Z M 11.8515625 4.1484375  C 11.950520833333332 4.247395833333333  12 4.364583333333333  12 4.5  L 12 5.5  C 12 5.635416666666666  11.950520833333332 5.752604166666666  11.8515625 5.8515625  C 11.752604166666668 5.950520833333332  11.635416666666668 6  11.5 6  L 0.5 6  C 0.36458333333333337 6  0.24739583333333331 5.950520833333332  0.1484375 5.8515625  C 0.04947916666666667 5.752604166666666  0 5.635416666666666  0 5.5  L 0 4.5  C 0 4.364583333333333  0.04947916666666667 4.247395833333333  0.1484375 4.1484375  C 0.24739583333333331 4.049479166666668  0.36458333333333337 4  0.5 4  L 11.5 4  C 11.635416666666668 4  11.752604166666668 4.049479166666668  11.8515625 4.1484375  Z M 11.8515625 0.14843750000000044  C 11.950520833333332 0.2473958333333326  12 0.3645833333333326  12 0.5000000000000004  L 12 1.5000000000000002  C 12 1.6354166666666659  11.950520833333332 1.7526041666666659  11.8515625 1.8515625000000002  C 11.752604166666668 1.9505208333333324  11.635416666666668 1.9999999999999996  11.5 2  L 0.5 2  C 0.36458333333333337 1.9999999999999996  0.24739583333333331 1.9505208333333324  0.1484375 1.8515625000000002  C 0.04947916666666667 1.7526041666666659  0 1.6354166666666659  0 1.5000000000000002  L 0 0.5000000000000004  C 0 0.3645833333333326  0.04947916666666667 0.2473958333333326  0.1484375 0.14843750000000044  C 0.24739583333333331 0.049479166666666075  0.36458333333333337 0  0.5 0  L 11.5 0  C 11.635416666666668 0  11.752604166666668 0.049479166666666075  11.8515625 0.14843750000000044  Z " fill-rule="nonzero" fill="#aaaaaa" stroke="none" transform="matrix(1 0 0 1 697 2002 )" />
  </g>
</svg>