<?xml version="1.0" standalone="no"?><!DOCTYPE svg PUBLIC "-//W3C//DTD SVG 1.1//EN" "http://www.w3.org/Graphics/SVG/1.1/DTD/svg11.dtd"><svg height="1019" node-id="1" sillyvg="true" template-height="1019" template-width="981" version="1.1" viewBox="0 0 981 1019" width="981" xmlns="http://www.w3.org/2000/svg" xmlns:xlink="http://www.w3.org/1999/xlink"><defs node-id="36"></defs><g node-id="92"><path d="M 968.20 528.70 L 968.00 543.90 L 967.30 559.00 L 966.10 574.10 L 964.40 589.00 L 962.30 603.90 L 959.70 618.70 L 956.60 633.30 L 953.10 647.90 L 949.20 662.30 L 944.80 676.50 L 939.90 690.70 L 934.70 704.60 L 929.00 718.40 L 922.80 732.00 L 916.20 745.40 L 909.30 758.60 L 901.90 771.60 L 894.10 784.30 L 885.90 796.90 L 877.20 809.20 L 868.20 821.20 L 858.80 832.90 L 849.10 844.40 L 838.90 855.60 L 828.30 866.60 L 817.30 877.10 L 806.10 887.30 L 794.60 897.10 L 782.90 906.50 L 770.90 915.50 L 758.60 924.20 L 746.00 932.40 L 733.30 940.20 L 720.30 947.60 L 707.10 954.50 L 693.70 961.10 L 680.10 967.20 L 666.30 972.90 L 652.40 978.20 L 638.30 983.10 L 624.00 987.50 L 609.60 991.40 L 595.10 994.90 L 580.40 998.00 L 565.60 1000.60 L 550.70 1002.70 L 535.80 1004.40 L 520.70 1005.50 L 505.60 1006.30 L 490.40 1006.50 L 475.10 1006.30 L 460.00 1005.50 L 445.00 1004.40 L 430.00 1002.70 L 415.20 1000.60 L 400.40 998.00 L 385.70 994.90 L 371.20 991.40 L 356.80 987.50 L 342.50 983.10 L 328.40 978.20 L 314.40 972.90 L 300.70 967.20 L 287.10 961.10 L 273.60 954.50 L 260.40 947.60 L 247.50 940.20 L 234.70 932.40 L 222.20 924.20 L 209.90 915.50 L 197.90 906.50 L 186.10 897.10 L 174.60 887.30 L 163.40 877.10 L 152.50 866.60 L 141.90 855.60 L 131.70 844.40 L 121.90 832.90 L 112.50 821.20 L 103.50 809.20 L 94.90 796.90 L 86.70 784.30 L 78.90 771.60 L 71.50 758.60 L 64.50 745.40 L 57.90 732.00 L 51.80 718.40 L 46.10 704.60 L 40.80 690.70 L 36.00 676.50 L 31.60 662.30 L 27.60 647.90 L 24.10 633.30 L 21.10 618.70 L 18.50 603.90 L 16.40 589.00 L 14.70 574.10 L 13.50 559.00 L 12.80 543.90 L 12.50 528.70 L 12.80 513.40 L 13.50 498.30 L 14.70 483.30 L 16.40 468.30 L 18.50 453.50 L 21.10 438.60 L 24.10 424.00 L 27.60 409.50 L 31.60 395.10 L 36.00 380.80 L 40.80 366.60 L 46.10 352.70 L 51.80 338.90 L 57.90 325.30 L 64.50 311.90 L 71.50 298.70 L 78.90 285.70 L 86.70 273.00 L 94.90 260.50 L 103.50 248.20 L 112.50 236.10 L 121.90 224.40 L 131.70 212.90 L 141.90 201.70 L 152.50 190.80 L 163.40 180.20 L 174.60 170.00 L 186.10 160.20 L 197.90 150.80 L 209.90 141.80 L 222.20 133.20 L 234.70 125.00 L 247.50 117.20 L 260.40 109.80 L 273.60 102.80 L 287.10 96.20 L 300.70 90.10 L 314.40 84.40 L 328.40 79.10 L 342.50 74.30 L 356.80 69.90 L 371.20 65.90 L 385.70 62.40 L 400.40 59.40 L 415.20 56.80 L 430.00 54.60 L 445.00 53.00 L 460.00 51.80 L 475.10 51.10 L 490.40 50.80 L 505.60 51.10 L 520.70 51.80 L 535.80 53.00 L 550.70 54.60 L 565.60 56.80 L 580.40 59.40 L 595.10 62.40 L 609.60 65.90 L 624.00 69.90 L 638.30 74.30 L 652.40 79.10 L 666.30 84.40 L 680.10 90.10 L 693.70 96.20 L 707.10 102.80 L 720.30 109.80 L 733.30 117.20 L 746.00 125.00 L 758.60 133.20 L 770.90 141.80 L 782.90 150.80 L 794.60 160.20 L 806.10 170.00 L 817.30 180.20 L 828.30 190.80 L 838.90 201.70 L 849.10 212.90 L 858.80 224.40 L 868.20 236.10 L 877.20 248.20 L 885.90 260.50 L 894.10 273.00 L 901.90 285.70 L 909.30 298.70 L 916.30 311.90 L 922.80 325.30 L 929.00 338.90 L 934.70 352.70 L 939.90 366.60 L 944.80 380.80 L 949.20 395.10 L 953.10 409.50 L 956.60 424.00 L 959.70 438.60 L 962.30 453.50 L 964.40 468.30 L 966.10 483.30 L 967.30 498.30 L 968.00 513.40 L 968.20 528.70 Z" fill="#8bbee6" fill-rule="nonzero" group-id="1" node-id="40" stroke="#ffffff" stroke-linecap="butt" stroke-width="24.42" target-height="955.7" target-width="955.7" target-x="12.5" target-y="50.8"></path><path d="M 490.40 1019.00 L 472.80 1018.70 L 455.50 1017.70 L 438.40 1016.20 L 421.40 1014.10 L 404.70 1011.40 L 388.00 1008.10 L 371.50 1004.30 L 355.30 1000.00 L 339.20 995.10 L 323.50 989.60 L 307.80 983.60 L 292.50 977.20 L 277.40 970.20 L 262.60 962.70 L 248.10 954.80 L 233.90 946.30 L 219.90 937.50 L 206.40 928.10 L 193.10 918.30 L 180.10 908.10 L 167.50 897.40 L 155.30 886.30 L 143.50 874.90 L 132.00 863.00 L 120.90 850.70 L 110.20 838.00 L 100.00 825.00 L 90.20 811.60 L 80.80 797.80 L 71.80 783.70 L 63.40 769.30 L 55.40 754.60 L 47.90 739.50 L 40.90 724.10 L 34.40 708.40 L 28.50 692.50 L 23.10 676.30 L 18.20 659.80 L 13.80 643.00 L 10.10 625.90 L 6.90 608.60 L 4.30 591.50 L 2.40 574.40 L 1.10 557.40 L 0.40 540.40 L 0.30 523.40 L 0.70 506.50 L 1.80 489.70 L 3.40 473.00 L 5.50 456.50 L 8.30 440.00 L 11.60 423.60 L 15.40 407.50 L 19.80 391.50 L 24.70 375.70 L 30.10 360.00 L 36.00 344.60 L 42.50 329.40 L 49.40 314.50 L 56.90 299.70 L 64.80 285.30 L 73.20 271.10 L 82.10 257.20 L 91.50 243.60 L 101.30 230.30 L 111.60 217.30 L 122.30 204.60 L 133.50 192.40 L 145.10 180.40 L 157.20 168.80 L 169.60 157.70 L 182.40 146.90 L 195.70 136.60 L 209.40 126.70 L 223.50 117.10 L 237.90 108.20 L 252.70 99.60 L 267.90 91.60 L 283.50 84.00 L 299.50 76.80 L 315.80 70.30 L 332.20 64.40 L 348.70 59.10 L 365.20 54.40 L 381.90 50.30 L 398.80 46.80 L 415.60 43.90 L 432.50 41.60 L 449.40 39.90 L 466.40 38.70 L 483.40 38.20 L 500.30 38.30 L 517.30 38.90 L 534.10 40.10 L 551.00 41.90 L 567.80 44.30 L 584.40 47.30 L 601.00 50.80 L 617.40 54.90 L 633.80 59.60 L 650.00 64.80 L 666.00 70.60 L 681.80 77.00 L 697.40 84.00 L 712.90 91.50 L 728.00 99.60 L 742.90 108.20 L 757.60 117.30 L 772.00 127.10 L 786.20 137.40 L 800.10 148.30 L 813.40 159.50 L 826.20 171.10 L 838.50 183.10 L 850.40 195.50 L 861.90 208.40 L 872.80 221.50 L 883.30 235.00 L 893.20 248.80 L 902.70 262.90 L 911.60 277.40 L 920.10 292.10 L 928.00 307.10 L 935.40 322.30 L 942.20 337.80 L 948.50 353.50 L 954.30 369.40 L 959.50 385.50 L 964.20 401.80 L 968.30 418.30 L 971.90 435.00 L 974.80 451.70 L 977.20 468.60 L 979.00 485.60 L 980.20 502.80 L 980.80 519.90 L 980.80 537.10 L 980.20 554.40 L 979.00 571.80 L 977.10 589.30 L 974.60 606.70 L 971.60 623.80 L 967.90 640.70 L 963.70 657.40 L 958.90 673.90 L 953.50 690.20 L 947.60 706.30 L 941.20 722.10 L 934.20 737.60 L 926.70 752.80 L 918.60 767.80 L 910.10 782.50 L 901.10 796.80 L 891.60 810.80 L 881.60 824.50 L 871.20 837.90 L 860.30 850.80 L 848.90 863.40 L 837.10 875.60 L 824.90 887.40 L 812.30 898.80 L 799.30 909.70 L 785.80 920.20 L 772.00 930.30 L 757.70 939.90 L 743.20 949.00 L 728.30 957.60 L 713.00 965.70 L 697.30 973.40 L 681.30 980.50 L 666.00 986.60 L 650.70 992.20 L 635.20 997.30 L 619.50 1001.90 L 603.70 1005.90 L 587.80 1009.40 L 571.70 1012.30 L 555.60 1014.80 L 539.40 1016.60 L 523.10 1018.00 L 506.80 1018.80 L 490.40 1019.00 Z M 490.40 63.30 L 473.70 63.60 L 457.30 64.50 L 441.00 65.90 L 425.00 67.90 L 409.10 70.50 L 393.20 73.60 L 377.50 77.20 L 362.10 81.30 L 346.90 86.00 L 332.00 91.10 L 317.10 96.80 L 302.60 103.00 L 288.30 109.60 L 274.20 116.60 L 260.50 124.20 L 246.90 132.20 L 233.70 140.70 L 220.80 149.50 L 208.20 158.80 L 195.90 168.50 L 184.00 178.70 L 172.40 189.20 L 161.10 200.10 L 150.20 211.30 L 139.70 223.00 L 129.60 235.00 L 119.90 247.40 L 110.60 260.10 L 101.70 273.10 L 93.20 286.60 L 85.10 300.20 L 77.60 314.20 L 70.50 328.50 L 63.80 343.10 L 57.60 358.00 L 52.00 373.10 L 46.90 388.50 L 42.20 404.10 L 38.10 420.10 L 34.50 436.30 L 31.50 452.70 L 29.10 469.00 L 27.30 485.20 L 26.00 501.40 L 25.30 517.50 L 25.20 533.60 L 25.70 549.70 L 26.60 565.60 L 28.20 581.40 L 30.20 597.10 L 32.80 612.80 L 36.00 628.30 L 39.60 643.60 L 43.70 658.80 L 48.40 673.80 L 53.60 688.60 L 59.20 703.30 L 65.30 717.70 L 71.90 731.90 L 79.00 745.90 L 86.50 759.60 L 94.50 773.10 L 102.90 786.20 L 111.80 799.20 L 121.20 811.80 L 130.90 824.10 L 141.10 836.10 L 151.70 847.80 L 162.70 859.10 L 174.20 870.10 L 186.00 880.70 L 198.10 890.90 L 210.70 900.70 L 223.70 910.10 L 237.10 919.10 L 250.80 927.70 L 264.80 935.80 L 279.20 943.40 L 294.00 950.60 L 309.30 957.40 L 324.70 963.40 L 340.20 968.90 L 355.80 973.70 L 371.40 978.00 L 387.20 981.80 L 403.10 985.00 L 419.10 987.60 L 435.00 989.60 L 451.00 991.10 L 467.00 992.10 L 483.10 992.50 L 499.10 992.30 L 515.00 991.60 L 530.90 990.40 L 546.80 988.60 L 562.70 986.20 L 578.40 983.40 L 594.00 979.90 L 609.50 976.00 L 624.90 971.50 L 640.10 966.50 L 655.20 960.90 L 670.10 954.80 L 684.80 948.20 L 699.40 941.00 L 713.60 933.40 L 727.70 925.20 L 741.50 916.50 L 755.10 907.20 L 768.40 897.50 L 781.40 887.20 L 794.00 876.50 L 806.00 865.60 L 817.70 854.20 L 828.80 842.50 L 839.60 830.40 L 849.90 817.90 L 859.80 805.20 L 869.20 792.20 L 878.10 778.80 L 886.50 765.20 L 894.50 751.30 L 901.90 737.20 L 908.90 722.80 L 915.30 708.20 L 921.30 693.30 L 926.80 678.30 L 931.70 663.10 L 936.10 647.70 L 940.00 632.20 L 943.40 616.50 L 946.20 600.70 L 948.50 584.80 L 950.20 568.70 L 951.30 552.50 L 952.00 536.30 L 952.00 520.10 L 951.50 503.80 L 950.30 487.40 L 948.60 470.90 L 946.30 454.50 L 943.50 438.30 L 940.10 422.30 L 936.20 406.60 L 931.70 391.00 L 926.70 375.50 L 921.20 360.40 L 915.20 345.50 L 908.60 330.80 L 901.60 316.40 L 894.10 302.20 L 886.10 288.30 L 877.70 274.70 L 868.80 261.50 L 859.50 248.50 L 849.70 235.80 L 839.50 223.50 L 828.90 211.60 L 817.80 200.00 L 806.30 188.80 L 794.50 178.00 L 782.30 167.60 L 769.70 157.60 L 756.70 148.00 L 743.30 138.80 L 729.70 130.10 L 715.70 121.90 L 701.30 114.10 L 686.60 106.80 L 671.50 99.90 L 657.10 94.10 L 642.50 88.80 L 627.80 83.90 L 612.90 79.60 L 597.90 75.80 L 582.80 72.50 L 567.60 69.70 L 552.30 67.40 L 536.90 65.60 L 521.40 64.30 L 505.90 63.60 L 490.40 63.30 Z" fill="#ffffff" fill-rule="nonzero" group-id="1" node-id="42" stroke="none" target-height="980.8" target-width="980.5" target-x="0.3" target-y="38.2"></path><path d="M 438.80 632.00 L 436.70 673.40 L 502.10 717.60 L 543.90 703.90 L 547.80 620.10 L 438.80 632.00 Z" fill="#e5afa1" fill-rule="nonzero" group-id="1" node-id="44" stroke="none" target-height="97.5" target-width="111.099976" target-x="436.7" target-y="620.1"></path><path d="M 732.10 389.70 L 738.60 389.60 L 743.30 389.80 L 748.30 390.40 L 757.80 392.60 L 765.10 395.70 L 768.50 397.80 L 771.60 400.30 L 774.30 403.30 L 776.10 405.80 L 777.50 408.60 L 778.70 411.80 L 779.50 415.40 L 779.90 419.00 L 779.90 423.10 L 779.40 427.70 L 777.40 436.50 L 774.40 445.90 L 769.50 459.60 L 762.60 475.70 L 758.40 484.20 L 750.20 498.40 L 742.60 509.00 L 738.50 514.10 L 734.10 518.60 L 729.50 522.80 L 724.70 526.60 L 719.60 529.80 L 714.30 532.50 L 708.00 533.70 L 703.00 534.10 L 697.50 534.10 L 690.70 533.50 L 689.90 533.10 L 689.30 532.40 L 688.80 531.10 L 688.50 529.00 L 688.60 526.20 L 689.70 517.80 L 691.30 510.50 L 696.20 492.30 L 706.20 460.80 L 713.50 439.70 L 732.10 389.70 Z" fill="#e5afa1" fill-rule="nonzero" group-id="1" node-id="46" stroke="none" target-height="144.49997" target-width="91.400024" target-x="688.5" target-y="389.6"></path><path d="M 238.00 372.00 L 231.50 371.90 L 226.80 372.20 L 221.70 372.70 L 212.30 374.90 L 205.00 378.00 L 201.60 380.10 L 198.50 382.60 L 195.70 385.60 L 194.00 388.10 L 192.50 390.90 L 191.40 394.10 L 190.60 397.70 L 190.20 401.30 L 190.20 405.40 L 190.70 410.00 L 192.70 418.80 L 195.60 428.30 L 200.50 441.90 L 207.50 458.10 L 211.70 466.50 L 219.90 480.70 L 227.40 491.40 L 231.60 496.40 L 236.00 501.00 L 240.50 505.20 L 245.40 509.00 L 250.40 512.20 L 255.70 514.80 L 262.10 516.00 L 267.10 516.40 L 272.60 516.40 L 279.40 515.80 L 280.20 515.50 L 280.80 514.70 L 281.50 511.30 L 281.50 508.50 L 280.30 500.10 L 278.80 492.80 L 273.90 474.60 L 263.80 443.20 L 256.50 422.00 L 238.00 372.00 Z" fill="#e5afa1" fill-rule="nonzero" group-id="1" node-id="48" stroke="none" target-height="144.50003" target-width="91.3" target-x="190.2" target-y="371.9"></path><path d="M 233.80 341.80 L 237.80 373.40 L 242.40 400.30 L 249.30 432.30 L 253.70 449.90 L 260.50 473.60 L 268.80 498.00 L 278.40 522.10 L 283.80 534.00 L 289.60 545.50 L 295.70 556.70 L 300.70 564.90 L 311.20 580.40 L 316.80 587.70 L 322.80 594.80 L 328.90 601.40 L 335.40 607.50 L 342.00 613.20 L 349.00 618.60 L 356.30 623.30 L 363.80 627.60 L 381.20 635.50 L 397.30 641.60 L 407.80 645.10 L 419.00 648.30 L 431.60 651.30 L 449.20 654.40 L 458.50 655.50 L 467.80 656.10 L 477.30 656.30 L 491.80 655.60 L 505.30 654.30 L 525.30 651.60 L 549.70 646.90 L 562.80 643.70 L 576.40 639.80 L 594.50 633.60 L 603.50 629.90 L 612.20 625.80 L 620.60 621.40 L 628.70 616.50 L 636.80 610.50 L 647.70 600.70 L 658.80 588.90 L 664.50 582.10 L 677.60 564.60 L 684.00 554.90 L 690.70 543.70 L 697.70 531.00 L 702.60 521.40 L 712.40 499.50 L 717.50 487.10 L 722.00 474.80 L 726.40 461.60 L 730.80 447.20 L 735.10 431.80 L 738.80 416.60 L 742.40 400.30 L 745.70 382.80 L 748.80 364.10 L 740.80 347.80 L 731.10 331.00 L 725.10 321.60 L 717.90 311.60 L 712.80 305.00 L 701.40 291.90 L 695.10 285.70 L 688.60 279.80 L 681.70 274.30 L 670.70 267.10 L 659.00 261.30 L 652.90 259.00 L 646.70 257.20 L 640.20 255.90 L 633.60 255.10 L 633.10 258.00 L 630.90 261.90 L 626.70 265.70 L 620.50 269.40 L 610.90 273.40 L 604.70 275.30 L 589.10 278.90 L 579.50 280.40 L 556.60 282.90 L 527.10 284.40 L 478.80 280.00 L 435.90 280.00 L 404.80 286.60 L 388.70 274.00 L 376.30 265.40 L 369.70 261.40 L 363.00 257.70 L 356.70 254.80 L 352.40 253.30 L 348.60 252.30 L 345.20 251.80 L 342.60 251.80 L 340.40 252.20 L 338.50 253.00 L 336.80 254.10 L 335.50 255.50 L 334.40 257.50 L 333.60 260.10 L 333.20 263.60 L 321.20 265.70 L 316.00 266.30 L 312.70 266.10 L 312.40 265.50 L 313.10 264.80 L 318.50 261.90 L 293.50 282.20 L 278.20 295.50 L 262.20 310.40 L 246.80 326.20 L 239.80 334.20 L 233.80 341.80 Z" fill="#f4d5c1" fill-rule="nonzero" group-id="1" node-id="50" stroke="none" target-height="404.5" target-width="515" target-x="233.8" target-y="251.8"></path><path d="M 410.40 454.90 L 410.20 457.30 L 409.50 459.60 L 408.40 461.80 L 406.90 463.90 L 404.40 466.40 L 401.40 468.50 L 397.60 470.40 L 393.70 471.70 L 389.30 472.50 L 384.60 472.80 L 379.80 472.50 L 375.50 471.70 L 371.50 470.40 L 367.80 468.50 L 364.70 466.40 L 362.30 463.90 L 360.70 461.80 L 359.60 459.60 L 359.00 457.30 L 358.70 454.90 L 359.00 452.50 L 359.60 450.20 L 360.70 448.00 L 362.30 445.90 L 364.70 443.40 L 367.80 441.30 L 371.50 439.40 L 375.50 438.10 L 379.80 437.30 L 384.60 437.00 L 389.30 437.30 L 393.70 438.10 L 397.60 439.40 L 401.40 441.30 L 404.40 443.40 L 406.90 445.90 L 408.40 448.00 L 409.50 450.20 L 410.20 452.50 L 410.40 454.90 Z" fill="#1e2c3f" fill-rule="nonzero" group-id="1" node-id="52" stroke="none" target-height="35.799988" target-width="51.69998" target-x="358.7" target-y="437"></path><path d="M 536.00 575.30 L 535.20 579.80 L 532.80 584.20 L 530.50 586.80 L 527.50 589.30 L 523.70 591.70 L 519.60 593.70 L 515.10 595.30 L 510.10 596.70 L 499.70 598.30 L 494.10 598.50 L 488.50 598.30 L 483.20 597.70 L 478.10 596.70 L 473.10 595.30 L 468.60 593.70 L 464.50 591.70 L 460.70 589.30 L 457.70 586.80 L 455.40 584.20 L 453.00 579.80 L 452.20 575.30 L 453.00 570.90 L 455.40 566.50 L 457.70 563.90 L 460.70 561.40 L 464.50 559.00 L 468.60 557.00 L 473.10 555.30 L 478.10 554.00 L 488.50 552.40 L 494.10 552.20 L 499.70 552.40 L 505.00 553.00 L 510.10 554.00 L 515.10 555.30 L 519.60 557.00 L 523.70 559.00 L 527.50 561.40 L 530.50 563.90 L 532.80 566.50 L 535.20 570.90 L 536.00 575.30 Z" fill="#dc6965" fill-rule="nonzero" group-id="1" node-id="54" stroke="none" target-height="46.299988" target-width="83.79999" target-x="452.2" target-y="552.2"></path><path d="M 618.90 454.90 L 618.70 457.30 L 618.00 459.60 L 616.90 461.80 L 615.40 463.90 L 612.90 466.40 L 609.90 468.50 L 606.10 470.40 L 602.20 471.70 L 597.90 472.50 L 593.10 472.80 L 588.30 472.50 L 584.00 471.70 L 580.00 470.40 L 576.30 468.50 L 573.30 466.40 L 570.80 463.90 L 569.20 461.80 L 568.20 459.60 L 567.50 457.30 L 567.20 454.90 L 567.50 452.50 L 568.20 450.20 L 569.20 448.00 L 570.80 445.90 L 573.30 443.40 L 576.30 441.30 L 580.00 439.40 L 584.00 438.10 L 588.30 437.30 L 593.10 437.00 L 597.90 437.30 L 602.20 438.10 L 606.10 439.40 L 609.90 441.30 L 612.90 443.40 L 615.40 445.90 L 616.90 448.00 L 618.00 450.20 L 618.70 452.50 L 618.90 454.90 Z" fill="#1e2c3f" fill-rule="nonzero" group-id="1" node-id="56" stroke="none" target-height="35.799988" target-width="51.700012" target-x="567.2" target-y="437"></path><path d="M 766.40 201.80 L 758.30 211.00 L 751.40 218.10 L 743.40 225.70 L 732.90 234.80 L 725.40 240.80 L 707.30 253.90 L 697.40 260.20 L 686.60 266.60 L 674.60 272.90 L 656.00 281.60 L 635.10 289.50 L 624.30 292.90 L 613.10 296.00 L 601.20 298.70 L 588.80 301.10 L 576.40 302.90 L 563.50 304.20 L 550.00 305.00 L 535.90 305.20 L 525.70 304.90 L 508.40 303.50 L 497.00 301.90 L 484.90 299.90 L 471.10 296.90 L 461.90 294.60 L 441.70 288.50 L 431.60 284.80 L 421.10 280.50 L 410.40 275.70 L 399.90 270.30 L 389.40 264.30 L 378.80 257.60 L 371.20 252.20 L 363.60 246.30 L 356.10 240.00 L 348.70 233.30 L 341.70 226.20 L 334.80 218.60 L 328.20 210.50 L 321.70 201.80 L 315.70 193.00 L 310.10 183.40 L 304.70 173.30 L 299.50 162.40 L 293.30 157.30 L 283.50 148.10 L 277.50 141.60 L 269.60 131.90 L 261.50 120.10 L 257.70 113.60 L 254.00 106.50 L 250.70 99.30 L 247.80 91.50 L 245.20 83.20 L 253.50 78.00 L 260.70 74.10 L 268.90 70.20 L 279.80 65.70 L 296.20 60.00 L 306.20 57.20 L 316.30 54.80 L 327.50 52.60 L 349.00 49.70 L 369.20 48.40 L 380.30 48.20 L 390.20 41.40 L 399.00 36.30 L 413.20 29.20 L 422.70 25.10 L 432.30 21.40 L 443.50 17.60 L 466.00 11.20 L 487.80 6.60 L 500.20 4.60 L 512.40 3.00 L 525.40 1.70 L 539.50 0.70 L 554.60 0.20 L 569.30 0.10 L 585.00 0.50 L 601.80 1.40 L 619.60 2.90 L 617.30 31.60 L 683.60 48.20 L 678.70 72.80 L 730.40 107.30 L 708.80 119.10 L 720.20 130.90 L 725.50 136.80 L 737.90 152.10 L 744.40 161.10 L 750.70 170.60 L 756.60 180.60 L 760.30 187.60 L 766.40 201.80 Z" fill="#f3f8ff" fill-rule="nonzero" group-id="1" node-id="58" stroke="none" target-height="305.1" target-width="521.2" target-x="245.2" target-y="0.1"></path><path d="M 744.10 406.30 L 740.10 394.60 L 735.50 382.50 L 729.30 368.50 L 721.80 354.30 L 717.60 347.60 L 713.20 341.70 L 710.70 339.00 L 708.00 336.80 L 705.00 335.00 L 701.80 333.60 L 698.50 332.60 L 695.10 332.00 L 691.60 331.90 L 688.10 332.30 L 679.20 334.60 L 674.60 335.50 L 670.70 335.80 L 666.90 335.60 L 663.70 335.10 L 661.00 334.20 L 658.50 332.80 L 656.50 331.30 L 653.50 327.50 L 652.40 325.40 L 649.80 317.40 L 647.50 312.40 L 644.90 308.10 L 642.00 304.30 L 638.60 300.90 L 634.90 297.90 L 630.90 295.30 L 626.60 293.20 L 617.30 290.10 L 607.00 288.10 L 599.80 287.50 L 584.60 287.40 L 573.00 288.10 L 561.20 289.30 L 527.10 293.60 L 517.10 294.60 L 504.70 294.90 L 492.80 294.00 L 486.10 293.90 L 479.30 294.20 L 472.60 294.90 L 465.90 296.00 L 454.20 298.50 L 448.40 299.10 L 441.60 299.30 L 431.30 299.00 L 377.60 295.70 L 361.60 295.40 L 354.40 295.70 L 347.40 296.50 L 340.60 297.90 L 333.90 299.70 L 327.30 302.00 L 320.90 304.80 L 314.80 308.00 L 308.90 311.70 L 303.30 315.90 L 298.00 320.40 L 293.00 325.40 L 288.30 330.80 L 275.70 346.80 L 263.50 363.10 L 251.70 379.70 L 240.30 396.50 L 229.20 413.60 L 218.50 431.00 L 211.90 395.00 L 208.10 371.70 L 204.40 345.70 L 201.30 318.70 L 199.20 292.60 L 198.80 280.20 L 199.10 261.80 L 200.50 249.90 L 176.90 241.10 L 181.20 224.60 L 187.50 206.70 L 191.80 196.40 L 197.20 184.70 L 205.80 168.90 L 216.50 152.20 L 222.60 144.00 L 229.30 135.60 L 236.40 127.60 L 244.20 119.80 L 252.70 112.10 L 254.70 108.80 L 255.60 106.30 L 256.20 102.30 L 255.70 97.60 L 254.80 95.00 L 253.20 92.10 L 251.30 89.50 L 248.60 86.60 L 244.90 83.50 L 244.60 82.60 L 245.10 80.00 L 246.20 78.40 L 248.50 76.20 L 251.60 74.10 L 256.80 71.40 L 262.90 68.90 L 271.90 66.00 L 282.10 63.30 L 296.00 60.20 L 311.20 57.40 L 330.90 54.50 L 352.30 51.80 L 378.80 49.00 L 388.40 43.50 L 405.60 35.10 L 417.40 30.00 L 430.10 25.00 L 445.10 19.90 L 455.50 16.70 L 479.00 10.80 L 491.20 8.40 L 504.20 6.30 L 518.00 4.60 L 538.90 3.10 L 550.00 2.80 L 572.60 3.40 L 584.20 4.40 L 596.10 5.80 L 608.30 7.70 L 610.30 33.30 L 633.90 35.40 L 647.30 37.30 L 660.50 40.00 L 666.50 41.70 L 671.40 43.50 L 674.40 45.00 L 678.30 48.00 L 671.50 68.70 L 689.50 80.50 L 710.40 93.30 L 719.50 98.30 L 725.90 101.00 L 690.00 100.20 L 697.30 108.10 L 709.20 122.20 L 724.10 142.20 L 737.70 162.80 L 748.50 181.80 L 753.60 191.70 L 758.50 202.20 L 763.10 213.20 L 767.30 224.40 L 771.10 236.00 L 774.50 248.00 L 776.60 257.10 L 779.60 275.80 L 780.60 285.40 L 762.50 289.90 L 752.90 356.90 L 746.90 393.10 L 744.10 406.30 Z" fill="#f3f8ff" fill-rule="nonzero" group-id="1" node-id="60" stroke="none" target-height="428.2" target-width="603.69995" target-x="176.9" target-y="2.8"></path><path d="M 766.50 187.80 L 757.70 196.40 L 741.50 210.00 L 722.30 224.20 L 703.00 236.40 L 692.60 242.30 L 681.20 248.30 L 668.70 254.20 L 649.30 262.30 L 627.70 269.70 L 616.70 272.90 L 605.10 275.70 L 593.00 278.30 L 580.40 280.50 L 567.90 282.20 L 554.80 283.40 L 541.20 284.20 L 527.10 284.40 L 516.90 284.10 L 499.60 282.80 L 476.10 279.60 L 453.10 274.90 L 433.00 269.40 L 422.80 266.10 L 412.30 262.30 L 401.60 257.90 L 391.10 253.10 L 380.60 247.70 L 370.00 241.70 L 354.80 231.60 L 347.30 226.00 L 339.90 219.90 L 332.90 213.60 L 326.00 206.80 L 319.40 199.50 L 312.90 191.80 L 306.90 183.80 L 301.30 175.30 L 295.90 166.20 L 290.80 156.50 L 279.40 145.70 L 274.30 140.30 L 262.10 125.90 L 255.80 117.20 L 247.90 104.80 L 240.80 91.10 L 237.80 83.90 L 235.30 76.50 L 242.70 72.60 L 257.00 67.00 L 275.00 61.90 L 293.70 58.10 L 303.80 56.60 L 315.30 55.40 L 328.20 54.40 L 341.20 53.80 L 355.60 53.70 L 371.50 54.10 L 381.40 48.00 L 390.20 43.40 L 404.40 37.10 L 413.90 33.40 L 423.50 30.10 L 434.70 26.70 L 447.60 23.20 L 460.50 20.20 L 475.10 17.50 L 491.50 15.00 L 516.60 12.40 L 530.70 11.60 L 545.80 11.10 L 560.50 11.00 L 576.20 11.30 L 593.00 12.20 L 610.80 13.50 L 608.50 39.30 L 674.90 54.10 L 669.90 76.20 L 697.20 90.60 L 695.50 117.60 L 706.90 124.70 L 718.50 133.00 L 732.00 143.90 L 738.80 150.10 L 749.90 161.70 L 757.60 171.70 L 761.10 177.00 L 764.00 182.30 L 766.50 187.80 Z" fill="#eaf0f9" fill-rule="nonzero" group-id="1" node-id="62" stroke="none" target-height="273.4" target-width="531.2" target-x="235.3" target-y="11"></path><path d="M 762.50 180.80 L 754.50 189.20 L 739.60 202.40 L 729.10 210.70 L 721.60 216.20 L 703.40 228.00 L 693.60 233.80 L 682.70 239.50 L 670.80 245.30 L 652.20 253.10 L 631.20 260.30 L 620.50 263.40 L 609.20 266.20 L 597.40 268.70 L 584.90 270.80 L 572.60 272.50 L 559.70 273.70 L 546.20 274.40 L 532.10 274.60 L 521.80 274.30 L 504.50 273.00 L 481.10 269.70 L 458.00 265.00 L 437.90 259.40 L 427.70 256.10 L 417.20 252.20 L 406.50 247.80 L 396.00 242.90 L 385.50 237.50 L 375.00 231.30 L 359.70 221.10 L 352.20 215.40 L 344.80 209.30 L 337.80 202.90 L 330.90 196.00 L 324.30 188.70 L 317.90 180.80 L 311.90 172.70 L 306.20 164.10 L 300.80 154.90 L 295.70 145.10 L 289.40 140.50 L 279.60 132.10 L 273.70 126.20 L 267.80 119.80 L 261.50 112.10 L 257.60 106.70 L 250.10 94.40 L 246.80 87.80 L 243.90 80.70 L 241.30 73.20 L 249.60 68.50 L 256.80 65.00 L 265.00 61.40 L 275.90 57.30 L 292.40 52.20 L 302.40 49.70 L 312.40 47.50 L 323.60 45.50 L 335.90 43.80 L 348.30 42.50 L 361.80 41.80 L 376.40 41.50 L 386.60 35.90 L 395.50 31.80 L 405.80 27.60 L 419.60 22.80 L 429.40 19.80 L 453.70 13.60 L 466.80 11.00 L 481.50 8.60 L 497.90 6.50 L 523.30 4.30 L 537.40 3.60 L 567.30 3.30 L 583.10 3.80 L 599.80 4.70 L 617.70 6.10 L 613.40 26.40 L 692.90 40.00 L 681.50 48.90 L 676.60 53.40 L 673.70 57.00 L 725.90 91.90 L 704.90 105.70 L 716.30 116.50 L 721.60 121.90 L 734.00 135.70 L 740.60 143.90 L 746.80 152.50 L 752.80 161.60 L 756.40 167.90 L 762.50 180.80 Z" fill="#f8fbff" fill-rule="nonzero" group-id="1" node-id="64" stroke="none" target-height="271.30002" target-width="521.2" target-x="241.3" target-y="3.3"></path><path d="M 429.40 575.30 L 452.20 575.30 L 461.70 570.10 L 472.40 566.00 L 478.80 564.20 L 486.00 562.80 L 496.10 562.10 L 501.60 562.30 L 507.10 563.00 L 512.70 564.20 L 518.50 566.00 L 527.10 569.70 L 535.90 575.30 L 562.80 575.30 L 557.70 569.10 L 548.90 560.00 L 538.80 551.30 L 529.10 544.80 L 523.90 541.80 L 518.30 539.30 L 512.40 537.10 L 503.30 534.90 L 493.60 534.10 L 488.70 534.30 L 483.70 534.90 L 478.50 536.10 L 473.10 537.90 L 468.00 540.00 L 462.70 542.90 L 457.30 546.50 L 451.50 550.90 L 446.30 555.50 L 440.90 561.10 L 435.30 567.60 L 429.40 575.30 Z" fill="#f3f8ff" fill-rule="nonzero" group-id="1" node-id="66" stroke="none" target-height="41.200012" target-width="133.4" target-x="429.4" target-y="534.1"></path><path d="M 702.00 939.30 L 648.00 730.80 L 644.40 725.00 L 637.80 717.50 L 629.40 710.00 L 624.50 706.30 L 611.20 697.90 L 603.80 693.90 L 595.00 689.80 L 584.70 685.70 L 592.00 691.20 L 600.40 699.10 L 608.70 708.90 L 612.60 714.40 L 616.20 720.20 L 619.60 726.60 L 622.50 733.20 L 624.90 740.10 L 626.70 747.40 L 649.00 947.00 L 650.60 966.90 L 664.50 961.40 L 672.50 957.40 L 688.20 948.30 L 702.00 939.30 Z" fill="#7f6c67" fill-rule="nonzero" group-id="1" node-id="68" stroke="none" target-height="281.2" target-width="117.29999" target-x="584.7" target-y="685.7"></path><path d="M 331.50 965.00 L 331.60 956.90 L 333.40 939.70 L 336.30 915.60 L 340.20 886.80 L 349.30 824.00 L 358.00 769.20 L 361.40 750.40 L 362.90 743.50 L 367.20 727.90 L 370.40 718.70 L 374.90 709.80 L 377.60 705.50 L 383.80 698.00 L 390.90 691.80 L 399.70 686.10 L 404.80 683.60 L 410.60 681.20 L 417.20 678.90 L 401.20 682.80 L 377.60 690.50 L 371.60 693.20 L 362.00 698.80 L 352.20 706.20 L 343.70 714.20 L 335.50 723.80 L 331.40 729.60 L 327.60 735.60 L 324.10 742.30 L 320.70 749.80 L 261.20 932.60 L 274.90 940.20 L 288.80 947.30 L 302.90 953.90 L 317.20 960.10 L 331.80 965.70 L 331.50 965.00 Z" fill="#7f6c67" fill-rule="nonzero" group-id="1" node-id="70" stroke="none" target-height="286.8" target-width="156" target-x="261.2" target-y="678.9"></path><path d="M 331.50 965.00 L 331.80 965.80 L 346.10 970.80 L 360.50 975.30 L 375.00 979.30 L 389.50 982.80 L 404.10 985.90 L 418.90 988.50 L 433.70 990.70 L 448.50 992.30 L 463.40 993.50 L 478.30 994.20 L 493.20 994.40 L 508.10 994.10 L 523.00 993.40 L 537.90 992.20 L 552.80 990.50 L 567.60 988.30 L 582.30 985.60 L 597.00 982.50 L 611.60 978.90 L 626.20 974.80 L 592.40 962.50 L 565.30 951.60 L 536.60 938.80 L 522.10 931.80 L 507.90 924.40 L 485.10 911.20 L 468.40 900.10 L 460.50 894.20 L 453.30 888.30 L 446.80 882.40 L 438.40 873.90 L 430.60 865.20 L 423.40 856.40 L 416.70 847.30 L 410.50 838.20 L 404.90 829.30 L 394.80 811.30 L 384.90 790.30 L 380.30 779.10 L 376.30 768.40 L 371.00 751.90 L 368.50 742.10 L 368.00 739.20 L 367.90 734.90 L 368.80 726.30 L 371.10 718.00 L 372.80 714.00 L 370.40 718.70 L 368.70 723.30 L 363.70 740.20 L 361.40 750.40 L 358.00 769.30 L 349.30 824.00 L 340.20 886.80 L 333.40 939.70 L 331.60 956.90 L 331.50 965.00 Z" fill="#5f3327" fill-rule="nonzero" group-id="1" node-id="72" stroke="none" target-height="280.40002" target-width="294.7" target-x="331.5" target-y="714"></path><path d="M 626.70 745.80 L 624.90 738.00 L 622.80 731.10 L 620.50 724.90 L 618.00 719.30 L 615.00 713.90 L 612.00 709.00 L 605.60 700.90 L 600.70 696.20 L 596.00 692.30 L 591.20 689.10 L 586.10 686.30 L 581.30 684.10 L 576.80 682.40 L 569.90 680.50 L 564.20 679.40 L 558.80 678.90 L 551.90 678.80 L 498.30 712.20 L 437.20 674.40 L 428.90 675.90 L 421.60 677.60 L 415.20 679.50 L 409.50 681.60 L 403.70 684.10 L 394.20 689.40 L 390.30 692.20 L 385.40 696.40 L 381.40 700.60 L 378.10 704.70 L 375.30 709.10 L 373.10 713.30 L 371.40 717.30 L 370.00 721.50 L 368.50 728.40 L 368.00 733.10 L 368.00 739.20 L 369.60 746.80 L 373.40 759.80 L 380.30 779.10 L 384.90 790.30 L 390.60 802.90 L 399.50 820.10 L 404.90 829.30 L 410.50 838.20 L 416.70 847.20 L 423.40 856.40 L 430.60 865.20 L 438.40 873.80 L 446.80 882.30 L 453.30 888.30 L 460.50 894.20 L 468.40 900.10 L 485.10 911.20 L 494.10 916.60 L 507.90 924.40 L 522.10 931.80 L 536.60 938.80 L 551.00 945.40 L 579.00 957.20 L 604.60 967.00 L 626.20 974.70 L 650.70 966.50 L 649.00 945.40 Z" fill="#7a4a3d" fill-rule="nonzero" group-id="1" node-id="74" stroke="none" target-height="300.3" target-width="282.7" target-x="368" target-y="674.4"></path><path d="M 414.20 679.90 L 414.20 696.00 L 415.00 712.50 L 417.00 731.40 L 418.60 741.10 L 420.60 750.30 L 424.20 761.70 L 428.30 770.20 L 432.40 775.90 L 442.60 785.70 L 451.90 792.80 L 457.60 796.30 L 464.30 799.80 L 474.00 803.60 L 479.50 805.10 L 485.00 806.20 L 490.90 806.80 L 497.10 807.00 L 504.20 805.60 L 515.50 802.00 L 522.50 799.00 L 527.10 796.60 L 537.10 790.30 L 541.90 786.50 L 546.80 782.00 L 551.60 776.80 L 554.90 772.80 L 561.10 763.30 L 564.10 757.80 L 566.60 752.20 L 568.80 746.20 L 570.90 739.50 L 572.60 732.10 L 574.30 719.60 L 575.30 707.30 L 575.50 700.50 L 575.30 693.80 L 574.80 687.30 L 573.70 681.50 L 557.30 676.40 L 550.00 674.40 L 545.30 673.60 L 533.80 680.60 L 491.80 709.00 L 470.30 693.90 L 458.10 685.80 L 446.40 678.50 L 436.70 673.40 L 433.50 673.70 L 425.90 675.50 L 414.20 679.90 Z" fill="#f3f8ff" fill-rule="nonzero" group-id="1" node-id="76" stroke="none" target-height="133.59998" target-width="161.29999" target-x="414.2" target-y="673.4"></path><path d="M 436.70 673.40 L 437.00 686.90 L 437.50 693.40 L 439.70 709.50 L 443.20 724.50 L 447.30 736.90 L 449.80 743.00 L 452.70 748.90 L 456.10 754.70 L 459.80 760.30 L 464.00 765.50 L 468.70 770.40 L 472.50 773.80 L 476.70 776.90 L 481.10 779.70 L 485.90 782.20 L 491.20 782.30 L 498.00 781.20 L 504.70 778.90 L 508.10 777.20 L 511.70 775.00 L 515.60 772.10 L 519.10 768.80 L 522.80 764.80 L 526.50 759.70 L 528.90 755.80 L 533.70 746.20 L 536.00 740.30 L 539.70 727.90 L 542.70 712.10 L 543.80 704.00 L 545.10 684.80 L 545.30 673.60 L 490.40 690.30 Z" fill="#7f6c67" fill-rule="nonzero" group-id="1" node-id="78" stroke="none" target-height="108.89996" target-width="108.599976" target-x="436.7" target-y="673.4"></path><path d="M 501.90 730.30 L 501.20 734.00 L 499.10 737.00 L 496.00 739.10 L 492.40 739.80 L 488.70 739.10 L 485.60 737.00 L 483.60 734.00 L 482.90 730.30 L 483.60 726.70 L 485.60 723.60 L 488.70 721.50 L 492.40 720.80 L 496.00 721.50 L 499.10 723.60 L 501.20 726.70 L 501.90 730.30 Z" fill="#f3f8ff" fill-rule="nonzero" group-id="1" node-id="80" stroke="none" target-height="19" target-width="19" target-x="482.9" target-y="720.8"></path><path d="M 501.90 765.50 L 501.70 767.40 L 500.30 770.80 L 497.60 773.40 L 494.20 774.80 L 490.50 774.80 L 487.10 773.40 L 484.40 770.80 L 483.00 767.40 L 483.00 763.60 L 484.40 760.20 L 487.10 757.60 L 490.50 756.20 L 494.20 756.20 L 497.60 757.60 L 500.30 760.20 L 501.70 763.60 L 501.90 765.50 Z" fill="#f3f8ff" fill-rule="nonzero" group-id="1" node-id="82" stroke="none" target-height="18.599976" target-width="18.899994" target-x="483" target-y="756.2"></path><path d="M 433.80 678.30 L 491.30 709.50 L 492.60 708.70 L 436.70 673.40 L 431.30 674.50 L 417.20 678.90 L 427.70 677.60 L 431.00 677.60 L 433.80 678.30 Z" fill="none" group-id="1" node-id="84" stroke="none" target-height="36.099976" target-width="75.399994" target-x="417.2" target-y="673.4"></path><path d="M 556.10 678.80 L 568.50 682.20 L 580.90 686.00 L 593.10 690.30 L 587.40 687.00 L 581.50 684.20 L 575.40 682.00 L 569.10 680.40 L 562.60 679.30 L 556.10 678.80 Z" fill="none" group-id="1" node-id="86" stroke="none" target-height="11.5" target-width="37" target-x="556.1" target-y="678.8"></path><path d="M 449.20 511.30 L 449.40 510.40 L 448.90 508.60 L 447.30 507.60 L 445.50 507.90 L 435.90 518.10 L 430.70 522.90 L 419.60 532.10 L 414.10 536.10 L 403.90 542.80 L 399.30 545.30 L 393.20 547.90 L 391.60 549.40 L 391.70 549.90 L 392.40 550.40 L 394.10 550.80 L 397.10 550.80 L 404.90 549.50 L 412.70 546.80 L 416.70 545.00 L 425.40 539.70 L 429.60 536.50 L 433.90 532.70 L 438.10 528.20 L 442.00 523.40 L 445.70 517.70 L 449.20 511.30 Z" fill="#e5afa1" fill-rule="nonzero" group-id="1" node-id="88" stroke="none" target-height="43.19998" target-width="57.799988" target-x="391.6" target-y="507.6"></path><path d="M 534.10 511.30 L 533.90 510.40 L 534.40 508.60 L 536.00 507.60 L 537.80 507.90 L 547.50 518.10 L 552.60 522.90 L 563.70 532.10 L 569.20 536.10 L 579.40 542.80 L 584.00 545.30 L 590.10 547.90 L 591.70 549.40 L 591.60 549.90 L 590.90 550.40 L 589.20 550.80 L 586.20 550.80 L 578.40 549.50 L 570.60 546.80 L 566.60 545.00 L 557.90 539.70 L 553.70 536.50 L 549.50 532.70 L 545.20 528.20 L 541.30 523.40 L 537.60 517.70 L 534.10 511.30 Z" fill="#e5afa1" fill-rule="nonzero" group-id="1" node-id="90" stroke="none" target-height="43.19998" target-width="57.799988" target-x="533.9" target-y="507.6"></path></g></svg>