<?xml version="1.0" standalone="no"?><!DOCTYPE svg PUBLIC "-//W3C//DTD SVG 1.1//EN" "http://www.w3.org/Graphics/SVG/1.1/DTD/svg11.dtd"><svg height="1009" node-id="1" sillyvg="true" template-height="1009" template-width="981" version="1.1" viewBox="0 0 981 1009" width="981" xmlns="http://www.w3.org/2000/svg" xmlns:xlink="http://www.w3.org/1999/xlink"><defs node-id="35"></defs><g node-id="89"><path d="M 968.20 518.30 L 968.00 533.60 L 967.30 548.70 L 966.10 563.70 L 964.40 578.70 L 962.30 593.50 L 959.70 608.30 L 956.60 623.00 L 953.10 637.50 L 949.20 651.90 L 944.80 666.20 L 939.90 680.30 L 934.70 694.30 L 929.00 708.00 L 922.80 721.60 L 916.20 735.10 L 909.30 748.30 L 901.90 761.20 L 894.10 774.00 L 885.90 786.50 L 877.20 798.80 L 868.20 810.80 L 858.80 822.60 L 849.10 834.10 L 838.90 845.30 L 828.30 856.20 L 817.30 866.80 L 806.10 877.00 L 794.60 886.80 L 782.90 896.20 L 770.90 905.20 L 758.60 913.80 L 746.00 922.00 L 733.30 929.80 L 720.30 937.20 L 707.10 944.20 L 693.70 950.80 L 680.10 956.90 L 666.30 962.60 L 652.40 967.90 L 638.30 972.70 L 624.00 977.10 L 609.60 981.10 L 595.10 984.60 L 580.40 987.60 L 565.60 990.20 L 550.70 992.30 L 535.80 994.00 L 520.70 995.20 L 505.60 995.90 L 490.40 996.20 L 475.10 995.90 L 460.00 995.20 L 445.00 994.00 L 430.00 992.30 L 415.20 990.20 L 400.40 987.60 L 385.70 984.60 L 371.20 981.10 L 356.80 977.10 L 342.50 972.70 L 328.40 967.90 L 314.40 962.60 L 300.70 956.90 L 287.10 950.80 L 273.60 944.20 L 260.40 937.20 L 247.50 929.80 L 234.70 922.00 L 222.20 913.80 L 209.90 905.20 L 197.90 896.20 L 186.10 886.80 L 174.60 877.00 L 163.40 866.80 L 152.50 856.20 L 141.90 845.30 L 131.70 834.10 L 121.90 822.60 L 112.50 810.80 L 103.50 798.80 L 94.90 786.50 L 86.70 774.00 L 78.90 761.20 L 71.50 748.30 L 64.50 735.10 L 57.90 721.60 L 51.80 708.00 L 46.10 694.30 L 40.80 680.30 L 36.00 666.20 L 31.60 651.90 L 27.60 637.50 L 24.10 623.00 L 21.10 608.30 L 18.50 593.50 L 16.40 578.70 L 14.70 563.70 L 13.50 548.70 L 12.80 533.60 L 12.50 518.30 L 12.80 503.10 L 13.50 488.00 L 14.70 472.90 L 16.40 458.00 L 18.50 443.10 L 21.10 428.30 L 24.10 413.60 L 27.60 399.10 L 31.60 384.70 L 36.00 370.40 L 40.80 356.30 L 46.10 342.40 L 51.80 328.60 L 57.90 315.00 L 64.50 301.60 L 71.50 288.40 L 78.90 275.40 L 86.70 262.70 L 94.90 250.10 L 103.50 237.80 L 112.50 225.80 L 121.90 214.10 L 131.70 202.60 L 141.90 191.40 L 152.50 180.40 L 163.40 169.80 L 174.60 159.60 L 186.10 149.90 L 197.90 140.50 L 209.90 131.50 L 222.20 122.80 L 234.70 114.60 L 247.50 106.80 L 260.40 99.40 L 273.60 92.50 L 287.10 85.90 L 300.70 79.70 L 314.40 74.00 L 328.40 68.80 L 342.50 63.90 L 356.80 59.50 L 371.20 55.60 L 385.70 52.10 L 400.40 49.00 L 415.20 46.40 L 430.00 44.30 L 445.00 42.60 L 460.00 41.40 L 475.10 40.70 L 490.40 40.50 L 505.60 40.70 L 520.70 41.40 L 535.80 42.60 L 550.70 44.30 L 565.60 46.40 L 580.40 49.00 L 595.10 52.10 L 609.60 55.60 L 624.00 59.50 L 638.30 63.90 L 652.40 68.80 L 666.30 74.00 L 680.10 79.70 L 693.70 85.90 L 707.10 92.50 L 720.30 99.40 L 733.30 106.80 L 746.00 114.60 L 758.60 122.80 L 770.90 131.50 L 782.90 140.50 L 794.60 149.90 L 806.10 159.60 L 817.30 169.80 L 828.30 180.40 L 838.90 191.40 L 849.10 202.60 L 858.80 214.10 L 868.20 225.80 L 877.20 237.80 L 885.90 250.10 L 894.10 262.70 L 901.90 275.40 L 909.30 288.40 L 916.30 301.60 L 922.80 315.00 L 929.00 328.60 L 934.70 342.40 L 939.90 356.30 L 944.80 370.40 L 949.20 384.70 L 953.10 399.10 L 956.60 413.60 L 959.70 428.30 L 962.30 443.10 L 964.40 458.00 L 966.10 472.90 L 967.30 488.00 L 968.00 503.10 L 968.20 518.30 Z" fill="#e3f0d5" fill-rule="nonzero" group-id="1" node-id="39" stroke="none" target-height="955.7" target-width="955.7" target-x="12.5" target-y="40.5"></path><path d="M 490.40 1008.70 L 472.80 1008.40 L 455.50 1007.40 L 438.40 1005.90 L 421.40 1003.80 L 404.70 1001.10 L 387.90 997.90 L 371.50 994.00 L 355.20 989.70 L 339.20 984.80 L 323.40 979.40 L 307.80 973.40 L 292.40 966.90 L 277.40 959.90 L 262.60 952.50 L 248.10 944.50 L 233.80 936.10 L 219.90 927.20 L 206.30 917.90 L 193.00 908.10 L 180.10 897.80 L 167.50 887.10 L 155.20 876.10 L 143.40 864.60 L 131.90 852.70 L 120.80 840.40 L 110.10 827.70 L 99.90 814.70 L 90.10 801.30 L 80.70 787.60 L 71.70 773.40 L 63.30 759.00 L 55.30 744.30 L 47.80 729.30 L 40.80 713.90 L 34.30 698.10 L 28.40 682.20 L 23.00 666.00 L 18.10 649.50 L 13.70 632.70 L 9.90 615.60 L 6.80 598.30 L 4.20 581.20 L 2.30 564.10 L 1.00 547.10 L 0.30 530.10 L 0.20 513.00 L 0.60 496.10 L 1.70 479.40 L 3.30 462.70 L 5.40 446.10 L 8.20 429.60 L 11.50 413.30 L 15.30 397.20 L 19.70 381.20 L 24.60 365.40 L 30.00 349.70 L 36.00 334.30 L 42.40 319.10 L 49.30 304.10 L 56.80 289.40 L 64.80 274.90 L 73.20 260.70 L 82.10 246.80 L 91.40 233.20 L 101.30 219.90 L 111.60 206.90 L 122.30 194.30 L 133.40 182.00 L 145.10 170.10 L 157.10 158.50 L 169.60 147.30 L 182.40 136.60 L 195.70 126.30 L 209.40 116.30 L 223.50 106.80 L 237.90 97.80 L 252.70 89.30 L 267.90 81.20 L 283.50 73.60 L 299.50 66.50 L 315.80 60.00 L 332.20 54.10 L 348.60 48.80 L 365.20 44.10 L 381.90 40.00 L 398.70 36.60 L 415.60 33.70 L 432.50 31.40 L 449.40 29.70 L 466.30 28.60 L 483.30 28.00 L 500.30 28.10 L 517.20 28.80 L 534.00 30.00 L 550.90 31.80 L 567.60 34.20 L 584.30 37.20 L 600.80 40.70 L 617.30 44.80 L 633.60 49.50 L 649.80 54.80 L 665.70 60.60 L 681.50 67.00 L 697.20 73.90 L 712.60 81.40 L 727.80 89.50 L 742.70 98.10 L 757.30 107.30 L 771.70 117.00 L 785.90 127.40 L 799.70 138.20 L 813.10 149.40 L 825.90 161.10 L 838.20 173.10 L 850.10 185.40 L 861.50 198.30 L 872.50 211.40 L 882.90 224.90 L 892.80 238.70 L 902.30 252.80 L 911.20 267.30 L 919.70 282.00 L 927.60 296.90 L 934.90 312.10 L 941.80 327.60 L 948.10 343.30 L 953.90 359.20 L 959.10 375.30 L 963.80 391.60 L 967.90 408.10 L 971.40 424.70 L 974.40 441.50 L 976.80 458.30 L 978.60 475.30 L 979.80 492.50 L 980.40 509.60 L 980.40 526.90 L 979.80 544.10 L 978.60 561.50 L 976.70 579.00 L 974.20 596.30 L 971.20 613.50 L 967.50 630.40 L 963.30 647.10 L 958.50 663.50 L 953.20 679.90 L 947.30 695.90 L 940.80 711.70 L 933.90 727.20 L 926.40 742.40 L 918.30 757.40 L 909.80 772.10 L 900.80 786.40 L 891.30 800.40 L 881.40 814.10 L 870.90 827.50 L 860.00 840.40 L 848.70 853.00 L 837.00 865.20 L 824.70 877.00 L 812.10 888.40 L 799.10 899.30 L 785.70 909.80 L 771.90 919.90 L 757.60 929.50 L 743.10 938.60 L 728.20 947.30 L 712.90 955.40 L 697.30 963.00 L 681.30 970.20 L 666.00 976.30 L 650.70 981.90 L 635.20 987.00 L 619.50 991.50 L 603.70 995.60 L 587.80 999.10 L 571.70 1002.00 L 555.60 1004.40 L 539.40 1006.30 L 523.10 1007.70 L 506.80 1008.50 L 490.40 1008.70 Z M 490.40 53.00 L 473.70 53.30 L 457.30 54.20 L 441.00 55.60 L 425.00 57.60 L 409.00 60.20 L 393.20 63.30 L 377.50 66.90 L 362.10 71.00 L 346.90 75.70 L 332.00 80.80 L 317.10 86.50 L 302.60 92.70 L 288.30 99.30 L 274.20 106.30 L 260.50 113.90 L 246.90 121.90 L 233.70 130.40 L 220.80 139.20 L 208.20 148.50 L 195.90 158.20 L 184.00 168.40 L 172.40 178.90 L 161.10 189.80 L 150.20 201.00 L 139.70 212.70 L 129.60 224.70 L 119.80 237.10 L 110.50 249.80 L 101.60 262.80 L 93.10 276.30 L 85.10 289.90 L 77.60 303.90 L 70.50 318.20 L 63.80 332.80 L 57.60 347.70 L 52.00 362.80 L 46.80 378.20 L 42.20 393.80 L 38.10 409.80 L 34.50 426.00 L 31.50 442.40 L 29.10 458.70 L 27.20 474.90 L 26.00 491.10 L 25.30 507.20 L 25.20 523.30 L 25.60 539.40 L 26.60 555.30 L 28.20 571.10 L 30.20 586.80 L 32.80 602.50 L 36.00 618.00 L 39.60 633.30 L 43.70 648.50 L 48.40 663.50 L 53.50 678.30 L 59.20 693.00 L 65.30 707.40 L 71.90 721.60 L 79.00 735.60 L 86.50 749.30 L 94.50 762.80 L 102.90 775.90 L 111.80 788.90 L 121.20 801.50 L 130.90 813.80 L 141.10 825.80 L 151.70 837.50 L 162.70 848.80 L 174.20 859.80 L 186.00 870.40 L 198.10 880.60 L 210.70 890.40 L 223.70 899.80 L 237.10 908.80 L 250.80 917.40 L 264.80 925.50 L 279.20 933.10 L 294.00 940.30 L 309.30 947.10 L 324.70 953.30 L 340.30 958.90 L 355.90 963.90 L 371.60 968.40 L 387.50 972.30 L 403.40 975.60 L 419.40 978.30 L 435.50 980.50 L 451.50 982.20 L 467.60 983.20 L 483.80 983.70 L 499.80 983.70 L 515.90 983.10 L 531.90 981.90 L 547.90 980.20 L 563.80 977.90 L 579.60 975.10 L 595.40 971.80 L 611.00 967.90 L 626.50 963.40 L 641.80 958.50 L 657.00 952.90 L 672.00 946.90 L 686.80 940.30 L 701.50 933.10 L 715.90 925.50 L 730.00 917.30 L 744.00 908.60 L 757.70 899.40 L 771.10 889.60 L 784.30 879.30 L 796.90 868.60 L 809.10 857.60 L 820.80 846.20 L 832.00 834.40 L 842.90 822.20 L 853.30 809.80 L 863.20 797.00 L 872.60 783.90 L 881.60 770.50 L 890.10 756.80 L 898.10 742.80 L 905.60 728.60 L 912.60 714.20 L 919.10 699.40 L 925.10 684.50 L 930.60 669.40 L 935.60 654.10 L 940.00 638.70 L 943.90 623.00 L 947.30 607.20 L 950.10 591.30 L 952.30 575.30 L 954.00 559.20 L 955.20 542.90 L 955.80 526.60 L 955.80 510.30 L 955.20 493.90 L 954.00 477.40 L 952.30 460.80 L 949.90 444.30 L 947.00 428.00 L 943.50 412.00 L 939.50 396.10 L 935.00 380.50 L 929.90 365.00 L 924.20 349.70 L 918.10 334.80 L 911.50 320.10 L 904.40 305.60 L 896.70 291.40 L 888.70 277.40 L 880.10 263.90 L 871.10 250.60 L 861.60 237.60 L 851.70 224.90 L 841.40 212.60 L 830.60 200.70 L 819.40 189.10 L 807.80 177.90 L 795.80 167.10 L 783.50 156.70 L 770.70 146.80 L 757.60 137.20 L 744.10 128.10 L 730.30 119.40 L 716.10 111.30 L 701.60 103.60 L 686.70 96.30 L 671.50 89.60 L 657.10 83.70 L 642.50 78.40 L 627.80 73.60 L 612.90 69.30 L 597.90 65.50 L 582.80 62.10 L 567.60 59.30 L 552.30 57.00 L 536.90 55.30 L 521.40 54.00 L 505.90 53.20 L 490.40 53.00 Z" fill="#ffffff" fill-rule="nonzero" group-id="1" node-id="41" stroke="none" target-height="980.7" target-width="980.2" target-x="0.2" target-y="28"></path><path d="M 435.20 629.20 L 437.20 670.50 L 498.50 714.90 L 540.30 701.10 L 544.20 617.40 L 435.20 629.20 Z" fill="#e5afa1" fill-rule="nonzero" group-id="1" node-id="43" stroke="none" target-height="97.5" target-width="109" target-x="435.2" target-y="617.4"></path><path d="M 728.50 386.90 L 735.00 386.80 L 739.70 387.00 L 744.80 387.60 L 754.20 389.80 L 761.50 392.90 L 764.90 395.00 L 768.00 397.50 L 770.80 400.50 L 772.50 403.00 L 774.00 405.80 L 775.10 409.00 L 775.90 412.60 L 776.30 416.20 L 776.30 420.30 L 775.80 424.90 L 773.80 433.70 L 770.90 443.10 L 766.00 456.80 L 759.00 472.90 L 754.80 481.40 L 746.60 495.60 L 739.10 506.30 L 734.90 511.30 L 730.50 515.90 L 726.00 520.10 L 721.10 523.90 L 716.10 527.10 L 710.80 529.70 L 704.40 530.90 L 699.40 531.30 L 693.90 531.30 L 687.20 530.70 L 686.40 530.40 L 685.70 529.60 L 685.20 528.30 L 685.00 526.20 L 685.00 523.40 L 686.20 515.00 L 687.70 507.70 L 692.60 489.50 L 702.70 458.10 L 710.00 436.90 L 728.50 386.90 Z" fill="#e5afa1" fill-rule="nonzero" group-id="1" node-id="45" stroke="none" target-height="144.5" target-width="91.29999" target-x="685" target-y="386.8"></path><path d="M 234.50 369.20 L 227.90 369.10 L 223.20 369.30 L 218.20 369.90 L 208.80 372.10 L 201.40 375.20 L 198.00 377.30 L 194.90 379.80 L 192.20 382.80 L 190.40 385.30 L 189.00 388.10 L 187.90 391.30 L 187.00 394.90 L 186.60 398.50 L 186.60 402.50 L 187.10 407.20 L 189.10 416.00 L 192.10 425.40 L 197.00 439.00 L 203.90 455.20 L 208.10 463.70 L 216.30 477.90 L 223.90 488.50 L 228.10 493.50 L 232.40 498.10 L 237.00 502.30 L 241.90 506.10 L 246.90 509.30 L 252.20 512.00 L 258.50 513.20 L 263.60 513.60 L 269.00 513.60 L 275.80 513.00 L 276.60 512.60 L 277.30 511.90 L 277.70 510.60 L 278.00 508.50 L 278.00 505.70 L 276.80 497.20 L 275.20 489.90 L 270.30 471.70 L 260.30 440.30 L 253.00 419.20 L 234.50 369.20 Z" fill="#e5afa1" fill-rule="nonzero" group-id="1" node-id="47" stroke="none" target-height="144.49997" target-width="91.399994" target-x="186.6" target-y="369.1"></path><path d="M 230.20 339.00 L 234.20 370.60 L 238.90 397.60 L 245.70 429.60 L 250.10 447.10 L 257.00 470.80 L 265.20 495.20 L 274.90 519.30 L 280.30 531.20 L 286.00 542.70 L 292.20 553.90 L 297.10 562.20 L 307.70 577.70 L 313.30 585.00 L 319.20 592.00 L 325.40 598.60 L 331.80 604.80 L 338.40 610.50 L 345.40 615.80 L 352.70 620.60 L 360.20 624.80 L 377.60 632.80 L 393.70 638.90 L 404.30 642.30 L 415.40 645.50 L 428.00 648.50 L 445.60 651.60 L 454.90 652.70 L 464.30 653.40 L 473.70 653.50 L 488.30 652.80 L 501.80 651.60 L 521.80 648.80 L 546.10 644.20 L 559.20 641.00 L 572.90 637.10 L 591.00 630.80 L 599.90 627.10 L 608.70 623.10 L 617.10 618.60 L 625.10 613.80 L 633.20 607.80 L 644.10 598.00 L 655.30 586.10 L 661.00 579.30 L 674.00 561.80 L 680.40 552.10 L 687.10 541.00 L 694.10 528.20 L 699.00 518.70 L 708.90 496.80 L 713.90 484.30 L 718.40 472.10 L 722.90 458.80 L 727.20 444.50 L 731.50 429.00 L 735.30 413.90 L 738.80 397.60 L 742.10 380.10 L 745.20 361.30 L 737.20 345.00 L 727.60 328.20 L 721.50 318.90 L 714.40 308.80 L 709.20 302.20 L 697.80 289.10 L 691.60 282.90 L 685.00 277.10 L 678.10 271.60 L 667.10 264.30 L 655.50 258.50 L 649.40 256.20 L 643.10 254.40 L 636.70 253.10 L 630.00 252.30 L 628.30 257.10 L 626.10 260.80 L 621.90 266.00 L 618.60 269.20 L 615.20 272.10 L 610.70 275.20 L 605.20 278.60 L 599.50 281.50 L 592.50 284.40 L 584.10 287.40 L 575.60 289.80 L 565.50 292.10 L 553.60 294.20 L 541.70 295.70 L 527.90 296.90 L 512.00 297.60 L 468.50 313.40 L 447.20 297.60 L 401.30 283.80 L 385.20 271.30 L 372.80 262.70 L 366.20 258.70 L 359.40 255.00 L 353.10 252.10 L 348.80 250.50 L 345.00 249.60 L 341.60 249.10 L 339.00 249.10 L 336.80 249.50 L 334.90 250.20 L 333.20 251.40 L 331.90 252.80 L 330.80 254.80 L 330.00 257.40 L 329.60 260.80 L 317.60 263.00 L 312.40 263.60 L 309.20 263.40 L 308.80 263.10 L 308.90 262.80 L 309.50 262.10 L 314.90 259.20 L 289.90 279.40 L 274.70 292.70 L 258.60 307.70 L 243.30 323.40 L 236.20 331.40 L 230.20 339.00 Z" fill="#f4d5c1" fill-rule="nonzero" group-id="1" node-id="49" stroke="none" target-height="404.4" target-width="515" target-x="230.2" target-y="249.1"></path><path d="M 396.90 446.40 L 396.60 449.60 L 396.00 452.60 L 394.90 455.50 L 393.40 458.20 L 391.60 460.80 L 389.30 463.10 L 386.70 465.20 L 383.90 466.90 L 380.90 468.20 L 377.70 469.20 L 374.40 469.80 L 371.00 470.00 L 367.60 469.80 L 364.30 469.20 L 361.10 468.20 L 358.10 466.90 L 355.30 465.20 L 352.70 463.10 L 350.50 460.80 L 348.60 458.20 L 347.10 455.50 L 346.10 452.60 L 345.40 449.60 L 345.20 446.40 L 345.40 443.30 L 346.10 440.30 L 347.10 437.40 L 348.60 434.70 L 350.50 432.10 L 352.70 429.80 L 355.30 427.70 L 358.10 426.00 L 361.10 424.60 L 364.30 423.60 L 367.60 423.00 L 371.00 422.80 L 374.40 423.00 L 377.70 423.60 L 380.90 424.60 L 383.90 426.00 L 386.70 427.70 L 389.30 429.80 L 391.60 432.10 L 393.40 434.70 L 394.90 437.40 L 396.00 440.30 L 396.60 443.30 L 396.90 446.40 Z" fill="#1e2c3f" fill-rule="nonzero" group-id="1" node-id="51" stroke="none" target-height="47.200012" target-width="51.69998" target-x="345.2" target-y="422.8"></path><path d="M 532.40 572.50 L 531.60 577.00 L 529.20 581.40 L 526.90 584.00 L 523.90 586.50 L 520.10 588.90 L 516.10 590.90 L 511.60 592.50 L 506.50 593.90 L 496.10 595.50 L 490.50 595.70 L 485.00 595.50 L 479.60 594.90 L 474.50 593.90 L 469.50 592.50 L 465.00 590.90 L 460.90 588.90 L 457.10 586.50 L 454.20 584.00 L 451.90 581.40 L 450.40 579.20 L 448.90 574.80 L 448.70 572.50 L 449.50 568.10 L 451.90 563.70 L 454.20 561.10 L 457.10 558.60 L 460.90 556.20 L 465.00 554.20 L 469.50 552.50 L 474.50 551.20 L 485.00 549.60 L 490.50 549.40 L 496.10 549.60 L 506.50 551.20 L 511.60 552.50 L 516.10 554.20 L 520.10 556.20 L 523.90 558.60 L 526.90 561.10 L 529.20 563.70 L 531.60 568.10 L 532.40 572.50 Z" fill="#dc6965" fill-rule="nonzero" group-id="1" node-id="53" stroke="none" target-height="46.299988" target-width="83.70001" target-x="448.7" target-y="549.4"></path><path d="M 634.80 446.40 L 634.50 449.70 L 633.80 452.70 L 632.70 455.60 L 631.20 458.40 L 629.40 460.80 L 627.20 463.10 L 622.00 466.80 L 619.00 468.20 L 615.80 469.20 L 612.50 469.80 L 608.90 470.00 L 605.40 469.80 L 602.00 469.20 L 598.80 468.20 L 593.10 465.10 L 590.60 463.10 L 588.40 460.80 L 586.60 458.40 L 585.10 455.60 L 584.00 452.70 L 583.30 449.70 L 583.10 446.40 L 583.30 443.20 L 584.00 440.20 L 585.10 437.30 L 586.60 434.50 L 588.40 432.00 L 593.10 427.80 L 598.80 424.70 L 602.00 423.70 L 605.40 423.10 L 608.90 422.80 L 612.50 423.10 L 615.80 423.70 L 619.00 424.70 L 622.00 426.10 L 624.70 427.80 L 627.20 429.80 L 629.40 432.00 L 631.20 434.50 L 632.70 437.30 L 633.80 440.20 L 634.50 443.20 L 634.80 446.40 Z" fill="#1e2c3f" fill-rule="nonzero" group-id="1" node-id="55" stroke="none" target-height="47.200012" target-width="51.700012" target-x="583.1" target-y="422.8"></path><path d="M 742.40 400.00 L 738.20 387.60 L 733.20 375.10 L 726.40 361.00 L 722.50 354.00 L 718.20 347.30 L 715.00 343.10 L 708.50 335.90 L 704.90 332.90 L 701.30 330.60 L 697.70 328.90 L 687.10 338.30 L 670.80 354.50 L 659.20 368.00 L 653.90 375.00 L 651.80 369.80 L 647.50 362.40 L 644.30 358.50 L 641.80 356.00 L 638.90 353.70 L 635.50 351.60 L 631.90 349.90 L 627.80 348.70 L 623.10 347.80 L 615.70 347.80 L 606.60 349.40 L 607.20 367.50 L 606.90 375.20 L 606.30 378.30 L 605.60 379.90 L 603.80 380.10 L 596.50 378.40 L 574.90 371.20 L 538.60 357.70 L 492.30 339.50 L 490.30 361.20 L 485.70 362.40 L 473.00 365.30 L 454.10 368.20 L 443.10 369.40 L 430.80 370.00 L 413.80 369.80 L 404.90 369.20 L 396.00 368.10 L 387.20 366.40 L 378.30 364.30 L 371.70 362.30 L 365.30 359.90 L 359.00 357.20 L 352.80 354.00 L 346.80 350.50 L 341.10 346.50 L 335.60 341.90 L 330.20 336.90 L 325.40 331.60 L 320.80 325.60 L 316.50 318.90 L 312.50 311.60 L 301.90 321.60 L 293.40 330.40 L 284.20 340.50 L 264.80 363.70 L 247.10 387.60 L 238.10 400.50 L 228.70 414.90 L 218.80 431.00 L 211.60 393.30 L 207.60 369.10 L 203.50 342.00 L 200.10 314.10 L 197.80 287.10 L 197.20 274.30 L 197.50 255.60 L 198.90 243.60 L 175.20 234.70 L 180.00 219.50 L 186.60 202.90 L 191.10 193.20 L 196.80 182.20 L 205.60 167.20 L 216.50 151.30 L 222.70 143.40 L 229.50 135.20 L 236.60 127.40 L 244.50 119.70 L 253.00 112.00 L 255.00 108.70 L 255.90 106.20 L 256.50 102.30 L 256.00 97.50 L 255.00 95.00 L 253.50 92.10 L 251.60 89.50 L 248.90 86.60 L 245.10 83.40 L 244.90 82.50 L 245.40 80.00 L 246.50 78.40 L 248.80 76.20 L 251.90 74.10 L 257.10 71.40 L 263.20 68.90 L 272.20 65.90 L 282.40 63.20 L 296.20 60.20 L 311.50 57.40 L 331.20 54.40 L 352.50 51.70 L 379.10 49.00 L 388.70 43.50 L 405.90 35.00 L 417.70 29.90 L 430.40 25.00 L 445.40 19.80 L 455.80 16.60 L 479.20 10.70 L 491.50 8.30 L 504.50 6.20 L 518.30 4.50 L 539.20 3.00 L 550.20 2.80 L 572.90 3.40 L 584.50 4.30 L 596.30 5.70 L 608.50 7.60 L 610.50 33.20 L 634.20 35.30 L 647.60 37.20 L 660.70 39.90 L 666.80 41.60 L 671.70 43.50 L 674.70 45.00 L 678.50 48.00 L 671.80 68.70 L 690.10 81.80 L 711.20 96.00 L 720.40 101.50 L 726.80 104.40 L 690.30 100.20 L 697.10 107.40 L 708.10 120.30 L 722.10 138.90 L 734.70 158.30 L 744.80 176.20 L 749.60 185.70 L 754.10 195.70 L 758.50 206.40 L 762.50 217.20 L 766.00 228.40 L 769.20 240.20 L 771.20 249.10 L 774.10 267.60 L 775.10 277.20 L 760.80 283.60 L 751.30 350.60 L 745.20 386.80 L 742.40 400.00 Z" fill="#d2a597" fill-rule="nonzero" group-id="1" node-id="57" stroke="none" target-height="428.2" target-width="599.89996" target-x="175.2" target-y="2.8"></path><path d="M 740.50 403.50 L 735.90 389.90 L 730.50 376.20 L 723.30 360.70 L 719.20 353.00 L 714.70 345.80 L 711.40 341.20 L 704.80 333.50 L 701.10 330.30 L 697.40 327.90 L 693.80 326.20 L 683.20 335.60 L 666.90 351.80 L 655.30 365.20 L 650.00 372.20 L 648.00 367.00 L 643.70 359.70 L 640.40 355.70 L 637.90 353.30 L 631.60 348.90 L 628.00 347.20 L 623.90 345.90 L 619.20 345.10 L 611.80 345.00 L 602.70 346.60 L 603.40 364.70 L 603.00 372.40 L 602.40 375.60 L 601.70 377.10 L 599.90 377.30 L 592.60 375.60 L 571.00 368.40 L 534.70 354.90 L 488.50 336.80 L 486.50 358.40 L 481.90 359.70 L 469.20 362.50 L 450.20 365.50 L 439.20 366.60 L 426.90 367.30 L 410.00 367.10 L 401.10 366.40 L 392.20 365.30 L 383.40 363.70 L 374.50 361.50 L 367.90 359.50 L 361.50 357.20 L 355.20 354.40 L 349.00 351.20 L 343.00 347.70 L 337.30 343.70 L 331.80 339.20 L 326.40 334.10 L 321.60 328.80 L 317.00 322.80 L 312.70 316.20 L 308.70 308.80 L 298.10 318.80 L 289.60 327.60 L 280.40 337.70 L 261.00 360.90 L 243.20 384.80 L 234.30 397.70 L 224.90 412.20 L 215.00 428.20 L 208.30 392.20 L 204.60 368.90 L 200.80 342.90 L 197.70 316.00 L 195.70 289.80 L 195.20 277.40 L 195.60 259.00 L 197.00 247.10 L 173.30 238.30 L 177.70 221.80 L 184.00 203.90 L 188.20 193.60 L 193.70 181.90 L 202.30 166.10 L 212.90 149.50 L 219.00 141.20 L 225.70 132.80 L 232.90 124.80 L 240.70 117.00 L 249.20 109.30 L 251.10 106.00 L 252.10 103.50 L 252.70 99.50 L 252.10 94.80 L 251.20 92.20 L 249.70 89.40 L 247.80 86.70 L 245.00 83.90 L 241.30 80.70 L 241.00 79.80 L 241.60 77.30 L 242.70 75.70 L 245.00 73.40 L 248.10 71.30 L 253.20 68.60 L 259.40 66.10 L 268.40 63.20 L 278.60 60.50 L 292.40 57.40 L 307.70 54.70 L 327.30 51.70 L 348.70 49.00 L 375.20 46.20 L 384.90 40.70 L 402.10 32.30 L 413.80 27.20 L 426.50 22.20 L 441.60 17.10 L 452.00 13.90 L 475.40 8.00 L 487.60 5.60 L 500.60 3.50 L 514.40 1.80 L 535.40 0.30 L 546.40 0.00 L 569.10 0.60 L 580.60 1.60 L 592.50 3.00 L 604.70 4.90 L 606.70 30.50 L 630.30 32.60 L 643.80 34.50 L 656.90 37.20 L 662.90 38.90 L 667.80 40.70 L 670.90 42.20 L 674.70 45.30 L 668.00 65.90 L 686.00 77.70 L 706.90 90.50 L 716.00 95.50 L 722.40 98.30 L 686.50 97.40 L 693.90 105.40 L 705.70 119.40 L 720.60 139.40 L 734.20 160.10 L 745.00 179.00 L 750.10 188.90 L 755.00 199.40 L 759.60 210.40 L 763.90 221.60 L 767.60 233.20 L 771.00 245.20 L 773.10 254.30 L 776.10 273.00 L 777.10 282.60 L 759.00 287.10 L 749.40 354.20 L 743.30 390.30 L 740.50 403.50 Z" fill="#a54d05" fill-rule="nonzero" group-id="1" node-id="59" stroke="none" target-height="428.2" target-width="603.8" target-x="173.3" target-y="0"></path><path d="M 763.00 205.60 L 756.00 213.30 L 750.00 219.30 L 734.20 233.70 L 724.30 241.90 L 712.40 250.90 L 704.10 256.70 L 685.00 268.90 L 674.90 274.60 L 663.90 280.30 L 652.20 285.90 L 640.20 291.00 L 627.60 295.80 L 614.20 300.20 L 593.50 305.70 L 571.20 310.00 L 559.90 311.50 L 548.20 312.60 L 536.10 313.30 L 523.60 313.40 L 513.40 313.20 L 496.00 311.70 L 484.60 310.20 L 472.60 308.10 L 458.80 305.20 L 449.50 302.80 L 429.40 296.70 L 419.20 293.00 L 408.80 288.80 L 398.10 283.90 L 387.60 278.50 L 377.10 272.50 L 366.50 265.80 L 358.80 260.40 L 351.30 254.50 L 343.80 248.30 L 336.40 241.50 L 329.30 234.40 L 322.50 226.90 L 315.80 218.70 L 309.40 210.10 L 303.40 201.20 L 297.70 191.70 L 292.30 181.50 L 287.20 170.60 L 280.70 164.10 L 270.70 152.60 L 264.60 144.80 L 258.60 136.50 L 252.20 126.90 L 244.30 113.00 L 237.20 97.70 L 234.30 89.70 L 231.70 81.40 L 239.10 77.10 L 245.80 73.90 L 253.50 70.80 L 264.00 67.20 L 271.40 65.10 L 290.20 60.90 L 300.30 59.20 L 311.70 57.80 L 324.70 56.70 L 337.60 56.10 L 352.00 55.90 L 368.00 56.40 L 377.90 49.60 L 386.60 44.50 L 400.80 37.40 L 410.40 33.30 L 420.00 29.60 L 431.20 25.80 L 453.60 19.40 L 475.50 14.80 L 487.90 12.80 L 500.00 11.10 L 513.10 9.90 L 527.10 8.90 L 542.20 8.30 L 557.00 8.20 L 572.70 8.60 L 589.40 9.60 L 607.30 11.10 L 605.00 39.80 L 671.30 56.40 L 666.40 81.00 L 693.70 97.10 L 692.00 127.30 L 703.30 135.20 L 715.00 144.50 L 728.40 156.60 L 735.30 163.50 L 746.30 176.40 L 754.10 187.60 L 757.50 193.50 L 760.50 199.50 L 763.00 205.60 Z" fill="#964406" fill-rule="nonzero" group-id="1" node-id="61" stroke="none" target-height="305.19998" target-width="531.3" target-x="231.7" target-y="8.2"></path><path d="M 759.00 196.20 L 751.00 205.40 L 744.00 212.50 L 736.10 220.10 L 725.60 229.20 L 718.10 235.20 L 699.90 248.30 L 690.10 254.60 L 679.20 261.00 L 667.20 267.40 L 648.60 276.00 L 627.70 283.90 L 617.00 287.30 L 605.70 290.40 L 593.90 293.10 L 581.40 295.50 L 569.10 297.30 L 556.20 298.60 L 542.70 299.40 L 528.50 299.70 L 518.30 299.40 L 501.00 297.90 L 489.60 296.40 L 477.50 294.30 L 463.80 291.40 L 454.50 289.00 L 434.40 282.90 L 424.20 279.20 L 413.70 275.00 L 403.00 270.10 L 392.50 264.80 L 382.00 258.70 L 371.50 252.00 L 363.80 246.60 L 356.20 240.80 L 348.70 234.50 L 341.30 227.70 L 334.30 220.60 L 327.50 213.10 L 320.80 205.00 L 314.30 196.30 L 308.40 187.40 L 302.70 177.90 L 297.30 167.70 L 292.20 156.90 L 285.90 151.80 L 276.10 142.50 L 270.20 136.10 L 262.20 126.30 L 254.10 114.50 L 250.30 108.00 L 246.60 100.90 L 243.30 93.70 L 240.40 85.90 L 237.80 77.60 L 246.10 72.40 L 253.30 68.50 L 261.50 64.60 L 272.40 60.10 L 288.90 54.50 L 298.90 51.70 L 308.90 49.20 L 320.10 47.10 L 341.60 44.10 L 361.80 42.80 L 372.90 42.60 L 383.10 36.50 L 392.00 32.00 L 406.40 25.70 L 425.90 18.70 L 437.20 15.30 L 450.20 12.00 L 463.30 9.10 L 478.00 6.40 L 494.40 4.00 L 519.80 1.60 L 533.90 0.90 L 549.00 0.50 L 563.80 0.60 L 579.60 1.10 L 596.30 2.10 L 614.20 3.60 L 609.90 26.00 L 689.30 41.00 L 683.20 46.10 L 675.30 53.40 L 671.20 58.10 L 670.20 59.80 L 722.40 98.20 L 701.40 113.50 L 712.80 125.30 L 718.00 131.20 L 730.50 146.50 L 737.00 155.50 L 743.30 165.00 L 749.20 175.10 L 752.90 182.00 L 759.00 196.20 Z" fill="#b2540f" fill-rule="nonzero" group-id="1" node-id="63" stroke="none" target-height="299.2" target-width="521.2" target-x="237.8" target-y="0.5"></path><path d="M 702.00 929.00 L 647.30 718.30 L 646.10 716.00 L 641.60 710.00 L 634.80 703.80 L 630.70 700.60 L 618.70 693.20 L 611.80 689.60 L 603.30 685.80 L 593.10 681.70 L 597.60 684.90 L 602.10 688.90 L 606.70 693.60 L 612.70 701.50 L 615.60 706.30 L 620.80 717.00 L 623.00 723.00 L 624.90 729.70 L 626.70 737.10 L 649.00 936.70 L 650.60 956.60 L 664.50 951.10 L 672.50 947.00 L 688.20 938.00 L 702.00 929.00 Z" fill="#3f5472" fill-rule="nonzero" group-id="1" node-id="65" stroke="none" target-height="274.89996" target-width="108.900024" target-x="593.1" target-y="681.7"></path><path d="M 331.50 954.70 L 331.60 946.60 L 333.40 929.40 L 336.30 905.20 L 340.20 876.40 L 349.30 813.70 L 358.00 758.90 L 361.40 740.00 L 362.90 733.10 L 367.20 717.50 L 370.40 708.40 L 374.90 699.50 L 377.60 695.20 L 381.00 690.70 L 383.80 687.60 L 390.90 681.50 L 399.70 675.80 L 404.80 673.30 L 410.60 670.80 L 417.20 668.60 L 401.20 672.50 L 391.00 675.60 L 374.70 681.30 L 362.20 687.10 L 350.80 694.00 L 341.00 701.80 L 333.80 709.40 L 330.60 713.60 L 327.70 718.10 L 325.20 723.00 L 323.20 728.10 L 321.70 733.60 L 320.70 739.50 L 261.20 922.30 L 274.90 929.80 L 288.80 936.90 L 302.90 943.60 L 317.20 949.70 L 331.80 955.40 L 331.50 954.70 Z" fill="#3f5472" fill-rule="nonzero" group-id="1" node-id="67" stroke="none" target-height="286.80005" target-width="156" target-x="261.2" target-y="668.6"></path><path d="M 626.70 735.50 L 624.90 727.70 L 622.70 720.70 L 620.20 714.30 L 617.50 708.60 L 614.30 702.90 L 610.90 697.80 L 607.30 693.20 L 603.60 689.00 L 598.30 683.90 L 592.80 679.40 L 587.40 675.70 L 581.70 672.30 L 570.90 667.30 L 563.10 664.50 L 556.40 662.80 L 550.30 661.50 L 542.20 660.60 L 498.30 701.90 L 437.20 664.10 L 428.90 665.60 L 421.60 667.30 L 415.20 669.20 L 409.50 671.30 L 398.60 676.40 L 390.30 681.90 L 385.40 686.10 L 381.40 690.30 L 378.10 694.40 L 375.30 698.80 L 373.10 703.00 L 370.00 711.20 L 368.50 718.10 L 368.00 722.80 L 368.00 728.90 L 369.60 736.50 L 373.40 749.50 L 380.30 768.80 L 384.90 779.90 L 390.60 792.60 L 399.50 809.80 L 404.90 818.90 L 410.50 827.90 L 416.70 836.90 L 423.40 846.00 L 430.60 854.90 L 438.40 863.50 L 446.80 872.00 L 453.30 877.90 L 460.50 883.80 L 468.40 889.70 L 485.10 900.80 L 494.10 906.30 L 507.90 914.00 L 522.10 921.40 L 536.60 928.50 L 551.00 935.00 L 579.00 946.80 L 604.60 956.70 L 626.20 964.30 L 650.70 956.20 L 649.00 935.10 Z" fill="#22324f" fill-rule="nonzero" group-id="1" node-id="69" stroke="none" target-height="303.7" target-width="282.7" target-x="368" target-y="660.6"></path><path d="M 501.90 720.00 L 501.20 723.60 L 499.10 726.70 L 496.00 728.80 L 492.40 729.50 L 488.70 728.80 L 485.60 726.70 L 483.60 723.60 L 482.90 720.00 L 483.60 716.30 L 485.60 713.20 L 488.70 711.20 L 492.40 710.40 L 496.00 711.20 L 499.10 713.20 L 501.20 716.30 L 501.90 720.00 Z" fill="#1a191e" fill-rule="nonzero" group-id="1" node-id="71" stroke="none" target-height="19.099976" target-width="19" target-x="482.9" target-y="710.4"></path><path d="M 501.90 788.20 L 501.20 791.80 L 499.10 794.90 L 496.00 797.00 L 492.40 797.70 L 488.70 797.00 L 485.60 794.90 L 483.60 791.80 L 482.90 788.20 L 483.60 784.50 L 485.60 781.40 L 488.70 779.40 L 492.40 778.70 L 496.00 779.40 L 499.10 781.40 L 501.20 784.50 L 501.90 788.20 Z" fill="#1a191e" fill-rule="nonzero" group-id="1" node-id="73" stroke="none" target-height="19" target-width="19" target-x="482.9" target-y="778.7"></path><path d="M 433.80 668.00 L 491.30 699.20 L 492.60 698.40 L 437.20 664.10 L 423.80 666.70 L 417.20 668.60 L 427.70 667.20 L 431.00 667.30 L 433.80 668.00 Z" fill="none" group-id="1" node-id="75" stroke="none" target-height="35.100037" target-width="75.399994" target-x="417.2" target-y="664.1"></path><path d="M 437.20 664.10 L 493.90 699.20 L 542.20 660.60 L 573.10 692.00 L 528.70 737.00 L 544.20 771.80 L 490.40 874.90 L 435.20 773.20 L 454.90 737.70 L 414.20 697.50 L 437.20 664.10 Z" fill="#3f5472" fill-rule="nonzero" group-id="1" node-id="77" stroke="none" target-height="214.30005" target-width="158.89996" target-x="414.2" target-y="660.6"></path><path d="M 456.30 676.00 L 493.90 699.20 L 528.50 671.50 L 490.40 874.90 L 456.30 676.00 Z" fill="#ffffff" fill-rule="nonzero" group-id="1" node-id="79" stroke="none" target-height="203.40002" target-width="72.20001" target-x="456.3" target-y="671.5"></path><path d="M 544.20 778.70 L 608.90 778.70 L 608.90 788.20 L 544.20 788.20 L 544.20 778.70 Z" fill="#3f5472" fill-rule="nonzero" group-id="1" node-id="81" stroke="none" target-height="9.5" target-width="64.70001" target-x="544.2" target-y="778.7"></path><path d="M 331.50 954.70 L 331.80 955.40 L 346.10 960.40 L 360.50 964.90 L 375.00 968.90 L 389.50 972.50 L 404.10 975.60 L 418.90 978.20 L 433.70 980.30 L 448.50 982.00 L 463.40 983.10 L 478.30 983.80 L 493.20 984.00 L 508.10 983.80 L 523.00 983.00 L 537.90 981.80 L 552.80 980.10 L 567.60 977.90 L 582.30 975.30 L 597.00 972.10 L 611.60 968.50 L 626.20 964.40 L 592.40 952.20 L 565.30 941.30 L 536.60 928.50 L 522.10 921.50 L 507.90 914.10 L 485.10 900.90 L 468.40 889.80 L 460.50 883.90 L 453.30 878.00 L 446.80 872.10 L 438.40 863.60 L 430.60 854.90 L 423.40 846.10 L 416.70 837.00 L 410.50 828.00 L 404.90 819.00 L 399.50 809.80 L 390.60 792.60 L 384.90 780.00 L 380.30 768.80 L 373.40 749.50 L 369.60 736.50 L 368.00 728.90 L 367.90 724.50 L 368.80 716.00 L 371.10 707.70 L 372.80 703.60 L 370.40 708.40 L 368.60 712.90 L 363.70 729.80 L 361.40 740.00 L 358.00 758.90 L 349.30 813.70 L 340.20 876.40 L 333.40 929.40 L 331.60 946.60 L 331.50 954.70 Z" fill="#19283f" fill-rule="nonzero" group-id="1" node-id="83" stroke="none" target-height="280.40002" target-width="294.7" target-x="331.5" target-y="703.6"></path><path d="M 499.90 884.40 L 499.20 888.00 L 497.10 891.10 L 495.70 892.30 L 492.30 893.70 L 488.50 893.70 L 485.10 892.30 L 482.50 889.60 L 481.00 886.20 L 481.00 882.50 L 482.50 879.10 L 485.10 876.40 L 488.50 875.00 L 492.30 875.00 L 495.70 876.40 L 498.30 879.10 L 499.70 882.50 L 499.90 884.40 Z" fill="#1a191e" fill-rule="nonzero" group-id="1" node-id="85" stroke="none" target-height="18.700012" target-width="18.899994" target-x="481" target-y="875"></path><path d="M 499.90 928.20 L 499.20 931.80 L 497.10 934.90 L 494.00 937.00 L 490.40 937.70 L 486.70 937.00 L 483.60 934.90 L 481.60 931.80 L 480.90 928.20 L 481.60 924.50 L 483.60 921.50 L 486.70 919.40 L 490.40 918.70 L 494.00 919.40 L 497.10 921.50 L 499.20 924.50 L 499.90 928.20 Z" fill="#1a191e" fill-rule="nonzero" group-id="1" node-id="87" stroke="none" target-height="19" target-width="19" target-x="480.9" target-y="918.7"></path></g></svg>