<?xml version="1.0" standalone="no"?><!DOCTYPE svg PUBLIC "-//W3C//DTD SVG 1.1//EN" "http://www.w3.org/Graphics/SVG/1.1/DTD/svg11.dtd"><svg height="1011" node-id="1" sillyvg="true" template-height="1011" template-width="981" version="1.1" viewBox="0 0 981 1011" width="981" xmlns="http://www.w3.org/2000/svg" xmlns:xlink="http://www.w3.org/1999/xlink"><defs node-id="34"></defs><g node-id="86"><path d="M 968.20 521.10 L 968.00 536.30 L 967.30 551.50 L 966.10 566.50 L 964.40 581.50 L 962.30 596.30 L 959.70 611.10 L 956.60 625.80 L 953.10 640.30 L 949.20 654.70 L 944.80 669.00 L 939.90 683.10 L 934.70 697.10 L 929.00 710.80 L 922.80 724.40 L 916.20 737.80 L 909.30 751.10 L 901.90 764.00 L 894.10 776.80 L 885.90 789.30 L 877.20 801.60 L 868.20 813.60 L 858.80 825.40 L 849.10 836.80 L 838.90 848.10 L 828.30 859.00 L 817.30 869.60 L 806.10 879.80 L 794.60 889.60 L 782.90 899.00 L 770.90 908.00 L 758.60 916.60 L 746.00 924.80 L 733.30 932.60 L 720.30 940.00 L 707.10 947.00 L 693.70 953.50 L 680.10 959.70 L 666.30 965.40 L 652.40 970.70 L 638.30 975.50 L 624.00 979.90 L 609.60 983.90 L 595.10 987.40 L 580.40 990.40 L 565.60 993.00 L 550.70 995.10 L 535.80 996.80 L 520.70 998.00 L 505.60 998.70 L 490.40 999.00 L 475.10 998.70 L 460.00 998.00 L 445.00 996.80 L 430.00 995.10 L 415.20 993.00 L 400.40 990.40 L 385.70 987.40 L 371.20 983.90 L 356.80 979.90 L 342.50 975.50 L 328.40 970.70 L 314.40 965.40 L 300.70 959.70 L 287.10 953.50 L 273.60 947.00 L 260.40 940.00 L 247.50 932.60 L 234.70 924.80 L 222.20 916.60 L 209.90 908.00 L 197.90 899.00 L 186.10 889.60 L 174.60 879.80 L 163.40 869.60 L 152.50 859.00 L 141.90 848.10 L 131.70 836.80 L 121.90 825.40 L 112.50 813.60 L 103.50 801.60 L 94.90 789.30 L 86.70 776.80 L 78.90 764.00 L 71.50 751.10 L 64.50 737.80 L 57.90 724.40 L 51.80 710.80 L 46.10 697.10 L 40.80 683.10 L 36.00 669.00 L 31.60 654.70 L 27.60 640.30 L 24.10 625.80 L 21.10 611.10 L 18.50 596.30 L 16.40 581.50 L 14.70 566.50 L 13.50 551.50 L 12.80 536.30 L 12.50 521.10 L 12.80 505.90 L 13.50 490.70 L 14.70 475.70 L 16.40 460.80 L 18.50 445.90 L 21.10 431.10 L 24.10 416.40 L 27.60 401.90 L 31.60 387.50 L 36.00 373.20 L 40.80 359.10 L 46.10 345.10 L 51.80 331.40 L 57.90 317.80 L 64.50 304.40 L 71.50 291.20 L 78.90 278.20 L 86.70 265.40 L 94.90 252.90 L 103.50 240.60 L 112.50 228.60 L 121.90 216.80 L 131.70 205.40 L 141.90 194.20 L 152.50 183.20 L 163.40 172.60 L 174.60 162.40 L 186.10 152.60 L 197.90 143.30 L 209.90 134.30 L 222.20 125.60 L 234.70 117.40 L 247.50 109.60 L 260.40 102.20 L 273.60 95.20 L 287.10 88.70 L 300.70 82.50 L 314.40 76.80 L 328.40 71.60 L 342.50 66.70 L 356.80 62.30 L 371.20 58.40 L 385.70 54.90 L 400.40 51.80 L 415.20 49.20 L 430.00 47.10 L 445.00 45.40 L 460.00 44.20 L 475.10 43.50 L 490.40 43.30 L 505.60 43.50 L 520.70 44.20 L 535.80 45.40 L 550.70 47.10 L 565.60 49.20 L 580.40 51.80 L 595.10 54.90 L 609.60 58.40 L 624.00 62.30 L 638.30 66.70 L 652.40 71.60 L 666.30 76.80 L 680.10 82.50 L 693.70 88.70 L 707.10 95.20 L 720.30 102.20 L 733.30 109.60 L 746.00 117.40 L 758.60 125.60 L 770.90 134.30 L 782.90 143.30 L 794.60 152.60 L 806.10 162.40 L 817.30 172.60 L 828.30 183.20 L 838.90 194.20 L 849.10 205.40 L 858.80 216.80 L 868.20 228.60 L 877.20 240.60 L 885.90 252.90 L 894.10 265.40 L 901.90 278.20 L 909.30 291.20 L 916.30 304.40 L 922.80 317.80 L 929.00 331.40 L 934.70 345.10 L 939.90 359.10 L 944.80 373.20 L 949.20 387.50 L 953.10 401.90 L 956.60 416.40 L 959.70 431.10 L 962.30 445.90 L 964.40 460.80 L 966.10 475.70 L 967.30 490.70 L 968.00 505.90 L 968.20 521.10 Z" fill="#e3f0d5" fill-rule="nonzero" group-id="1" node-id="38" stroke="none" target-height="955.7" target-width="955.7" target-x="12.5" target-y="43.3"></path><path d="M 490.40 1011.50 L 472.80 1011.20 L 455.50 1010.20 L 438.40 1008.70 L 421.40 1006.60 L 404.70 1003.90 L 387.90 1000.70 L 371.50 996.80 L 355.20 992.50 L 339.20 987.60 L 323.40 982.10 L 307.80 976.20 L 292.50 969.70 L 277.40 962.70 L 262.60 955.30 L 248.10 947.30 L 233.80 938.90 L 219.90 930.00 L 206.30 920.60 L 193.00 910.80 L 180.10 900.60 L 167.50 889.90 L 155.20 878.80 L 143.40 867.40 L 131.90 855.50 L 120.80 843.20 L 110.10 830.50 L 99.90 817.50 L 90.10 804.10 L 80.70 790.40 L 71.80 776.20 L 63.30 761.80 L 55.30 747.10 L 47.90 732.00 L 40.90 716.60 L 34.30 700.90 L 28.40 685.00 L 23.00 668.80 L 18.10 652.30 L 13.80 635.50 L 10.00 618.40 L 6.80 601.10 L 4.20 583.90 L 2.30 566.90 L 1.00 549.80 L 0.30 532.90 L 0.20 515.80 L 0.60 498.90 L 1.70 482.10 L 3.30 465.50 L 5.50 448.90 L 8.20 432.40 L 11.50 416.10 L 15.30 399.90 L 19.70 384.00 L 24.60 368.10 L 30.00 352.50 L 36.00 337.10 L 42.40 321.90 L 49.40 306.90 L 56.80 292.20 L 64.80 277.70 L 73.20 263.50 L 82.10 249.60 L 91.40 236.00 L 101.30 222.70 L 111.60 209.70 L 122.30 197.10 L 133.40 184.80 L 145.10 172.90 L 157.10 161.30 L 169.60 150.10 L 182.40 139.40 L 195.70 129.10 L 209.40 119.10 L 223.50 109.60 L 237.90 100.60 L 252.70 92.10 L 267.90 84.00 L 283.50 76.40 L 299.50 69.30 L 315.80 62.70 L 332.20 56.90 L 348.60 51.60 L 365.20 46.90 L 381.90 42.80 L 398.70 39.30 L 415.60 36.40 L 432.50 34.20 L 449.40 32.50 L 466.30 31.30 L 483.30 30.80 L 500.30 30.90 L 517.20 31.50 L 534.00 32.80 L 550.90 34.60 L 567.60 37.00 L 584.30 39.90 L 600.80 43.50 L 617.30 47.60 L 633.60 52.30 L 649.80 57.50 L 665.70 63.40 L 681.50 69.70 L 697.20 76.70 L 712.60 84.20 L 727.80 92.30 L 742.70 100.90 L 757.30 110.10 L 771.70 119.80 L 785.90 130.10 L 799.70 141.00 L 813.10 152.20 L 825.90 163.80 L 838.20 175.80 L 850.10 188.20 L 861.50 201.10 L 872.50 214.20 L 882.90 227.70 L 892.80 241.50 L 902.30 255.60 L 911.20 270.00 L 919.70 284.70 L 927.60 299.70 L 934.90 314.90 L 941.80 330.40 L 948.10 346.10 L 953.90 362.00 L 959.10 378.10 L 963.80 394.40 L 967.90 410.90 L 971.40 427.50 L 974.40 444.30 L 976.80 461.10 L 978.60 478.10 L 979.80 495.30 L 980.40 512.40 L 980.40 529.60 L 979.80 546.90 L 978.60 564.30 L 976.70 581.70 L 974.20 599.10 L 971.20 616.30 L 967.50 633.20 L 963.30 649.90 L 958.50 666.30 L 953.20 682.70 L 947.30 698.70 L 940.80 714.50 L 933.90 730.00 L 926.40 745.20 L 918.30 760.20 L 909.80 774.90 L 900.80 789.20 L 891.30 803.20 L 881.40 816.90 L 870.90 830.20 L 860.00 843.20 L 848.70 855.80 L 837.00 868.00 L 824.70 879.80 L 812.10 891.20 L 799.10 902.10 L 785.70 912.60 L 771.90 922.70 L 757.60 932.30 L 743.10 941.40 L 728.20 950.00 L 712.90 958.20 L 697.30 965.80 L 681.30 972.90 L 666.00 979.10 L 650.70 984.70 L 635.20 989.80 L 619.50 994.30 L 603.70 998.40 L 587.80 1001.80 L 571.70 1004.80 L 555.60 1007.20 L 539.40 1009.10 L 523.10 1010.50 L 506.80 1011.20 L 490.40 1011.50 Z M 490.40 55.80 L 473.70 56.10 L 457.30 57.00 L 441.00 58.40 L 425.00 60.40 L 409.00 63.00 L 393.20 66.10 L 377.50 69.70 L 362.10 73.80 L 346.90 78.50 L 332.00 83.60 L 317.10 89.30 L 302.60 95.40 L 288.30 102.10 L 274.20 109.10 L 260.50 116.70 L 246.90 124.70 L 233.70 133.10 L 220.80 142.00 L 208.20 151.30 L 195.90 161.00 L 184.00 171.10 L 172.40 181.60 L 161.10 192.50 L 150.20 203.80 L 139.70 215.50 L 129.60 227.50 L 119.80 239.90 L 110.50 252.60 L 101.60 265.60 L 93.10 279.00 L 85.10 292.70 L 77.60 306.70 L 70.50 321.00 L 63.80 335.60 L 57.60 350.50 L 52.00 365.60 L 46.80 381.00 L 42.20 396.60 L 38.10 412.60 L 34.50 428.80 L 31.50 445.20 L 29.10 461.50 L 27.20 477.70 L 26.00 493.90 L 25.30 509.90 L 25.20 526.10 L 25.60 542.20 L 26.60 558.10 L 28.20 573.90 L 30.20 589.60 L 32.80 605.30 L 36.00 620.80 L 39.60 636.10 L 43.70 651.30 L 48.40 666.30 L 53.50 681.10 L 59.20 695.80 L 65.30 710.20 L 71.90 724.40 L 79.00 738.30 L 86.50 752.10 L 94.50 765.50 L 102.90 778.70 L 111.80 791.60 L 121.20 804.30 L 130.90 816.60 L 141.10 828.60 L 151.70 840.20 L 162.70 851.60 L 174.20 862.60 L 186.00 873.10 L 198.10 883.30 L 210.70 893.10 L 223.70 902.60 L 237.10 911.60 L 250.80 920.10 L 264.80 928.20 L 279.20 935.90 L 294.00 943.10 L 309.30 949.90 L 324.70 956.10 L 340.30 961.70 L 355.90 966.70 L 371.60 971.20 L 387.50 975.00 L 403.40 978.40 L 419.40 981.10 L 435.50 983.30 L 451.50 984.90 L 467.60 986.00 L 483.80 986.50 L 499.80 986.50 L 515.90 985.90 L 531.90 984.70 L 547.90 983.00 L 563.80 980.70 L 579.60 977.90 L 595.40 974.60 L 611.00 970.70 L 626.50 966.20 L 641.80 961.20 L 657.00 955.70 L 672.00 949.70 L 686.80 943.10 L 701.50 935.90 L 715.90 928.30 L 730.00 920.10 L 744.00 911.40 L 757.70 902.20 L 771.10 892.30 L 784.30 882.00 L 796.90 871.40 L 809.10 860.40 L 820.80 849.00 L 832.00 837.20 L 842.90 825.00 L 853.30 812.50 L 863.20 799.80 L 872.60 786.70 L 881.60 773.30 L 890.10 759.50 L 898.10 745.60 L 905.60 731.40 L 912.60 716.90 L 919.10 702.20 L 925.10 687.30 L 930.60 672.20 L 935.60 656.90 L 940.00 641.50 L 943.90 625.80 L 947.30 610.00 L 950.10 594.10 L 952.30 578.10 L 954.00 562.00 L 955.20 545.70 L 955.80 529.40 L 955.80 513.10 L 955.20 496.60 L 954.00 480.20 L 952.30 463.60 L 949.90 447.10 L 947.00 430.80 L 943.50 414.80 L 939.50 398.90 L 935.00 383.30 L 929.90 367.80 L 924.20 352.50 L 918.10 337.60 L 911.50 322.80 L 904.40 308.40 L 896.70 294.10 L 888.70 280.20 L 880.10 266.60 L 871.10 253.30 L 861.60 240.30 L 851.70 227.70 L 841.40 215.40 L 830.60 203.50 L 819.40 191.90 L 807.80 180.70 L 795.80 169.90 L 783.50 159.50 L 770.70 149.50 L 757.60 140.00 L 744.10 130.80 L 730.30 122.20 L 716.10 114.00 L 701.60 106.30 L 686.70 99.10 L 671.50 92.30 L 657.10 86.50 L 642.50 81.20 L 627.80 76.40 L 612.90 72.10 L 597.90 68.20 L 582.80 64.90 L 567.60 62.10 L 552.30 59.80 L 536.90 58.00 L 521.40 56.80 L 505.90 56.00 L 490.40 55.80 Z" fill="#ffffff" fill-rule="nonzero" group-id="1" node-id="40" stroke="none" target-height="980.7" target-width="980.2" target-x="0.2" target-y="30.8"></path><path d="M 435.20 632.00 L 437.20 673.30 L 498.50 717.60 L 540.30 703.90 L 544.20 620.10 L 435.20 632.00 Z" fill="#e5afa1" fill-rule="nonzero" group-id="1" node-id="42" stroke="none" target-height="97.5" target-width="109" target-x="435.2" target-y="620.1"></path><path d="M 728.50 389.70 L 735.00 389.60 L 739.70 389.80 L 744.80 390.40 L 754.20 392.60 L 761.50 395.70 L 764.90 397.80 L 768.00 400.30 L 770.80 403.30 L 772.50 405.80 L 774.00 408.60 L 775.10 411.80 L 775.90 415.40 L 776.30 419.00 L 776.30 423.10 L 775.80 427.70 L 773.80 436.50 L 770.90 445.90 L 766.00 459.60 L 759.00 475.70 L 754.80 484.20 L 746.60 498.40 L 739.10 509.00 L 734.90 514.10 L 730.50 518.60 L 726.00 522.80 L 721.10 526.60 L 716.10 529.80 L 710.80 532.50 L 704.40 533.70 L 699.40 534.10 L 693.90 534.10 L 687.20 533.50 L 686.40 533.10 L 685.70 532.40 L 685.00 529.00 L 685.00 526.20 L 686.20 517.80 L 687.70 510.50 L 692.60 492.30 L 702.70 460.80 L 710.00 439.70 L 728.50 389.70 Z" fill="#e5afa1" fill-rule="nonzero" group-id="1" node-id="44" stroke="none" target-height="144.49997" target-width="91.29999" target-x="685" target-y="389.6"></path><path d="M 234.50 372.00 L 227.90 371.90 L 223.20 372.20 L 218.20 372.70 L 208.80 374.90 L 201.40 378.00 L 198.00 380.10 L 194.90 382.60 L 192.20 385.60 L 190.40 388.10 L 189.00 390.90 L 187.90 394.10 L 187.00 397.70 L 186.60 401.30 L 186.60 405.40 L 187.10 410.00 L 189.10 418.80 L 192.10 428.30 L 197.00 441.90 L 203.90 458.10 L 208.10 466.50 L 216.30 480.70 L 223.90 491.40 L 228.10 496.40 L 232.40 501.00 L 237.00 505.20 L 241.90 509.00 L 246.90 512.20 L 252.20 514.80 L 258.50 516.00 L 263.60 516.40 L 269.00 516.40 L 275.80 515.80 L 276.60 515.50 L 277.30 514.70 L 277.70 513.40 L 278.00 511.30 L 278.00 508.50 L 276.80 500.10 L 275.20 492.80 L 270.30 474.60 L 260.30 443.20 L 253.00 422.00 L 234.50 372.00 Z" fill="#e5afa1" fill-rule="nonzero" group-id="1" node-id="46" stroke="none" target-height="144.50003" target-width="91.399994" target-x="186.6" target-y="371.9"></path><path d="M 230.20 341.80 L 234.20 373.40 L 238.90 400.30 L 245.70 432.30 L 250.10 449.90 L 257.00 473.60 L 265.20 498.00 L 274.90 522.10 L 280.30 534.00 L 286.00 545.50 L 292.20 556.70 L 297.10 564.90 L 307.70 580.40 L 313.30 587.70 L 319.20 594.80 L 325.40 601.40 L 331.80 607.50 L 338.40 613.20 L 345.40 618.60 L 352.70 623.30 L 360.20 627.60 L 377.60 635.50 L 393.70 641.60 L 404.30 645.10 L 415.40 648.30 L 428.00 651.30 L 445.60 654.40 L 454.90 655.50 L 464.30 656.10 L 473.70 656.30 L 488.30 655.60 L 501.80 654.30 L 521.80 651.60 L 546.10 646.90 L 559.20 643.70 L 572.90 639.80 L 591.00 633.60 L 599.90 629.90 L 608.70 625.80 L 617.10 621.40 L 625.10 616.50 L 633.20 610.50 L 644.10 600.70 L 655.30 588.90 L 661.00 582.10 L 674.00 564.60 L 680.40 554.90 L 687.10 543.70 L 694.10 531.00 L 699.00 521.40 L 708.90 499.50 L 713.90 487.10 L 718.40 474.80 L 722.90 461.60 L 727.20 447.20 L 731.50 431.80 L 735.30 416.60 L 738.80 400.30 L 742.10 382.80 L 745.20 364.10 L 737.20 347.80 L 727.60 331.00 L 721.50 321.60 L 714.40 311.60 L 709.20 305.00 L 697.80 291.90 L 691.60 285.70 L 685.00 279.80 L 678.10 274.30 L 667.10 267.10 L 655.50 261.30 L 649.40 259.00 L 643.10 257.20 L 636.70 255.90 L 630.00 255.10 L 628.30 259.90 L 626.10 263.50 L 621.90 268.80 L 618.60 272.00 L 615.20 274.90 L 610.70 278.00 L 605.20 281.30 L 599.50 284.20 L 592.50 287.10 L 584.10 290.10 L 575.60 292.60 L 565.50 294.80 L 553.60 296.90 L 541.70 298.50 L 527.90 299.60 L 512.00 300.40 L 468.50 316.10 L 447.20 300.40 L 401.30 286.60 L 385.20 274.00 L 372.80 265.50 L 366.20 261.40 L 359.40 257.80 L 353.10 254.90 L 348.80 253.30 L 345.00 252.30 L 341.60 251.80 L 339.00 251.80 L 336.80 252.20 L 334.90 253.00 L 333.20 254.10 L 331.90 255.60 L 330.80 257.60 L 330.00 260.20 L 329.60 263.60 L 317.60 265.70 L 312.40 266.30 L 309.20 266.20 L 308.80 265.90 L 308.90 265.50 L 309.50 264.80 L 314.90 262.00 L 289.90 282.20 L 274.70 295.50 L 258.60 310.40 L 243.30 326.20 L 236.20 334.20 L 230.20 341.80 Z" fill="#f4d5c1" fill-rule="nonzero" group-id="1" node-id="48" stroke="none" target-height="404.5" target-width="515" target-x="230.2" target-y="251.8"></path><path d="M 742.40 402.80 L 738.20 390.40 L 733.20 377.90 L 726.40 363.80 L 722.50 356.80 L 718.20 350.10 L 715.00 345.90 L 708.50 338.80 L 704.90 335.80 L 701.30 333.40 L 697.70 331.70 L 687.10 341.10 L 670.80 357.30 L 659.20 370.80 L 653.90 377.80 L 651.80 372.60 L 647.50 365.30 L 644.30 361.30 L 641.80 358.80 L 635.50 354.40 L 631.90 352.70 L 627.80 351.50 L 623.10 350.60 L 615.70 350.60 L 606.60 352.20 L 607.20 370.30 L 606.90 378.00 L 606.30 381.10 L 605.60 382.70 L 603.80 382.90 L 596.50 381.20 L 574.90 374.00 L 538.60 360.50 L 492.30 342.30 L 490.30 364.00 L 485.70 365.20 L 473.00 368.10 L 454.10 371.00 L 443.10 372.20 L 430.80 372.80 L 413.80 372.60 L 404.90 372.00 L 396.10 370.90 L 387.20 369.20 L 378.30 367.10 L 371.80 365.10 L 365.30 362.70 L 359.00 360.00 L 352.80 356.80 L 346.90 353.30 L 341.20 349.20 L 335.60 344.70 L 330.30 339.70 L 325.40 334.30 L 320.80 328.40 L 316.50 321.70 L 312.50 314.40 L 301.90 324.40 L 293.40 333.20 L 284.20 343.30 L 264.90 366.50 L 247.10 390.40 L 238.20 403.30 L 228.70 417.70 L 218.80 433.80 L 211.70 396.10 L 207.60 371.90 L 203.60 344.80 L 200.10 316.90 L 197.80 289.90 L 197.30 277.10 L 197.50 258.40 L 198.90 246.40 L 175.30 237.50 L 180.00 222.30 L 186.70 205.70 L 191.10 196.00 L 196.80 185.00 L 205.60 170.00 L 216.50 154.10 L 222.70 146.20 L 229.50 138.00 L 236.60 130.20 L 244.50 122.50 L 253.00 114.80 L 255.00 111.60 L 255.90 109.00 L 256.50 105.10 L 256.00 100.40 L 255.00 97.80 L 253.50 94.90 L 251.60 92.30 L 248.90 89.40 L 245.10 86.30 L 244.90 85.30 L 245.40 82.80 L 246.50 81.20 L 248.80 79.00 L 251.90 76.90 L 257.10 74.20 L 263.20 71.70 L 272.20 68.80 L 282.40 66.00 L 296.20 63.00 L 311.50 60.20 L 331.20 57.20 L 352.50 54.50 L 379.10 51.80 L 388.70 46.30 L 405.90 37.80 L 417.70 32.70 L 430.40 27.80 L 445.40 22.60 L 455.80 19.50 L 479.20 13.60 L 491.50 11.10 L 504.50 9.00 L 518.30 7.30 L 539.20 5.80 L 550.20 5.60 L 572.90 6.20 L 584.50 7.10 L 596.30 8.50 L 608.50 10.40 L 610.50 36.00 L 634.20 38.10 L 647.60 40.00 L 660.70 42.70 L 666.80 44.40 L 671.70 46.30 L 674.70 47.80 L 676.90 49.30 L 678.50 50.80 L 671.90 71.50 L 690.10 84.60 L 711.20 98.80 L 720.40 104.30 L 726.90 107.20 L 690.30 103.00 L 697.20 110.20 L 708.20 123.10 L 722.10 141.70 L 734.70 161.10 L 744.80 179.00 L 749.60 188.50 L 754.20 198.50 L 758.60 209.10 L 762.50 219.90 L 766.10 231.20 L 769.20 243.00 L 771.20 251.90 L 774.20 270.40 L 775.10 280.00 L 760.90 286.40 L 751.30 353.40 L 745.20 389.60 L 742.40 402.80 Z" fill="#d2a597" fill-rule="nonzero" group-id="1" node-id="50" stroke="none" target-height="428.19998" target-width="599.8" target-x="175.3" target-y="5.6"></path><path d="M 762.10 211.10 L 755.40 218.80 L 749.70 224.80 L 734.50 239.30 L 725.00 247.40 L 713.50 256.40 L 705.50 262.30 L 686.90 274.40 L 677.00 280.20 L 666.30 285.90 L 654.80 291.50 L 643.10 296.60 L 630.60 301.40 L 617.40 305.80 L 607.40 308.70 L 597.00 311.30 L 586.20 313.60 L 574.90 315.60 L 563.70 317.10 L 552.00 318.20 L 540.00 318.80 L 527.40 319.00 L 517.20 318.70 L 499.90 317.20 L 488.50 315.70 L 476.40 313.60 L 462.70 310.70 L 453.40 308.40 L 433.20 302.30 L 423.10 298.60 L 412.60 294.30 L 401.90 289.40 L 391.40 284.10 L 380.90 278.10 L 370.30 271.30 L 362.70 265.90 L 355.10 260.10 L 347.60 253.80 L 340.20 247.00 L 333.20 240.00 L 326.40 232.40 L 319.70 224.30 L 313.20 215.60 L 307.30 206.70 L 301.60 197.20 L 296.20 187.00 L 291.10 176.20 L 284.60 169.60 L 274.60 158.10 L 268.50 150.40 L 262.40 142.10 L 256.10 132.40 L 248.20 118.60 L 244.50 111.00 L 241.10 103.30 L 238.10 95.20 L 235.60 86.90 L 243.00 82.60 L 249.70 79.50 L 257.30 76.30 L 267.90 72.80 L 275.30 70.60 L 294.00 66.40 L 304.10 64.80 L 315.60 63.30 L 328.50 62.20 L 341.50 61.60 L 355.90 61.50 L 371.80 61.90 L 381.70 55.10 L 390.50 50.00 L 404.70 43.00 L 414.20 38.80 L 423.90 35.10 L 435.00 31.30 L 457.50 24.90 L 479.30 20.40 L 491.80 18.30 L 503.90 16.70 L 516.90 15.40 L 531.00 14.50 L 546.10 13.90 L 560.80 13.80 L 576.50 14.20 L 593.30 15.10 L 611.10 16.60 L 608.80 45.30 L 675.20 62.00 L 670.20 86.60 L 706.60 89.20 L 695.80 132.90 L 703.60 138.70 L 715.70 148.90 L 723.00 155.70 L 730.30 163.10 L 737.90 171.60 L 747.30 183.70 L 751.70 190.30 L 755.70 197.00 L 759.10 204.00 L 762.10 211.10 Z" fill="#374968" fill-rule="nonzero" group-id="1" node-id="52" stroke="none" target-height="305.2" target-width="526.5" target-x="235.6" target-y="13.8"></path><path d="M 762.80 201.80 L 754.80 211.00 L 747.90 218.10 L 739.90 225.70 L 729.40 234.80 L 721.90 240.80 L 703.70 253.90 L 693.90 260.20 L 683.00 266.60 L 671.10 272.90 L 652.40 281.60 L 631.50 289.50 L 620.80 292.90 L 609.50 296.00 L 597.70 298.70 L 585.20 301.10 L 572.90 302.90 L 560.00 304.20 L 546.50 305.00 L 532.40 305.20 L 522.10 304.90 L 504.80 303.50 L 493.40 301.90 L 481.40 299.90 L 467.60 296.90 L 458.30 294.60 L 438.20 288.50 L 428.00 284.80 L 417.60 280.50 L 406.80 275.70 L 396.40 270.30 L 385.80 264.30 L 375.30 257.60 L 367.60 252.20 L 360.00 246.30 L 352.50 240.00 L 345.10 233.30 L 338.10 226.20 L 331.30 218.60 L 324.60 210.50 L 318.20 201.80 L 312.20 193.00 L 306.50 183.40 L 301.10 173.30 L 296.00 162.40 L 289.70 157.30 L 279.90 148.10 L 274.00 141.60 L 266.00 131.90 L 257.90 120.10 L 254.10 113.60 L 250.40 106.50 L 247.10 99.30 L 244.20 91.50 L 241.60 83.20 L 249.90 78.00 L 257.10 74.10 L 265.30 70.20 L 276.20 65.70 L 292.70 60.00 L 302.70 57.20 L 312.70 54.80 L 323.90 52.60 L 345.40 49.70 L 365.60 48.40 L 376.70 48.20 L 386.70 41.40 L 395.40 36.30 L 409.60 29.20 L 419.10 25.10 L 428.80 21.40 L 439.90 17.60 L 462.40 11.20 L 484.30 6.60 L 496.70 4.60 L 508.80 3.00 L 521.90 1.70 L 535.90 0.70 L 551.00 0.20 L 565.70 0.10 L 581.40 0.50 L 598.20 1.40 L 616.10 2.90 L 613.70 31.60 L 680.10 48.20 L 675.20 72.80 L 726.80 107.30 L 705.20 119.10 L 716.70 130.90 L 721.90 136.80 L 734.30 152.10 L 740.90 161.10 L 747.10 170.60 L 753.10 180.60 L 756.70 187.60 L 762.80 201.80 Z" fill="#374968" fill-rule="nonzero" group-id="1" node-id="54" stroke="none" target-height="305.1" target-width="521.19995" target-x="241.6" target-y="0.1"></path><path d="M 740.50 406.30 L 735.90 392.70 L 730.50 379.00 L 723.30 363.50 L 719.20 355.80 L 714.70 348.60 L 711.40 344.00 L 704.80 336.30 L 701.10 333.10 L 697.40 330.70 L 693.80 328.90 L 683.20 338.30 L 666.90 354.50 L 655.30 368.00 L 650.00 375.00 L 648.00 369.80 L 643.70 362.50 L 640.40 358.50 L 637.90 356.00 L 635.00 353.80 L 631.60 351.60 L 628.00 350.00 L 623.90 348.70 L 619.20 347.90 L 611.80 347.80 L 602.70 349.40 L 603.40 367.50 L 603.00 375.20 L 602.40 378.30 L 601.70 379.90 L 599.90 380.10 L 592.60 378.40 L 571.00 371.20 L 534.70 357.70 L 488.50 339.50 L 486.50 361.20 L 481.90 362.50 L 469.20 365.30 L 450.20 368.30 L 439.20 369.40 L 426.90 370.00 L 410.00 369.80 L 401.10 369.20 L 392.20 368.10 L 383.40 366.50 L 374.50 364.30 L 367.90 362.30 L 361.50 359.90 L 355.20 357.20 L 349.00 354.00 L 343.00 350.50 L 337.30 346.50 L 331.80 342.00 L 326.40 336.90 L 321.60 331.60 L 317.00 325.60 L 312.70 319.00 L 308.70 311.60 L 298.10 321.60 L 289.60 330.40 L 280.40 340.50 L 261.00 363.70 L 243.20 387.60 L 234.30 400.50 L 224.90 414.90 L 215.00 431.00 L 208.30 395.00 L 204.60 371.70 L 200.80 345.70 L 197.70 318.70 L 195.70 292.60 L 195.20 280.20 L 195.60 261.80 L 197.00 249.90 L 173.30 241.10 L 177.70 224.60 L 184.00 206.70 L 188.20 196.40 L 193.70 184.70 L 202.30 168.90 L 212.90 152.20 L 219.00 144.00 L 225.70 135.60 L 232.90 127.60 L 240.70 119.80 L 249.20 112.10 L 251.10 108.80 L 252.10 106.30 L 252.70 102.30 L 252.10 97.60 L 251.20 95.00 L 249.70 92.10 L 247.80 89.50 L 245.00 86.60 L 241.30 83.50 L 241.00 82.60 L 241.60 80.00 L 242.70 78.40 L 245.00 76.20 L 248.10 74.10 L 253.20 71.40 L 259.40 68.90 L 268.40 66.00 L 278.60 63.30 L 292.40 60.20 L 307.70 57.40 L 327.30 54.50 L 348.70 51.80 L 375.20 49.00 L 384.90 43.50 L 402.10 35.10 L 413.80 30.00 L 426.50 25.00 L 441.60 19.90 L 452.00 16.70 L 475.40 10.80 L 487.60 8.40 L 500.60 6.30 L 514.40 4.60 L 535.40 3.10 L 546.40 2.80 L 569.10 3.40 L 580.60 4.40 L 592.50 5.80 L 604.70 7.70 L 606.70 33.30 L 630.30 35.40 L 643.80 37.30 L 656.90 40.00 L 662.90 41.70 L 667.80 43.50 L 670.90 45.00 L 674.70 48.00 L 668.00 68.70 L 686.00 80.50 L 706.90 93.30 L 716.00 98.30 L 722.40 101.00 L 686.50 100.20 L 693.90 108.10 L 705.70 122.20 L 720.60 142.20 L 734.20 162.80 L 745.00 181.80 L 750.10 191.70 L 755.00 202.20 L 759.60 213.20 L 763.90 224.40 L 767.60 236.00 L 771.00 248.00 L 773.10 257.10 L 776.10 275.80 L 777.10 285.40 L 759.00 289.90 L 749.40 356.90 L 743.30 393.10 L 740.50 406.30 Z" fill="#28395e" fill-rule="nonzero" group-id="1" node-id="56" stroke="none" target-height="428.2" target-width="603.8" target-x="173.3" target-y="2.8"></path><path d="M 763.00 208.40 L 756.00 216.00 L 750.00 222.10 L 734.20 236.50 L 724.30 244.70 L 712.40 253.70 L 704.10 259.50 L 685.00 271.60 L 674.90 277.40 L 663.90 283.10 L 652.20 288.70 L 640.20 293.80 L 627.60 298.60 L 614.20 303.00 L 593.50 308.50 L 571.20 312.80 L 559.90 314.30 L 548.20 315.40 L 536.10 316.00 L 523.60 316.20 L 513.40 315.90 L 496.00 314.50 L 484.60 312.90 L 472.60 310.90 L 458.80 307.90 L 449.50 305.60 L 429.40 299.50 L 419.20 295.80 L 408.80 291.50 L 398.10 286.70 L 387.60 281.30 L 377.10 275.30 L 366.50 268.50 L 358.80 263.20 L 351.30 257.30 L 343.80 251.00 L 336.40 244.20 L 329.30 237.20 L 322.50 229.60 L 315.80 221.50 L 309.40 212.80 L 303.40 203.90 L 297.70 194.40 L 292.30 184.30 L 287.20 173.40 L 280.70 166.80 L 270.70 155.40 L 264.60 147.60 L 258.60 139.30 L 252.20 129.60 L 244.30 115.80 L 240.60 108.20 L 237.20 100.50 L 234.30 92.50 L 231.70 84.20 L 239.10 79.80 L 245.80 76.70 L 253.50 73.60 L 264.00 70.00 L 271.40 67.80 L 290.20 63.70 L 300.30 62.00 L 311.70 60.60 L 324.70 59.50 L 337.60 58.80 L 352.00 58.70 L 368.00 59.20 L 377.90 52.30 L 386.60 47.30 L 400.80 40.20 L 410.40 36.10 L 420.00 32.30 L 431.20 28.50 L 453.60 22.20 L 475.50 17.60 L 487.90 15.50 L 500.00 13.90 L 513.10 12.60 L 527.10 11.70 L 542.20 11.10 L 557.00 11.00 L 572.70 11.40 L 589.40 12.30 L 607.30 13.90 L 605.00 42.60 L 671.30 59.20 L 666.40 83.80 L 693.70 99.90 L 692.00 130.10 L 703.30 138.00 L 715.00 147.20 L 728.40 159.30 L 735.30 166.30 L 746.30 179.20 L 754.10 190.40 L 757.50 196.30 L 760.50 202.20 L 763.00 208.40 Z" fill="#1d2d49" fill-rule="nonzero" group-id="1" node-id="58" stroke="none" target-height="305.2" target-width="531.3" target-x="231.7" target-y="11"></path><path d="M 759.00 199.00 L 751.00 208.20 L 744.00 215.30 L 736.10 222.90 L 725.50 232.00 L 718.10 238.00 L 699.90 251.10 L 690.00 257.40 L 679.20 263.80 L 667.20 270.10 L 648.60 278.80 L 627.70 286.70 L 616.90 290.10 L 605.70 293.20 L 593.80 295.90 L 581.40 298.30 L 569.00 300.10 L 556.10 301.40 L 542.60 302.20 L 528.50 302.40 L 518.30 302.20 L 501.00 300.70 L 489.50 299.10 L 477.50 297.10 L 463.70 294.10 L 454.40 291.80 L 434.30 285.70 L 424.10 282.00 L 413.70 277.70 L 403.00 272.90 L 392.50 267.50 L 382.00 261.50 L 371.40 254.80 L 363.70 249.40 L 356.20 243.50 L 348.70 237.20 L 341.30 230.50 L 334.30 223.40 L 327.40 215.80 L 320.80 207.70 L 314.30 199.00 L 308.30 190.20 L 302.60 180.60 L 297.20 170.50 L 292.10 159.60 L 285.80 154.60 L 276.10 145.30 L 270.10 138.90 L 262.20 129.10 L 254.10 117.30 L 250.30 110.80 L 246.60 103.70 L 243.30 96.50 L 240.30 88.70 L 237.80 80.40 L 246.10 75.20 L 253.30 71.30 L 261.50 67.40 L 272.40 62.90 L 288.80 57.30 L 298.80 54.40 L 308.90 52.00 L 320.00 49.90 L 341.60 46.90 L 361.80 45.60 L 372.90 45.40 L 383.00 39.30 L 391.90 34.80 L 406.40 28.50 L 425.80 21.50 L 437.10 18.10 L 450.10 14.70 L 463.20 11.80 L 477.90 9.20 L 494.40 6.80 L 519.70 4.40 L 533.80 3.70 L 549.00 3.30 L 563.80 3.30 L 579.50 3.90 L 596.30 4.90 L 614.10 6.40 L 609.90 28.80 L 689.30 43.80 L 683.20 48.80 L 675.30 56.20 L 671.20 60.90 L 670.20 62.50 L 722.40 101.00 L 701.40 116.30 L 712.80 128.10 L 718.00 134.00 L 730.50 149.30 L 737.00 158.30 L 743.30 167.70 L 749.20 177.80 L 752.90 184.80 L 759.00 199.00 Z" fill="#374968" fill-rule="nonzero" group-id="1" node-id="60" stroke="none" target-height="299.1" target-width="521.2" target-x="237.8" target-y="3.3"></path><path d="M 702.00 931.80 L 647.30 721.10 L 646.10 718.80 L 641.60 712.80 L 634.80 706.50 L 630.80 703.40 L 618.70 696.00 L 611.80 692.40 L 603.40 688.60 L 593.10 684.40 L 597.60 687.70 L 602.20 691.60 L 606.70 696.30 L 612.80 704.30 L 615.70 709.10 L 620.80 719.80 L 623.00 725.80 L 625.00 732.40 L 626.70 739.90 L 649.00 939.50 L 650.60 959.30 L 664.50 953.80 L 672.50 949.80 L 688.20 940.80 L 702.00 931.80 Z" fill="#b8c4cc" fill-rule="nonzero" group-id="1" node-id="62" stroke="none" target-height="274.89996" target-width="108.900024" target-x="593.1" target-y="684.4"></path><path d="M 331.50 957.40 L 331.60 949.30 L 333.40 932.10 L 336.30 908.00 L 340.20 879.20 L 349.30 816.50 L 358.00 761.70 L 361.40 742.80 L 362.90 735.90 L 367.20 720.30 L 370.40 711.10 L 374.90 702.30 L 377.60 698.00 L 381.00 693.50 L 383.80 690.40 L 390.90 684.30 L 399.70 678.60 L 404.80 676.00 L 410.60 673.60 L 417.20 671.40 L 401.20 675.30 L 391.00 678.40 L 374.70 684.00 L 362.20 689.80 L 350.80 696.80 L 341.00 704.60 L 333.80 712.20 L 330.60 716.40 L 327.70 720.90 L 325.20 725.80 L 323.20 730.90 L 321.70 736.40 L 320.70 742.30 L 261.20 925.00 L 274.90 932.60 L 288.80 939.70 L 302.90 946.30 L 317.20 952.50 L 331.80 958.20 L 331.50 957.40 Z" fill="#b8c4cc" fill-rule="nonzero" group-id="1" node-id="64" stroke="none" target-height="286.8" target-width="156" target-x="261.2" target-y="671.4"></path><path d="M 626.70 738.30 L 624.90 730.50 L 622.70 723.50 L 620.30 717.10 L 617.60 711.40 L 614.40 705.70 L 611.00 700.60 L 607.60 695.90 L 603.90 691.80 L 598.60 686.60 L 593.30 682.20 L 587.90 678.40 L 582.30 675.10 L 571.80 670.10 L 564.00 667.30 L 557.60 665.50 L 551.50 664.30 L 543.60 663.30 L 498.30 704.70 L 437.20 666.90 L 428.90 668.40 L 421.60 670.10 L 415.20 672.00 L 409.50 674.00 L 398.60 679.20 L 390.30 684.70 L 385.40 688.90 L 381.40 693.10 L 378.10 697.20 L 375.30 701.60 L 373.10 705.80 L 370.00 714.00 L 368.50 720.90 L 368.00 725.60 L 368.00 731.70 L 369.60 739.30 L 373.40 752.20 L 380.30 771.50 L 384.90 782.70 L 390.60 795.30 L 399.50 812.60 L 404.90 821.70 L 410.50 830.70 L 416.70 839.70 L 423.40 848.80 L 430.60 857.70 L 438.40 866.30 L 446.80 874.80 L 453.30 880.70 L 460.50 886.70 L 468.40 892.50 L 485.10 903.70 L 494.10 909.10 L 507.90 916.80 L 522.10 924.30 L 536.60 931.30 L 551.00 937.80 L 579.00 949.60 L 604.60 959.50 L 626.20 967.10 L 650.70 959.00 L 649.00 937.90 Z" fill="#668faf" fill-rule="nonzero" group-id="1" node-id="66" stroke="none" target-height="303.8" target-width="282.7" target-x="368" target-y="663.3"></path><path d="M 501.90 722.80 L 501.70 724.60 L 500.30 728.00 L 497.60 730.70 L 494.20 732.10 L 490.50 732.10 L 487.10 730.70 L 484.40 728.00 L 483.00 724.60 L 483.00 720.90 L 484.40 717.50 L 487.10 714.80 L 490.50 713.40 L 494.20 713.40 L 497.60 714.80 L 499.10 716.00 L 501.20 719.10 L 501.90 722.80 Z" fill="#1a191e" fill-rule="nonzero" group-id="1" node-id="68" stroke="none" target-height="18.699951" target-width="18.899994" target-x="483" target-y="713.4"></path><path d="M 501.90 791.00 L 501.20 794.60 L 499.10 797.70 L 496.00 799.80 L 492.40 800.50 L 488.70 799.80 L 485.60 797.70 L 483.60 794.60 L 482.90 791.00 L 483.60 787.30 L 485.60 784.20 L 488.70 782.20 L 492.40 781.40 L 496.00 782.20 L 499.10 784.20 L 501.20 787.30 L 501.90 791.00 Z" fill="#1a191e" fill-rule="nonzero" group-id="1" node-id="70" stroke="none" target-height="19.099976" target-width="19" target-x="482.9" target-y="781.4"></path><path d="M 433.80 670.80 L 491.30 702.00 L 492.60 701.20 L 437.20 666.90 L 423.80 669.60 L 417.20 671.40 L 427.70 670.00 L 431.00 670.10 L 433.80 670.80 Z" fill="none" group-id="1" node-id="72" stroke="none" target-height="35.099976" target-width="75.399994" target-x="417.2" target-y="666.9"></path><path d="M 437.20 666.90 L 493.90 702.00 L 543.60 663.30 L 573.10 694.80 L 528.70 739.80 L 533.60 764.30 L 492.40 808.40 L 447.20 764.30 L 454.90 740.50 L 414.20 700.30 L 437.20 666.90 Z" fill="#b8c4cc" fill-rule="nonzero" group-id="1" node-id="74" stroke="none" target-height="145.10004" target-width="158.89996" target-x="414.2" target-y="663.3"></path><path d="M 456.80 678.40 L 493.90 702.00 L 526.00 677.00 L 492.40 808.40 L 456.80 678.40 Z" fill="#ffffff" fill-rule="nonzero" group-id="1" node-id="76" stroke="none" target-height="131.40002" target-width="69.20001" target-x="456.8" target-y="677"></path><path d="M 331.50 957.40 L 331.80 958.20 L 346.10 963.20 L 360.50 967.70 L 375.00 971.70 L 389.50 975.30 L 404.10 978.30 L 418.90 981.00 L 433.70 983.10 L 448.50 984.70 L 463.40 985.90 L 478.30 986.60 L 493.20 986.80 L 508.10 986.50 L 523.00 985.80 L 537.90 984.60 L 552.80 982.90 L 567.60 980.70 L 582.30 978.00 L 597.00 974.90 L 611.60 971.30 L 626.20 967.10 L 592.40 954.90 L 565.30 944.00 L 536.60 931.30 L 522.10 924.30 L 507.90 916.80 L 485.10 903.70 L 468.40 892.50 L 460.50 886.70 L 453.30 880.70 L 446.80 874.80 L 438.40 866.30 L 430.60 857.70 L 423.40 848.80 L 416.70 839.70 L 410.50 830.70 L 404.90 821.70 L 399.50 812.60 L 390.60 795.30 L 384.90 782.70 L 380.30 771.50 L 373.40 752.20 L 369.60 739.30 L 368.00 731.70 L 367.90 727.30 L 368.80 718.70 L 371.10 710.40 L 372.80 706.40 L 370.40 711.10 L 368.70 715.70 L 363.70 732.60 L 361.40 742.80 L 358.00 761.70 L 349.30 816.50 L 340.20 879.20 L 333.40 932.10 L 331.60 949.30 L 331.50 957.40 Z" fill="#46667c" fill-rule="nonzero" group-id="1" node-id="78" stroke="none" target-height="280.39996" target-width="294.7" target-x="331.5" target-y="706.4"></path><path d="M 499.90 843.30 L 499.20 847.00 L 497.10 850.10 L 494.00 852.10 L 490.40 852.90 L 486.70 852.10 L 483.60 850.10 L 481.60 847.00 L 480.90 843.30 L 481.60 839.70 L 483.60 836.60 L 486.70 834.50 L 490.40 833.80 L 494.00 834.50 L 497.10 836.60 L 499.20 839.70 L 499.90 843.30 Z" fill="#1a191e" fill-rule="nonzero" group-id="1" node-id="80" stroke="none" target-height="19.100037" target-width="19" target-x="480.9" target-y="833.8"></path><path d="M 499.90 887.20 L 499.70 889.00 L 498.30 892.40 L 495.70 895.10 L 492.30 896.50 L 488.50 896.50 L 485.10 895.10 L 482.50 892.40 L 481.00 889.00 L 481.00 885.30 L 482.50 881.90 L 485.10 879.20 L 488.50 877.80 L 492.30 877.80 L 495.70 879.20 L 498.30 881.90 L 499.70 885.30 L 499.90 887.20 Z" fill="#1a191e" fill-rule="nonzero" group-id="1" node-id="82" stroke="none" target-height="18.700012" target-width="18.899994" target-x="481" target-y="877.8"></path><path d="M 499.90 931.00 L 499.20 934.60 L 497.10 937.70 L 495.70 938.90 L 492.30 940.30 L 488.50 940.30 L 485.10 938.90 L 482.50 936.20 L 481.00 932.80 L 481.00 929.10 L 482.50 925.70 L 485.10 923.00 L 488.50 921.60 L 492.30 921.60 L 495.70 923.00 L 498.30 925.70 L 499.70 929.10 L 499.90 931.00 Z" fill="#1a191e" fill-rule="nonzero" group-id="1" node-id="84" stroke="none" target-height="18.700012" target-width="18.899994" target-x="481" target-y="921.6"></path></g></svg>