<?xml version="1.0" standalone="no"?><!DOCTYPE svg PUBLIC "-//W3C//DTD SVG 1.1//EN" "http://www.w3.org/Graphics/SVG/1.1/DTD/svg11.dtd"><svg height="1020" node-id="1" sillyvg="true" template-height="1020" template-width="981" version="1.1" viewBox="0 0 981 1020" width="981" xmlns="http://www.w3.org/2000/svg" xmlns:xlink="http://www.w3.org/1999/xlink"><defs node-id="40"><clipPath id="clip-path" node-id="5"><path d="M 947.20 540.00 L 946.90 554.60 L 946.30 569.10 L 945.10 583.60 L 943.50 597.90 L 941.50 612.20 L 939.00 626.40 L 936.00 640.50 L 932.70 654.40 L 928.90 668.20 L 924.70 681.90 L 920.00 695.50 L 915.00 708.80 L 909.50 722.00 L 903.60 735.10 L 897.30 748.00 L 890.60 760.60 L 883.50 773.10 L 876.00 785.30 L 868.20 797.30 L 859.90 809.20 L 851.20 820.70 L 842.20 831.90 L 832.80 843.00 L 823.10 853.70 L 812.90 864.20 L 802.40 874.40 L 791.60 884.20 L 780.60 893.50 L 769.40 902.60 L 757.80 911.20 L 746.00 919.50 L 734.00 927.40 L 721.80 934.80 L 709.30 941.90 L 696.60 948.60 L 683.80 954.90 L 670.70 960.80 L 657.50 966.30 L 644.10 971.30 L 630.60 976.00 L 616.90 980.20 L 603.10 984.00 L 589.10 987.40 L 575.10 990.30 L 560.80 992.80 L 546.60 994.80 L 532.30 996.40 L 517.80 997.60 L 503.30 998.30 L 488.70 998.50 L 474.10 998.30 L 459.60 997.60 L 445.10 996.40 L 430.80 994.80 L 416.50 992.80 L 402.30 990.30 L 388.20 987.40 L 374.30 984.00 L 360.50 980.20 L 346.80 976.00 L 333.20 971.30 L 319.90 966.30 L 306.70 960.80 L 293.60 954.90 L 280.70 948.60 L 268.10 941.90 L 255.60 934.80 L 243.40 927.40 L 231.40 919.50 L 219.50 911.20 L 208.00 902.60 L 196.80 893.50 L 185.70 884.20 L 175.00 874.40 L 164.50 864.20 L 154.30 853.70 L 144.50 843.00 L 135.20 831.90 L 126.10 820.70 L 117.50 809.20 L 109.20 797.30 L 101.30 785.30 L 93.90 773.10 L 86.80 760.60 L 80.10 748.00 L 73.80 735.10 L 67.90 722.00 L 62.40 708.80 L 57.40 695.50 L 52.70 681.90 L 48.50 668.20 L 44.70 654.40 L 41.30 640.50 L 38.40 626.40 L 35.90 612.20 L 33.90 597.90 L 32.30 583.60 L 31.10 569.10 L 30.40 554.60 L 30.20 540.00 L 30.40 525.40 L 31.10 510.90 L 32.30 496.50 L 33.90 482.10 L 35.90 467.90 L 38.40 453.60 L 41.30 439.60 L 44.70 425.60 L 48.50 411.80 L 52.70 398.10 L 57.40 384.60 L 62.40 371.20 L 67.90 358.00 L 73.80 344.90 L 80.10 332.10 L 86.80 319.40 L 93.90 306.90 L 101.30 294.70 L 109.20 282.70 L 117.50 270.90 L 126.10 259.30 L 135.20 248.10 L 144.50 237.10 L 154.30 226.30 L 164.50 215.80 L 175.00 205.60 L 185.70 195.90 L 196.80 186.50 L 208.00 177.50 L 219.50 168.80 L 231.40 160.50 L 243.40 152.70 L 255.60 145.20 L 268.10 138.10 L 280.70 131.40 L 293.60 125.10 L 306.70 119.20 L 319.90 113.70 L 333.20 108.70 L 346.80 104.00 L 360.50 99.80 L 374.30 96.00 L 388.20 92.70 L 402.30 89.70 L 416.50 87.20 L 430.80 85.20 L 445.10 83.60 L 459.60 82.40 L 474.10 81.80 L 488.70 81.50 L 503.30 81.80 L 517.80 82.40 L 532.30 83.60 L 546.60 85.20 L 560.80 87.20 L 575.10 89.70 L 589.10 92.70 L 603.10 96.00 L 616.90 99.80 L 630.60 104.00 L 644.10 108.70 L 657.50 113.70 L 670.70 119.20 L 683.80 125.10 L 696.60 131.40 L 709.30 138.10 L 721.80 145.20 L 734.00 152.70 L 746.00 160.50 L 757.80 168.80 L 769.40 177.50 L 780.60 186.50 L 791.60 195.90 L 802.40 205.60 L 812.90 215.80 L 823.10 226.30 L 832.80 237.10 L 842.20 248.10 L 851.20 259.30 L 859.90 270.90 L 868.20 282.70 L 876.00 294.70 L 883.50 306.90 L 890.60 319.40 L 897.30 332.10 L 903.60 344.90 L 909.50 358.00 L 915.00 371.20 L 920.00 384.60 L 924.70 398.10 L 928.90 411.80 L 932.70 425.60 L 936.00 439.60 L 939.00 453.60 L 941.50 467.90 L 943.50 482.10 L 945.10 496.50 L 946.30 510.90 L 946.90 525.40 L 947.20 540.00 Z" fill="#000000" fill-rule="nonzero" node-id="43" stroke="none" target-height="917" target-width="917" target-x="30.2" target-y="81.5"></path></clipPath></defs><g node-id="106"><path d="M 968.20 530.00 L 968.00 545.20 L 967.30 560.30 L 966.10 575.30 L 964.40 590.30 L 962.30 605.20 L 959.70 620.00 L 956.60 634.60 L 953.10 649.20 L 949.20 663.60 L 944.80 677.80 L 939.90 692.00 L 934.70 705.90 L 929.00 719.70 L 922.80 733.30 L 916.20 746.70 L 909.30 759.90 L 901.90 772.90 L 894.10 785.60 L 885.90 798.10 L 877.20 810.50 L 868.20 822.50 L 858.80 834.20 L 849.10 845.70 L 838.90 856.90 L 828.30 867.80 L 817.30 878.40 L 806.10 888.60 L 794.60 898.40 L 782.90 907.80 L 770.90 916.80 L 758.60 925.40 L 746.00 933.70 L 733.30 941.50 L 720.30 948.80 L 707.10 955.80 L 693.70 962.40 L 680.10 968.50 L 666.30 974.20 L 652.40 979.50 L 638.30 984.30 L 624.00 988.70 L 609.60 992.70 L 595.10 996.20 L 580.40 999.20 L 565.60 1001.80 L 550.70 1004.00 L 535.80 1005.60 L 520.70 1006.80 L 505.60 1007.60 L 490.40 1007.80 L 475.10 1007.60 L 460.00 1006.80 L 445.00 1005.60 L 430.00 1004.00 L 415.20 1001.80 L 400.40 999.20 L 385.70 996.20 L 371.20 992.70 L 356.80 988.70 L 342.50 984.30 L 328.40 979.50 L 314.40 974.20 L 300.70 968.50 L 287.10 962.40 L 273.60 955.80 L 260.40 948.80 L 247.50 941.50 L 234.70 933.70 L 222.20 925.40 L 209.90 916.80 L 197.90 907.80 L 186.10 898.40 L 174.60 888.60 L 163.40 878.40 L 152.50 867.80 L 141.90 856.90 L 131.70 845.70 L 121.90 834.20 L 112.50 822.50 L 103.50 810.50 L 94.90 798.10 L 86.70 785.60 L 78.90 772.90 L 71.50 759.90 L 64.50 746.70 L 57.90 733.30 L 51.80 719.70 L 46.10 705.90 L 40.80 692.00 L 36.00 677.80 L 31.60 663.60 L 27.60 649.20 L 24.10 634.60 L 21.10 620.00 L 18.50 605.20 L 16.40 590.30 L 14.70 575.30 L 13.50 560.30 L 12.80 545.20 L 12.50 530.00 L 12.80 514.70 L 13.50 499.60 L 14.70 484.60 L 16.40 469.60 L 18.50 454.70 L 21.10 439.90 L 24.10 425.30 L 27.60 410.70 L 31.60 396.30 L 36.00 382.10 L 40.80 367.90 L 46.10 354.00 L 51.80 340.20 L 57.90 326.60 L 64.50 313.20 L 71.50 300.00 L 78.90 287.00 L 86.70 274.30 L 94.90 261.80 L 103.50 249.40 L 112.50 237.40 L 121.90 225.70 L 131.70 214.20 L 141.90 203.00 L 152.50 192.10 L 163.40 181.50 L 174.60 171.30 L 186.10 161.50 L 197.90 152.10 L 209.90 143.10 L 222.20 134.50 L 234.70 126.20 L 247.50 118.40 L 260.40 111.10 L 273.60 104.10 L 287.10 97.50 L 300.70 91.40 L 314.40 85.70 L 328.40 80.40 L 342.50 75.60 L 356.80 71.20 L 371.20 67.20 L 385.70 63.70 L 400.40 60.70 L 415.20 58.10 L 430.00 55.90 L 445.00 54.30 L 460.00 53.10 L 475.10 52.30 L 490.40 52.10 L 505.60 52.30 L 520.70 53.10 L 535.80 54.30 L 550.70 55.90 L 565.60 58.10 L 580.40 60.70 L 595.10 63.70 L 609.60 67.20 L 624.00 71.20 L 638.30 75.60 L 652.40 80.40 L 666.30 85.70 L 680.10 91.40 L 693.70 97.50 L 707.10 104.10 L 720.30 111.10 L 733.30 118.40 L 746.00 126.20 L 758.60 134.50 L 770.90 143.10 L 782.90 152.10 L 794.60 161.50 L 806.10 171.30 L 817.30 181.50 L 828.30 192.10 L 838.90 203.00 L 849.10 214.20 L 858.80 225.70 L 868.20 237.40 L 877.20 249.40 L 885.90 261.80 L 894.10 274.30 L 901.90 287.00 L 909.30 300.00 L 916.30 313.20 L 922.80 326.60 L 929.00 340.20 L 934.70 354.00 L 939.90 367.90 L 944.80 382.10 L 949.20 396.30 L 953.10 410.70 L 956.60 425.30 L 959.70 439.90 L 962.30 454.70 L 964.40 469.60 L 966.10 484.60 L 967.30 499.60 L 968.00 514.70 L 968.20 530.00 Z" fill="#e3f0d5" fill-rule="nonzero" group-id="1" node-id="49" stroke="none" target-height="955.7" target-width="955.7" target-x="12.5" target-y="52.1"></path><path d="M 490.40 1020.30 L 472.80 1020.00 L 455.50 1019.10 L 438.40 1017.60 L 421.40 1015.50 L 404.70 1012.80 L 387.90 1009.50 L 371.50 1005.70 L 355.20 1001.30 L 339.20 996.40 L 323.40 991.00 L 307.80 985.00 L 292.50 978.50 L 277.40 971.60 L 262.60 964.10 L 248.10 956.20 L 233.80 947.70 L 219.90 938.80 L 206.30 929.50 L 193.00 919.70 L 180.10 909.40 L 167.50 898.80 L 155.20 887.70 L 143.40 876.20 L 131.90 864.30 L 120.80 852.00 L 110.10 839.40 L 99.90 826.30 L 90.10 813.00 L 80.70 799.20 L 71.80 785.10 L 63.30 770.70 L 55.30 755.90 L 47.90 740.90 L 40.90 725.50 L 34.30 709.70 L 28.40 693.80 L 23.00 677.60 L 18.10 661.20 L 13.80 644.30 L 10.00 627.20 L 6.80 610.00 L 4.20 592.80 L 2.30 575.70 L 1.00 558.70 L 0.30 541.70 L 0.20 524.70 L 0.60 507.80 L 1.70 491.00 L 3.30 474.30 L 5.50 457.80 L 8.20 441.20 L 11.50 424.90 L 15.30 408.80 L 19.70 392.80 L 24.60 377.00 L 30.00 361.30 L 36.00 345.90 L 42.40 330.70 L 49.40 315.80 L 56.80 301.00 L 64.80 286.50 L 73.20 272.40 L 82.10 258.50 L 91.40 244.90 L 101.30 231.50 L 111.60 218.50 L 122.30 205.90 L 133.40 193.60 L 145.10 181.70 L 157.10 170.10 L 169.60 159.00 L 182.40 148.20 L 195.70 137.90 L 209.40 128.00 L 223.50 118.40 L 237.90 109.40 L 252.70 100.90 L 267.90 92.80 L 283.50 85.20 L 299.50 78.10 L 315.80 71.60 L 332.20 65.70 L 348.70 60.40 L 365.20 55.70 L 381.90 51.60 L 398.80 48.10 L 415.60 45.20 L 432.50 42.90 L 449.40 41.10 L 466.40 40.00 L 483.40 39.50 L 500.30 39.50 L 517.30 40.20 L 534.10 41.40 L 551.00 43.20 L 567.80 45.60 L 584.40 48.50 L 601.00 52.10 L 617.40 56.20 L 633.80 60.90 L 650.00 66.10 L 666.00 71.90 L 681.80 78.30 L 697.40 85.30 L 712.90 92.80 L 728.00 100.80 L 742.90 109.50 L 757.60 118.60 L 772.00 128.40 L 786.20 138.70 L 800.10 149.60 L 813.40 160.80 L 826.20 172.40 L 838.50 184.40 L 850.40 196.80 L 861.90 209.70 L 872.80 222.80 L 883.30 236.30 L 893.20 250.10 L 902.70 264.20 L 911.60 278.70 L 920.10 293.40 L 928.00 308.30 L 935.40 323.60 L 942.20 339.10 L 948.50 354.80 L 954.30 370.70 L 959.50 386.80 L 964.20 403.10 L 968.30 419.60 L 971.90 436.20 L 974.80 453.00 L 977.20 469.90 L 979.00 486.90 L 980.20 504.10 L 980.80 521.20 L 980.80 538.40 L 980.20 555.70 L 979.00 573.10 L 977.10 590.60 L 974.60 608.00 L 971.60 625.10 L 967.90 642.00 L 963.70 658.70 L 958.90 675.20 L 953.50 691.50 L 947.60 707.60 L 941.20 723.40 L 934.20 738.90 L 926.70 754.10 L 918.60 769.10 L 910.10 783.80 L 901.10 798.10 L 891.60 812.10 L 881.60 825.80 L 871.20 839.20 L 860.30 852.10 L 848.90 864.70 L 837.10 876.90 L 824.90 888.70 L 812.30 900.10 L 799.30 911.00 L 785.80 921.50 L 772.00 931.60 L 757.70 941.20 L 743.20 950.30 L 728.30 958.90 L 713.00 967.00 L 697.30 974.70 L 681.30 981.80 L 666.00 987.90 L 650.70 993.50 L 635.20 998.60 L 619.50 1003.20 L 603.70 1007.20 L 587.80 1010.70 L 571.70 1013.60 L 555.60 1016.10 L 539.40 1018.00 L 523.10 1019.30 L 506.80 1020.10 L 490.40 1020.30 Z M 490.40 64.60 L 473.70 64.90 L 457.30 65.80 L 441.00 67.30 L 425.00 69.20 L 409.00 71.80 L 393.20 74.90 L 377.50 78.50 L 362.10 82.70 L 346.90 87.30 L 332.00 92.50 L 317.10 98.10 L 302.60 104.30 L 288.30 110.90 L 274.20 118.00 L 260.50 125.50 L 246.90 133.50 L 233.70 142.00 L 220.80 150.80 L 208.20 160.10 L 195.90 169.80 L 184.00 180.00 L 172.40 190.50 L 161.10 201.40 L 150.20 212.70 L 139.70 224.30 L 129.60 236.40 L 119.80 248.70 L 110.50 261.40 L 101.60 274.50 L 93.10 287.90 L 85.10 301.50 L 77.60 315.50 L 70.50 329.80 L 63.80 344.40 L 57.60 359.40 L 52.00 374.40 L 46.80 389.80 L 42.20 405.50 L 38.10 421.40 L 34.50 437.70 L 31.50 454.00 L 29.10 470.30 L 27.20 486.50 L 26.00 502.70 L 25.30 518.80 L 25.20 535.00 L 25.60 551.00 L 26.60 566.90 L 28.20 582.70 L 30.20 598.50 L 32.80 614.10 L 36.00 629.60 L 39.60 644.90 L 43.70 660.10 L 48.40 675.10 L 53.50 690.00 L 59.20 704.60 L 65.30 719.00 L 71.90 733.20 L 79.00 747.20 L 86.50 760.90 L 94.50 774.40 L 102.90 787.60 L 111.80 800.50 L 121.20 813.10 L 130.90 825.40 L 141.10 837.40 L 151.70 849.10 L 162.70 860.40 L 174.20 871.40 L 186.00 882.00 L 198.10 892.20 L 210.70 902.00 L 223.70 911.40 L 237.10 920.50 L 250.80 929.00 L 264.80 937.10 L 279.20 944.70 L 294.00 951.90 L 309.30 958.70 L 324.70 964.90 L 340.30 970.50 L 355.90 975.60 L 371.60 980.00 L 387.50 983.90 L 403.40 987.20 L 419.40 990.00 L 435.50 992.20 L 451.50 993.80 L 467.60 994.80 L 483.80 995.40 L 499.80 995.30 L 515.90 994.70 L 531.90 993.50 L 547.90 991.80 L 563.80 989.60 L 579.60 986.80 L 595.40 983.40 L 611.00 979.50 L 626.50 975.10 L 641.80 970.10 L 657.00 964.60 L 672.00 958.50 L 686.80 951.90 L 701.50 944.80 L 715.90 937.10 L 730.00 929.00 L 744.00 920.30 L 757.70 911.00 L 771.10 901.20 L 784.30 890.90 L 796.90 880.20 L 809.10 869.20 L 820.80 857.80 L 832.00 846.10 L 842.90 833.90 L 853.30 821.40 L 863.20 808.60 L 872.60 795.50 L 881.60 782.10 L 890.10 768.40 L 898.10 754.40 L 905.60 740.20 L 912.60 725.80 L 919.10 711.10 L 925.10 696.10 L 930.60 681.00 L 935.60 665.80 L 940.00 650.30 L 943.90 634.60 L 947.30 618.90 L 950.10 603.00 L 952.30 586.90 L 954.00 570.80 L 955.20 554.50 L 955.80 538.20 L 955.80 521.90 L 955.20 505.50 L 954.00 489.00 L 952.30 472.40 L 949.90 455.90 L 947.00 439.60 L 943.50 423.60 L 939.50 407.80 L 935.00 392.10 L 929.90 376.60 L 924.20 361.40 L 918.10 346.40 L 911.50 331.70 L 904.40 317.20 L 896.70 303.00 L 888.70 289.10 L 880.10 275.50 L 871.10 262.20 L 861.60 249.20 L 851.70 236.50 L 841.40 224.20 L 830.60 212.30 L 819.40 200.70 L 807.80 189.50 L 795.80 178.70 L 783.50 168.30 L 770.70 158.40 L 757.60 148.80 L 744.10 139.70 L 730.30 131.00 L 716.10 122.90 L 701.60 115.20 L 686.70 107.90 L 671.50 101.20 L 657.10 95.40 L 642.50 90.00 L 627.80 85.20 L 612.90 80.90 L 597.90 77.10 L 582.80 73.80 L 567.60 71.00 L 552.30 68.70 L 536.90 66.90 L 521.40 65.60 L 505.90 64.90 L 490.40 64.60 Z" fill="#ffffff" fill-rule="nonzero" group-id="1" node-id="51" stroke="none" target-height="980.8" target-width="980.6" target-x="0.2" target-y="39.5"></path><g node-id="107"><g clip-path="url(#clip-path)" group-id="1,2" node-id="53"><path d="M 250.40 396.90 L 243.90 396.80 L 239.20 397.00 L 234.20 397.60 L 224.70 399.80 L 217.40 402.90 L 214.00 405.00 L 210.90 407.50 L 208.20 410.50 L 206.40 413.00 L 205.00 415.80 L 203.80 419.00 L 203.00 422.60 L 202.60 426.20 L 202.60 430.20 L 203.10 434.90 L 205.10 443.70 L 208.10 453.10 L 213.00 466.70 L 219.90 482.90 L 224.10 491.40 L 232.30 505.60 L 239.90 516.20 L 244.10 521.20 L 248.40 525.80 L 253.00 530.00 L 257.80 533.80 L 262.90 537.00 L 268.20 539.70 L 274.50 540.90 L 279.50 541.30 L 285.00 541.30 L 291.80 540.70 L 292.60 540.30 L 293.20 539.60 L 293.70 538.30 L 294.00 536.20 L 293.90 533.40 L 292.80 525.00 L 291.20 517.60 L 286.30 499.40 L 276.30 468.00 L 269.00 446.90 L 250.40 396.90 Z" fill="#d2a597" fill-rule="nonzero" group-id="1,2" node-id="55" stroke="none" target-height="144.5" target-width="91.399994" target-x="202.6" target-y="396.8"></path><path d="M 744.50 414.60 L 751.00 414.50 L 755.70 414.70 L 760.80 415.30 L 770.20 417.50 L 777.50 420.60 L 780.90 422.70 L 784.00 425.20 L 786.80 428.20 L 788.50 430.70 L 789.90 433.50 L 791.10 436.70 L 791.90 440.30 L 792.30 443.90 L 792.30 448.00 L 791.80 452.60 L 789.80 461.40 L 786.90 470.80 L 782.00 484.50 L 775.00 500.70 L 770.80 509.10 L 762.60 523.30 L 755.10 534.00 L 750.90 539.00 L 746.50 543.60 L 742.00 547.80 L 737.10 551.60 L 732.00 554.80 L 726.80 557.40 L 720.40 558.60 L 715.40 559.00 L 709.90 559.00 L 703.20 558.40 L 702.30 558.10 L 701.70 557.30 L 701.20 556.00 L 701.00 553.90 L 701.00 551.10 L 702.20 542.70 L 703.70 535.40 L 708.60 517.20 L 718.70 485.80 L 726.00 464.60 L 744.50 414.60 Z" fill="#d2a597" fill-rule="nonzero" group-id="1,2" node-id="57" stroke="none" target-height="144.5" target-width="91.29999" target-x="701" target-y="414.5"></path><path d="M 451.20 656.90 L 453.20 698.20 L 514.50 742.60 L 556.30 728.80 L 560.20 645.10 L 451.20 656.90 Z" fill="#d2a597" fill-rule="nonzero" group-id="1,2" node-id="59" stroke="none" target-height="97.5" target-width="109" target-x="451.2" target-y="645.1"></path><path d="M 246.20 366.70 L 250.20 398.30 L 254.80 425.20 L 261.70 457.30 L 266.10 474.80 L 273.00 498.50 L 281.20 522.90 L 290.80 547.00 L 296.20 558.90 L 302.00 570.40 L 308.20 581.60 L 313.10 589.90 L 323.60 605.40 L 329.20 612.60 L 335.20 619.70 L 341.40 626.30 L 347.80 632.40 L 354.40 638.20 L 361.40 643.50 L 368.70 648.30 L 376.20 652.50 L 393.60 660.40 L 409.70 666.60 L 420.30 670.00 L 431.40 673.20 L 444.00 676.20 L 461.60 679.30 L 470.90 680.40 L 480.30 681.00 L 489.70 681.20 L 504.30 680.50 L 517.80 679.20 L 537.70 676.50 L 562.10 671.80 L 575.20 668.70 L 588.90 664.80 L 606.90 658.50 L 615.90 654.80 L 624.70 650.70 L 633.10 646.30 L 641.10 641.50 L 649.20 635.50 L 660.10 625.70 L 671.30 613.80 L 677.00 607.00 L 690.00 589.50 L 696.40 579.80 L 703.10 568.60 L 710.10 555.90 L 715.00 546.30 L 724.90 524.40 L 729.90 512.00 L 734.40 499.70 L 738.90 486.50 L 743.20 472.20 L 747.50 456.70 L 751.20 441.50 L 754.80 425.20 L 758.10 407.70 L 761.20 389.00 L 753.20 372.70 L 743.60 355.90 L 737.50 346.50 L 730.30 336.50 L 725.20 329.90 L 713.80 316.80 L 707.60 310.60 L 701.00 304.80 L 694.10 299.30 L 683.10 292.00 L 671.40 286.20 L 665.40 283.90 L 659.10 282.10 L 652.70 280.80 L 646.00 280.00 L 644.30 284.80 L 642.10 288.50 L 637.90 293.70 L 634.60 296.90 L 631.20 299.80 L 626.70 302.90 L 621.20 306.20 L 615.50 309.10 L 608.50 312.10 L 600.10 315.00 L 591.60 317.50 L 581.50 319.80 L 569.60 321.90 L 557.70 323.40 L 543.90 324.60 L 528.00 325.30 L 484.50 341.10 L 463.20 325.30 L 417.20 311.50 L 401.10 298.90 L 388.70 290.40 L 382.10 286.40 L 375.40 282.70 L 369.10 279.80 L 364.80 278.20 L 361.00 277.20 L 357.60 276.70 L 355.00 276.70 L 352.80 277.10 L 350.90 277.90 L 349.20 279.00 L 347.90 280.50 L 346.80 282.50 L 346.00 285.10 L 345.60 288.50 L 333.60 290.70 L 328.40 291.20 L 325.20 291.10 L 324.80 290.80 L 324.90 290.40 L 325.50 289.80 L 330.90 286.90 L 305.90 307.10 L 290.70 320.40 L 274.60 335.30 L 259.20 351.10 L 252.20 359.10 L 246.20 366.70 Z" fill="#f4d5c1" fill-rule="nonzero" group-id="1,2" node-id="61" stroke="none" target-height="404.5" target-width="515" target-x="246.2" target-y="276.7"></path><path d="M 764.00 415.40 L 759.40 401.80 L 754.00 388.00 L 746.90 372.60 L 742.70 364.90 L 738.20 357.70 L 734.90 353.00 L 728.30 345.40 L 724.60 342.20 L 721.00 339.70 L 717.30 338.00 L 706.70 347.40 L 690.50 363.60 L 678.80 377.00 L 673.50 384.10 L 671.50 378.90 L 667.20 371.50 L 663.90 367.60 L 661.40 365.10 L 655.20 360.70 L 651.60 359.00 L 647.50 357.80 L 642.80 356.90 L 635.40 356.90 L 626.30 358.50 L 626.90 376.50 L 626.50 384.30 L 626.00 387.40 L 625.30 389.00 L 623.50 389.20 L 616.20 387.50 L 594.60 380.30 L 558.20 366.70 L 512.00 348.60 L 510.00 370.30 L 505.40 371.50 L 492.70 374.40 L 473.70 377.30 L 462.70 378.50 L 450.40 379.10 L 433.50 378.90 L 424.60 378.30 L 415.70 377.20 L 406.90 375.50 L 398.00 373.40 L 385.00 369.00 L 372.50 363.10 L 366.50 359.60 L 360.80 355.60 L 355.30 351.00 L 350.00 346.00 L 345.10 340.70 L 340.50 334.70 L 336.20 328.00 L 332.20 320.70 L 321.60 330.70 L 313.10 339.50 L 303.90 349.60 L 284.60 372.80 L 266.80 396.60 L 257.80 409.60 L 248.40 424.00 L 238.50 440.10 L 231.90 404.10 L 228.10 380.80 L 224.40 354.80 L 221.20 327.80 L 219.20 301.70 L 218.70 289.30 L 219.10 270.90 L 220.50 259.00 L 196.90 250.10 L 201.20 233.70 L 207.50 215.80 L 211.80 205.50 L 217.20 193.80 L 225.80 177.90 L 236.40 161.30 L 242.50 153.10 L 249.30 144.70 L 256.40 136.70 L 264.20 128.80 L 272.70 121.10 L 274.70 117.90 L 275.60 115.30 L 276.20 111.40 L 275.70 106.70 L 274.70 104.10 L 273.20 101.20 L 271.30 98.60 L 268.60 95.70 L 264.80 92.60 L 264.50 91.70 L 265.10 89.10 L 266.20 87.50 L 268.50 85.30 L 271.60 83.20 L 276.80 80.50 L 282.90 78.00 L 291.90 75.10 L 302.10 72.30 L 315.90 69.30 L 331.20 66.50 L 350.90 63.50 L 372.20 60.90 L 398.70 58.10 L 408.40 52.60 L 425.60 44.10 L 437.30 39.00 L 450.10 34.10 L 465.10 28.90 L 475.50 25.80 L 498.90 19.90 L 511.20 17.40 L 524.20 15.30 L 537.90 13.60 L 558.90 12.20 L 569.90 11.90 L 592.60 12.50 L 604.20 13.40 L 616.00 14.80 L 628.20 16.70 L 630.20 42.30 L 653.90 44.40 L 667.30 46.40 L 680.40 49.00 L 686.40 50.70 L 691.30 52.60 L 694.40 54.10 L 698.20 57.10 L 691.50 77.80 L 720.80 88.20 L 737.60 93.50 L 710.00 109.30 L 723.00 123.80 L 736.60 140.90 L 744.10 151.20 L 757.70 171.90 L 768.50 190.80 L 773.60 200.80 L 778.40 211.30 L 783.10 222.30 L 787.30 233.50 L 791.10 245.10 L 794.40 257.10 L 796.50 266.20 L 799.60 284.80 L 800.60 294.50 L 782.50 299.00 L 772.90 366.00 L 766.80 402.20 L 764.00 415.40 Z" fill="#d2a597" fill-rule="nonzero" group-id="1,2" node-id="63" stroke="none" target-height="428.2" target-width="603.69995" target-x="196.9" target-y="11.9"></path><path d="M 786.50 217.40 L 779.50 225.10 L 773.50 231.10 L 757.70 245.60 L 747.80 253.70 L 735.90 262.70 L 727.60 268.60 L 708.50 280.70 L 698.40 286.50 L 687.40 292.20 L 675.70 297.80 L 663.80 302.90 L 651.10 307.70 L 637.70 312.10 L 617.00 317.60 L 594.70 321.90 L 583.40 323.40 L 571.70 324.50 L 559.60 325.10 L 547.10 325.30 L 536.90 325.00 L 519.60 323.50 L 508.10 322.00 L 496.10 320.00 L 482.30 317.00 L 473.00 314.70 L 452.90 308.60 L 442.70 304.90 L 432.30 300.60 L 421.60 295.80 L 411.10 290.40 L 400.60 284.40 L 390.00 277.60 L 382.30 272.30 L 374.80 266.40 L 367.30 260.10 L 359.90 253.30 L 352.90 246.30 L 346.00 238.70 L 339.40 230.60 L 332.90 221.90 L 326.90 213.00 L 321.20 203.50 L 315.80 193.40 L 310.70 182.50 L 304.30 175.90 L 294.20 164.40 L 288.10 156.70 L 282.10 148.40 L 275.70 138.70 L 267.90 124.90 L 264.10 117.30 L 260.80 109.60 L 257.80 101.60 L 255.20 93.20 L 262.70 88.90 L 269.30 85.80 L 277.00 82.60 L 287.50 79.10 L 294.90 76.90 L 313.70 72.70 L 323.80 71.10 L 335.30 69.60 L 348.20 68.50 L 361.10 67.90 L 375.50 67.80 L 391.50 68.20 L 401.40 61.40 L 410.20 56.30 L 424.40 49.30 L 433.90 45.20 L 443.50 41.40 L 454.70 37.60 L 477.10 31.20 L 499.00 26.70 L 511.40 24.60 L 523.60 23.00 L 536.60 21.70 L 550.70 20.80 L 565.80 20.20 L 580.50 20.10 L 596.20 20.50 L 612.90 21.40 L 630.80 22.90 L 628.50 51.70 L 694.80 68.20 L 689.90 92.90 L 726.30 95.50 L 715.50 139.20 L 726.80 147.10 L 738.50 156.30 L 751.90 168.40 L 758.80 175.40 L 769.80 188.30 L 777.60 199.40 L 781.00 205.30 L 784.00 211.30 L 786.50 217.40 Z" fill="#374968" fill-rule="nonzero" group-id="1,2" node-id="65" stroke="none" target-height="305.19998" target-width="531.3" target-x="255.2" target-y="20.1"></path><path d="M 782.50 208.10 L 774.40 217.30 L 767.50 224.40 L 759.50 232.00 L 749.00 241.10 L 741.50 247.10 L 723.40 260.20 L 713.50 266.50 L 702.70 272.90 L 690.70 279.20 L 672.10 287.80 L 651.20 295.80 L 640.40 299.20 L 629.20 302.30 L 617.30 305.00 L 604.90 307.40 L 592.50 309.20 L 579.60 310.50 L 566.10 311.30 L 552.00 311.50 L 541.80 311.20 L 524.50 309.70 L 513.00 308.20 L 501.00 306.20 L 487.20 303.20 L 477.90 300.90 L 457.80 294.80 L 447.60 291.10 L 437.20 286.80 L 426.50 282.00 L 416.00 276.60 L 405.50 270.60 L 394.90 263.90 L 387.30 258.50 L 379.70 252.60 L 372.20 246.30 L 364.80 239.50 L 357.80 232.50 L 350.90 224.90 L 344.30 216.80 L 337.80 208.10 L 331.80 199.20 L 326.10 189.70 L 320.70 179.60 L 315.60 168.70 L 309.30 163.60 L 299.60 154.40 L 293.60 147.90 L 285.70 138.20 L 277.60 126.40 L 273.80 119.90 L 270.10 112.80 L 266.80 105.50 L 263.80 97.80 L 261.30 89.50 L 269.60 84.30 L 276.80 80.40 L 285.00 76.50 L 295.90 72.00 L 312.30 66.30 L 322.30 63.50 L 332.40 61.10 L 343.50 58.90 L 365.10 56.00 L 385.30 54.70 L 396.40 54.50 L 406.30 47.70 L 415.10 42.60 L 429.30 35.50 L 438.80 31.40 L 448.40 27.70 L 459.60 23.90 L 482.00 17.50 L 503.90 12.90 L 516.30 10.90 L 528.50 9.30 L 541.50 8.00 L 555.60 7.00 L 570.70 6.50 L 585.40 6.30 L 601.10 6.70 L 617.90 7.70 L 635.70 9.20 L 633.40 37.90 L 699.80 54.50 L 694.80 79.10 L 740.10 92.90 L 724.90 125.40 L 736.30 137.20 L 741.60 143.10 L 754.00 158.40 L 760.50 167.40 L 766.80 176.80 L 772.70 186.90 L 776.40 193.90 L 782.50 208.10 Z" fill="#374968" fill-rule="nonzero" group-id="1,2" node-id="67" stroke="none" target-height="305.2" target-width="521.2" target-x="261.3" target-y="6.3"></path><path d="M 392.90 693.20 L 382.40 697.60 L 377.50 700.00 L 366.10 707.00 L 360.10 711.50 L 352.70 718.40 L 349.10 722.40 L 345.90 726.60 L 343.00 731.10 L 340.50 736.00 L 338.50 741.10 L 337.00 746.60 L 336.10 752.50 L 271.50 950.70 L 278.50 955.90 L 284.40 959.80 L 291.20 963.90 L 300.00 968.60 L 313.10 974.60 L 321.00 977.60 L 337.60 983.00 L 347.10 985.30 L 359.50 988.00 L 388.10 992.90 L 403.10 995.00 L 419.00 996.80 L 436.10 998.20 L 453.10 999.20 L 470.90 999.60 L 489.70 999.60 L 503.60 999.20 L 532.60 997.20 L 547.70 995.60 L 562.60 993.70 L 577.70 991.20 L 593.20 988.30 L 608.90 984.80 L 624.40 980.90 L 640.10 976.40 L 656.00 971.30 L 672.10 965.60 L 679.80 962.40 L 687.90 958.40 L 703.50 949.30 L 717.30 940.30 L 663.30 731.80 L 661.90 728.30 L 657.80 722.40 L 651.00 715.80 L 642.60 709.70 L 631.80 703.40 L 624.60 699.80 L 608.60 693.10 L 598.50 689.50 L 576.30 682.70 L 562.70 679.20 L 506.60 712.20 L 449.10 681.00 L 446.60 680.30 L 439.90 680.40 L 427.30 682.70 L 417.70 685.10 L 407.10 688.30 L 392.90 693.20 Z" fill="#ffffff" fill-rule="nonzero" group-id="1,2" node-id="69" stroke="none" target-height="320.39996" target-width="445.8" target-x="271.5" target-y="679.2"></path><path d="M 566.30 682.40 L 573.20 682.50 L 578.60 683.10 L 584.30 684.10 L 591.20 686.00 L 595.70 687.70 L 600.50 689.90 L 605.60 692.70 L 610.40 695.90 L 615.10 699.80 L 620.00 704.50 L 623.20 708.30 L 626.40 712.60 L 629.40 717.50 L 632.40 723.00 L 634.90 728.50 L 637.20 734.70 L 639.30 741.60 L 641.10 749.40 L 667.40 985.80 L 641.80 992.90 L 626.30 996.80 L 602.20 1002.20 L 588.00 1004.50 L 565.60 1006.00 L 546.90 1006.70 L 503.00 1007.40 L 495.20 1006.90 L 471.70 1004.10 L 448.40 1000.50 L 441.00 999.00 L 407.30 990.30 L 390.90 985.80 L 374.90 980.90 L 361.10 976.10 L 355.20 973.60 L 351.10 971.60 L 348.70 970.00 L 347.40 968.70 L 346.80 967.70 L 346.70 965.60 L 347.00 959.60 L 348.70 942.40 L 351.70 918.30 L 360.00 858.20 L 369.20 797.20 L 373.40 771.90 L 378.20 746.10 L 381.90 732.60 L 383.60 727.10 L 385.90 721.20 L 387.70 717.30 L 390.10 713.40 L 393.00 709.40 L 396.30 705.70 L 400.40 702.00 L 405.50 698.20 L 413.90 693.30 L 425.30 688.50 L 431.20 686.50 L 445.80 682.80 L 454.70 681.10 L 512.70 715.90 Z" fill="#1664b2" fill-rule="nonzero" group-id="1,2" node-id="71" stroke="none" target-height="326.30005" target-width="320.7" target-x="346.7" target-y="681.1"></path><path d="M 567.20 681.50 L 574.20 681.50 L 579.50 682.10 L 585.20 683.20 L 592.10 685.10 L 596.70 686.80 L 601.50 689.00 L 606.50 691.80 L 611.30 695.00 L 616.10 698.90 L 620.90 703.60 L 627.30 711.70 L 630.40 716.50 L 633.30 722.00 L 635.80 727.50 L 638.10 733.70 L 640.20 740.70 L 642.00 748.50 L 664.40 948.10 L 667.40 985.80 L 648.40 979.70 L 615.40 968.00 L 587.60 957.10 L 572.60 950.80 L 542.20 936.80 L 527.10 929.10 L 512.40 921.00 L 493.70 909.60 L 485.10 903.70 L 476.70 897.50 L 469.00 891.20 L 462.10 885.00 L 453.70 876.50 L 445.90 867.80 L 438.80 859.00 L 432.00 849.90 L 425.80 840.90 L 414.90 822.80 L 405.90 805.50 L 400.20 792.90 L 395.60 781.70 L 388.70 762.40 L 383.80 744.70 L 383.30 741.90 L 383.30 735.80 L 383.80 731.10 L 385.30 724.10 L 388.40 716.00 L 390.60 711.80 L 393.50 707.40 L 396.70 703.20 L 400.70 699.10 L 405.60 694.90 L 413.90 689.40 L 419.00 686.80 L 430.50 682.10 L 437.00 680.20 L 444.30 678.50 L 452.50 677.10 L 513.60 714.90 Z" fill="#3390ff" fill-rule="nonzero" group-id="1,2" node-id="73" stroke="none" target-height="308.7" target-width="284.10004" target-x="383.3" target-y="677.1"></path><path d="M 429.50 682.50 L 429.50 698.70 L 430.30 715.20 L 432.30 734.10 L 433.90 743.70 L 435.90 752.90 L 439.50 764.40 L 441.60 769.30 L 445.60 776.00 L 447.70 778.60 L 454.30 785.20 L 461.90 791.70 L 467.20 795.40 L 472.90 799.00 L 479.60 802.40 L 484.30 804.40 L 494.80 807.70 L 500.30 808.80 L 506.20 809.50 L 512.40 809.60 L 519.50 808.30 L 524.90 806.70 L 530.80 804.70 L 537.80 801.70 L 542.40 799.30 L 552.40 792.90 L 557.20 789.10 L 562.10 784.60 L 566.90 779.50 L 570.20 775.40 L 576.40 765.90 L 579.40 760.40 L 581.90 754.90 L 584.10 748.80 L 586.10 742.10 L 587.90 734.80 L 589.60 722.30 L 590.60 709.90 L 590.80 703.20 L 590.60 696.50 L 590.00 689.90 L 589.00 684.20 L 570.70 680.20 L 557.70 678.00 L 554.20 679.90 L 546.80 684.70 L 507.10 711.60 L 485.80 697.10 L 473.80 689.30 L 462.10 682.20 L 452.40 677.10 L 445.40 678.00 L 437.90 679.90 L 429.50 682.50 Z" fill="#374968" fill-rule="nonzero" group-id="1,2" node-id="75" stroke="none" target-height="132.5" target-width="161.29999" target-x="429.5" target-y="677.1"></path><path d="M 452.00 718.00 L 452.10 724.00 L 452.60 728.50 L 453.40 733.50 L 456.10 743.40 L 459.80 752.00 L 462.20 756.30 L 465.10 760.50 L 468.50 764.80 L 472.30 768.80 L 476.80 772.60 L 482.00 776.30 L 490.60 781.00 L 501.20 785.00 L 507.10 785.00 L 511.50 784.40 L 516.40 783.50 L 522.20 781.70 L 530.10 778.10 L 534.40 775.40 L 538.50 772.40 L 542.60 768.80 L 546.80 764.30 L 552.40 756.70 L 557.80 746.90 L 562.20 735.90 L 566.00 721.90 L 511.10 710.10 Z" fill="#e4f3f9" fill-rule="nonzero" group-id="1,2" node-id="77" stroke="none" target-height="74.900024" target-width="114" target-x="452" target-y="710.1"></path><path d="M 452.50 677.10 L 508.00 708.50 L 558.90 672.50 L 586.10 726.90 L 507.40 711.80 L 422.00 724.90 L 452.50 677.10 Z" fill="#ffffff" fill-rule="nonzero" group-id="1,2" node-id="79" stroke="none" target-height="54.400024" target-width="164.09998" target-x="422" target-y="672.5"></path><path d="M 517.20 740.10 L 516.50 743.80 L 514.40 746.90 L 513.00 748.10 L 509.60 749.50 L 505.80 749.50 L 502.40 748.10 L 499.80 745.40 L 498.40 742.00 L 498.40 738.30 L 499.80 734.90 L 502.40 732.20 L 505.80 730.80 L 509.60 730.80 L 513.00 732.20 L 515.60 734.90 L 517.00 738.30 L 517.20 740.10 Z" fill="#1a191e" fill-rule="nonzero" group-id="1,2" node-id="81" stroke="none" target-height="18.700012" target-width="18.800018" target-x="498.4" target-y="730.8"></path><path d="M 540.40 600.30 L 539.60 604.70 L 537.20 609.10 L 534.90 611.70 L 531.90 614.20 L 528.10 616.60 L 524.10 618.60 L 519.50 620.30 L 514.50 621.60 L 504.10 623.20 L 498.50 623.40 L 492.90 623.20 L 482.50 621.60 L 477.50 620.30 L 473.00 618.60 L 468.90 616.60 L 465.10 614.20 L 462.10 611.70 L 459.80 609.10 L 458.40 606.90 L 456.90 602.50 L 456.70 600.30 L 457.40 595.80 L 459.80 591.40 L 462.10 588.80 L 465.10 586.30 L 468.90 583.90 L 473.00 581.90 L 477.50 580.20 L 482.50 578.90 L 492.90 577.30 L 498.50 577.10 L 504.10 577.30 L 509.40 577.90 L 514.50 578.90 L 519.50 580.20 L 524.10 581.90 L 528.10 583.90 L 531.90 586.30 L 534.90 588.80 L 537.20 591.40 L 539.60 595.80 L 540.40 600.30 Z" fill="#dc6965" fill-rule="nonzero" group-id="1,2" node-id="83" stroke="none" target-height="46.30005" target-width="83.70001" target-x="456.7" target-y="577.1"></path><path d="M 385.80 471.70 L 385.50 475.10 L 384.90 478.30 L 383.80 481.30 L 382.40 484.20 L 380.70 486.80 L 378.60 489.10 L 376.20 491.20 L 373.60 493.00 L 370.70 494.40 L 367.70 495.50 L 364.50 496.10 L 361.20 496.40 L 357.80 496.10 L 354.60 495.50 L 351.60 494.40 L 348.70 493.00 L 346.10 491.20 L 343.80 489.10 L 341.70 486.80 L 339.90 484.20 L 338.50 481.30 L 337.40 478.30 L 336.80 475.10 L 336.50 471.70 L 336.80 468.40 L 337.40 465.20 L 338.50 462.20 L 339.90 459.30 L 341.70 456.70 L 343.80 454.30 L 346.10 452.20 L 348.70 450.50 L 351.60 449.10 L 354.60 448.00 L 357.80 447.40 L 361.20 447.10 L 364.50 447.40 L 367.70 448.00 L 370.70 449.10 L 373.60 450.50 L 376.20 452.20 L 378.60 454.30 L 380.70 456.70 L 382.40 459.30 L 383.80 462.20 L 384.90 465.20 L 385.50 468.40 L 385.80 471.70 Z" fill="#1e2c3f" fill-rule="nonzero" group-id="1,2" node-id="85" stroke="none" target-height="49.299988" target-width="49.299988" target-x="336.5" target-y="447.1"></path><path d="M 667.40 471.70 L 667.20 475.10 L 666.50 478.30 L 665.50 481.30 L 664.00 484.20 L 662.30 486.80 L 660.20 489.10 L 657.80 491.20 L 655.20 493.00 L 652.40 494.40 L 649.40 495.50 L 646.20 496.10 L 642.80 496.40 L 639.40 496.10 L 636.20 495.50 L 633.20 494.40 L 630.40 493.00 L 627.80 491.20 L 625.40 489.10 L 623.30 486.80 L 621.60 484.20 L 620.10 481.30 L 619.10 478.30 L 618.40 475.10 L 618.20 471.70 L 618.40 468.40 L 619.10 465.20 L 620.10 462.20 L 621.60 459.30 L 623.30 456.70 L 625.40 454.30 L 627.80 452.20 L 630.40 450.50 L 633.20 449.10 L 636.20 448.00 L 639.40 447.40 L 642.80 447.10 L 646.20 447.40 L 649.40 448.00 L 652.40 449.10 L 655.20 450.50 L 657.80 452.20 L 660.20 454.30 L 662.30 456.70 L 664.00 459.30 L 665.50 462.20 L 666.50 465.20 L 667.20 468.40 L 667.40 471.70 Z" fill="#1e2c3f" fill-rule="nonzero" group-id="1,2" node-id="87" stroke="none" target-height="49.299988" target-width="49.200012" target-x="618.2" target-y="447.1"></path><path d="M 453.70 471.70 L 453.40 479.40 L 452.50 486.80 L 451.00 494.00 L 449.00 501.00 L 446.40 507.80 L 443.40 514.30 L 439.80 520.50 L 435.90 526.40 L 431.40 532.00 L 426.60 537.20 L 421.40 542.00 L 415.80 546.40 L 409.90 550.40 L 403.70 553.90 L 397.20 557.00 L 390.40 559.60 L 383.40 561.60 L 376.30 563.10 L 368.80 564.00 L 361.20 564.30 L 353.50 564.00 L 346.10 563.10 L 338.90 561.60 L 331.90 559.60 L 325.10 557.00 L 318.60 553.90 L 312.40 550.40 L 306.50 546.40 L 300.90 542.00 L 295.70 537.20 L 290.90 532.00 L 286.50 526.40 L 282.50 520.50 L 279.00 514.30 L 275.90 507.80 L 273.30 501.00 L 271.30 494.00 L 269.80 486.80 L 268.90 479.40 L 268.60 471.70 L 268.90 464.10 L 269.80 456.60 L 271.30 449.50 L 273.30 442.50 L 275.90 435.70 L 279.00 429.20 L 282.50 423.00 L 286.50 417.10 L 290.90 411.50 L 295.70 406.30 L 300.90 401.50 L 306.50 397.00 L 312.40 393.10 L 318.60 389.50 L 325.10 386.50 L 331.90 383.90 L 338.90 381.90 L 346.10 380.40 L 353.50 379.50 L 361.20 379.20 L 368.80 379.50 L 376.30 380.40 L 383.40 381.90 L 390.40 383.90 L 397.20 386.50 L 403.70 389.50 L 409.90 393.10 L 415.80 397.00 L 421.40 401.50 L 426.60 406.30 L 431.40 411.50 L 435.90 417.10 L 439.80 423.00 L 443.40 429.20 L 446.40 435.70 L 449.00 442.50 L 451.00 449.50 L 452.50 456.60 L 453.40 464.10 L 453.70 471.70 Z" fill="none" group-id="1,2" node-id="89" stroke="#374968" stroke-linecap="butt" stroke-width="6" target-height="185.09998" target-width="185.1" target-x="268.6" target-y="379.2"></path><path d="M 735.40 471.70 L 735.00 479.40 L 734.10 486.80 L 732.70 494.00 L 730.60 501.00 L 728.10 507.80 L 725.00 514.30 L 721.50 520.50 L 717.50 526.40 L 713.10 532.00 L 708.20 537.20 L 703.00 542.00 L 697.50 546.40 L 691.60 550.40 L 685.40 553.90 L 678.90 557.00 L 672.10 559.60 L 665.10 561.60 L 657.90 563.10 L 650.50 564.00 L 642.80 564.30 L 635.10 564.00 L 627.70 563.10 L 620.50 561.60 L 613.50 559.60 L 606.70 557.00 L 600.20 553.90 L 594.00 550.40 L 588.10 546.40 L 582.60 542.00 L 577.40 537.20 L 572.50 532.00 L 568.10 526.40 L 564.10 520.50 L 560.60 514.30 L 557.50 507.80 L 555.00 501.00 L 552.90 494.00 L 551.50 486.80 L 550.60 479.40 L 550.30 471.70 L 550.60 464.10 L 551.50 456.60 L 552.90 449.50 L 555.00 442.50 L 557.50 435.70 L 560.60 429.20 L 564.10 423.00 L 568.10 417.10 L 572.50 411.50 L 577.40 406.30 L 582.60 401.50 L 588.10 397.00 L 594.00 393.10 L 600.20 389.50 L 606.70 386.50 L 613.50 383.90 L 620.50 381.90 L 627.70 380.40 L 635.10 379.50 L 642.80 379.20 L 650.50 379.50 L 657.90 380.40 L 665.10 381.90 L 672.10 383.90 L 678.90 386.50 L 685.40 389.50 L 691.60 393.10 L 697.50 397.00 L 703.10 401.50 L 708.20 406.30 L 713.10 411.50 L 717.50 417.10 L 721.50 423.00 L 725.00 429.20 L 728.10 435.70 L 730.60 442.50 L 732.70 449.50 L 734.10 456.60 L 735.00 464.10 L 735.40 471.70 Z" fill="none" group-id="1,2" node-id="91" stroke="#374968" stroke-linecap="butt" stroke-width="6" target-height="185.09998" target-width="185.10004" target-x="550.3" target-y="379.2"></path><path d="M 452.30 471.20 L 550.80 471.20 L 550.80 481.60 L 452.30 481.60 Z" fill="#374968" fill-rule="nonzero" group-id="1,2" node-id="93" stroke="none" target-height="10.399994" target-width="98.5" target-x="452.3" target-y="471.2"></path><path d="M 768.30 416.70 L 739.70 465.70 L 731.50 459.20 L 764.00 415.40 L 768.30 416.70 Z" fill="#374968" fill-rule="nonzero" group-id="1,2" node-id="95" stroke="none" target-height="50.30002" target-width="36.799988" target-x="731.5" target-y="415.4"></path><path d="M 245.10 397.00 L 269.30 446.00 L 277.50 439.60 L 250.50 396.80 L 245.10 397.00 Z" fill="#374968" fill-rule="nonzero" group-id="1,2" node-id="97" stroke="none" target-height="49.200012" target-width="32.399994" target-x="245.1" target-y="396.8"></path></g></g><path d="M 762.10 409.10 L 757.50 395.50 L 752.10 381.70 L 744.90 366.30 L 740.80 358.60 L 736.30 351.40 L 733.00 346.80 L 726.40 339.10 L 722.70 335.90 L 719.00 333.50 L 715.40 331.70 L 704.80 341.10 L 688.50 357.30 L 676.90 370.80 L 671.60 377.80 L 669.60 372.60 L 665.30 365.30 L 662.00 361.30 L 659.50 358.80 L 653.20 354.40 L 649.60 352.70 L 645.50 351.50 L 640.80 350.60 L 633.40 350.60 L 624.30 352.20 L 625.00 370.30 L 624.60 378.00 L 624.00 381.10 L 623.30 382.70 L 621.50 382.90 L 614.20 381.20 L 592.60 374.00 L 556.30 360.50 L 510.10 342.30 L 508.10 364.00 L 503.40 365.20 L 490.70 368.10 L 471.80 371.00 L 460.80 372.20 L 448.50 372.80 L 431.60 372.60 L 422.60 372.00 L 413.80 370.90 L 404.90 369.20 L 396.10 367.10 L 389.50 365.10 L 383.10 362.70 L 376.80 360.00 L 370.60 356.80 L 364.60 353.30 L 358.90 349.20 L 353.40 344.70 L 348.00 339.70 L 343.20 334.30 L 338.60 328.40 L 334.30 321.70 L 330.30 314.40 L 319.70 324.40 L 311.20 333.20 L 302.00 343.30 L 282.60 366.50 L 264.80 390.40 L 255.90 403.30 L 246.50 417.70 L 236.60 433.80 L 229.90 397.80 L 226.10 374.50 L 222.40 348.50 L 219.30 321.50 L 217.30 295.40 L 216.80 283.00 L 217.20 264.60 L 218.60 252.70 L 194.90 243.80 L 199.30 227.40 L 205.50 209.50 L 209.80 199.20 L 215.30 187.50 L 223.90 171.60 L 234.50 155.00 L 240.60 146.80 L 247.30 138.40 L 254.50 130.40 L 262.30 122.50 L 270.80 114.80 L 272.70 111.60 L 273.70 109.00 L 274.30 105.10 L 273.70 100.40 L 272.80 97.80 L 271.30 94.90 L 269.40 92.30 L 266.60 89.40 L 262.90 86.30 L 262.60 85.40 L 263.20 82.80 L 264.20 81.20 L 266.60 79.00 L 269.70 76.90 L 274.80 74.20 L 281.00 71.70 L 290.00 68.80 L 300.10 66.00 L 314.00 63.00 L 329.30 60.20 L 348.90 57.20 L 370.30 54.60 L 396.80 51.80 L 406.50 46.30 L 423.60 37.80 L 435.40 32.70 L 448.10 27.80 L 463.20 22.60 L 473.60 19.50 L 497.00 13.60 L 509.20 11.10 L 522.20 9.00 L 536.00 7.30 L 557.00 5.90 L 568.00 5.60 L 590.70 6.20 L 602.20 7.10 L 614.10 8.50 L 626.30 10.40 L 628.30 36.00 L 651.90 38.10 L 665.40 40.00 L 678.50 42.70 L 684.50 44.40 L 689.40 46.30 L 692.50 47.80 L 694.70 49.30 L 696.30 50.80 L 689.60 71.50 L 708.60 87.10 L 730.60 103.90 L 740.00 110.20 L 744.10 112.50 L 746.60 113.50 L 708.10 103.00 L 721.10 117.50 L 734.60 134.60 L 742.20 145.00 L 755.70 165.60 L 766.50 184.60 L 771.60 194.50 L 776.50 205.00 L 781.20 216.00 L 785.40 227.20 L 789.20 238.80 L 792.50 250.80 L 794.60 259.90 L 797.70 278.50 L 798.70 288.20 L 780.50 292.70 L 771.00 359.70 L 764.90 395.90 L 762.10 409.10 Z" fill="#28395e" fill-rule="nonzero" group-id="1" node-id="100" stroke="none" target-height="428.19998" target-width="603.80005" target-x="194.9" target-y="5.6"></path><path d="M 784.60 211.10 L 777.60 218.80 L 771.60 224.90 L 755.80 239.30 L 745.90 247.40 L 734.00 256.40 L 725.70 262.30 L 706.60 274.40 L 696.40 280.20 L 685.50 285.90 L 673.80 291.50 L 661.80 296.60 L 649.20 301.40 L 635.70 305.80 L 615.10 311.30 L 592.80 315.60 L 581.50 317.10 L 569.80 318.20 L 557.70 318.80 L 545.20 319.00 L 535.00 318.70 L 517.60 317.20 L 506.20 315.70 L 494.20 313.60 L 480.40 310.70 L 471.10 308.40 L 451.00 302.30 L 440.80 298.60 L 430.40 294.30 L 419.60 289.40 L 409.20 284.10 L 398.60 278.10 L 388.10 271.30 L 380.40 265.90 L 372.80 260.10 L 365.40 253.80 L 358.00 247.00 L 350.90 240.00 L 344.10 232.40 L 337.40 224.30 L 331.00 215.60 L 325.00 206.70 L 319.30 197.20 L 313.90 187.00 L 308.80 176.20 L 302.30 169.60 L 292.30 158.10 L 286.20 150.40 L 280.20 142.10 L 273.80 132.40 L 265.90 118.60 L 258.80 103.30 L 255.90 95.20 L 253.30 86.90 L 260.70 82.60 L 267.40 79.50 L 275.10 76.30 L 285.60 72.80 L 293.00 70.60 L 311.80 66.40 L 321.90 64.80 L 333.30 63.30 L 346.30 62.20 L 359.20 61.60 L 373.60 61.50 L 389.60 61.90 L 399.50 55.10 L 408.20 50.00 L 422.40 43.00 L 432.00 38.80 L 441.60 35.10 L 452.80 31.30 L 475.20 24.90 L 497.10 20.40 L 509.50 18.30 L 521.60 16.70 L 534.70 15.40 L 548.70 14.50 L 563.80 13.90 L 578.50 13.80 L 594.30 14.20 L 611.00 15.10 L 628.90 16.60 L 626.50 45.30 L 692.90 62.00 L 688.00 86.60 L 715.30 102.70 L 713.60 132.90 L 724.90 140.80 L 736.60 150.00 L 750.00 162.10 L 756.80 169.10 L 767.90 182.00 L 775.70 193.20 L 779.10 199.00 L 782.00 205.00 L 784.60 211.10 Z" fill="#1d2d49" fill-rule="nonzero" group-id="1" node-id="102" stroke="none" target-height="305.2" target-width="531.3" target-x="253.3" target-y="13.8"></path><path d="M 780.50 201.80 L 772.50 211.00 L 765.60 218.10 L 757.60 225.70 L 747.10 234.80 L 739.60 240.80 L 721.40 253.90 L 711.60 260.20 L 700.70 266.60 L 688.80 272.90 L 670.20 281.60 L 649.20 289.50 L 638.50 292.90 L 627.20 296.00 L 615.40 298.70 L 603.00 301.10 L 590.60 302.90 L 577.70 304.20 L 564.20 305.00 L 550.10 305.20 L 539.90 304.90 L 522.50 303.50 L 511.10 301.90 L 499.10 299.90 L 485.30 296.90 L 476.00 294.60 L 455.90 288.50 L 445.70 284.80 L 435.30 280.50 L 424.60 275.70 L 414.10 270.30 L 403.60 264.30 L 393.00 257.60 L 385.30 252.20 L 377.80 246.30 L 370.30 240.00 L 362.90 233.30 L 355.80 226.20 L 349.00 218.60 L 342.40 210.50 L 335.90 201.80 L 329.90 193.00 L 324.20 183.40 L 318.80 173.30 L 313.70 162.40 L 307.40 157.30 L 297.60 148.10 L 291.70 141.60 L 283.80 131.90 L 275.70 120.10 L 271.80 113.60 L 268.20 106.50 L 264.90 99.30 L 261.90 91.50 L 259.30 83.20 L 267.70 78.00 L 274.90 74.10 L 283.10 70.20 L 294.00 65.70 L 310.40 60.00 L 320.40 57.20 L 330.50 54.80 L 341.60 52.60 L 363.10 49.70 L 383.40 48.40 L 394.50 48.20 L 404.40 41.40 L 413.10 36.30 L 427.40 29.20 L 436.90 25.10 L 446.50 21.40 L 457.70 17.60 L 480.10 11.20 L 502.00 6.60 L 514.40 4.60 L 526.50 3.00 L 539.60 1.70 L 553.70 0.70 L 568.80 0.20 L 583.50 0.10 L 599.20 0.50 L 615.90 1.40 L 633.80 2.90 L 631.50 31.60 L 710.90 46.60 L 705.00 52.30 L 702.60 55.10 L 697.80 62.20 L 696.00 66.30 L 695.00 69.10 L 694.30 75.00 L 746.50 113.50 L 723.00 119.10 L 734.40 130.90 L 739.70 136.80 L 752.10 152.10 L 758.60 161.10 L 764.90 170.60 L 770.80 180.60 L 774.40 187.60 L 780.50 201.80 Z" fill="#374968" fill-rule="nonzero" group-id="1" node-id="104" stroke="none" target-height="305.1" target-width="521.2" target-x="259.3" target-y="0.1"></path></g></svg>