<?xml version="1.0" standalone="no"?><!DOCTYPE svg PUBLIC "-//W3C//DTD SVG 1.1//EN" "http://www.w3.org/Graphics/SVG/1.1/DTD/svg11.dtd"><svg height="1017" node-id="1" sillyvg="true" template-height="1017" template-width="981" version="1.1" viewBox="0 0 981 1017" width="981" xmlns="http://www.w3.org/2000/svg" xmlns:xlink="http://www.w3.org/1999/xlink"><defs node-id="43"></defs><g node-id="113"><path d="M 968.20 526.80 L 968.00 542.00 L 967.30 557.20 L 966.10 572.20 L 964.40 587.10 L 962.30 602.00 L 959.70 616.80 L 956.60 631.50 L 953.10 646.00 L 949.20 660.40 L 944.80 674.70 L 939.90 688.80 L 934.70 702.80 L 929.00 716.50 L 922.80 730.10 L 916.20 743.50 L 909.30 756.70 L 901.90 769.70 L 894.10 782.50 L 885.90 795.00 L 877.20 807.30 L 868.20 819.30 L 858.80 831.10 L 849.10 842.50 L 838.90 853.70 L 828.30 864.70 L 817.30 875.30 L 806.10 885.50 L 794.60 895.30 L 782.90 904.60 L 770.90 913.60 L 758.60 922.30 L 746.00 930.50 L 733.30 938.30 L 720.30 945.70 L 707.10 952.70 L 693.70 959.20 L 680.10 965.40 L 666.30 971.10 L 652.40 976.30 L 638.30 981.20 L 624.00 985.60 L 609.60 989.50 L 595.10 993.00 L 580.40 996.10 L 565.60 998.70 L 550.70 1000.80 L 535.80 1002.50 L 520.70 1003.70 L 505.60 1004.40 L 490.40 1004.60 L 475.10 1004.40 L 460.00 1003.70 L 445.00 1002.50 L 430.00 1000.80 L 415.20 998.70 L 400.40 996.10 L 385.70 993.00 L 371.20 989.50 L 356.80 985.60 L 342.50 981.20 L 328.40 976.30 L 314.40 971.10 L 300.70 965.40 L 287.10 959.20 L 273.60 952.70 L 260.40 945.70 L 247.50 938.30 L 234.70 930.50 L 222.20 922.30 L 209.90 913.60 L 197.90 904.60 L 186.10 895.30 L 174.60 885.50 L 163.40 875.30 L 152.50 864.70 L 141.90 853.70 L 131.70 842.50 L 121.90 831.10 L 112.50 819.30 L 103.50 807.30 L 94.90 795.00 L 86.70 782.50 L 78.90 769.70 L 71.50 756.70 L 64.50 743.50 L 57.90 730.10 L 51.80 716.50 L 46.10 702.80 L 40.80 688.80 L 36.00 674.70 L 31.60 660.40 L 27.60 646.00 L 24.10 631.50 L 21.10 616.80 L 18.50 602.00 L 16.40 587.10 L 14.70 572.20 L 13.50 557.20 L 12.80 542.00 L 12.50 526.80 L 12.80 511.60 L 13.50 496.40 L 14.70 481.40 L 16.40 466.40 L 18.50 451.60 L 21.10 436.80 L 24.10 422.10 L 27.60 407.60 L 31.60 393.20 L 36.00 378.90 L 40.80 364.80 L 46.10 350.80 L 51.80 337.10 L 57.90 323.50 L 64.50 310.10 L 71.50 296.80 L 78.90 283.90 L 86.70 271.10 L 94.90 258.60 L 103.50 246.30 L 112.50 234.30 L 121.90 222.50 L 131.70 211.10 L 141.90 199.80 L 152.50 188.90 L 163.40 178.30 L 174.60 168.10 L 186.10 158.30 L 197.90 148.90 L 209.90 139.90 L 222.20 131.30 L 234.70 123.10 L 247.50 115.30 L 260.40 107.90 L 273.60 100.90 L 287.10 94.40 L 300.70 88.20 L 314.40 82.50 L 328.40 77.20 L 342.50 72.40 L 356.80 68.00 L 371.20 64.00 L 385.70 60.50 L 400.40 57.50 L 415.20 54.90 L 430.00 52.80 L 445.00 51.10 L 460.00 49.90 L 475.10 49.20 L 490.40 48.90 L 505.60 49.20 L 520.70 49.90 L 535.80 51.10 L 550.70 52.80 L 565.60 54.90 L 580.40 57.50 L 595.10 60.50 L 609.60 64.00 L 624.00 68.00 L 638.30 72.40 L 652.40 77.20 L 666.30 82.50 L 680.10 88.20 L 693.70 94.40 L 707.10 100.90 L 720.30 107.90 L 733.30 115.30 L 746.00 123.10 L 758.60 131.30 L 770.90 139.90 L 782.90 148.90 L 794.60 158.30 L 806.10 168.10 L 817.30 178.30 L 828.30 188.90 L 838.90 199.80 L 849.10 211.10 L 858.80 222.50 L 868.20 234.30 L 877.20 246.30 L 885.90 258.60 L 894.10 271.10 L 901.90 283.90 L 909.30 296.80 L 916.30 310.10 L 922.80 323.50 L 929.00 337.10 L 934.70 350.80 L 939.90 364.80 L 944.80 378.90 L 949.20 393.20 L 953.10 407.60 L 956.60 422.10 L 959.70 436.80 L 962.30 451.60 L 964.40 466.40 L 966.10 481.40 L 967.30 496.40 L 968.00 511.60 L 968.20 526.80 Z" fill="#e3f0d5" fill-rule="nonzero" group-id="1" node-id="47" stroke="none" target-height="955.69995" target-width="955.7" target-x="12.5" target-y="48.9"></path><path d="M 490.40 1017.20 L 472.80 1016.80 L 455.50 1015.90 L 438.40 1014.40 L 421.40 1012.30 L 404.70 1009.60 L 388.00 1006.30 L 371.50 1002.50 L 355.20 998.10 L 339.20 993.20 L 323.50 987.80 L 307.80 981.80 L 292.50 975.40 L 277.40 968.40 L 262.60 960.90 L 248.10 953.00 L 233.90 944.50 L 219.90 935.60 L 206.30 926.30 L 193.10 916.50 L 180.10 906.30 L 167.50 895.60 L 155.30 884.50 L 143.50 873.00 L 132.00 861.10 L 120.90 848.80 L 110.20 836.20 L 100.00 823.20 L 90.20 809.80 L 80.80 796.00 L 71.80 781.90 L 63.40 767.50 L 55.40 752.80 L 47.90 737.70 L 40.90 722.30 L 34.40 706.60 L 28.50 690.70 L 23.00 674.50 L 18.20 658.00 L 13.80 641.20 L 10.00 624.10 L 6.90 606.80 L 4.30 589.60 L 2.40 572.60 L 1.10 555.50 L 0.40 538.60 L 0.30 521.50 L 0.70 504.60 L 1.70 487.90 L 3.40 471.20 L 5.50 454.60 L 8.30 438.10 L 11.60 421.80 L 15.40 405.70 L 19.80 389.70 L 24.70 373.90 L 30.10 358.20 L 36.00 342.80 L 42.50 327.60 L 49.40 312.70 L 56.90 297.90 L 64.80 283.40 L 73.20 269.30 L 82.10 255.40 L 91.50 241.80 L 101.30 228.40 L 111.60 215.40 L 122.30 202.80 L 133.50 190.50 L 145.10 178.60 L 157.20 167.00 L 169.60 155.90 L 182.40 145.10 L 195.70 134.80 L 209.40 124.90 L 223.50 115.30 L 237.90 106.30 L 252.70 97.80 L 267.90 89.70 L 283.50 82.10 L 299.50 75.00 L 315.80 68.60 L 332.10 62.90 L 348.50 57.80 L 365.00 53.20 L 381.60 49.30 L 398.40 45.90 L 415.20 43.20 L 432.00 41.00 L 448.90 39.40 L 465.70 38.40 L 482.70 38.00 L 499.50 38.20 L 516.30 38.90 L 533.10 40.20 L 549.90 42.10 L 566.50 44.60 L 583.10 47.60 L 599.50 51.20 L 615.90 55.40 L 632.10 60.10 L 648.20 65.40 L 664.10 71.30 L 679.70 77.70 L 695.30 84.60 L 710.60 92.20 L 725.70 100.30 L 740.50 108.90 L 755.00 118.00 L 769.30 127.80 L 783.40 138.10 L 797.10 148.90 L 810.40 160.10 L 823.10 171.70 L 835.30 183.70 L 847.10 196.00 L 858.50 208.80 L 869.30 221.90 L 879.70 235.30 L 889.60 249.10 L 899.00 263.10 L 907.90 277.50 L 916.30 292.10 L 924.10 307.00 L 931.40 322.20 L 938.30 337.60 L 944.60 353.20 L 950.30 369.10 L 955.50 385.10 L 960.20 401.30 L 964.30 417.70 L 967.80 434.20 L 970.80 450.90 L 973.20 467.60 L 975.00 484.60 L 976.20 501.60 L 976.90 518.70 L 976.90 535.80 L 976.30 553.00 L 975.10 570.30 L 973.40 587.70 L 970.90 605.00 L 967.90 622.00 L 964.40 638.90 L 960.20 655.50 L 955.50 671.90 L 950.20 688.20 L 944.40 704.10 L 938.10 719.90 L 931.20 735.30 L 923.80 750.50 L 915.90 765.50 L 907.50 780.10 L 898.60 794.40 L 889.20 808.40 L 879.40 822.10 L 869.10 835.40 L 858.30 848.30 L 847.10 860.90 L 835.50 873.10 L 823.40 884.90 L 810.90 896.30 L 798.00 907.30 L 784.80 917.90 L 771.10 928.00 L 757.00 937.70 L 742.60 946.80 L 727.80 955.50 L 712.70 963.70 L 697.20 971.40 L 681.30 978.60 L 666.00 984.80 L 650.70 990.40 L 635.20 995.50 L 619.50 1000.00 L 603.70 1004.00 L 587.80 1007.50 L 571.70 1010.50 L 555.60 1012.90 L 539.40 1014.80 L 523.10 1016.10 L 506.80 1016.90 L 490.40 1017.20 Z M 490.40 61.50 L 473.70 61.80 L 457.30 62.70 L 441.00 64.10 L 425.00 66.10 L 409.00 68.60 L 393.20 71.80 L 377.50 75.40 L 362.10 79.50 L 346.90 84.20 L 332.00 89.30 L 317.10 95.00 L 302.60 101.10 L 288.30 107.70 L 274.20 114.80 L 260.50 122.40 L 246.90 130.40 L 233.70 138.80 L 220.80 147.70 L 208.20 157.00 L 195.90 166.70 L 184.00 176.80 L 172.40 187.30 L 161.10 198.20 L 150.20 209.50 L 139.70 221.20 L 129.60 233.20 L 119.80 245.60 L 110.50 258.30 L 101.60 271.30 L 93.10 284.70 L 85.10 298.40 L 77.60 312.40 L 70.50 326.70 L 63.80 341.30 L 57.60 356.20 L 52.00 371.30 L 46.80 386.70 L 42.20 402.30 L 38.10 418.20 L 34.50 434.50 L 31.50 450.90 L 29.10 467.20 L 27.20 483.40 L 26.00 499.50 L 25.30 515.60 L 25.20 531.80 L 25.60 547.90 L 26.60 563.80 L 28.20 579.60 L 30.20 595.30 L 32.80 611.00 L 36.00 626.50 L 39.60 641.80 L 43.70 656.90 L 48.40 672.00 L 53.50 686.80 L 59.20 701.40 L 65.30 715.80 L 71.90 730.00 L 79.00 744.00 L 86.50 757.80 L 94.50 771.20 L 102.90 784.40 L 111.80 797.30 L 121.20 810.00 L 130.90 822.30 L 141.10 834.30 L 151.70 845.90 L 162.70 857.30 L 174.20 868.30 L 186.00 878.80 L 198.10 889.00 L 210.70 898.80 L 223.70 908.30 L 237.10 917.30 L 250.80 925.80 L 264.80 933.90 L 279.20 941.60 L 294.00 948.80 L 309.30 955.60 L 324.70 961.80 L 340.30 967.40 L 355.90 972.40 L 371.60 976.90 L 387.50 980.70 L 403.40 984.10 L 419.40 986.80 L 435.50 989.00 L 451.50 990.60 L 467.60 991.70 L 483.80 992.20 L 499.90 992.10 L 515.90 991.50 L 531.90 990.40 L 547.90 988.70 L 563.80 986.40 L 579.70 983.60 L 595.40 980.30 L 611.00 976.40 L 626.50 971.90 L 641.80 966.90 L 657.00 961.40 L 672.00 955.40 L 686.80 948.80 L 701.50 941.60 L 715.90 934.00 L 730.10 925.80 L 744.00 917.10 L 757.70 907.80 L 771.20 898.00 L 784.30 887.70 L 796.90 877.10 L 809.10 866.00 L 820.80 854.70 L 832.10 842.90 L 842.90 830.70 L 853.30 818.20 L 863.20 805.40 L 872.70 792.40 L 881.60 778.90 L 890.10 765.20 L 898.10 751.30 L 905.60 737.10 L 912.60 722.60 L 919.20 707.90 L 925.20 693.00 L 930.60 677.90 L 935.60 662.60 L 940.00 647.10 L 943.90 631.50 L 947.30 615.70 L 950.10 599.80 L 952.30 583.80 L 954.10 567.60 L 955.20 551.30 L 955.80 535.10 L 955.80 518.70 L 955.20 502.30 L 954.00 485.80 L 952.30 469.20 L 949.90 452.70 L 947.00 436.50 L 943.50 420.40 L 939.50 404.60 L 935.00 388.90 L 929.90 373.40 L 924.20 358.20 L 918.10 343.20 L 911.50 328.50 L 904.40 314.00 L 896.80 299.80 L 888.70 285.90 L 880.10 272.30 L 871.10 259.00 L 861.60 246.00 L 851.70 233.30 L 841.40 221.10 L 830.60 209.10 L 819.40 197.60 L 807.80 186.30 L 795.80 175.50 L 783.50 165.20 L 770.70 155.20 L 757.60 145.70 L 744.10 136.50 L 730.30 127.90 L 716.10 119.70 L 701.60 112.00 L 686.70 104.80 L 671.50 98.00 L 657.10 92.20 L 642.50 86.90 L 627.80 82.00 L 612.90 77.70 L 597.90 73.90 L 582.80 70.60 L 567.60 67.80 L 552.30 65.50 L 536.90 63.70 L 521.40 62.40 L 505.90 61.70 L 490.40 61.50 Z" fill="#ffffff" fill-rule="nonzero" group-id="1" node-id="49" stroke="none" target-height="979.2" target-width="976.60004" target-x="0.3" target-y="38"></path><path d="M 435.20 637.60 L 437.20 679.00 L 498.50 723.30 L 540.30 709.50 L 544.20 625.80 L 435.20 637.60 Z" fill="#e5afa1" fill-rule="nonzero" group-id="1" node-id="51" stroke="none" target-height="97.5" target-width="109" target-x="435.2" target-y="625.8"></path><path d="M 728.50 395.40 L 735.00 395.30 L 739.70 395.50 L 744.80 396.10 L 754.20 398.30 L 761.50 401.40 L 764.90 403.50 L 768.00 406.00 L 770.80 409.00 L 772.50 411.50 L 774.00 414.30 L 775.10 417.50 L 775.90 421.10 L 776.30 424.70 L 776.30 428.70 L 775.80 433.40 L 773.80 442.20 L 770.90 451.60 L 766.00 465.20 L 759.00 481.40 L 754.80 489.90 L 746.60 504.10 L 739.10 514.70 L 734.90 519.70 L 730.50 524.30 L 726.00 528.50 L 721.10 532.30 L 716.10 535.50 L 710.80 538.20 L 704.40 539.40 L 699.40 539.80 L 693.90 539.80 L 687.20 539.20 L 686.40 538.80 L 685.70 538.10 L 685.00 534.70 L 685.00 531.90 L 686.20 523.40 L 687.70 516.10 L 692.60 497.90 L 702.70 466.50 L 710.00 445.40 L 728.50 395.40 Z" fill="#e5afa1" fill-rule="nonzero" group-id="1" node-id="53" stroke="none" target-height="144.5" target-width="91.29999" target-x="685" target-y="395.3"></path><path d="M 234.50 377.60 L 227.90 377.50 L 223.20 377.80 L 218.20 378.40 L 208.80 380.60 L 201.40 383.70 L 198.00 385.80 L 194.90 388.30 L 192.20 391.30 L 190.40 393.80 L 189.00 396.60 L 187.90 399.80 L 187.00 403.40 L 186.60 406.90 L 186.60 411.00 L 187.10 415.70 L 189.10 424.50 L 192.10 433.90 L 197.00 447.50 L 203.90 463.70 L 208.10 472.20 L 216.30 486.40 L 223.90 497.00 L 228.10 502.00 L 232.40 506.60 L 237.00 510.80 L 241.90 514.60 L 246.90 517.80 L 252.20 520.50 L 258.50 521.60 L 263.60 522.10 L 269.00 522.10 L 275.80 521.50 L 276.60 521.10 L 277.30 520.40 L 277.70 519.10 L 278.00 516.90 L 278.00 514.20 L 276.80 505.70 L 275.20 498.40 L 270.30 480.20 L 260.30 448.80 L 253.00 427.70 L 234.50 377.60 Z" fill="#e5afa1" fill-rule="nonzero" group-id="1" node-id="55" stroke="none" target-height="144.59998" target-width="91.399994" target-x="186.6" target-y="377.5"></path><path d="M 230.20 347.40 L 234.20 379.10 L 238.90 406.00 L 245.70 438.00 L 250.10 455.50 L 257.00 479.30 L 265.20 503.70 L 274.90 527.80 L 280.20 539.60 L 286.00 551.20 L 292.20 562.40 L 297.10 570.60 L 307.70 586.10 L 313.30 593.40 L 319.20 600.50 L 325.40 607.10 L 331.80 613.20 L 338.40 618.90 L 345.40 624.30 L 352.70 629.00 L 360.20 633.30 L 377.60 641.20 L 393.70 647.30 L 404.30 650.80 L 415.40 654.00 L 428.00 657.00 L 445.60 660.10 L 454.90 661.20 L 464.30 661.80 L 473.70 662.00 L 488.30 661.30 L 501.80 660.00 L 521.80 657.30 L 546.10 652.60 L 559.20 649.40 L 572.90 645.50 L 591.00 639.30 L 599.90 635.60 L 608.70 631.50 L 617.10 627.10 L 625.10 622.20 L 633.20 616.20 L 644.10 606.40 L 655.30 594.60 L 661.00 587.80 L 674.00 570.30 L 680.40 560.60 L 687.10 549.40 L 694.10 536.70 L 699.00 527.10 L 708.90 505.20 L 713.90 492.80 L 718.40 480.50 L 722.90 467.30 L 727.20 452.90 L 731.50 437.50 L 735.30 422.30 L 738.80 406.00 L 742.10 388.50 L 745.20 369.80 L 737.20 353.50 L 727.60 336.70 L 721.50 327.30 L 714.40 317.30 L 709.20 310.70 L 697.80 297.60 L 691.60 291.40 L 685.00 285.50 L 678.10 280.00 L 667.10 272.80 L 655.50 267.00 L 649.40 264.70 L 643.10 262.90 L 636.70 261.60 L 630.00 260.80 L 628.30 265.60 L 626.10 269.20 L 621.90 274.50 L 618.60 277.70 L 615.20 280.60 L 610.70 283.70 L 605.20 287.00 L 599.50 289.90 L 592.50 292.80 L 584.10 295.80 L 575.60 298.30 L 565.50 300.50 L 553.60 302.60 L 541.70 304.20 L 527.90 305.30 L 512.00 306.10 L 468.50 321.80 L 447.20 306.10 L 401.30 292.30 L 385.20 279.70 L 372.80 271.20 L 366.20 267.10 L 359.40 263.50 L 353.10 260.60 L 348.80 259.00 L 345.00 258.00 L 341.60 257.50 L 339.00 257.50 L 336.80 257.90 L 334.90 258.70 L 333.20 259.80 L 331.90 261.30 L 330.80 263.20 L 330.00 265.90 L 329.60 269.30 L 317.60 271.40 L 312.40 272.00 L 309.20 271.90 L 308.80 271.60 L 308.90 271.20 L 309.50 270.50 L 314.90 267.70 L 289.90 287.90 L 274.70 301.20 L 258.60 316.10 L 243.30 331.90 L 236.20 339.90 L 230.20 347.40 Z" fill="#f4d5c1" fill-rule="nonzero" group-id="1" node-id="57" stroke="none" target-height="404.5" target-width="515" target-x="230.2" target-y="257.5"></path><path d="M 371.00 452.70 L 370.80 456.20 L 370.10 459.60 L 369.00 462.70 L 367.50 465.70 L 365.60 468.50 L 363.40 470.90 L 361.00 473.10 L 358.20 475.00 L 355.20 476.50 L 352.10 477.60 L 348.70 478.30 L 345.20 478.50 L 341.60 478.30 L 338.30 477.60 L 335.10 476.50 L 332.10 475.00 L 329.40 473.10 L 326.90 470.90 L 324.70 468.50 L 322.90 465.70 L 321.40 462.70 L 320.20 459.60 L 319.60 456.20 L 319.30 452.70 L 319.60 449.10 L 320.20 445.80 L 321.40 442.60 L 322.90 439.60 L 324.70 436.90 L 326.90 434.40 L 329.40 432.20 L 332.10 430.40 L 335.10 428.90 L 338.30 427.80 L 341.60 427.10 L 345.20 426.90 L 348.70 427.10 L 352.10 427.80 L 355.20 428.90 L 358.20 430.40 L 361.00 432.20 L 363.40 434.40 L 365.60 436.90 L 367.50 439.60 L 369.00 442.60 L 370.10 445.80 L 370.80 449.10 L 371.00 452.70 Z" fill="#1e2c3f" fill-rule="nonzero" group-id="1" node-id="59" stroke="none" target-height="51.600006" target-width="51.700012" target-x="319.3" target-y="426.9"></path><path d="M 532.40 581.00 L 531.60 585.50 L 529.20 589.90 L 526.90 592.50 L 523.90 595.00 L 520.10 597.40 L 516.10 599.30 L 511.60 601.00 L 506.50 602.40 L 496.10 603.90 L 490.50 604.20 L 485.00 603.90 L 479.60 603.40 L 474.50 602.40 L 469.50 601.00 L 465.00 599.30 L 460.90 597.40 L 457.10 595.00 L 454.20 592.50 L 451.90 589.90 L 450.40 587.70 L 448.90 583.30 L 448.70 581.00 L 449.50 576.50 L 451.90 572.20 L 454.20 569.60 L 457.10 567.10 L 460.90 564.60 L 465.00 562.70 L 469.50 561.00 L 474.50 559.60 L 479.60 558.70 L 485.00 558.10 L 490.50 557.90 L 496.10 558.10 L 501.40 558.70 L 506.50 559.60 L 511.60 561.00 L 516.10 562.70 L 520.10 564.60 L 523.90 567.10 L 526.90 569.60 L 529.20 572.20 L 531.60 576.50 L 532.40 581.00 Z" fill="#dc6965" fill-rule="nonzero" group-id="1" node-id="61" stroke="none" target-height="46.299988" target-width="83.70001" target-x="448.7" target-y="557.9"></path><path d="M 655.20 452.70 L 654.90 456.20 L 654.30 459.60 L 653.20 462.70 L 651.60 465.70 L 649.80 468.50 L 647.60 470.90 L 645.10 473.10 L 642.40 475.00 L 639.40 476.50 L 636.20 477.60 L 632.90 478.30 L 629.30 478.50 L 625.80 478.30 L 622.40 477.60 L 619.30 476.50 L 616.30 475.00 L 613.50 473.10 L 611.10 470.90 L 608.90 468.50 L 607.00 465.70 L 605.50 462.70 L 604.40 459.60 L 603.70 456.20 L 603.50 452.70 L 603.70 449.10 L 604.40 445.80 L 605.50 442.60 L 607.00 439.60 L 608.90 436.90 L 611.10 434.40 L 613.50 432.20 L 616.30 430.40 L 619.30 428.90 L 622.40 427.80 L 625.80 427.10 L 629.30 426.90 L 632.90 427.10 L 636.20 427.80 L 639.40 428.90 L 642.40 430.40 L 645.10 432.20 L 647.60 434.40 L 649.80 436.90 L 651.60 439.60 L 653.20 442.60 L 654.30 445.80 L 654.90 449.10 L 655.20 452.70 Z" fill="#1e2c3f" fill-rule="nonzero" group-id="1" node-id="63" stroke="none" target-height="51.600006" target-width="51.700012" target-x="603.5" target-y="426.9"></path><path d="M 740.00 418.40 L 735.40 404.70 L 730.00 391.00 L 722.80 375.60 L 718.70 367.90 L 714.20 360.60 L 710.90 356.00 L 704.30 348.40 L 700.60 345.20 L 696.90 342.70 L 693.30 341.00 L 682.70 350.40 L 666.40 366.60 L 654.80 380.00 L 649.50 387.10 L 647.50 381.90 L 643.20 374.50 L 639.90 370.60 L 637.40 368.10 L 634.50 365.80 L 631.10 363.70 L 627.50 362.00 L 623.40 360.80 L 618.70 359.90 L 611.30 359.90 L 602.20 361.50 L 602.90 379.50 L 602.50 387.30 L 601.90 390.40 L 601.20 392.00 L 599.40 392.20 L 592.10 390.50 L 570.50 383.30 L 534.20 369.70 L 488.00 351.60 L 486.00 373.30 L 481.40 374.50 L 468.70 377.30 L 449.70 380.30 L 438.70 381.40 L 426.40 382.10 L 409.50 381.90 L 400.60 381.20 L 391.70 380.10 L 382.80 378.50 L 374.00 376.40 L 367.40 374.40 L 361.00 372.00 L 354.70 369.20 L 348.50 366.10 L 342.50 362.50 L 336.80 358.50 L 331.30 354.00 L 325.90 349.00 L 321.10 343.60 L 316.50 337.60 L 312.20 331.00 L 308.20 323.70 L 297.60 333.70 L 289.10 342.40 L 279.90 352.60 L 260.50 375.80 L 242.70 399.60 L 233.80 412.60 L 224.40 427.00 L 214.50 443.10 L 207.80 407.00 L 204.10 383.70 L 200.30 357.70 L 197.20 330.80 L 196.00 317.40 L 194.70 292.20 L 195.10 273.90 L 196.50 262.00 L 206.40 252.10 L 204.80 243.10 L 203.70 228.00 L 203.80 218.20 L 204.20 211.50 L 206.40 196.40 L 208.10 188.70 L 210.50 180.70 L 213.60 172.30 L 216.20 166.20 L 219.30 160.10 L 223.00 153.90 L 227.10 147.60 L 231.50 141.70 L 236.60 135.80 L 242.30 129.90 L 248.70 124.10 L 264.50 121.50 L 275.10 118.90 L 283.10 116.00 L 287.80 113.40 L 289.50 111.80 L 290.50 110.10 L 290.80 108.50 L 289.90 106.00 L 286.70 102.70 L 283.10 100.60 L 278.70 97.10 L 275.90 93.30 L 275.10 89.90 L 275.30 88.10 L 276.10 86.20 L 277.60 84.10 L 279.50 82.30 L 282.40 80.20 L 286.70 78.00 L 296.90 74.10 L 304.40 71.90 L 321.50 68.10 L 344.60 64.40 L 374.70 61.10 L 384.90 55.40 L 393.50 51.20 L 403.40 47.10 L 416.30 42.30 L 435.60 36.50 L 447.30 33.70 L 458.90 31.30 L 471.70 29.20 L 485.80 27.50 L 496.30 26.60 L 519.10 25.90 L 531.50 26.10 L 543.60 26.70 L 556.30 27.80 L 569.70 29.40 L 583.70 31.60 L 606.10 45.30 L 617.20 48.90 L 633.70 55.20 L 645.10 60.60 L 649.90 63.40 L 655.30 67.40 L 667.40 80.80 L 685.40 98.20 L 700.30 110.80 L 707.50 115.90 L 711.60 117.80 L 686.00 112.30 L 693.30 120.20 L 705.20 134.30 L 720.10 154.20 L 728.30 166.40 L 739.00 184.00 L 744.50 193.80 L 749.50 203.80 L 754.40 214.30 L 759.10 225.30 L 763.30 236.50 L 767.10 248.10 L 770.40 260.10 L 774.20 278.40 L 776.60 297.40 L 758.50 302.00 L 748.90 369.00 L 742.80 405.20 L 740.00 418.40 Z" fill="#28395e" fill-rule="nonzero" group-id="1" node-id="65" stroke="none" target-height="417.2" target-width="581.89996" target-x="194.7" target-y="25.9"></path><path d="M 762.50 220.40 L 755.50 228.10 L 749.50 234.10 L 733.70 248.60 L 723.80 256.70 L 711.90 265.70 L 703.60 271.60 L 684.50 283.70 L 674.30 289.50 L 663.40 295.20 L 651.70 300.70 L 639.70 305.80 L 627.10 310.60 L 613.70 315.10 L 603.50 318.00 L 582.10 322.90 L 570.70 324.80 L 559.40 326.30 L 547.70 327.40 L 535.60 328.10 L 518.20 328.20 L 504.60 327.40 L 484.10 325.00 L 472.10 322.90 L 458.30 320.00 L 449.00 317.70 L 428.90 311.50 L 418.70 307.90 L 408.30 303.60 L 397.60 298.70 L 387.10 293.40 L 376.60 287.40 L 366.00 280.60 L 358.30 275.20 L 350.80 269.40 L 343.30 263.10 L 335.90 256.30 L 328.80 249.30 L 322.00 241.70 L 315.30 233.60 L 308.90 224.90 L 302.90 216.00 L 297.20 206.50 L 291.80 196.30 L 286.70 185.50 L 291.90 180.10 L 295.50 175.60 L 299.10 170.40 L 302.90 163.80 L 305.20 159.00 L 307.30 153.70 L 309.20 147.70 L 310.60 141.70 L 311.50 135.10 L 311.90 127.80 L 311.80 122.50 L 311.30 116.80 L 310.30 110.80 L 308.80 104.40 L 306.10 101.10 L 304.50 98.60 L 303.10 95.80 L 302.10 92.70 L 301.80 90.60 L 302.30 86.10 L 303.10 84.00 L 304.60 81.90 L 306.90 79.70 L 309.50 78.00 L 313.10 76.20 L 318.00 74.50 L 323.00 73.30 L 329.40 72.20 L 337.50 71.40 L 345.60 70.90 L 367.50 71.20 L 376.10 65.20 L 383.80 60.70 L 396.60 54.60 L 405.30 50.90 L 414.10 47.70 L 424.40 44.40 L 436.50 41.10 L 448.60 38.30 L 462.40 35.70 L 478.10 33.30 L 489.70 32.00 L 516.00 30.30 L 530.80 29.90 L 545.20 30.00 L 560.60 30.50 L 577.30 31.60 L 595.20 33.10 L 604.50 54.60 L 660.70 78.20 L 664.70 87.60 L 665.90 93.50 L 665.90 95.80 L 693.20 112.00 L 691.50 142.20 L 702.80 150.10 L 714.50 159.30 L 727.90 171.40 L 734.70 178.30 L 745.80 191.20 L 753.60 202.40 L 757.00 208.30 L 760.00 214.30 L 762.50 220.40 Z" fill="#1d2d49" fill-rule="nonzero" group-id="1" node-id="67" stroke="none" target-height="298.30002" target-width="475.8" target-x="286.7" target-y="29.9"></path><path d="M 758.50 211.10 L 750.40 220.30 L 743.50 227.40 L 735.50 234.90 L 725.00 244.10 L 709.00 256.40 L 699.40 263.10 L 689.50 269.50 L 678.60 275.80 L 666.70 282.20 L 648.10 290.80 L 627.20 298.70 L 616.40 302.20 L 605.20 305.20 L 593.30 308.00 L 580.90 310.30 L 568.50 312.10 L 555.60 313.50 L 542.10 314.20 L 523.10 314.40 L 509.60 313.60 L 489.00 311.20 L 477.00 309.10 L 463.20 306.20 L 453.90 303.90 L 433.80 297.70 L 423.60 294.10 L 413.20 289.80 L 402.50 284.90 L 392.00 279.60 L 381.50 273.50 L 370.90 266.80 L 363.30 261.40 L 355.70 255.60 L 348.20 249.30 L 340.80 242.50 L 333.80 235.50 L 326.90 227.90 L 320.30 219.80 L 313.80 211.10 L 307.80 202.20 L 302.20 192.70 L 296.70 182.50 L 291.60 171.70 L 296.10 168.40 L 299.10 165.40 L 303.20 160.30 L 307.20 153.30 L 308.90 149.10 L 310.50 144.20 L 311.50 139.20 L 312.10 133.40 L 312.30 126.80 L 312.00 122.00 L 310.30 110.80 L 308.80 104.40 L 307.20 100.20 L 306.40 97.00 L 305.80 93.60 L 306.00 86.80 L 307.70 80.90 L 309.10 78.10 L 311.00 75.20 L 313.70 72.30 L 316.70 69.70 L 320.50 67.20 L 325.40 64.70 L 330.50 62.80 L 336.80 61.00 L 344.40 59.40 L 352.20 58.40 L 361.40 57.70 L 372.40 57.40 L 379.00 52.50 L 385.20 48.90 L 395.80 43.90 L 403.20 41.00 L 410.70 38.40 L 419.80 35.90 L 430.60 33.20 L 441.50 31.10 L 454.10 29.10 L 468.70 27.40 L 483.40 26.30 L 500.00 25.60 L 518.90 25.40 L 532.80 25.70 L 564.40 27.60 L 582.30 29.20 L 609.40 40.80 L 669.70 74.60 L 710.00 115.90 L 700.90 128.40 L 712.30 140.20 L 717.60 146.10 L 730.00 161.40 L 736.50 170.40 L 742.80 179.80 L 748.70 189.90 L 752.30 196.80 L 758.50 211.10 Z" fill="#374968" fill-rule="nonzero" group-id="1" node-id="69" stroke="none" target-height="289" target-width="466.9" target-x="291.6" target-y="25.4"></path><path d="M 702.00 937.50 L 648.00 728.90 L 644.10 722.20 L 637.40 713.70 L 629.00 705.70 L 624.10 701.80 L 618.20 697.70 L 605.90 690.70 L 593.20 685.30 L 585.80 682.80 L 593.00 688.40 L 601.20 696.50 L 609.20 706.60 L 613.00 712.10 L 616.50 718.10 L 619.80 724.60 L 622.60 731.30 L 624.90 738.20 L 626.70 745.60 L 649.00 945.20 L 650.60 965.00 L 664.50 959.50 L 672.60 955.50 L 688.20 946.40 L 702.00 937.50 Z" fill="#64b2ff" fill-rule="nonzero" group-id="1" node-id="71" stroke="none" target-height="282.2" target-width="116.20001" target-x="585.8" target-y="682.8"></path><path d="M 331.50 963.10 L 331.60 955.00 L 333.40 937.80 L 336.30 913.70 L 340.20 884.90 L 349.30 822.20 L 358.00 767.40 L 361.40 748.50 L 362.90 741.60 L 367.20 726.00 L 370.40 716.80 L 374.90 708.00 L 377.60 703.70 L 381.00 699.20 L 383.80 696.10 L 390.90 690.00 L 399.70 684.30 L 404.80 681.70 L 410.60 679.30 L 417.20 677.00 L 401.20 681.00 L 391.00 684.10 L 374.70 689.70 L 362.20 695.50 L 350.80 702.50 L 341.00 710.30 L 333.80 717.90 L 330.60 722.10 L 327.70 726.60 L 325.20 731.50 L 323.20 736.60 L 321.70 742.00 L 320.70 747.90 L 261.20 930.70 L 274.90 938.30 L 288.80 945.40 L 302.90 952.00 L 317.20 958.20 L 331.80 963.90 L 331.50 963.10 Z" fill="#64b2ff" fill-rule="nonzero" group-id="1" node-id="73" stroke="none" target-height="286.90002" target-width="156" target-x="261.2" target-y="677"></path><path d="M 626.70 743.90 L 624.90 736.20 L 622.70 729.20 L 620.30 722.80 L 617.60 717.00 L 614.40 711.40 L 611.00 706.20 L 607.60 701.60 L 603.90 697.50 L 598.60 692.30 L 593.30 687.90 L 587.90 684.10 L 582.30 680.80 L 571.80 675.80 L 564.00 673.00 L 557.60 671.20 L 551.50 670.00 L 543.60 669.00 L 492.60 712.10 L 437.20 672.60 L 428.90 674.00 L 421.60 675.70 L 415.20 677.60 L 409.40 679.70 L 398.60 684.90 L 390.30 690.40 L 385.40 694.60 L 381.40 698.70 L 378.10 702.90 L 375.30 707.30 L 373.00 711.50 L 370.00 719.60 L 368.50 726.60 L 368.00 731.30 L 368.00 737.40 L 369.60 744.90 L 373.40 757.90 L 380.30 777.20 L 384.80 788.40 L 390.60 801.00 L 399.50 818.20 L 404.80 827.40 L 410.50 836.40 L 416.60 845.40 L 423.40 854.50 L 430.60 863.30 L 438.40 872.00 L 446.80 880.50 L 453.30 886.40 L 460.50 892.30 L 468.40 898.20 L 485.10 909.30 L 494.10 914.80 L 507.90 922.50 L 522.10 929.90 L 536.60 936.90 L 551.00 943.50 L 579.00 955.30 L 604.60 965.10 L 626.20 972.80 L 650.70 964.70 L 649.00 943.50 Z" fill="#3390ff" fill-rule="nonzero" group-id="1" node-id="75" stroke="none" target-height="303.8" target-width="282.7" target-x="368" target-y="669"></path><path d="M 433.80 676.50 L 491.30 707.70 L 492.60 706.90 L 437.20 672.60 L 423.80 675.20 L 417.20 677.00 L 427.70 675.70 L 431.00 675.80 L 433.80 676.50 Z" fill="none" group-id="1" node-id="77" stroke="none" target-height="35.100037" target-width="75.399994" target-x="417.2" target-y="672.6"></path><path d="M 437.20 672.60 L 492.60 706.90 L 543.60 669.00 L 584.70 690.10 L 540.70 742.90 L 496.90 712.10 L 488.80 712.10 L 438.30 743.60 L 396.50 694.20 L 437.20 672.60 Z" fill="#64b2ff" fill-rule="nonzero" group-id="1" node-id="79" stroke="none" target-height="74.599976" target-width="188.20001" target-x="396.5" target-y="669"></path><path d="M 544.20 780.40 L 608.90 780.20 L 608.90 813.80 L 544.20 813.80 L 544.20 780.40 Z" fill="#64b2ff" fill-rule="nonzero" group-id="1" node-id="81" stroke="none" target-height="33.599976" target-width="64.70001" target-x="544.2" target-y="780.2"></path><path d="M 544.20 783.40 L 608.90 783.20 L 605.90 780.20 L 605.90 813.80 L 608.90 810.80 L 544.20 810.80 L 547.20 813.80 L 547.20 780.40 L 547.00 779.10 L 546.30 778.20 L 544.20 777.50 L 542.20 778.20 L 541.50 779.10 L 541.20 780.40 L 541.20 813.80 L 541.50 815.00 L 542.10 815.90 L 543.10 816.60 L 544.20 816.80 L 608.90 816.80 L 610.10 816.60 L 611.00 815.90 L 611.70 815.00 L 611.90 813.80 L 611.90 780.20 L 611.70 779.00 L 611.00 778.10 L 610.10 777.40 L 608.90 777.20 L 544.20 777.40 L 542.90 777.60 L 542.10 778.30 L 541.50 779.30 L 541.30 780.40 L 542.10 782.40 L 542.90 783.10 L 544.20 783.40 Z" fill="#f5a51f" fill-rule="nonzero" group-id="1" node-id="83" stroke="none" target-height="39.599976" target-width="70.70001" target-x="541.2" target-y="777.2"></path><path d="M 377.90 780.40 L 442.60 780.20 L 442.60 813.80 L 377.90 813.80 L 377.90 780.40 Z" fill="#64b2ff" fill-rule="nonzero" group-id="1" node-id="85" stroke="none" target-height="33.599976" target-width="64.70001" target-x="377.9" target-y="780.2"></path><path d="M 377.90 783.40 L 442.60 783.20 L 439.60 780.20 L 439.60 813.80 L 442.60 810.80 L 377.90 810.80 L 380.90 813.80 L 380.90 780.40 L 380.60 779.10 L 380.00 778.20 L 377.90 777.50 L 376.80 777.70 L 375.80 778.20 L 375.20 779.10 L 374.90 780.40 L 374.90 813.80 L 375.10 815.00 L 375.80 815.90 L 376.70 816.60 L 377.90 816.80 L 442.60 816.80 L 443.80 816.60 L 444.70 815.90 L 445.40 815.00 L 445.60 813.80 L 445.60 780.20 L 445.40 779.00 L 444.70 778.10 L 443.80 777.40 L 442.60 777.20 L 377.90 777.40 L 376.60 777.60 L 375.70 778.30 L 375.00 780.40 L 375.70 782.40 L 376.60 783.10 L 377.90 783.40 Z" fill="#f5a51f" fill-rule="nonzero" group-id="1" node-id="87" stroke="none" target-height="39.599976" target-width="70.70001" target-x="374.9" target-y="777.2"></path><path d="M 331.50 963.10 L 331.80 963.90 L 346.10 968.90 L 360.50 973.40 L 375.00 977.40 L 389.50 981.00 L 404.10 984.00 L 418.90 986.70 L 433.70 988.80 L 448.50 990.40 L 463.40 991.60 L 478.30 992.30 L 493.20 992.50 L 508.10 992.30 L 523.00 991.50 L 537.90 990.30 L 552.80 988.60 L 567.60 986.40 L 582.30 983.80 L 597.00 980.60 L 611.60 977.00 L 626.20 972.90 L 592.40 960.60 L 565.30 949.80 L 536.60 937.00 L 522.10 930.00 L 507.90 922.60 L 485.10 909.40 L 468.40 898.30 L 460.50 892.40 L 453.30 886.50 L 446.80 880.60 L 438.40 872.10 L 430.60 863.40 L 423.40 854.60 L 416.70 845.50 L 410.50 836.40 L 404.90 827.50 L 399.50 818.30 L 390.60 801.10 L 384.90 788.50 L 380.30 777.30 L 373.40 758.00 L 369.60 745.00 L 368.00 737.40 L 367.90 733.10 L 368.80 724.50 L 371.10 716.20 L 372.80 712.20 L 370.40 716.90 L 368.70 721.50 L 363.70 738.40 L 361.40 748.50 L 358.00 767.40 L 349.30 822.20 L 340.20 884.90 L 333.40 937.80 L 331.60 955.00 L 331.50 963.10 Z" fill="#1664b2" fill-rule="nonzero" group-id="1" node-id="89" stroke="none" target-height="280.3" target-width="294.7" target-x="331.5" target-y="712.2"></path><path d="M 469.80 725.30 L 513.30 725.30 L 524.00 990.10 L 518.20 991.50 L 505.70 992.70 L 495.70 992.90 L 484.60 992.70 L 469.80 991.70 Z" fill="#64b2ff" fill-rule="nonzero" group-id="1" node-id="91" stroke="none" target-height="267.60004" target-width="54.200012" target-x="469.8" target-y="725.3"></path><path d="M 586.10 798.00 L 585.50 801.30 L 584.80 802.80 L 583.30 804.70 L 581.40 806.20 L 579.90 806.90 L 576.60 807.50 L 573.20 806.90 L 571.80 806.20 L 569.80 804.70 L 568.30 802.80 L 567.20 799.70 L 567.00 798.00 L 567.60 794.60 L 568.30 793.20 L 569.80 791.20 L 571.80 789.70 L 573.20 789.00 L 576.60 788.40 L 579.90 789.00 L 581.40 789.70 L 583.30 791.20 L 584.80 793.20 L 585.50 794.60 L 586.10 798.00 Z" fill="#1a191e" fill-rule="nonzero" group-id="1" node-id="93" stroke="none" target-height="19.099976" target-width="19.099976" target-x="567" target-y="788.4"></path><path d="M 419.80 798.00 L 419.20 801.30 L 418.50 802.80 L 417.00 804.70 L 415.10 806.20 L 413.60 806.90 L 410.30 807.50 L 406.90 806.90 L 405.40 806.20 L 403.50 804.70 L 402.00 802.80 L 401.30 801.30 L 400.70 798.00 L 401.30 794.60 L 402.00 793.20 L 403.50 791.20 L 405.40 789.70 L 406.90 789.00 L 410.30 788.40 L 413.60 789.00 L 415.10 789.70 L 417.00 791.20 L 418.50 793.20 L 419.20 794.60 L 419.80 798.00 Z" fill="#1a191e" fill-rule="nonzero" group-id="1" node-id="95" stroke="none" target-height="19.099976" target-width="19.099976" target-x="400.7" target-y="788.4"></path><path d="M 498.10 0.00 L 486.50 0.40 L 466.70 2.20 L 453.70 3.80 L 440.00 6.00 L 424.20 9.00 L 402.30 14.30 L 390.50 17.60 L 378.80 21.30 L 366.70 25.60 L 354.40 30.50 L 342.30 35.80 L 330.10 41.70 L 317.90 48.40 L 308.90 53.70 L 300.10 59.40 L 291.40 65.60 L 282.70 72.20 L 274.40 79.10 L 266.40 86.50 L 258.50 94.40 L 250.90 102.80 L 243.70 111.50 L 236.90 120.80 L 230.40 130.60 L 224.20 141.00 L 219.80 149.50 L 215.60 158.40 L 211.60 167.70 L 208.00 177.40 L 204.60 187.70 L 201.80 197.80 L 199.30 208.50 L 197.10 219.60 L 195.30 231.40 L 194.00 243.70 L 193.10 255.70 L 192.60 268.20 L 192.60 281.40 L 193.10 295.30 L 194.10 309.80 L 208.90 303.60 L 235.00 293.60 L 271.60 281.00 L 309.00 269.70 L 343.10 260.80 L 360.70 256.60 L 398.80 248.90 L 418.40 245.60 L 438.60 242.70 L 459.40 240.10 L 475.00 238.60 L 506.90 236.60 L 523.20 236.10 L 539.40 236.00 L 555.70 236.40 L 572.10 237.10 L 588.60 238.40 L 605.00 240.10 L 621.30 242.40 L 637.60 245.30 L 653.90 248.70 L 666.80 251.80 L 679.60 255.30 L 692.40 259.30 L 705.00 263.70 L 717.60 268.50 L 729.90 273.70 L 742.10 279.40 L 754.10 285.60 L 766.10 292.30 L 777.90 299.50 L 778.20 289.00 L 777.50 271.00 L 776.40 259.00 L 773.90 241.80 L 769.90 222.00 L 767.10 211.60 L 763.80 200.50 L 760.10 189.60 L 755.70 178.30 L 750.60 166.60 L 741.80 149.40 L 736.60 140.60 L 731.00 131.80 L 725.10 123.20 L 718.70 114.70 L 711.70 106.10 L 704.10 97.60 L 696.20 89.50 L 687.60 81.50 L 678.40 73.60 L 668.50 65.70 L 658.30 58.50 L 647.40 51.40 L 635.70 44.50 L 623.10 37.80 L 613.00 32.90 L 602.40 28.20 L 591.10 23.70 L 579.20 19.40 L 566.70 15.30 L 554.40 11.70 L 541.40 8.40 L 527.70 5.30 L 513.30 2.50 L 498.10 0.00 Z" fill="#3390ff" fill-rule="nonzero" group-id="1" node-id="97" stroke="none" target-height="309.8" target-width="585.6" target-x="192.6" target-y="0"></path><path d="M 194.10 309.80 L 208.40 303.00 L 233.60 292.20 L 250.80 285.40 L 269.30 278.50 L 291.00 271.10 L 321.90 261.50 L 339.20 256.60 L 356.60 252.10 L 374.80 247.90 L 394.10 243.80 L 413.40 240.20 L 433.40 237.10 L 454.00 234.30 L 485.30 231.50 L 517.60 230.00 L 533.80 230.00 L 550.20 230.40 L 566.60 231.30 L 583.30 232.60 L 599.80 234.60 L 616.30 237.10 L 632.90 240.20 L 649.50 243.90 L 662.70 247.30 L 675.80 251.20 L 688.80 255.50 L 701.90 260.30 L 714.90 265.60 L 727.60 271.30 L 740.30 277.50 L 752.90 284.30 L 765.40 291.60 L 777.80 299.50 L 788.40 316.60 L 800.40 334.60 L 805.40 341.20 L 807.50 343.40 L 808.70 344.10 L 779.80 338.80 L 723.00 329.30 L 670.80 321.70 L 640.80 317.80 L 609.70 314.20 L 576.00 310.60 L 541.40 307.50 L 480.40 303.10 L 429.40 300.80 L 403.70 300.10 L 351.30 299.80 L 324.90 300.30 L 298.60 301.20 L 272.20 302.60 L 245.90 304.40 L 219.80 306.90 L 194.10 309.80 Z" fill="#64b2ff" fill-rule="nonzero" group-id="1" node-id="99" stroke="none" target-height="114.100006" target-width="614.6" target-x="194.1" target-y="230"></path><path d="M 392.80 135.80 L 400.10 135.80 L 406.70 173.50 L 406.90 173.50 L 409.90 159.10 L 415.70 135.80 L 421.90 135.80 L 427.70 159.10 L 430.70 173.50 L 431.00 173.50 L 433.30 159.10 L 437.60 135.80 L 444.30 135.80 L 435.50 180.60 L 426.80 180.60 L 420.80 155.70 L 418.70 145.40 L 418.40 145.40 L 416.30 155.70 L 410.40 180.60 L 402.00 180.60 Z" fill="#f5a51f" fill-rule="nonzero" group-id="1" node-id="101" stroke="none" target-height="44.800003" target-width="51.5" target-x="392.8" target-y="135.8"></path><path d="M 448.80 163.90 L 449.10 160.20 L 449.80 157.10 L 451.00 154.40 L 452.60 151.90 L 454.60 149.90 L 456.80 148.40 L 459.20 147.20 L 461.80 146.50 L 464.50 146.30 L 467.30 146.50 L 469.80 147.20 L 472.30 148.40 L 474.50 149.90 L 476.40 151.90 L 478.00 154.40 L 479.20 157.10 L 480.00 160.20 L 480.30 163.90 L 480.00 167.60 L 479.20 170.80 L 478.00 173.40 L 476.40 175.90 L 474.50 177.80 L 472.30 179.40 L 469.80 180.50 L 467.30 181.20 L 464.50 181.40 L 461.80 181.20 L 459.20 180.50 L 456.80 179.30 L 454.60 177.80 L 452.60 175.80 L 451.00 173.40 L 449.80 170.70 L 449.10 167.60 L 448.80 163.90 Z M 473.10 163.90 L 472.80 160.40 L 472.00 157.60 L 470.80 155.30 L 469.50 153.90 L 468.10 152.90 L 466.40 152.30 L 464.50 152.10 L 462.60 152.30 L 460.90 152.90 L 459.50 153.90 L 458.30 155.30 L 457.10 157.60 L 456.30 160.40 L 456.00 163.90 L 456.30 167.50 L 457.10 170.30 L 458.30 172.50 L 459.50 173.90 L 461.00 174.80 L 462.60 175.40 L 464.50 175.70 L 466.40 175.40 L 468.10 174.80 L 469.50 173.90 L 470.80 172.50 L 472.00 170.20 L 472.80 167.50 L 473.10 163.90 Z" fill="#f5a51f" fill-rule="nonzero" group-id="1" node-id="103" stroke="none" target-height="35.09999" target-width="31.5" target-x="448.8" target-y="146.3"></path><path d="M 488.50 147.20 L 494.20 147.20 L 494.90 153.20 L 497.70 149.40 L 500.90 147.10 L 504.40 146.30 L 506.40 146.40 L 508.20 147.00 L 506.90 153.10 L 503.60 152.50 L 500.80 153.20 L 498.00 155.40 L 495.40 159.70 L 495.40 180.60 L 488.50 180.60 Z" fill="#f5a51f" fill-rule="nonzero" group-id="1" node-id="105" stroke="none" target-height="34.300003" target-width="19.700012" target-x="488.5" target-y="146.3"></path><path d="M 513.40 132.10 L 520.20 132.10 L 520.20 163.40 L 533.50 147.20 L 541.20 147.20 L 529.90 160.70 L 542.50 180.60 L 534.90 180.60 L 525.80 165.50 L 520.20 172.00 L 520.20 180.60 L 513.40 180.60 Z" fill="#f5a51f" fill-rule="nonzero" group-id="1" node-id="107" stroke="none" target-height="48.5" target-width="29.099976" target-x="513.4" target-y="132.1"></path><path d="M 544.50 163.90 L 544.80 160.30 L 545.60 157.20 L 546.70 154.50 L 548.30 152.10 L 550.20 150.00 L 552.30 148.50 L 554.70 147.30 L 557.20 146.50 L 559.80 146.30 L 562.70 146.60 L 565.20 147.20 L 567.30 148.30 L 569.10 149.80 L 570.60 151.60 L 571.90 153.80 L 573.20 159.00 L 573.40 162.20 L 573.10 165.70 L 551.40 165.70 L 551.80 168.10 L 553.40 171.80 L 556.10 174.40 L 557.70 175.20 L 561.70 175.90 L 564.60 175.60 L 567.20 174.80 L 569.70 173.40 L 572.20 177.90 L 569.60 179.40 L 566.80 180.50 L 563.90 181.20 L 560.90 181.40 L 557.80 181.20 L 555.10 180.50 L 552.60 179.30 L 550.30 177.80 L 548.40 175.80 L 546.70 173.40 L 545.60 170.70 L 544.80 167.60 L 544.50 163.90 Z M 567.40 160.90 L 567.20 158.10 L 566.50 155.90 L 565.50 154.20 L 564.10 152.90 L 562.20 152.10 L 559.90 151.80 L 557.90 152.10 L 556.00 152.90 L 554.30 154.20 L 553.00 155.90 L 552.00 158.10 L 551.30 160.90 Z" fill="#f5a51f" fill-rule="nonzero" group-id="1" node-id="109" stroke="none" target-height="35.09999" target-width="28.900024" target-x="544.5" target-y="146.3"></path><path d="M 581.30 147.20 L 587.00 147.20 L 587.70 153.20 L 590.50 149.40 L 593.70 147.10 L 597.20 146.30 L 599.20 146.40 L 601.00 147.00 L 599.70 153.10 L 596.40 152.50 L 593.60 153.20 L 590.80 155.40 L 588.20 159.70 L 588.20 180.60 L 581.30 180.60 Z" fill="#f5a51f" fill-rule="nonzero" group-id="1" node-id="111" stroke="none" target-height="34.300003" target-width="19.700012" target-x="581.3" target-y="146.3"></path></g></svg>