<?xml version="1.0" standalone="no"?><!DOCTYPE svg PUBLIC "-//W3C//DTD SVG 1.1//EN" "http://www.w3.org/Graphics/SVG/1.1/DTD/svg11.dtd"><svg height="992" node-id="1" sillyvg="true" template-height="992" template-width="981" version="1.1" viewBox="0 0 981 992" width="981" xmlns="http://www.w3.org/2000/svg" xmlns:xlink="http://www.w3.org/1999/xlink"><defs node-id="54"></defs><g node-id="146"><path d="M 968.20 502.00 L 968.00 517.20 L 967.30 532.30 L 966.10 547.40 L 964.40 562.30 L 962.30 577.20 L 959.70 592.00 L 956.60 606.70 L 953.10 621.20 L 949.20 635.60 L 944.80 649.80 L 939.90 664.00 L 934.70 677.90 L 929.00 691.70 L 922.80 705.30 L 916.20 718.70 L 909.30 731.90 L 901.90 744.90 L 894.10 757.60 L 885.90 770.20 L 877.20 782.50 L 868.20 794.50 L 858.80 806.20 L 849.10 817.70 L 838.90 828.90 L 828.30 839.90 L 817.30 850.50 L 806.10 860.60 L 794.60 870.40 L 782.90 879.80 L 770.90 888.80 L 758.60 897.50 L 746.00 905.70 L 733.30 913.50 L 720.30 920.90 L 707.10 927.80 L 693.70 934.40 L 680.10 940.50 L 666.30 946.20 L 652.40 951.50 L 638.30 956.40 L 624.00 960.80 L 609.60 964.70 L 595.10 968.20 L 580.40 971.30 L 565.60 973.90 L 550.70 976.00 L 535.80 977.70 L 520.70 978.90 L 505.60 979.60 L 490.40 979.80 L 475.10 979.60 L 460.00 978.90 L 445.00 977.70 L 430.00 976.00 L 415.20 973.90 L 400.40 971.30 L 385.70 968.20 L 371.20 964.70 L 356.80 960.80 L 342.50 956.40 L 328.40 951.50 L 314.40 946.20 L 300.70 940.50 L 287.10 934.40 L 273.60 927.80 L 260.40 920.90 L 247.50 913.50 L 234.70 905.70 L 222.20 897.50 L 209.90 888.80 L 197.90 879.80 L 186.10 870.40 L 174.60 860.60 L 163.40 850.50 L 152.50 839.90 L 141.90 828.90 L 131.70 817.70 L 121.90 806.20 L 112.50 794.50 L 103.50 782.50 L 94.90 770.20 L 86.70 757.60 L 78.90 744.90 L 71.50 731.90 L 64.50 718.70 L 57.90 705.30 L 51.80 691.70 L 46.10 677.90 L 40.80 664.00 L 36.00 649.80 L 31.60 635.60 L 27.60 621.20 L 24.10 606.70 L 21.10 592.00 L 18.50 577.20 L 16.40 562.30 L 14.70 547.40 L 13.50 532.30 L 12.80 517.20 L 12.50 502.00 L 12.80 486.70 L 13.50 471.60 L 14.70 456.60 L 16.40 441.60 L 18.50 426.80 L 21.10 412.00 L 24.10 397.30 L 27.60 382.80 L 31.60 368.40 L 36.00 354.10 L 40.80 340.00 L 46.10 326.00 L 51.80 312.20 L 57.90 298.70 L 64.50 285.20 L 71.50 272.00 L 78.90 259.10 L 86.70 246.30 L 94.90 233.80 L 103.50 221.50 L 112.50 209.40 L 121.90 197.70 L 131.70 186.20 L 141.90 175.00 L 152.50 164.10 L 163.40 153.50 L 174.60 143.30 L 186.10 133.50 L 197.90 124.10 L 209.90 115.10 L 222.20 106.50 L 234.70 98.30 L 247.50 90.50 L 260.40 83.10 L 273.60 76.10 L 287.10 69.50 L 300.70 63.40 L 314.40 57.70 L 328.40 52.40 L 342.50 47.60 L 356.80 43.20 L 371.20 39.20 L 385.70 35.70 L 400.40 32.70 L 415.20 30.10 L 430.00 27.90 L 445.00 26.30 L 460.00 25.10 L 475.10 24.40 L 490.40 24.10 L 505.60 24.40 L 520.70 25.10 L 535.80 26.30 L 550.70 27.90 L 565.60 30.10 L 580.40 32.70 L 595.10 35.70 L 609.60 39.20 L 624.00 43.20 L 638.30 47.60 L 652.40 52.40 L 666.30 57.70 L 680.10 63.40 L 693.70 69.50 L 707.10 76.10 L 720.30 83.10 L 733.30 90.50 L 746.00 98.30 L 758.60 106.50 L 770.90 115.10 L 782.90 124.10 L 794.60 133.50 L 806.10 143.30 L 817.30 153.50 L 828.30 164.10 L 838.90 175.00 L 849.10 186.20 L 858.80 197.70 L 868.20 209.40 L 877.20 221.50 L 885.90 233.80 L 894.10 246.30 L 901.90 259.10 L 909.30 272.00 L 916.30 285.20 L 922.80 298.70 L 929.00 312.20 L 934.70 326.00 L 939.90 340.00 L 944.80 354.10 L 949.20 368.40 L 953.10 382.80 L 956.60 397.30 L 959.70 412.00 L 962.30 426.80 L 964.40 441.60 L 966.10 456.60 L 967.30 471.60 L 968.00 486.70 L 968.20 502.00 Z" fill="#8bbee6" fill-rule="nonzero" group-id="1" node-id="58" stroke="#ffffff" stroke-linecap="butt" stroke-width="24.42" target-height="955.7" target-width="955.7" target-x="12.5" target-y="24.1"></path><path d="M 490.40 992.40 L 472.80 992.00 L 455.50 991.10 L 438.40 989.60 L 421.40 987.50 L 404.70 984.80 L 387.90 981.50 L 371.50 977.70 L 355.20 973.30 L 339.20 968.40 L 323.40 963.00 L 307.80 957.00 L 292.40 950.60 L 277.40 943.60 L 262.60 936.10 L 248.10 928.20 L 233.80 919.70 L 219.90 910.80 L 206.30 901.50 L 193.00 891.70 L 180.10 881.50 L 167.50 870.80 L 155.20 859.70 L 143.40 848.20 L 131.90 836.40 L 120.80 824.00 L 110.10 811.40 L 99.90 798.40 L 90.10 785.00 L 80.70 771.20 L 71.70 757.10 L 63.30 742.70 L 55.30 728.00 L 47.80 712.90 L 40.80 697.50 L 34.30 681.80 L 28.40 665.90 L 23.00 649.70 L 18.10 633.20 L 13.70 616.40 L 9.90 599.20 L 6.80 582.00 L 4.20 564.80 L 2.30 547.70 L 1.00 530.70 L 0.30 513.70 L 0.20 496.70 L 0.60 479.80 L 1.70 463.00 L 3.30 446.30 L 5.40 429.80 L 8.20 413.30 L 11.50 397.00 L 15.30 380.80 L 19.70 364.80 L 24.60 349.00 L 30.00 333.40 L 36.00 317.90 L 42.40 302.80 L 49.30 287.80 L 56.80 273.10 L 64.80 258.60 L 73.20 244.40 L 82.10 230.50 L 91.40 216.90 L 101.30 203.60 L 111.60 190.60 L 122.30 177.90 L 133.40 165.70 L 145.10 153.70 L 157.10 142.10 L 169.60 131.00 L 182.40 120.30 L 195.70 109.90 L 209.40 100.00 L 223.50 90.50 L 237.90 81.50 L 252.70 72.90 L 267.90 64.90 L 283.50 57.30 L 299.50 50.10 L 315.80 43.60 L 332.20 37.70 L 348.60 32.40 L 365.20 27.80 L 381.90 23.70 L 398.70 20.20 L 415.60 17.30 L 432.50 15.00 L 449.40 13.30 L 466.30 12.20 L 483.30 11.70 L 500.30 11.80 L 517.20 12.40 L 534.00 13.60 L 550.90 15.40 L 567.60 17.80 L 584.30 20.80 L 600.80 24.30 L 617.30 28.50 L 633.60 33.20 L 649.80 38.40 L 665.70 44.20 L 681.50 50.60 L 697.20 57.60 L 712.60 65.10 L 727.80 73.10 L 742.70 81.80 L 757.30 90.90 L 771.70 100.70 L 785.90 111.00 L 799.70 121.90 L 813.10 133.10 L 825.90 144.70 L 838.20 156.70 L 850.10 169.10 L 861.50 181.90 L 872.50 195.10 L 882.90 208.50 L 892.80 222.30 L 902.30 236.40 L 911.20 250.90 L 919.70 265.60 L 927.60 280.60 L 934.90 295.80 L 941.80 311.30 L 948.10 327.00 L 953.90 342.90 L 959.10 359.00 L 963.80 375.30 L 967.90 391.80 L 971.40 408.40 L 974.40 425.10 L 976.80 442.00 L 978.60 459.00 L 979.80 476.20 L 980.40 493.30 L 980.40 510.50 L 979.80 527.80 L 978.60 545.10 L 976.70 562.60 L 974.20 580.00 L 971.20 597.10 L 967.50 614.00 L 963.30 630.70 L 958.50 647.20 L 953.20 663.50 L 947.30 679.60 L 940.80 695.40 L 933.90 710.90 L 926.40 726.10 L 918.30 741.10 L 909.80 755.70 L 900.80 770.10 L 891.30 784.10 L 881.40 797.80 L 870.90 811.10 L 860.00 824.10 L 848.70 836.60 L 837.00 848.80 L 824.70 860.70 L 812.10 872.00 L 799.10 883.00 L 785.70 893.50 L 771.90 903.50 L 757.60 913.20 L 743.10 922.30 L 728.20 930.90 L 712.90 939.00 L 697.30 946.70 L 681.30 953.80 L 666.00 959.90 L 650.70 965.60 L 635.20 970.60 L 619.50 975.20 L 603.70 979.20 L 587.80 982.70 L 571.70 985.70 L 555.60 988.10 L 539.40 990.00 L 523.10 991.30 L 506.80 992.10 L 490.40 992.40 Z M 490.40 36.70 L 473.70 37.00 L 457.30 37.80 L 441.00 39.30 L 425.00 41.30 L 409.00 43.80 L 393.20 46.90 L 377.50 50.60 L 362.10 54.70 L 346.90 59.30 L 332.00 64.50 L 317.10 70.20 L 302.60 76.30 L 288.30 82.90 L 274.20 90.00 L 260.50 97.50 L 246.90 105.60 L 233.70 114.00 L 220.80 122.90 L 208.20 132.20 L 195.90 141.90 L 184.00 152.00 L 172.40 162.50 L 161.10 173.40 L 150.20 184.70 L 139.70 196.40 L 129.60 208.40 L 119.80 220.70 L 110.50 233.40 L 101.60 246.50 L 93.10 259.90 L 85.10 273.60 L 77.60 287.50 L 70.50 301.80 L 63.80 316.40 L 57.60 331.40 L 52.00 346.50 L 46.80 361.80 L 42.20 377.50 L 38.10 393.40 L 34.50 409.70 L 31.50 426.10 L 29.10 442.40 L 27.20 458.60 L 26.00 474.70 L 25.30 490.80 L 25.20 507.00 L 25.60 523.00 L 26.60 539.00 L 28.20 554.80 L 30.20 570.50 L 32.80 586.20 L 36.00 601.60 L 39.60 617.00 L 43.70 632.10 L 48.40 647.10 L 53.50 662.00 L 59.20 676.60 L 65.30 691.00 L 71.90 705.20 L 79.00 719.20 L 86.50 733.00 L 94.50 746.40 L 102.90 759.60 L 111.80 772.50 L 121.20 785.20 L 130.90 797.50 L 141.10 809.50 L 151.70 821.10 L 162.70 832.40 L 174.20 843.40 L 186.00 854.00 L 198.10 864.20 L 210.70 874.00 L 223.70 883.40 L 237.10 892.50 L 250.80 901.00 L 264.80 909.10 L 279.20 916.80 L 294.00 924.00 L 309.30 930.70 L 324.70 936.90 L 340.30 942.60 L 355.90 947.60 L 371.60 952.00 L 387.50 955.90 L 403.40 959.20 L 419.40 962.00 L 435.50 964.20 L 451.50 965.80 L 467.60 966.90 L 483.80 967.40 L 499.80 967.30 L 515.90 966.70 L 531.90 965.60 L 547.90 963.90 L 563.80 961.60 L 579.60 958.80 L 595.40 955.40 L 611.00 951.50 L 626.50 947.10 L 641.80 942.10 L 657.00 936.60 L 672.00 930.50 L 686.80 923.90 L 701.50 916.80 L 715.90 909.20 L 730.00 901.00 L 744.00 892.30 L 757.70 883.00 L 771.10 873.20 L 784.30 862.90 L 796.90 852.30 L 809.10 841.20 L 820.80 829.80 L 832.00 818.10 L 842.90 805.90 L 853.30 793.40 L 863.20 780.60 L 872.60 767.50 L 881.60 754.10 L 890.10 740.40 L 898.10 726.50 L 905.60 712.30 L 912.60 697.80 L 919.10 683.10 L 925.10 668.20 L 930.60 653.10 L 935.60 637.80 L 940.00 622.30 L 943.90 606.70 L 947.30 590.90 L 950.10 575.00 L 952.30 559.00 L 954.00 542.80 L 955.20 526.50 L 955.80 510.30 L 955.80 493.90 L 955.20 477.50 L 954.00 461.00 L 952.30 444.40 L 949.90 427.90 L 947.00 411.70 L 943.50 395.60 L 939.50 379.80 L 935.00 364.10 L 929.90 348.60 L 924.20 333.40 L 918.10 318.40 L 911.50 303.70 L 904.40 289.20 L 896.70 275.00 L 888.70 261.10 L 880.10 247.50 L 871.10 234.20 L 861.60 221.20 L 851.70 208.60 L 841.40 196.30 L 830.60 184.30 L 819.40 172.80 L 807.80 161.50 L 795.80 150.70 L 783.50 140.40 L 770.70 130.40 L 757.60 120.90 L 744.10 111.70 L 730.30 103.10 L 716.10 94.90 L 701.60 87.20 L 686.70 80.00 L 671.50 73.20 L 657.10 67.40 L 642.50 62.10 L 627.80 57.20 L 612.90 52.90 L 597.90 49.10 L 582.80 45.80 L 567.60 43.00 L 552.30 40.70 L 536.90 38.90 L 521.40 37.60 L 505.90 36.90 L 490.40 36.70 Z" fill="#ffffff" fill-rule="nonzero" group-id="1" node-id="60" stroke="none" target-height="980.7" target-width="980.2" target-x="0.2" target-y="11.7"></path><path d="M 178.00 248.60 L 169.20 278.80 L 163.00 304.80 L 159.80 320.00 L 156.90 335.90 L 154.30 353.00 L 151.70 376.40 L 150.80 388.50 L 150.20 400.60 L 150.00 412.70 L 150.20 424.80 L 150.90 436.90 L 152.10 448.70 L 153.90 460.20 L 155.60 468.90 L 157.60 477.20 L 160.00 485.20 L 162.80 493.00 L 166.00 500.60 L 169.70 507.90 L 173.70 514.80 L 178.20 521.40 L 182.20 526.30 L 186.40 531.00 L 191.00 535.50 L 195.90 539.70 L 201.20 543.60 L 206.70 547.10 L 212.60 550.20 L 218.90 553.10 L 225.70 555.70 L 259.40 565.70 L 279.00 572.80 L 286.70 576.10 L 292.60 579.10 L 298.30 582.40 L 302.40 585.30 L 305.10 587.90 L 306.90 590.10 L 308.70 593.90 L 308.90 595.50 L 308.60 597.80 L 307.70 599.90 L 306.20 602.00 L 301.90 605.60 L 297.30 608.50 L 296.00 609.90 L 294.20 613.30 L 293.90 615.20 L 294.00 617.30 L 295.30 621.00 L 297.90 623.90 L 299.60 624.90 L 309.40 627.30 L 326.00 630.60 L 342.40 632.90 L 349.90 633.50 L 357.10 633.60 L 363.10 633.20 L 366.90 632.50 L 370.00 631.50 L 375.90 628.40 L 379.60 627.20 L 383.50 626.50 L 391.60 626.40 L 395.60 626.90 L 401.60 628.20 L 407.20 629.90 L 416.80 633.80 L 424.60 637.70 L 426.30 638.10 L 450.70 641.30 L 481.00 644.10 L 503.90 645.40 L 526.80 645.50 L 537.50 645.00 L 551.00 643.60 L 562.80 641.20 L 567.80 639.60 L 572.00 637.90 L 575.00 636.20 L 577.50 634.30 L 579.40 632.40 L 583.80 625.50 L 588.40 619.40 L 590.90 617.20 L 593.10 615.70 L 595.10 614.80 L 599.70 614.20 L 602.20 614.50 L 616.10 617.60 L 627.10 619.10 L 638.50 619.10 L 644.60 618.40 L 650.70 617.00 L 656.80 615.00 L 662.70 612.50 L 668.50 609.50 L 674.10 606.10 L 679.50 602.30 L 689.40 594.10 L 693.90 589.60 L 701.50 580.70 L 707.50 571.70 L 709.60 567.70 L 711.30 563.50 L 712.20 559.90 L 712.70 550.80 L 713.30 545.20 L 714.40 540.20 L 715.60 536.60 L 717.20 533.10 L 719.20 529.80 L 721.70 526.70 L 724.40 523.90 L 727.70 521.10 L 731.80 518.40 L 738.60 514.30 L 740.90 512.00 L 743.60 508.30 L 748.70 499.80 L 755.40 485.40 L 759.50 475.10 L 767.30 453.00 L 774.10 429.80 L 777.10 418.20 L 781.70 396.70 L 783.10 387.50 L 784.00 378.80 L 784.20 372.30 L 783.90 368.10 L 783.20 365.30 L 778.30 356.80 L 776.50 352.50 L 774.20 345.80 L 772.20 338.10 L 770.70 330.00 L 769.40 321.40 L 767.90 303.90 L 767.80 286.80 L 770.70 237.10 L 771.10 217.40 L 770.90 207.90 L 769.60 193.90 L 767.50 185.20 L 765.20 179.90 L 762.40 176.70 L 760.70 175.70 L 758.80 175.20 L 756.70 175.20 L 752.10 176.20 L 748.20 176.50 L 731.30 176.00 L 637.80 168.50 L 587.80 164.80 L 533.30 161.80 L 505.10 160.80 L 476.40 160.20 L 447.60 160.10 L 419.10 160.70 L 381.50 162.60 L 363.30 164.10 L 345.20 166.00 L 327.80 168.30 L 311.20 171.00 L 286.70 176.10 L 264.60 182.20 L 253.70 185.90 L 243.60 189.80 L 234.20 194.00 L 225.50 198.40 L 218.60 202.40 L 212.20 206.60 L 206.30 211.00 L 200.90 215.50 L 196.00 220.30 L 191.30 225.40 L 187.20 230.80 L 183.70 236.50 L 180.60 242.40 L 178.00 248.60 Z" fill="#eaf0f9" fill-rule="nonzero" group-id="1" node-id="62" stroke="none" target-height="485.4" target-width="634.2" target-x="150" target-y="160.1"></path><path d="M 438.80 605.30 L 436.70 646.70 L 502.10 690.90 L 543.90 677.20 L 547.80 593.50 L 438.80 605.30 Z" fill="#e5afa1" fill-rule="nonzero" group-id="1" node-id="64" stroke="none" target-height="97.400024" target-width="111.099976" target-x="436.7" target-y="593.5"></path><path d="M 732.10 363.00 L 738.60 362.90 L 743.30 363.20 L 748.30 363.70 L 757.80 365.90 L 765.10 369.00 L 768.50 371.10 L 771.60 373.60 L 774.30 376.60 L 776.10 379.10 L 777.50 381.90 L 778.70 385.10 L 779.50 388.70 L 779.90 392.30 L 779.90 396.40 L 779.40 401.00 L 777.40 409.80 L 774.40 419.30 L 769.50 432.90 L 762.60 449.10 L 758.40 457.50 L 750.20 471.70 L 742.60 482.40 L 738.50 487.40 L 734.10 492.00 L 729.50 496.20 L 724.70 500.00 L 719.60 503.20 L 714.30 505.80 L 708.00 507.00 L 703.00 507.40 L 697.50 507.40 L 690.70 506.80 L 689.90 506.50 L 689.30 505.70 L 688.80 504.40 L 688.50 502.30 L 688.60 499.50 L 689.70 491.10 L 691.30 483.80 L 696.20 465.60 L 706.20 434.20 L 713.50 413.10 L 732.10 363.00 Z" fill="#e5afa1" fill-rule="nonzero" group-id="1" node-id="66" stroke="none" target-height="144.5" target-width="91.400024" target-x="688.5" target-y="362.9"></path><path d="M 238.00 345.30 L 231.50 345.20 L 226.80 345.40 L 221.70 346.00 L 212.30 348.20 L 205.00 351.30 L 201.60 353.40 L 198.50 355.90 L 195.70 358.90 L 194.00 361.40 L 192.50 364.20 L 191.40 367.40 L 190.60 371.00 L 190.20 374.60 L 190.20 378.60 L 190.70 383.30 L 192.70 392.10 L 195.60 401.50 L 200.50 415.10 L 207.50 431.30 L 211.70 439.80 L 219.90 454.00 L 227.40 464.60 L 231.60 469.60 L 236.00 474.20 L 240.50 478.40 L 245.40 482.20 L 250.40 485.40 L 255.70 488.10 L 262.10 489.30 L 267.10 489.70 L 272.60 489.70 L 279.40 489.10 L 280.20 488.70 L 280.80 488.00 L 281.30 486.70 L 281.50 484.60 L 281.50 481.80 L 280.30 473.30 L 278.80 466.00 L 273.90 447.80 L 263.80 416.40 L 256.50 395.30 L 238.00 345.30 Z" fill="#e5afa1" fill-rule="nonzero" group-id="1" node-id="68" stroke="none" target-height="144.5" target-width="91.3" target-x="190.2" target-y="345.2"></path><path d="M 233.80 315.10 L 237.80 346.70 L 242.40 373.60 L 249.30 405.70 L 253.70 423.20 L 260.50 446.90 L 268.80 471.30 L 278.40 495.40 L 283.80 507.30 L 289.60 518.80 L 295.70 530.00 L 300.70 538.30 L 311.20 553.80 L 316.80 561.00 L 322.80 568.10 L 328.90 574.70 L 335.40 580.80 L 342.00 586.50 L 349.00 591.90 L 356.30 596.60 L 363.80 600.90 L 381.20 608.80 L 397.30 615.00 L 407.80 618.40 L 419.00 621.60 L 431.60 624.60 L 449.20 627.70 L 458.50 628.80 L 467.80 629.40 L 477.30 629.60 L 491.80 628.90 L 505.30 627.60 L 525.30 624.90 L 549.70 620.20 L 562.80 617.10 L 576.40 613.20 L 594.50 606.90 L 603.50 603.20 L 612.20 599.10 L 620.60 594.70 L 628.70 589.80 L 636.80 583.90 L 647.70 574.10 L 658.80 562.20 L 664.50 555.40 L 677.60 537.90 L 684.00 528.20 L 690.70 517.00 L 697.70 504.30 L 702.60 494.70 L 712.40 472.80 L 717.50 460.40 L 722.00 448.10 L 726.40 434.90 L 730.80 420.60 L 735.10 405.10 L 738.80 389.90 L 742.40 373.60 L 745.70 356.10 L 748.80 337.40 L 740.80 321.10 L 731.10 304.30 L 725.10 294.90 L 717.90 284.90 L 712.80 278.30 L 701.40 265.20 L 695.10 259.00 L 688.60 253.20 L 681.70 247.70 L 670.70 240.40 L 659.00 234.60 L 652.90 232.30 L 646.70 230.50 L 640.20 229.20 L 633.60 228.40 L 633.10 231.40 L 630.90 235.20 L 626.70 239.00 L 620.50 242.80 L 610.90 246.80 L 604.70 248.70 L 589.10 252.20 L 579.50 253.70 L 556.60 256.20 L 527.10 257.70 L 478.80 253.30 L 435.90 253.30 L 404.80 259.90 L 388.70 247.30 L 376.30 238.80 L 369.70 234.70 L 363.00 231.10 L 356.70 228.20 L 352.40 226.60 L 348.60 225.60 L 345.20 225.10 L 342.60 225.10 L 340.40 225.50 L 338.50 226.30 L 336.80 227.40 L 335.50 228.90 L 334.40 230.90 L 333.60 233.50 L 333.20 236.90 L 321.20 239.00 L 316.00 239.60 L 312.70 239.50 L 312.40 239.20 L 312.40 238.80 L 313.10 238.10 L 318.50 235.30 L 293.50 255.50 L 278.20 268.80 L 262.20 283.70 L 246.80 299.50 L 239.80 307.50 L 233.80 315.10 Z" fill="#f4d5c1" fill-rule="nonzero" group-id="1" node-id="70" stroke="none" target-height="404.49997" target-width="515" target-x="233.8" target-y="225.1"></path><path d="M 410.40 428.20 L 410.20 430.60 L 409.50 432.90 L 408.40 435.10 L 406.90 437.30 L 404.40 439.70 L 401.40 441.90 L 397.60 443.70 L 393.70 445.00 L 389.30 445.80 L 384.60 446.10 L 379.80 445.80 L 375.50 445.00 L 371.50 443.70 L 367.80 441.90 L 364.70 439.70 L 362.30 437.30 L 360.70 435.10 L 359.60 432.90 L 359.00 430.60 L 358.70 428.20 L 359.00 425.80 L 359.60 423.50 L 360.70 421.30 L 362.30 419.20 L 364.70 416.70 L 367.80 414.60 L 371.50 412.70 L 375.50 411.40 L 379.80 410.60 L 384.60 410.30 L 389.30 410.60 L 393.70 411.40 L 397.60 412.70 L 401.40 414.60 L 404.40 416.70 L 406.90 419.20 L 408.40 421.30 L 409.50 423.50 L 410.20 425.80 L 410.40 428.20 Z" fill="#1e2c3f" fill-rule="nonzero" group-id="1" node-id="72" stroke="none" target-height="35.80002" target-width="51.69998" target-x="358.7" target-y="410.3"></path><path d="M 536.00 548.60 L 535.20 553.10 L 532.80 557.50 L 530.50 560.10 L 527.50 562.60 L 523.70 565.00 L 519.60 567.00 L 515.10 568.60 L 510.10 570.00 L 505.00 571.00 L 499.70 571.60 L 494.10 571.80 L 488.50 571.60 L 483.20 571.00 L 478.10 570.00 L 473.10 568.60 L 468.60 567.00 L 464.50 565.00 L 460.70 562.60 L 457.70 560.10 L 455.40 557.50 L 453.00 553.10 L 452.20 548.60 L 453.00 544.20 L 455.40 539.80 L 457.70 537.20 L 460.70 534.70 L 464.50 532.30 L 468.60 530.30 L 473.10 528.60 L 478.10 527.30 L 483.20 526.30 L 488.50 525.70 L 494.10 525.50 L 499.70 525.70 L 505.00 526.30 L 510.10 527.30 L 515.10 528.60 L 519.60 530.30 L 523.70 532.30 L 527.50 534.70 L 530.50 537.20 L 532.80 539.80 L 535.20 544.20 L 536.00 548.60 Z" fill="#dc6965" fill-rule="nonzero" group-id="1" node-id="74" stroke="none" target-height="46.299988" target-width="83.79999" target-x="452.2" target-y="525.5"></path><path d="M 618.90 428.20 L 618.70 430.60 L 618.00 432.90 L 616.90 435.10 L 615.40 437.30 L 612.90 439.70 L 609.90 441.90 L 606.10 443.70 L 602.20 445.00 L 597.90 445.80 L 593.10 446.10 L 588.30 445.80 L 584.00 445.00 L 580.00 443.70 L 576.30 441.90 L 573.30 439.70 L 570.80 437.30 L 569.20 435.10 L 568.20 432.90 L 567.50 430.60 L 567.20 428.20 L 567.50 425.80 L 568.20 423.50 L 569.20 421.30 L 570.80 419.20 L 573.30 416.70 L 576.30 414.60 L 580.00 412.70 L 584.00 411.40 L 588.30 410.60 L 593.10 410.30 L 597.90 410.60 L 602.20 411.40 L 606.10 412.70 L 609.90 414.60 L 612.90 416.70 L 615.40 419.20 L 616.90 421.30 L 618.00 423.50 L 618.70 425.80 L 618.90 428.20 Z" fill="#1e2c3f" fill-rule="nonzero" group-id="1" node-id="76" stroke="none" target-height="35.80002" target-width="51.700012" target-x="567.2" target-y="410.3"></path><path d="M 449.90 497.20 L 450.20 496.20 L 449.70 494.40 L 448.10 493.40 L 446.20 493.70 L 436.60 503.90 L 431.40 508.70 L 420.30 517.90 L 414.80 522.00 L 404.60 528.70 L 400.00 531.20 L 393.90 533.80 L 392.40 535.20 L 392.50 535.80 L 393.20 536.20 L 394.90 536.60 L 397.90 536.70 L 405.70 535.30 L 413.50 532.70 L 417.50 530.80 L 426.10 525.60 L 430.40 522.40 L 434.60 518.50 L 438.90 514.00 L 442.70 509.20 L 446.40 503.60 L 449.90 497.20 Z" fill="#e5afa1" fill-rule="nonzero" group-id="1" node-id="78" stroke="none" target-height="43.30002" target-width="57.80002" target-x="392.4" target-y="493.4"></path><path d="M 534.90 497.20 L 534.60 496.20 L 535.10 494.50 L 536.70 493.40 L 538.50 493.70 L 548.20 503.90 L 553.40 508.70 L 564.50 517.90 L 569.90 522.00 L 580.20 528.70 L 584.80 531.20 L 590.90 533.80 L 592.40 535.20 L 592.30 535.80 L 591.60 536.20 L 589.90 536.60 L 586.90 536.70 L 579.10 535.30 L 571.30 532.70 L 567.30 530.80 L 558.60 525.60 L 554.40 522.40 L 550.20 518.50 L 545.90 514.00 L 542.10 509.20 L 538.40 503.60 L 534.90 497.20 Z" fill="#e5afa1" fill-rule="nonzero" group-id="1" node-id="80" stroke="none" target-height="43.30002" target-width="57.80005" target-x="534.6" target-y="493.4"></path><path d="M 739.60 375.00 L 736.10 378.90 L 730.40 383.90 L 724.20 387.60 L 718.60 389.20 L 715.70 389.40 L 712.70 389.00 L 709.60 388.00 L 705.20 385.40 L 700.50 380.60 L 698.90 377.00 L 697.40 368.40 L 693.90 324.40 L 692.00 312.70 L 690.80 309.10 L 689.90 307.60 L 689.00 306.80 L 688.20 306.40 L 682.90 307.20 L 679.40 306.40 L 677.30 305.30 L 675.30 303.60 L 672.10 299.00 L 669.50 293.10 L 666.70 283.00 L 662.60 257.80 L 660.70 251.60 L 659.10 247.30 L 657.60 244.40 L 656.20 242.40 L 654.90 241.10 L 653.70 240.50 L 652.60 240.20 L 651.00 240.50 L 649.20 241.50 L 647.20 243.40 L 644.50 246.90 L 638.40 257.60 L 624.10 285.00 L 620.10 291.70 L 614.20 300.00 L 607.90 306.70 L 604.60 309.30 L 601.20 311.30 L 598.50 312.40 L 595.80 313.10 L 592.90 313.40 L 590.00 313.30 L 525.80 304.60 L 523.70 304.10 L 521.40 303.00 L 518.70 301.30 L 514.90 298.30 L 496.40 281.70 L 491.20 277.80 L 487.60 275.50 L 480.00 272.10 L 476.10 271.00 L 472.00 270.60 L 467.80 270.80 L 465.10 271.50 L 462.50 272.80 L 460.10 274.70 L 457.90 277.10 L 453.40 283.10 L 443.20 300.00 L 439.30 305.90 L 433.30 313.30 L 430.00 316.70 L 426.30 319.70 L 422.30 322.30 L 417.80 324.50 L 414.40 325.70 L 410.60 326.70 L 406.50 327.30 L 398.00 327.80 L 393.60 328.70 L 388.70 330.20 L 378.90 334.50 L 365.70 342.30 L 357.50 347.90 L 349.50 354.00 L 333.90 367.00 L 320.00 380.20 L 314.20 386.20 L 304.80 397.10 L 301.80 399.80 L 298.50 400.90 L 296.20 401.00 L 293.70 400.70 L 290.90 399.80 L 286.80 398.00 L 282.30 395.50 L 268.00 387.00 L 263.20 384.60 L 256.60 382.20 L 253.40 381.60 L 250.20 381.40 L 247.10 381.70 L 244.00 382.60 L 241.80 383.60 L 237.50 386.90 L 235.20 389.40 L 232.70 393.00 L 230.10 397.70 L 227.50 403.80 L 225.30 410.20 L 223.20 418.00 L 221.10 427.70 L 216.50 420.40 L 209.60 407.60 L 205.60 398.80 L 201.80 389.30 L 198.00 378.10 L 195.70 370.40 L 191.90 353.10 L 190.50 344.10 L 189.50 334.50 L 189.00 324.40 L 189.00 314.30 L 189.60 303.80 L 190.90 292.70 L 192.30 284.60 L 194.20 276.20 L 196.50 267.60 L 199.30 258.80 L 202.60 250.20 L 206.40 241.50 L 210.80 232.50 L 215.90 223.30 L 192.90 214.40 L 195.10 205.20 L 199.70 190.00 L 203.30 180.00 L 207.40 169.70 L 212.80 158.10 L 216.70 150.30 L 226.10 133.80 L 231.50 125.60 L 237.40 117.30 L 244.00 109.00 L 250.90 101.00 L 258.50 93.10 L 266.80 85.40 L 265.90 81.00 L 266.10 75.10 L 267.90 69.10 L 269.40 66.00 L 271.60 62.70 L 274.60 59.00 L 277.90 55.70 L 282.30 52.20 L 287.90 48.40 L 293.70 45.00 L 301.10 41.60 L 310.00 38.00 L 319.20 35.00 L 330.10 32.00 L 343.20 29.00 L 356.30 26.60 L 371.70 24.40 L 389.50 22.40 L 513.60 13.70 L 525.80 13.20 L 537.90 13.20 L 550.00 13.90 L 561.90 15.10 L 573.80 16.90 L 585.60 19.30 L 597.20 22.30 L 608.70 25.80 L 620.00 29.90 L 631.10 34.60 L 641.90 39.70 L 652.60 45.50 L 663.00 51.70 L 673.10 58.50 L 682.90 65.80 L 699.50 79.20 L 705.00 84.10 L 718.10 96.90 L 725.40 105.00 L 733.30 114.70 L 743.70 129.10 L 748.90 137.30 L 753.80 145.80 L 758.50 154.80 L 763.10 164.60 L 767.10 174.60 L 770.80 185.20 L 774.00 196.40 L 776.00 204.90 L 777.70 213.80 L 779.00 223.00 L 780.00 232.70 L 760.70 345.10 L 757.50 346.10 L 755.20 347.40 L 752.80 349.20 L 748.20 354.40 L 744.40 360.90 L 742.70 364.70 L 739.60 375.00 Z" fill="#e5afa1" fill-rule="nonzero" group-id="1" node-id="82" stroke="none" target-height="414.5" target-width="591" target-x="189" target-y="13.2"></path><path d="M 264.10 378.80 L 448.40 396.00 L 442.60 391.60 L 445.60 402.40 L 447.40 414.00 L 447.70 419.90 L 447.60 425.70 L 447.00 431.50 L 445.90 437.10 L 444.40 442.60 L 441.10 450.30 L 436.40 457.30 L 433.60 460.40 L 430.40 463.30 L 426.70 466.00 L 422.60 468.40 L 418.00 470.50 L 413.30 472.20 L 403.40 474.60 L 393.20 475.70 L 385.50 475.90 L 369.00 475.20 L 359.90 474.10 L 350.90 472.50 L 344.20 470.90 L 337.70 469.00 L 325.00 464.00 L 319.40 461.20 L 314.20 458.10 L 309.10 454.60 L 304.30 450.90 L 295.60 442.50 L 288.00 433.00 L 284.60 427.90 L 281.70 422.60 L 279.00 417.10 L 276.70 411.40 L 274.30 403.80 L 271.30 390.30 L 270.10 378.60 L 270.10 372.80 L 269.90 370.90 L 269.40 369.50 L 268.50 368.40 L 265.90 367.10 L 262.90 367.10 L 260.20 368.40 L 259.20 369.50 L 258.50 370.90 L 258.10 372.80 L 258.00 379.00 L 258.40 385.20 L 259.20 391.60 L 261.90 404.00 L 265.70 416.20 L 271.10 428.10 L 277.70 439.30 L 281.50 444.50 L 285.70 449.50 L 290.10 454.20 L 294.90 458.60 L 299.90 462.80 L 305.20 466.60 L 310.90 470.10 L 317.10 473.40 L 323.50 476.40 L 330.00 478.90 L 336.70 481.10 L 345.70 483.50 L 354.90 485.30 L 364.20 486.70 L 373.30 487.50 L 388.80 488.00 L 401.20 487.00 L 407.30 486.00 L 413.30 484.60 L 419.20 482.80 L 424.90 480.50 L 430.20 477.80 L 434.90 474.70 L 439.30 471.30 L 443.30 467.40 L 446.80 463.20 L 449.90 458.60 L 452.70 453.70 L 454.90 448.60 L 456.70 443.20 L 458.10 437.50 L 459.00 431.50 L 459.50 424.20 L 459.50 416.90 L 458.90 409.70 L 457.90 402.50 L 456.30 395.40 L 454.30 388.40 L 453.40 386.70 L 452.10 385.30 L 450.40 384.40 L 448.50 384.00 L 264.10 366.80 L 262.20 366.90 L 260.80 367.40 L 259.80 368.30 L 258.50 370.70 L 258.30 372.20 L 259.00 375.20 L 259.80 376.50 L 260.90 377.60 L 262.30 378.30 L 264.10 378.80 Z" fill="#0f3651" fill-rule="nonzero" group-id="1" node-id="84" stroke="none" target-height="121.20001" target-width="201.5" target-x="258" target-y="366.8"></path><path d="M 713.50 366.80 L 529.20 384.00 L 527.30 384.40 L 525.60 385.30 L 524.30 386.70 L 523.40 388.40 L 521.50 394.80 L 519.90 401.40 L 518.80 408.30 L 518.20 415.20 L 518.10 422.10 L 518.40 429.00 L 519.30 435.80 L 520.80 442.40 L 522.90 448.80 L 524.80 453.40 L 527.10 457.80 L 529.80 462.00 L 532.80 466.00 L 536.20 469.60 L 540.00 473.00 L 544.30 476.00 L 549.00 478.80 L 554.00 481.10 L 559.20 483.10 L 564.50 484.70 L 575.40 486.80 L 581.00 487.40 L 589.30 487.90 L 597.60 487.90 L 607.60 487.30 L 617.60 486.20 L 627.50 484.50 L 634.90 482.80 L 642.10 480.80 L 649.20 478.30 L 656.30 475.50 L 662.60 472.50 L 668.60 469.00 L 674.30 465.30 L 679.70 461.20 L 684.90 456.70 L 689.70 451.90 L 694.20 446.80 L 698.40 441.40 L 702.20 435.80 L 705.70 429.90 L 708.80 423.70 L 711.50 417.30 L 714.00 410.30 L 716.20 402.90 L 717.90 395.50 L 719.00 387.90 L 719.50 382.80 L 719.50 372.80 L 719.20 371.00 L 718.50 369.50 L 716.10 367.60 L 713.20 367.00 L 710.40 367.60 L 708.30 369.50 L 707.70 370.90 L 707.50 372.80 L 707.60 378.50 L 706.80 388.90 L 704.60 399.20 L 700.60 412.10 L 697.70 419.20 L 694.10 425.90 L 690.10 432.40 L 685.60 438.50 L 680.50 444.30 L 672.10 452.00 L 667.40 455.50 L 662.50 458.70 L 651.20 464.60 L 639.20 469.20 L 630.90 471.50 L 622.60 473.30 L 614.20 474.60 L 605.60 475.50 L 597.00 476.00 L 588.40 476.00 L 579.80 475.30 L 574.10 474.50 L 563.00 471.70 L 558.10 469.90 L 553.50 467.60 L 549.10 464.80 L 545.00 461.50 L 541.50 457.90 L 538.50 453.90 L 536.20 450.00 L 534.40 446.00 L 531.70 437.40 L 530.50 429.00 L 530.10 422.60 L 530.20 416.30 L 530.70 410.00 L 531.70 403.80 L 533.10 397.70 L 535.00 391.60 L 529.20 396.00 L 713.50 378.80 L 715.30 378.30 L 716.80 377.60 L 717.80 376.50 L 718.60 375.20 L 719.30 372.20 L 719.10 370.70 L 717.90 368.30 L 716.80 367.40 L 715.40 366.90 L 713.50 366.80 Z" fill="#0f3651" fill-rule="nonzero" group-id="1" node-id="86" stroke="none" target-height="121.100006" target-width="201.40002" target-x="518.1" target-y="366.8"></path><path d="M 459.00 420.60 L 463.50 417.70 L 468.00 415.30 L 472.60 413.30 L 477.40 411.70 L 482.20 410.60 L 486.80 409.90 L 491.40 409.70 L 495.90 410.00 L 500.30 410.70 L 504.70 411.80 L 508.90 413.40 L 513.00 415.30 L 517.10 417.70 L 521.00 420.60 L 523.40 421.70 L 526.20 421.10 L 527.60 420.10 L 528.60 418.80 L 529.00 417.30 L 528.40 415.30 L 527.40 414.30 L 522.40 410.60 L 517.30 407.60 L 512.00 405.10 L 506.50 403.10 L 500.90 401.70 L 495.20 400.90 L 486.40 400.90 L 477.30 402.40 L 468.60 405.20 L 460.30 409.20 L 452.60 414.30 L 451.70 415.30 L 451.10 417.30 L 451.50 418.80 L 452.40 420.10 L 453.80 421.10 L 455.50 421.60 L 457.80 421.30 L 459.00 420.60 Z" fill="#0f3651" fill-rule="nonzero" group-id="1" node-id="88" stroke="none" target-height="20.800018" target-width="77.899994" target-x="451.1" target-y="400.9"></path><path d="M 702.00 912.70 L 648.00 704.10 L 644.40 698.30 L 637.80 690.80 L 629.40 683.30 L 624.50 679.60 L 611.20 671.20 L 603.80 667.20 L 595.00 663.20 L 584.70 659.00 L 592.00 664.50 L 600.40 672.40 L 608.70 682.20 L 612.60 687.70 L 616.20 693.60 L 619.60 699.90 L 622.50 706.50 L 624.90 713.40 L 626.70 720.80 L 649.00 920.40 L 650.60 940.20 L 664.50 934.70 L 672.50 930.70 L 688.20 921.60 L 702.00 912.70 Z" fill="#0f3651" fill-rule="nonzero" group-id="1" node-id="90" stroke="none" target-height="281.2" target-width="117.29999" target-x="584.7" target-y="659"></path><path d="M 331.50 938.30 L 331.60 930.20 L 333.40 913.00 L 336.30 888.90 L 340.20 860.10 L 349.30 797.30 L 358.00 742.50 L 361.40 723.70 L 362.90 716.80 L 367.20 701.20 L 370.40 692.00 L 374.90 683.10 L 377.60 678.80 L 381.00 674.40 L 383.80 671.30 L 390.90 665.10 L 399.70 659.40 L 404.80 656.90 L 410.60 654.50 L 417.20 652.20 L 401.20 656.20 L 377.60 663.80 L 371.60 666.50 L 362.00 672.10 L 352.20 679.50 L 343.70 687.50 L 335.50 697.10 L 331.40 702.90 L 327.60 708.90 L 324.10 715.60 L 320.70 723.10 L 261.20 905.90 L 274.90 913.50 L 288.80 920.60 L 302.90 927.20 L 317.20 933.40 L 331.80 939.10 L 331.50 938.30 Z" fill="#0f3651" fill-rule="nonzero" group-id="1" node-id="92" stroke="none" target-height="286.89996" target-width="156" target-x="261.2" target-y="652.2"></path><path d="M 331.50 938.30 L 331.80 939.10 L 346.10 944.10 L 360.50 948.60 L 375.00 952.60 L 389.50 956.20 L 404.10 959.20 L 418.90 961.80 L 433.70 964.00 L 448.50 965.60 L 463.40 966.80 L 478.30 967.50 L 493.20 967.70 L 508.10 967.40 L 523.00 966.70 L 537.90 965.50 L 552.80 963.80 L 567.60 961.60 L 582.30 958.90 L 597.00 955.80 L 611.60 952.20 L 626.20 948.10 L 592.40 935.80 L 565.30 924.90 L 536.60 912.20 L 522.10 905.20 L 507.90 897.80 L 485.10 884.60 L 468.40 873.50 L 460.50 867.60 L 453.30 861.70 L 446.80 855.70 L 438.40 847.20 L 430.60 838.60 L 423.40 829.80 L 416.70 820.60 L 410.50 811.60 L 404.90 802.70 L 399.50 793.50 L 390.60 776.30 L 384.90 763.70 L 380.30 752.50 L 373.40 733.20 L 369.60 720.20 L 368.00 712.60 L 367.90 708.20 L 368.80 699.70 L 371.10 691.40 L 372.80 687.30 L 370.40 692.10 L 368.70 696.60 L 363.70 713.50 L 361.40 723.70 L 358.00 742.60 L 349.30 797.30 L 340.20 860.10 L 333.40 913.00 L 331.60 930.20 L 331.50 938.30 Z" fill="#020f19" fill-rule="nonzero" group-id="1" node-id="94" stroke="none" target-height="280.40002" target-width="294.7" target-x="331.5" target-y="687.3"></path><path d="M 556.10 652.10 L 568.50 655.50 L 580.90 659.40 L 593.10 663.70 L 587.40 660.30 L 581.50 657.60 L 575.40 655.30 L 569.10 653.70 L 562.60 652.60 L 556.10 652.10 Z" fill="none" group-id="1" node-id="96" stroke="none" target-height="11.600037" target-width="37" target-x="556.1" target-y="652.1"></path><path d="M 649.00 918.70 L 626.70 719.10 L 624.60 710.50 L 622.30 702.90 L 619.60 696.20 L 616.50 689.70 L 613.10 684.10 L 609.70 679.20 L 605.80 674.60 L 601.90 670.60 L 597.90 667.20 L 589.60 661.50 L 585.60 659.40 L 579.40 656.70 L 557.30 649.70 L 550.00 647.70 L 545.30 646.90 L 535.00 653.20 L 492.40 681.90 L 484.50 677.10 L 465.90 664.20 L 455.10 657.20 L 445.00 651.10 L 436.70 646.70 L 433.50 647.00 L 429.70 647.80 L 422.30 650.00 L 406.90 656.00 L 400.70 658.90 L 395.40 662.00 L 390.40 665.50 L 386.10 669.10 L 382.60 672.60 L 376.60 680.30 L 374.50 683.90 L 371.10 691.40 L 368.80 699.80 L 368.20 703.90 L 368.00 712.60 L 369.60 720.10 L 373.40 733.10 L 380.20 752.40 L 384.80 763.60 L 390.60 776.20 L 399.50 793.40 L 404.80 802.60 L 410.50 811.60 L 416.60 820.60 L 423.40 829.70 L 430.60 838.50 L 438.40 847.20 L 446.80 855.70 L 453.30 861.60 L 460.50 867.50 L 468.40 873.40 L 485.10 884.50 L 507.80 897.70 L 522.10 905.10 L 551.00 918.70 L 565.30 924.90 L 592.40 935.80 L 626.20 948.00 L 650.70 939.90 Z" fill="#0b2835" fill-rule="nonzero" group-id="1" node-id="98" stroke="none" target-height="301.3" target-width="282.7" target-x="368" target-y="646.7"></path><path d="M 492.40 702.60 L 486.40 715.50 L 482.80 725.50 L 481.30 730.80 L 480.20 736.20 L 479.50 744.70 L 480.40 750.60 L 481.50 753.30 L 483.00 755.50 L 485.00 757.50 L 486.70 758.60 L 491.20 760.10 L 494.20 760.50 L 497.20 760.40 L 499.70 760.10 L 503.30 758.50 L 505.10 756.80 L 506.50 754.70 L 507.40 752.20 L 507.90 746.40 L 507.70 742.90 L 506.70 737.80 L 505.30 732.20 L 501.40 721.40 L 497.10 711.90 L 492.40 702.60 Z" fill="#e5afa1" fill-rule="nonzero" group-id="1" node-id="100" stroke="none" target-height="57.900024" target-width="28.399994" target-x="479.5" target-y="702.6"></path><path d="M 436.70 637.20 L 447.80 638.60 L 458.80 641.40 L 464.60 643.60 L 470.60 646.50 L 474.40 648.80 L 478.00 651.50 L 481.40 654.60 L 484.40 658.00 L 487.00 661.90 L 489.10 666.30 L 490.30 669.70 L 491.20 673.50 L 491.70 677.70 L 491.80 682.30 L 482.50 684.80 L 478.10 685.80 L 467.00 687.20 L 460.90 687.40 L 454.80 687.20 L 448.60 686.30 L 440.50 684.00 L 436.70 682.30 Z" fill="#0f3651" fill-rule="nonzero" group-id="1" node-id="102" stroke="none" target-height="50.200012" target-width="55.099976" target-x="436.7" target-y="637.2"></path><path d="M 546.00 637.20 L 535.00 638.60 L 524.30 641.40 L 518.50 643.60 L 512.60 646.50 L 508.90 648.80 L 505.30 651.50 L 502.00 654.60 L 499.10 658.00 L 496.50 661.90 L 494.40 666.30 L 493.20 669.70 L 492.40 673.50 L 491.90 677.70 L 491.80 682.30 L 500.90 684.80 L 505.30 685.80 L 516.10 687.20 L 522.10 687.40 L 528.20 687.20 L 534.30 686.30 L 542.20 684.00 L 546.00 682.30 Z" fill="#0f3651" fill-rule="nonzero" group-id="1" node-id="104" stroke="none" target-height="50.200012" target-width="54.200012" target-x="491.8" target-y="637.2"></path><path d="M 486.30 683.90 L 469.40 689.20 L 451.40 694.20 L 430.00 699.30 L 418.60 701.60 L 407.20 703.50 L 395.80 705.00 L 385.20 705.80 L 378.10 706.00 L 371.80 705.70 L 366.10 705.10 L 364.60 710.50 L 374.40 710.80 L 391.60 710.20 L 403.30 709.10 L 415.70 707.50 L 430.40 704.90 L 451.20 700.20 L 462.80 696.90 L 474.30 693.30 L 486.50 689.00 L 499.40 683.90 L 496.80 682.90 L 493.00 682.20 L 490.80 682.20 L 488.50 682.80 L 486.30 683.90 Z" fill="#0f3651" fill-rule="nonzero" group-id="1" node-id="106" stroke="none" target-height="28.599976" target-width="134.79999" target-x="364.6" target-y="682.2"></path><path d="M 491.40 682.10 L 475.70 675.20 L 468.20 672.50 L 464.80 671.50 L 461.20 671.20 L 460.70 671.60 L 460.90 672.90 L 464.10 676.60 L 470.40 681.40 L 475.90 684.00 L 480.60 684.90 L 483.80 684.90 L 488.70 683.70 L 491.40 682.10 Z" fill="#cafcfb" fill-rule="nonzero" group-id="1" node-id="108" stroke="none" target-height="13.700012" target-width="30.699982" target-x="460.7" target-y="671.2"></path><path d="M 491.40 682.10 L 507.50 675.20 L 515.10 672.50 L 518.60 671.50 L 522.20 671.20 L 522.80 671.60 L 522.60 672.90 L 519.30 676.60 L 512.90 681.40 L 507.30 684.00 L 502.50 684.90 L 499.20 684.90 L 494.30 683.70 L 491.40 682.10 Z" fill="#cafcfb" fill-rule="nonzero" group-id="1" node-id="110" stroke="none" target-height="13.700012" target-width="31.399994" target-x="491.4" target-y="671.2"></path><path d="M 450.70 703.80 L 450.50 705.20 L 449.20 707.40 L 446.90 708.70 L 445.60 708.90 L 443.00 708.20 L 441.10 706.30 L 440.60 705.20 L 440.40 703.80 L 441.10 701.20 L 443.00 699.30 L 445.60 698.60 L 446.90 698.80 L 449.20 700.10 L 450.50 702.40 L 450.70 703.80 Z" fill="#ffffff" fill-rule="nonzero" group-id="1" node-id="112" stroke="none" target-height="10.300049" target-width="10.300018" target-x="440.4" target-y="698.6"></path><path d="M 442.70 694.30 L 442.50 695.70 L 441.20 698.00 L 438.90 699.30 L 437.60 699.50 L 436.20 699.30 L 433.90 698.00 L 432.60 695.70 L 432.40 694.30 L 432.60 692.90 L 433.90 690.70 L 436.20 689.40 L 437.60 689.20 L 438.90 689.40 L 441.20 690.70 L 442.50 692.90 L 442.70 694.30 Z" fill="#ffffff" fill-rule="nonzero" group-id="1" node-id="114" stroke="none" target-height="10.299988" target-width="10.300018" target-x="432.4" target-y="689.2"></path><path d="M 437.60 684.00 L 437.40 685.30 L 436.10 687.60 L 433.80 688.90 L 432.40 689.10 L 429.80 688.40 L 428.00 686.50 L 427.50 685.30 L 427.30 684.00 L 428.00 681.40 L 429.80 679.50 L 432.40 678.80 L 433.80 679.00 L 436.10 680.30 L 437.40 682.60 L 437.60 684.00 Z" fill="#ffffff" fill-rule="nonzero" group-id="1" node-id="116" stroke="none" target-height="10.299988" target-width="10.300018" target-x="427.3" target-y="678.8"></path><path d="M 434.30 672.60 L 434.10 674.00 L 432.80 676.20 L 430.60 677.50 L 429.20 677.70 L 426.60 677.00 L 424.80 675.10 L 424.30 674.00 L 424.10 672.60 L 424.80 670.00 L 426.60 668.10 L 429.20 667.40 L 430.60 667.60 L 432.80 668.90 L 434.10 671.20 L 434.30 672.60 Z" fill="#ffffff" fill-rule="nonzero" group-id="1" node-id="118" stroke="none" target-height="10.299988" target-width="10.199982" target-x="424.1" target-y="667.4"></path><path d="M 460.90 708.90 L 460.70 710.30 L 459.40 712.50 L 457.20 713.80 L 455.80 714.00 L 453.20 713.30 L 451.40 711.50 L 450.90 710.30 L 450.70 708.90 L 451.40 706.30 L 453.20 704.50 L 455.80 703.80 L 457.20 704.00 L 459.40 705.30 L 460.70 707.50 L 460.90 708.90 Z" fill="#ffffff" fill-rule="nonzero" group-id="1" node-id="120" stroke="none" target-height="10.200012" target-width="10.199982" target-x="450.7" target-y="703.8"></path><path d="M 472.20 711.60 L 472.00 713.00 L 470.70 715.20 L 468.50 716.50 L 467.10 716.70 L 465.70 716.50 L 463.50 715.20 L 462.20 713.00 L 462.00 711.60 L 462.20 710.20 L 463.50 708.00 L 465.70 706.70 L 467.10 706.50 L 468.50 706.70 L 470.70 708.00 L 472.00 710.20 L 472.20 711.60 Z" fill="#ffffff" fill-rule="nonzero" group-id="1" node-id="122" stroke="none" target-height="10.200012" target-width="10.200012" target-x="462" target-y="706.5"></path><path d="M 484.20 714.90 L 484.00 716.30 L 482.70 718.50 L 480.50 719.80 L 479.10 720.00 L 476.50 719.30 L 474.70 717.50 L 474.20 716.30 L 474.00 714.90 L 474.70 712.30 L 476.50 710.40 L 479.10 709.70 L 480.50 709.90 L 482.70 711.20 L 484.00 713.50 L 484.20 714.90 Z" fill="#ffffff" fill-rule="nonzero" group-id="1" node-id="124" stroke="none" target-height="10.299988" target-width="10.200012" target-x="474" target-y="709.7"></path><path d="M 495.50 717.30 L 495.40 718.70 L 494.10 720.90 L 491.80 722.20 L 490.40 722.40 L 487.80 721.70 L 486.00 719.80 L 485.50 718.70 L 485.30 717.30 L 486.00 714.70 L 487.80 712.80 L 490.40 712.10 L 491.80 712.30 L 494.10 713.60 L 495.40 715.90 L 495.50 717.30 Z" fill="#ffffff" fill-rule="nonzero" group-id="1" node-id="126" stroke="none" target-height="10.300049" target-width="10.200012" target-x="485.3" target-y="712.1"></path><path d="M 507.50 718.10 L 507.30 719.50 L 506.00 721.70 L 503.80 723.00 L 502.40 723.20 L 501.00 723.00 L 498.80 721.70 L 497.50 719.50 L 497.30 718.10 L 497.50 716.70 L 498.80 714.40 L 501.00 713.10 L 502.40 713.00 L 503.80 713.10 L 506.00 714.40 L 507.30 716.70 L 507.50 718.10 Z" fill="#ffffff" fill-rule="nonzero" group-id="1" node-id="128" stroke="none" target-height="10.200012" target-width="10.200012" target-x="497.3" target-y="713"></path><path d="M 520.00 714.80 L 519.80 716.20 L 518.50 718.40 L 516.30 719.70 L 514.90 719.90 L 512.30 719.20 L 510.50 717.40 L 510.00 716.20 L 509.80 714.80 L 510.50 712.20 L 512.30 710.40 L 514.90 709.70 L 516.30 709.90 L 518.50 711.20 L 519.80 713.40 L 520.00 714.80 Z" fill="#ffffff" fill-rule="nonzero" group-id="1" node-id="130" stroke="none" target-height="10.200012" target-width="10.200012" target-x="509.8" target-y="709.7"></path><path d="M 532.80 711.60 L 532.60 713.00 L 531.30 715.20 L 529.10 716.50 L 527.70 716.70 L 525.10 716.00 L 523.30 714.20 L 522.80 713.00 L 522.60 711.60 L 523.30 709.00 L 525.10 707.20 L 527.70 706.50 L 529.10 706.70 L 531.30 708.00 L 532.60 710.20 L 532.80 711.60 Z" fill="#ffffff" fill-rule="nonzero" group-id="1" node-id="132" stroke="none" target-height="10.200012" target-width="10.200012" target-x="522.6" target-y="706.5"></path><path d="M 543.70 706.50 L 543.50 707.90 L 542.20 710.10 L 540.00 711.40 L 538.60 711.60 L 536.00 710.90 L 534.20 709.10 L 533.70 707.90 L 533.50 706.50 L 534.20 703.90 L 536.00 702.10 L 538.60 701.40 L 540.00 701.60 L 542.20 702.90 L 543.50 705.10 L 543.70 706.50 Z" fill="#ffffff" fill-rule="nonzero" group-id="1" node-id="134" stroke="none" target-height="10.199951" target-width="10.200012" target-x="533.5" target-y="701.4"></path><path d="M 552.30 696.20 L 552.10 697.60 L 550.80 699.90 L 548.60 701.20 L 547.20 701.40 L 544.60 700.70 L 542.80 698.80 L 542.30 697.60 L 542.10 696.20 L 542.80 693.70 L 544.60 691.80 L 547.20 691.10 L 548.60 691.30 L 550.80 692.60 L 552.10 694.80 L 552.30 696.20 Z" fill="#ffffff" fill-rule="nonzero" group-id="1" node-id="136" stroke="none" target-height="10.300049" target-width="10.200012" target-x="542.1" target-y="691.1"></path><path d="M 557.40 684.00 L 557.20 685.30 L 555.90 687.60 L 553.70 688.90 L 552.30 689.10 L 549.70 688.40 L 547.90 686.50 L 547.40 685.30 L 547.20 684.00 L 547.90 681.40 L 549.70 679.50 L 552.30 678.80 L 553.70 679.00 L 555.90 680.30 L 557.20 682.60 L 557.40 684.00 Z" fill="#ffffff" fill-rule="nonzero" group-id="1" node-id="138" stroke="none" target-height="10.299988" target-width="10.200012" target-x="547.2" target-y="678.8"></path><path d="M 559.40 672.60 L 559.20 674.00 L 557.90 676.20 L 555.70 677.50 L 554.30 677.70 L 552.90 677.50 L 550.60 676.20 L 549.30 674.00 L 549.20 672.60 L 549.30 671.20 L 550.60 669.00 L 552.90 667.70 L 554.30 667.50 L 555.70 667.70 L 557.90 669.00 L 559.20 671.20 L 559.40 672.60 Z" fill="#ffffff" fill-rule="nonzero" group-id="1" node-id="140" stroke="none" target-height="10.200012" target-width="10.200012" target-x="549.2" target-y="667.5"></path><path d="M 735.30 361.90 L 731.80 365.90 L 725.90 370.90 L 719.60 374.50 L 713.90 376.10 L 710.90 376.30 L 707.90 376.00 L 704.70 375.00 L 700.30 372.40 L 695.40 367.60 L 693.90 364.00 L 692.30 355.30 L 688.70 311.30 L 687.90 305.20 L 686.30 298.30 L 685.50 296.10 L 684.60 294.50 L 683.80 293.70 L 682.90 293.40 L 679.50 294.00 L 675.60 293.90 L 673.90 293.40 L 671.70 292.20 L 669.80 290.60 L 666.40 286.00 L 663.80 280.00 L 660.90 269.90 L 656.80 244.70 L 654.90 238.50 L 653.20 234.20 L 651.70 231.30 L 650.30 229.30 L 648.90 228.10 L 647.70 227.40 L 646.50 227.20 L 644.90 227.50 L 643.10 228.40 L 641.10 230.30 L 638.30 233.80 L 632.10 244.50 L 617.50 272.00 L 613.40 278.70 L 607.40 286.90 L 601.00 293.60 L 597.60 296.20 L 594.20 298.20 L 591.40 299.30 L 588.60 300.10 L 585.70 300.40 L 582.70 300.30 L 517.20 291.60 L 515.10 291.00 L 512.70 290.00 L 510.00 288.30 L 506.10 285.20 L 487.30 268.60 L 481.90 264.70 L 478.20 262.40 L 470.50 259.00 L 466.50 258.00 L 462.40 257.50 L 458.10 257.70 L 455.30 258.40 L 452.70 259.70 L 450.20 261.70 L 447.90 264.00 L 443.30 270.10 L 433.00 287.00 L 428.90 292.90 L 422.90 300.20 L 419.40 303.60 L 415.70 306.60 L 411.60 309.20 L 407.10 311.40 L 403.50 312.60 L 395.50 314.20 L 386.80 314.70 L 382.30 315.60 L 377.40 317.10 L 367.40 321.40 L 353.90 329.20 L 345.50 334.90 L 337.30 340.90 L 321.40 354.00 L 307.30 367.10 L 301.30 373.20 L 291.70 384.00 L 288.60 386.70 L 285.40 387.90 L 283.00 387.90 L 280.40 387.60 L 277.60 386.70 L 273.40 384.90 L 268.70 382.40 L 254.20 374.00 L 249.30 371.50 L 242.60 369.20 L 239.30 368.50 L 236.10 368.30 L 232.90 368.60 L 229.70 369.50 L 227.50 370.50 L 223.00 373.90 L 220.80 376.30 L 218.20 379.90 L 215.50 384.60 L 212.80 390.80 L 210.60 397.10 L 208.50 405.00 L 206.30 414.70 L 199.70 408.40 L 189.50 397.30 L 183.40 389.60 L 175.40 378.10 L 167.40 364.30 L 163.80 356.80 L 160.50 348.70 L 157.50 340.50 L 155.10 331.70 L 153.10 322.40 L 152.10 315.40 L 151.50 308.10 L 151.20 300.60 L 151.50 292.70 L 152.10 285.00 L 153.30 277.00 L 155.10 268.70 L 157.50 260.10 L 160.40 251.90 L 164.00 243.30 L 168.30 234.40 L 173.50 225.10 L 177.60 201.30 L 181.90 184.90 L 188.10 167.00 L 192.40 156.70 L 197.80 145.00 L 201.80 137.20 L 211.50 120.70 L 216.90 112.50 L 223.00 104.30 L 229.70 95.90 L 236.70 87.90 L 244.50 80.00 L 252.90 72.30 L 252.00 67.90 L 252.30 62.00 L 254.10 56.00 L 255.60 53.00 L 257.80 49.70 L 260.90 46.00 L 264.30 42.70 L 268.70 39.10 L 274.50 35.30 L 280.40 32.00 L 287.90 28.50 L 297.10 25.00 L 306.40 22.00 L 317.60 18.90 L 330.90 16.00 L 344.30 13.60 L 360.00 11.30 L 378.10 9.30 L 504.80 0.60 L 517.30 0.10 L 529.60 0.10 L 541.90 0.80 L 554.10 2.00 L 566.30 3.90 L 578.30 6.30 L 590.10 9.20 L 601.90 12.80 L 613.40 16.80 L 624.70 21.50 L 635.80 26.70 L 646.70 32.40 L 657.20 38.60 L 667.50 45.40 L 677.50 52.70 L 694.50 66.10 L 706.10 76.50 L 713.40 83.80 L 720.80 91.90 L 729.00 101.60 L 739.50 116.00 L 744.90 124.30 L 749.90 132.70 L 754.70 141.80 L 759.30 151.60 L 763.40 161.50 L 767.20 172.10 L 770.50 183.40 L 772.50 191.90 L 774.20 200.80 L 775.60 210.00 L 776.60 219.60 L 778.60 367.60 L 771.20 361.40 L 763.70 356.40 L 759.50 354.00 L 755.20 352.20 L 749.50 350.70 L 746.90 350.60 L 744.30 350.90 L 742.00 351.80 L 739.90 353.20 L 737.40 356.50 L 735.30 361.90 Z" fill="#f7f8f9" fill-rule="nonzero" group-id="1" node-id="142" stroke="none" target-height="414.6" target-width="627.39996" target-x="151.2" target-y="0.1"></path><path d="M 626.20 24.10 L 624.60 44.10 L 623.30 65.90 L 622.30 92.70 L 622.10 107.10 L 622.50 137.50 L 623.30 152.50 L 624.50 167.40 L 626.20 181.30 L 629.50 198.80 L 631.50 206.50 L 635.20 217.30 L 639.50 225.90 L 642.10 229.70 L 644.80 232.90 L 647.70 235.40 L 650.70 237.30 L 651.60 253.20 L 653.30 265.30 L 654.70 271.70 L 656.50 278.00 L 658.70 284.10 L 660.50 287.90 L 664.70 294.50 L 667.30 297.40 L 670.10 299.60 L 673.20 301.40 L 678.40 303.00 L 681.40 303.30 L 687.50 303.00 L 689.90 303.40 L 691.90 304.20 L 693.60 305.40 L 695.60 307.60 L 697.20 310.30 L 698.50 313.80 L 700.20 321.60 L 701.40 333.20 L 702.30 348.00 L 703.70 359.60 L 704.70 363.60 L 707.00 369.90 L 708.40 372.10 L 711.70 375.50 L 713.70 376.60 L 716.10 377.40 L 718.80 377.70 L 722.10 377.60 L 725.20 377.10 L 733.30 374.20 L 738.40 371.60 L 742.20 368.70 L 748.50 365.40 L 752.60 364.10 L 758.60 363.40 L 762.00 363.60 L 765.40 364.30 L 768.90 365.60 L 772.70 367.50 L 776.30 369.90 L 780.10 373.30 L 784.10 377.80 L 785.30 378.80 L 786.20 379.20 L 787.00 379.00 L 787.90 378.40 L 788.80 377.00 L 790.00 374.30 L 791.10 369.90 L 792.80 356.70 L 793.50 338.80 L 793.40 323.80 L 792.80 306.10 L 791.50 287.70 L 789.40 267.50 L 787.70 253.80 L 783.10 225.10 L 780.40 210.70 L 773.60 181.50 L 769.60 167.10 L 765.20 152.90 L 760.30 139.00 L 752.20 118.70 L 743.10 99.90 L 738.00 90.70 L 732.70 82.10 L 727.10 74.10 L 721.40 66.50 L 715.10 59.20 L 708.60 52.50 L 701.90 46.50 L 694.90 41.20 L 689.00 37.20 L 682.90 33.80 L 676.60 30.80 L 670.10 28.30 L 663.30 26.30 L 656.50 24.70 L 649.40 23.80 L 642.00 23.30 L 634.30 23.40 L 626.20 24.10 Z" fill="#f7f8f9" fill-rule="nonzero" group-id="1" node-id="144" stroke="none" target-height="355.90002" target-width="171.40002" target-x="622.1" target-y="23.3"></path></g></svg>