<?xml version="1.0" standalone="no"?><!DOCTYPE svg PUBLIC "-//W3C//DTD SVG 1.1//EN" "http://www.w3.org/Graphics/SVG/1.1/DTD/svg11.dtd"><svg height="1004" node-id="1" sillyvg="true" template-height="1004" template-width="981" version="1.1" viewBox="0 0 981 1004" width="981" xmlns="http://www.w3.org/2000/svg" xmlns:xlink="http://www.w3.org/1999/xlink"><defs node-id="46"></defs><g node-id="122"><path d="M 968.20 513.40 L 968.00 528.60 L 967.30 543.70 L 966.10 558.70 L 964.40 573.70 L 962.30 588.60 L 959.70 603.40 L 956.60 618.00 L 953.10 632.60 L 949.20 647.00 L 944.80 661.20 L 939.90 675.40 L 934.70 689.30 L 929.00 703.10 L 922.80 716.70 L 916.20 730.10 L 909.30 743.30 L 901.90 756.30 L 894.10 769.00 L 885.90 781.50 L 877.20 793.90 L 868.20 805.90 L 858.80 817.60 L 849.10 829.10 L 838.90 840.30 L 828.30 851.20 L 817.30 861.80 L 806.10 872.00 L 794.60 881.80 L 782.90 891.20 L 770.90 900.20 L 758.60 908.80 L 746.00 917.10 L 733.30 924.90 L 720.30 932.20 L 707.10 939.20 L 693.70 945.80 L 680.10 951.90 L 666.30 957.60 L 652.40 962.90 L 638.30 967.70 L 624.00 972.10 L 609.60 976.10 L 595.10 979.60 L 580.40 982.60 L 565.60 985.20 L 550.70 987.40 L 535.80 989.00 L 520.70 990.20 L 505.60 991.00 L 490.40 991.20 L 475.10 991.00 L 460.00 990.20 L 445.00 989.00 L 430.00 987.40 L 415.20 985.20 L 400.40 982.60 L 385.70 979.60 L 371.20 976.10 L 356.80 972.10 L 342.50 967.70 L 328.40 962.90 L 314.40 957.60 L 300.70 951.90 L 287.10 945.80 L 273.60 939.20 L 260.40 932.20 L 247.50 924.90 L 234.70 917.10 L 222.20 908.80 L 209.90 900.20 L 197.90 891.20 L 186.10 881.80 L 174.60 872.00 L 163.40 861.80 L 152.50 851.20 L 141.90 840.30 L 131.70 829.10 L 121.90 817.60 L 112.50 805.90 L 103.50 793.90 L 94.90 781.50 L 86.70 769.00 L 78.90 756.30 L 71.50 743.30 L 64.50 730.10 L 57.90 716.70 L 51.80 703.10 L 46.10 689.30 L 40.80 675.40 L 36.00 661.20 L 31.60 647.00 L 27.60 632.60 L 24.10 618.00 L 21.10 603.40 L 18.50 588.60 L 16.40 573.70 L 14.70 558.70 L 13.50 543.70 L 12.80 528.60 L 12.50 513.40 L 12.80 498.10 L 13.50 483.00 L 14.70 468.00 L 16.40 453.00 L 18.50 438.10 L 21.10 423.30 L 24.10 408.70 L 27.60 394.10 L 31.60 379.70 L 36.00 365.50 L 40.80 351.30 L 46.10 337.40 L 51.80 323.60 L 57.90 310.00 L 64.50 296.60 L 71.50 283.40 L 78.90 270.40 L 86.70 257.70 L 94.90 245.20 L 103.50 232.80 L 112.50 220.80 L 121.90 209.10 L 131.70 197.60 L 141.90 186.40 L 152.50 175.50 L 163.40 164.90 L 174.60 154.70 L 186.10 144.90 L 197.90 135.50 L 209.90 126.50 L 222.20 117.90 L 234.70 109.60 L 247.50 101.80 L 260.40 94.50 L 273.60 87.50 L 287.10 80.90 L 300.70 74.80 L 314.40 69.10 L 328.40 63.80 L 342.50 59.00 L 356.80 54.60 L 371.20 50.60 L 385.70 47.10 L 400.40 44.10 L 415.20 41.50 L 430.00 39.30 L 445.00 37.70 L 460.00 36.50 L 475.10 35.70 L 490.40 35.50 L 505.60 35.70 L 520.70 36.50 L 535.80 37.70 L 550.70 39.30 L 565.60 41.50 L 580.40 44.10 L 595.10 47.10 L 609.60 50.60 L 624.00 54.60 L 638.30 59.00 L 652.40 63.80 L 666.30 69.10 L 680.10 74.80 L 693.70 80.90 L 707.10 87.50 L 720.30 94.50 L 733.30 101.80 L 746.00 109.60 L 758.60 117.90 L 770.90 126.50 L 782.90 135.50 L 794.60 144.90 L 806.10 154.70 L 817.30 164.90 L 828.30 175.50 L 838.90 186.40 L 849.10 197.60 L 858.80 209.10 L 868.20 220.80 L 877.20 232.80 L 885.90 245.20 L 894.10 257.70 L 901.90 270.40 L 909.30 283.40 L 916.30 296.60 L 922.80 310.00 L 929.00 323.60 L 934.70 337.40 L 939.90 351.30 L 944.80 365.50 L 949.20 379.70 L 953.10 394.10 L 956.60 408.70 L 959.70 423.30 L 962.30 438.10 L 964.40 453.00 L 966.10 468.00 L 967.30 483.00 L 968.00 498.10 L 968.20 513.40 Z" fill="#8bbee6" fill-rule="nonzero" group-id="1" node-id="50" stroke="#ffffff" stroke-linecap="butt" stroke-width="24.42" target-height="955.7" target-width="955.7" target-x="12.5" target-y="35.5"></path><path d="M 490.40 1003.70 L 472.80 1003.40 L 455.50 1002.50 L 438.40 1000.90 L 421.40 998.80 L 404.70 996.20 L 387.90 992.90 L 371.50 989.10 L 355.20 984.70 L 339.20 979.80 L 323.40 974.40 L 307.80 968.40 L 292.40 961.90 L 277.40 955.00 L 262.60 947.50 L 248.10 939.60 L 233.80 931.10 L 219.90 922.20 L 206.30 912.90 L 193.00 903.10 L 180.10 892.80 L 167.50 882.20 L 155.20 871.10 L 143.40 859.60 L 131.90 847.70 L 120.80 835.40 L 110.10 822.80 L 99.90 809.70 L 90.10 796.40 L 80.70 782.60 L 71.70 768.50 L 63.30 754.10 L 55.30 739.30 L 47.80 724.30 L 40.80 708.90 L 34.30 693.10 L 28.40 677.20 L 23.00 661.00 L 18.10 644.60 L 13.70 627.70 L 9.90 610.60 L 6.80 593.30 L 4.20 576.20 L 2.30 559.10 L 1.00 542.10 L 0.30 525.10 L 0.20 508.10 L 0.60 491.20 L 1.70 474.40 L 3.30 457.70 L 5.40 441.20 L 8.20 424.60 L 11.50 408.30 L 15.30 392.20 L 19.70 376.20 L 24.60 360.40 L 30.00 344.70 L 36.00 329.30 L 42.40 314.10 L 49.30 299.20 L 56.80 284.40 L 64.80 269.90 L 73.20 255.80 L 82.10 241.90 L 91.40 228.30 L 101.30 214.90 L 111.60 201.90 L 122.30 189.30 L 133.40 177.00 L 145.10 165.10 L 157.10 153.50 L 169.60 142.40 L 182.40 131.60 L 195.70 121.30 L 209.40 111.40 L 223.50 101.80 L 237.90 92.80 L 252.70 84.30 L 267.90 76.20 L 283.50 68.60 L 299.50 61.50 L 315.80 55.00 L 332.20 49.10 L 348.60 43.80 L 365.20 39.10 L 381.90 35.10 L 398.70 31.60 L 415.60 28.70 L 432.50 26.40 L 449.40 24.70 L 466.30 23.60 L 483.30 23.10 L 500.30 23.10 L 517.20 23.80 L 534.00 25.00 L 550.90 26.80 L 567.60 29.20 L 584.30 32.20 L 600.80 35.70 L 617.30 39.80 L 633.60 44.50 L 649.80 49.80 L 665.70 55.60 L 681.50 62.00 L 697.20 68.90 L 712.60 76.50 L 727.80 84.50 L 742.70 93.10 L 757.30 102.30 L 771.70 112.10 L 785.90 122.40 L 799.70 133.20 L 813.10 144.50 L 825.90 156.10 L 838.20 168.10 L 850.10 180.50 L 861.50 193.30 L 872.50 206.40 L 882.90 219.90 L 892.80 233.70 L 902.30 247.80 L 911.20 262.30 L 919.70 277.00 L 927.60 291.90 L 934.90 307.20 L 941.80 322.60 L 948.10 338.40 L 953.90 354.30 L 959.10 370.40 L 963.80 386.60 L 967.90 403.10 L 971.40 419.80 L 974.40 436.50 L 976.80 453.40 L 978.60 470.40 L 979.80 487.50 L 980.40 504.70 L 980.40 521.90 L 979.80 539.20 L 978.60 556.50 L 976.70 574.00 L 974.20 591.40 L 971.20 608.50 L 967.50 625.40 L 963.30 642.10 L 958.50 658.60 L 953.20 674.90 L 947.30 691.00 L 940.80 706.70 L 933.90 722.20 L 926.40 737.50 L 918.30 752.50 L 909.80 767.10 L 900.80 781.40 L 891.30 795.40 L 881.40 809.10 L 870.90 822.50 L 860.00 835.40 L 848.70 848.00 L 837.00 860.20 L 824.70 872.00 L 812.10 883.40 L 799.10 894.30 L 785.70 904.80 L 771.90 914.90 L 757.60 924.60 L 743.10 933.70 L 728.20 942.30 L 712.90 950.40 L 697.30 958.00 L 681.30 965.20 L 666.00 971.30 L 650.70 976.90 L 635.20 982.00 L 619.50 986.60 L 603.70 990.60 L 587.80 994.10 L 571.70 997.00 L 555.60 999.50 L 539.40 1001.30 L 523.10 1002.70 L 506.80 1003.50 L 490.40 1003.70 Z M 490.40 48.00 L 473.70 48.30 L 457.30 49.20 L 441.00 50.70 L 425.00 52.60 L 409.00 55.20 L 393.20 58.30 L 377.50 61.90 L 362.10 66.10 L 346.90 70.70 L 332.00 75.90 L 317.10 81.50 L 302.60 87.70 L 288.30 94.30 L 274.20 101.40 L 260.50 108.90 L 246.90 116.90 L 233.70 125.40 L 220.80 134.20 L 208.20 143.50 L 195.90 153.20 L 184.00 163.40 L 172.40 173.90 L 161.10 184.80 L 150.20 196.10 L 139.70 207.70 L 129.60 219.80 L 119.80 232.10 L 110.50 244.80 L 101.60 257.90 L 93.10 271.30 L 85.10 284.90 L 77.60 298.90 L 70.50 313.20 L 63.80 327.80 L 57.60 342.80 L 52.00 357.80 L 46.80 373.20 L 42.20 388.90 L 38.10 404.80 L 34.50 421.10 L 31.50 437.40 L 29.10 453.70 L 27.20 469.90 L 26.00 486.10 L 25.30 502.20 L 25.20 518.40 L 25.60 534.40 L 26.60 550.30 L 28.20 566.10 L 30.20 581.90 L 32.80 597.50 L 36.00 613.00 L 39.60 628.30 L 43.70 643.50 L 48.40 658.50 L 53.50 673.40 L 59.20 688.00 L 65.30 702.40 L 71.90 716.60 L 79.00 730.60 L 86.50 744.30 L 94.50 757.80 L 102.90 771.00 L 111.80 783.90 L 121.20 796.50 L 130.90 808.80 L 141.10 820.80 L 151.70 832.50 L 162.70 843.80 L 174.20 854.80 L 186.00 865.40 L 198.10 875.60 L 210.70 885.40 L 223.70 894.80 L 237.10 903.90 L 250.80 912.40 L 264.80 920.50 L 279.20 928.10 L 294.00 935.30 L 309.30 942.10 L 324.70 948.30 L 340.30 953.90 L 355.90 959.00 L 371.60 963.40 L 387.50 967.30 L 403.40 970.60 L 419.40 973.40 L 435.50 975.60 L 451.50 977.20 L 467.60 978.20 L 483.80 978.80 L 499.80 978.70 L 515.90 978.10 L 531.90 976.90 L 547.90 975.20 L 563.80 973.00 L 579.60 970.20 L 595.40 966.80 L 611.00 962.90 L 626.50 958.50 L 641.80 953.50 L 657.00 948.00 L 672.00 941.90 L 686.80 935.30 L 701.50 928.20 L 715.90 920.50 L 730.00 912.40 L 744.00 903.70 L 757.70 894.40 L 771.10 884.60 L 784.30 874.30 L 796.90 863.60 L 809.10 852.60 L 820.80 841.20 L 832.00 829.50 L 842.90 817.30 L 853.30 804.80 L 863.20 792.00 L 872.60 778.90 L 881.60 765.50 L 890.10 751.80 L 898.10 737.80 L 905.60 723.60 L 912.60 709.20 L 919.10 694.50 L 925.10 679.50 L 930.60 664.40 L 935.60 649.20 L 940.00 633.70 L 943.90 618.00 L 947.30 602.30 L 950.10 586.40 L 952.30 570.30 L 954.00 554.20 L 955.20 537.90 L 955.80 521.60 L 955.80 505.30 L 955.20 488.90 L 954.00 472.40 L 952.30 455.80 L 949.90 439.30 L 947.00 423.00 L 943.50 407.00 L 939.50 391.20 L 935.00 375.50 L 929.90 360.00 L 924.20 344.80 L 918.10 329.80 L 911.50 315.10 L 904.40 300.60 L 896.70 286.40 L 888.70 272.50 L 880.10 258.90 L 871.10 245.60 L 861.60 232.60 L 851.70 219.90 L 841.40 207.60 L 830.60 195.70 L 819.40 184.10 L 807.80 172.90 L 795.80 162.10 L 783.50 151.70 L 770.70 141.80 L 757.60 132.20 L 744.10 123.10 L 730.30 114.40 L 716.10 106.30 L 701.60 98.60 L 686.70 91.30 L 671.50 84.60 L 657.10 78.80 L 642.50 73.40 L 627.80 68.60 L 612.90 64.30 L 597.90 60.50 L 582.80 57.20 L 567.60 54.30 L 552.30 52.00 L 536.90 50.30 L 521.40 49.00 L 505.90 48.20 L 490.40 48.00 Z" fill="#ffffff" fill-rule="nonzero" group-id="1" node-id="52" stroke="none" target-height="980.60004" target-width="980.2" target-x="0.2" target-y="23.1"></path><path d="M 200.40 275.10 L 193.20 273.30 L 181.20 271.40 L 173.40 270.80 L 162.30 270.80 L 149.90 271.80 L 143.50 273.00 L 136.80 274.60 L 130.40 276.60 L 123.80 279.20 L 117.20 282.50 L 107.80 288.50 L 98.50 296.30 L 94.20 300.60 L 90.00 305.60 L 86.00 311.10 L 82.00 317.20 L 78.60 323.50 L 75.30 330.50 L 72.20 338.20 L 69.30 346.80 L 66.90 355.20 L 64.90 364.60 L 63.10 374.90 L 61.60 386.20 L 59.30 411.20 L 56.20 453.60 L 54.90 491.10 L 54.70 506.50 L 55.00 528.70 L 55.80 546.10 L 57.00 561.90 L 59.60 583.10 L 61.60 593.80 L 72.60 552.40 L 73.30 552.10 L 74.00 552.10 L 75.90 554.00 L 77.20 556.10 L 82.70 567.70 L 84.10 569.10 L 84.90 568.40 L 88.10 561.70 L 90.00 558.90 L 91.80 557.00 L 93.20 556.10 L 94.60 555.60 L 96.10 555.60 L 97.50 556.00 L 99.10 557.00 L 102.00 560.00 L 106.70 486.30 L 110.20 458.10 L 114.00 435.20 L 119.60 409.20 L 125.80 386.80 L 131.80 369.50 L 135.30 361.10 L 139.00 353.30 L 142.90 345.90 L 149.50 335.70 L 156.60 327.20 L 160.50 323.50 L 164.60 320.40 L 168.80 317.80 L 173.10 315.70 L 176.70 314.50 L 180.50 313.60 L 184.40 313.20 L 188.40 313.20 L 206.90 315.20 L 211.70 315.30 L 216.50 314.90 L 219.90 314.20 L 222.30 313.30 L 223.90 312.30 L 225.80 310.00 L 226.30 306.80 L 226.00 304.60 L 225.10 302.20 L 223.20 298.70 L 220.50 294.90 L 214.20 287.60 L 207.60 281.30 L 200.40 275.10 Z" fill="#7a4a3d" fill-rule="nonzero" group-id="1" node-id="54" stroke="none" target-height="323" target-width="171.6" target-x="54.7" target-y="270.8"></path><path d="M 435.20 624.20 L 437.20 665.60 L 498.50 709.90 L 540.30 696.10 L 544.20 612.40 L 435.20 624.20 Z" fill="#e5afa1" fill-rule="nonzero" group-id="1" node-id="56" stroke="none" target-height="97.5" target-width="109" target-x="435.2" target-y="612.4"></path><path d="M 728.50 381.90 L 735.00 381.80 L 739.70 382.10 L 744.80 382.70 L 754.20 384.80 L 761.50 387.90 L 764.90 390.00 L 768.00 392.60 L 770.80 395.60 L 772.50 398.00 L 774.00 400.80 L 775.10 404.00 L 775.90 407.70 L 776.30 411.20 L 776.30 415.30 L 775.80 419.90 L 773.80 428.80 L 770.90 438.20 L 766.00 451.80 L 759.00 468.00 L 754.80 476.40 L 746.60 490.60 L 739.10 501.30 L 734.90 506.30 L 730.50 510.90 L 726.00 515.10 L 721.10 518.90 L 716.10 522.10 L 710.80 524.70 L 704.40 525.90 L 699.40 526.30 L 693.90 526.40 L 687.20 525.70 L 686.40 525.40 L 685.70 524.60 L 685.00 521.20 L 685.00 518.40 L 686.20 510.00 L 687.70 502.70 L 692.60 484.50 L 702.70 453.10 L 710.00 432.00 L 728.50 381.90 Z" fill="#e5afa1" fill-rule="nonzero" group-id="1" node-id="58" stroke="none" target-height="144.60004" target-width="91.29999" target-x="685" target-y="381.8"></path><path d="M 234.50 364.20 L 227.90 364.10 L 223.20 364.30 L 218.20 364.90 L 208.80 367.10 L 201.40 370.20 L 198.00 372.30 L 194.90 374.80 L 192.20 377.80 L 190.40 380.30 L 189.00 383.10 L 187.90 386.30 L 187.00 389.90 L 186.60 393.50 L 186.60 397.60 L 187.10 402.20 L 189.10 411.00 L 192.10 420.40 L 197.00 434.10 L 203.90 450.20 L 208.10 458.70 L 216.30 472.90 L 223.90 483.60 L 228.10 488.60 L 232.40 493.20 L 237.00 497.40 L 241.90 501.20 L 246.90 504.40 L 252.20 507.00 L 258.50 508.20 L 263.60 508.60 L 269.00 508.60 L 275.80 508.00 L 276.60 507.70 L 277.30 506.90 L 277.70 505.60 L 278.00 503.50 L 278.00 500.70 L 276.80 492.30 L 275.20 485.00 L 270.30 466.80 L 260.30 435.40 L 253.00 414.20 L 234.50 364.20 Z" fill="#e5afa1" fill-rule="nonzero" group-id="1" node-id="60" stroke="none" target-height="144.5" target-width="91.399994" target-x="186.6" target-y="364.1"></path><path d="M 230.20 334.00 L 234.20 365.60 L 238.90 392.60 L 245.70 424.60 L 250.10 442.10 L 257.00 465.80 L 265.20 490.20 L 274.90 514.30 L 280.30 526.20 L 286.00 537.70 L 292.20 548.90 L 297.10 557.20 L 307.70 572.70 L 313.30 580.00 L 319.20 587.00 L 325.40 593.60 L 331.80 599.80 L 338.40 605.50 L 345.40 610.80 L 352.70 615.60 L 360.20 619.80 L 377.60 627.80 L 393.70 633.90 L 404.30 637.30 L 415.40 640.50 L 428.00 643.50 L 445.60 646.60 L 454.90 647.70 L 464.30 648.40 L 473.70 648.50 L 488.30 647.80 L 501.80 646.60 L 521.80 643.80 L 546.10 639.20 L 559.20 636.00 L 572.90 632.10 L 591.00 625.80 L 599.90 622.10 L 608.70 618.10 L 617.10 613.60 L 625.10 608.80 L 633.20 602.80 L 644.10 593.00 L 655.30 581.10 L 661.00 574.30 L 674.00 556.80 L 680.40 547.10 L 687.10 536.00 L 694.10 523.20 L 699.00 513.70 L 708.90 491.80 L 713.90 479.30 L 718.40 467.10 L 722.90 453.80 L 727.20 439.50 L 731.50 424.00 L 735.30 408.90 L 738.80 392.60 L 742.10 375.10 L 745.20 356.30 L 737.20 340.00 L 727.60 323.20 L 721.50 313.90 L 714.40 303.80 L 709.20 297.20 L 697.80 284.20 L 691.60 277.90 L 685.00 272.10 L 678.10 266.60 L 667.10 259.30 L 655.50 253.50 L 649.40 251.20 L 643.10 249.40 L 636.70 248.10 L 630.00 247.30 L 628.30 252.10 L 626.10 255.80 L 621.90 261.00 L 618.60 264.20 L 615.20 267.10 L 610.70 270.20 L 605.20 273.60 L 599.50 276.50 L 592.50 279.40 L 584.10 282.40 L 575.60 284.80 L 565.50 287.10 L 553.60 289.20 L 541.70 290.70 L 527.90 291.90 L 512.00 292.60 L 468.50 308.40 L 447.20 292.60 L 401.30 278.80 L 385.20 266.30 L 372.80 257.70 L 366.20 253.70 L 359.40 250.00 L 353.10 247.10 L 348.80 245.50 L 345.00 244.60 L 341.60 244.10 L 339.00 244.10 L 336.80 244.50 L 334.90 245.20 L 333.20 246.40 L 331.90 247.80 L 330.80 249.80 L 330.00 252.40 L 329.60 255.80 L 317.60 258.00 L 312.40 258.60 L 309.20 258.40 L 308.80 258.10 L 308.90 257.80 L 309.50 257.10 L 314.90 254.20 L 289.90 274.40 L 274.70 287.70 L 258.60 302.70 L 243.30 318.40 L 236.20 326.40 L 230.20 334.00 Z" fill="#f4d5c1" fill-rule="nonzero" group-id="1" node-id="62" stroke="none" target-height="404.4" target-width="515" target-x="230.2" target-y="244.1"></path><path d="M 378.10 439.20 L 377.80 442.80 L 376.90 446.10 L 375.50 449.30 L 373.60 452.20 L 371.30 455.00 L 368.50 457.50 L 365.40 459.70 L 362.00 461.50 L 358.20 463.00 L 354.20 464.10 L 350.00 464.80 L 345.50 465.10 L 341.00 464.80 L 336.80 464.10 L 332.80 463.00 L 329.00 461.50 L 325.60 459.70 L 322.50 457.50 L 319.70 455.00 L 317.40 452.20 L 315.50 449.30 L 314.10 446.10 L 313.20 442.80 L 312.90 439.20 L 313.20 435.70 L 314.10 432.40 L 315.50 429.20 L 317.40 426.20 L 319.70 423.50 L 322.50 421.00 L 325.60 418.80 L 329.00 417.00 L 332.80 415.40 L 336.80 414.30 L 341.00 413.60 L 345.50 413.40 L 350.00 413.60 L 354.20 414.30 L 358.20 415.40 L 362.00 417.00 L 365.40 418.80 L 368.50 421.00 L 371.30 423.50 L 373.60 426.20 L 375.50 429.20 L 376.90 432.40 L 377.80 435.70 L 378.10 439.20 Z" fill="#1e2c3f" fill-rule="nonzero" group-id="1" node-id="64" stroke="none" target-height="51.700012" target-width="65.20001" target-x="312.9" target-y="413.4"></path><path d="M 531.60 559.90 L 530.80 564.50 L 528.30 568.90 L 526.00 571.50 L 523.00 573.90 L 519.30 576.30 L 515.40 578.20 L 511.00 579.80 L 506.00 581.20 L 501.00 582.20 L 495.50 582.80 L 489.70 583.00 L 483.90 582.80 L 478.50 582.20 L 473.40 581.20 L 468.50 579.80 L 464.00 578.20 L 460.10 576.30 L 456.50 573.90 L 453.50 571.50 L 451.20 568.90 L 448.70 564.50 L 447.90 559.90 L 448.10 558.00 L 449.20 555.70 L 451.50 554.40 L 453.40 554.20 L 460.00 555.10 L 476.50 558.70 L 482.90 559.50 L 489.70 559.90 L 496.60 559.50 L 503.00 558.70 L 519.50 555.10 L 526.10 554.20 L 528.00 554.40 L 530.30 555.70 L 531.40 558.00 L 531.60 559.90 Z" fill="#dc6965" fill-rule="nonzero" group-id="1" node-id="66" stroke="none" target-height="28.799988" target-width="83.69998" target-x="447.9" target-y="554.2"></path><path d="M 660.10 439.20 L 659.80 442.80 L 658.90 446.10 L 657.50 449.30 L 655.60 452.20 L 653.30 455.00 L 650.50 457.50 L 647.40 459.70 L 644.00 461.50 L 640.20 463.00 L 636.20 464.10 L 632.00 464.80 L 627.50 465.10 L 623.00 464.80 L 618.80 464.10 L 614.80 463.00 L 611.00 461.50 L 607.60 459.70 L 604.50 457.50 L 601.70 455.00 L 599.40 452.20 L 597.50 449.30 L 596.10 446.10 L 595.20 442.80 L 594.90 439.20 L 595.20 435.70 L 596.10 432.40 L 597.50 429.20 L 599.40 426.20 L 601.70 423.50 L 604.50 421.00 L 607.60 418.80 L 611.00 417.00 L 614.80 415.40 L 618.80 414.30 L 623.00 413.60 L 627.50 413.40 L 632.00 413.60 L 636.20 414.30 L 640.20 415.40 L 644.00 417.00 L 647.40 418.80 L 650.50 421.00 L 653.30 423.50 L 655.60 426.20 L 657.50 429.20 L 658.90 432.40 L 659.80 435.70 L 660.10 439.20 Z" fill="#1e2c3f" fill-rule="nonzero" group-id="1" node-id="68" stroke="none" target-height="51.700012" target-width="65.19995" target-x="594.9" target-y="413.4"></path><path d="M 318.30 406.40 L 326.80 418.50 L 327.80 419.40 L 328.90 419.80 L 331.10 419.40 L 332.40 417.70 L 332.50 416.70 L 332.00 415.50 L 323.40 403.40 L 322.50 402.50 L 321.40 402.10 L 320.20 402.10 L 318.30 403.20 L 317.80 404.10 L 317.70 405.20 L 318.30 406.40 Z" fill="#1e2c3f" fill-rule="nonzero" group-id="1" node-id="70" stroke="none" target-height="17.699982" target-width="14.799988" target-x="317.7" target-y="402.1"></path><path d="M 372.20 405.10 L 360.60 415.20 L 359.80 416.30 L 359.70 417.30 L 360.60 419.30 L 362.60 420.20 L 363.70 420.10 L 364.90 419.50 L 376.40 409.30 L 377.20 408.20 L 377.40 407.20 L 377.10 406.20 L 375.60 404.60 L 374.50 404.30 L 373.40 404.40 L 372.20 405.10 Z" fill="#1e2c3f" fill-rule="nonzero" group-id="1" node-id="72" stroke="none" target-height="15.900024" target-width="17.699982" target-x="359.7" target-y="404.3"></path><path d="M 343.00 400.10 L 342.40 414.20 L 342.60 415.60 L 343.20 416.40 L 345.20 417.10 L 347.30 416.40 L 348.00 415.50 L 348.40 414.20 L 349.00 400.10 L 348.80 398.80 L 348.20 397.90 L 347.20 397.40 L 345.00 397.40 L 344.00 397.90 L 343.30 398.80 L 343.00 400.10 Z" fill="#1e2c3f" fill-rule="nonzero" group-id="1" node-id="74" stroke="none" target-height="19.700012" target-width="6.600006" target-x="342.4" target-y="397.4"></path><path d="M 600.00 406.40 L 608.60 418.50 L 609.50 419.40 L 610.60 419.80 L 612.80 419.40 L 614.20 417.70 L 614.30 416.70 L 613.70 415.50 L 605.20 403.40 L 604.20 402.50 L 603.10 402.10 L 602.00 402.10 L 600.10 403.20 L 599.60 404.10 L 599.50 405.20 L 600.00 406.40 Z" fill="#1e2c3f" fill-rule="nonzero" group-id="1" node-id="76" stroke="none" target-height="17.699982" target-width="14.799988" target-x="599.5" target-y="402.1"></path><path d="M 654.00 405.10 L 642.40 415.20 L 641.70 416.30 L 641.50 417.30 L 641.70 418.40 L 643.30 419.90 L 644.40 420.20 L 645.50 420.10 L 646.70 419.50 L 658.20 409.30 L 659.00 408.20 L 659.20 407.20 L 658.90 406.20 L 657.30 404.60 L 656.20 404.30 L 655.10 404.40 L 654.00 405.10 Z" fill="#1e2c3f" fill-rule="nonzero" group-id="1" node-id="78" stroke="none" target-height="15.900024" target-width="17.700012" target-x="641.5" target-y="404.3"></path><path d="M 624.80 400.10 L 624.20 414.20 L 624.40 415.60 L 625.00 416.40 L 627.00 417.10 L 629.10 416.40 L 629.80 415.50 L 630.20 414.20 L 630.80 400.10 L 630.60 398.80 L 630.00 397.90 L 629.00 397.40 L 626.80 397.40 L 625.80 397.90 L 625.10 398.80 L 624.80 400.10 Z" fill="#1e2c3f" fill-rule="nonzero" group-id="1" node-id="80" stroke="none" target-height="19.700012" target-width="6.5999756" target-x="624.2" target-y="397.4"></path><path d="M 742.40 395.00 L 738.20 382.60 L 733.20 370.10 L 726.40 356.10 L 722.50 349.00 L 718.20 342.40 L 715.00 338.10 L 708.50 331.00 L 704.90 328.00 L 701.30 325.70 L 697.70 324.00 L 687.10 333.40 L 670.80 349.60 L 659.20 363.00 L 653.90 370.10 L 651.80 364.90 L 647.50 357.50 L 644.30 353.60 L 641.80 351.10 L 635.50 346.70 L 631.90 345.00 L 627.80 343.80 L 623.10 342.90 L 615.70 342.90 L 606.60 344.50 L 607.20 362.50 L 606.90 370.30 L 606.30 373.40 L 605.60 375.00 L 603.80 375.20 L 596.50 373.50 L 574.90 366.30 L 538.60 352.70 L 492.30 334.60 L 490.30 356.30 L 485.70 357.50 L 473.00 360.30 L 454.10 363.30 L 443.10 364.40 L 430.80 365.10 L 413.80 364.90 L 404.90 364.20 L 396.00 363.10 L 387.20 361.50 L 378.30 359.40 L 371.70 357.40 L 365.30 355.00 L 359.00 352.20 L 352.80 349.10 L 346.80 345.50 L 341.10 341.50 L 335.60 337.00 L 330.20 332.00 L 325.40 326.60 L 320.80 320.60 L 316.50 314.00 L 312.50 306.70 L 301.90 316.70 L 293.40 325.40 L 284.20 335.60 L 264.80 358.80 L 247.10 382.60 L 238.10 395.60 L 228.70 410.00 L 218.80 426.10 L 221.80 386.30 L 225.50 352.50 L 231.40 312.30 L 238.10 275.60 L 244.80 245.20 L 248.70 230.00 L 257.50 199.80 L 262.50 185.00 L 267.90 170.60 L 273.70 156.60 L 283.30 136.40 L 293.70 118.00 L 299.50 109.20 L 305.40 101.00 L 311.60 93.40 L 318.00 86.40 L 323.50 81.00 L 329.10 76.20 L 334.90 71.80 L 340.80 67.80 L 346.90 64.30 L 353.30 61.20 L 359.90 58.60 L 366.60 56.60 L 373.70 55.10 L 381.00 54.10 L 650.20 69.90 L 690.20 95.30 L 702.40 108.60 L 715.00 124.30 L 722.00 134.00 L 729.70 145.40 L 739.70 162.00 L 744.80 171.30 L 749.50 180.80 L 754.10 190.80 L 758.50 201.50 L 762.40 212.30 L 766.00 223.50 L 769.20 235.30 L 771.10 244.20 L 774.10 262.70 L 775.10 272.30 L 760.80 278.70 L 751.30 345.70 L 745.20 381.80 L 742.40 395.00 Z" fill="#d2a597" fill-rule="nonzero" group-id="1" node-id="82" stroke="none" target-height="372" target-width="556.3" target-x="218.8" target-y="54.1"></path><path d="M 745.80 401.30 L 741.20 387.70 L 735.80 374.00 L 728.60 358.60 L 724.50 350.80 L 720.00 343.60 L 716.70 339.00 L 710.00 331.40 L 706.40 328.20 L 702.70 325.70 L 699.10 324.00 L 688.50 333.40 L 672.20 349.60 L 660.60 363.00 L 655.30 370.10 L 653.30 364.90 L 649.00 357.50 L 645.70 353.60 L 643.20 351.10 L 636.90 346.70 L 633.30 345.00 L 629.20 343.80 L 624.50 342.90 L 617.10 342.90 L 608.00 344.50 L 608.70 362.50 L 608.30 370.30 L 607.70 373.40 L 607.00 375.00 L 605.20 375.20 L 597.90 373.50 L 576.30 366.30 L 540.00 352.70 L 493.80 334.60 L 491.80 356.30 L 487.10 357.50 L 474.40 360.30 L 455.50 363.30 L 444.50 364.40 L 432.20 365.10 L 415.20 364.90 L 406.30 364.20 L 397.50 363.10 L 388.60 361.50 L 379.70 359.40 L 373.20 357.40 L 366.70 355.00 L 360.40 352.20 L 354.20 349.10 L 348.30 345.50 L 342.50 341.50 L 337.00 337.00 L 331.70 332.00 L 326.80 326.60 L 322.20 320.60 L 317.90 314.00 L 313.90 306.70 L 303.30 316.70 L 294.80 325.40 L 285.60 335.60 L 266.30 358.80 L 248.50 382.60 L 239.50 395.60 L 230.10 410.00 L 220.20 426.10 L 213.60 390.10 L 209.80 366.80 L 206.10 340.80 L 202.90 313.80 L 200.90 287.70 L 200.50 275.30 L 200.80 256.90 L 202.20 245.00 L 178.60 236.10 L 182.90 219.70 L 189.20 201.80 L 193.50 191.40 L 198.90 179.80 L 207.50 163.90 L 218.10 147.30 L 224.20 139.00 L 231.00 130.70 L 238.10 122.70 L 245.90 114.80 L 254.40 107.10 L 256.40 103.90 L 257.30 101.30 L 257.90 97.40 L 257.40 92.60 L 256.40 90.10 L 254.90 87.20 L 253.00 84.60 L 250.30 81.70 L 246.50 78.50 L 245.70 76.50 L 245.90 73.80 L 247.60 70.80 L 250.90 67.70 L 253.80 65.80 L 260.90 62.20 L 266.30 60.00 L 278.70 56.20 L 287.20 54.00 L 300.80 51.20 L 318.50 48.10 L 337.90 45.30 L 362.30 42.50 L 368.60 41.30 L 374.60 38.90 L 377.40 37.30 L 384.80 31.90 L 391.60 27.40 L 402.30 21.30 L 409.10 18.10 L 423.90 12.10 L 432.80 9.20 L 441.80 6.80 L 451.70 4.60 L 462.80 2.60 L 479.90 0.70 L 499.50 -0.00 L 509.40 0.10 L 531.10 1.60 L 543.00 3.00 L 551.10 4.40 L 559.00 6.40 L 566.80 9.00 L 637.80 35.70 L 648.50 40.10 L 658.90 45.00 L 668.90 50.40 L 678.60 56.20 L 687.90 62.70 L 696.80 69.50 L 705.30 76.80 L 713.50 84.50 L 721.20 92.60 L 728.40 101.10 L 735.20 110.00 L 741.60 119.20 L 747.40 128.80 L 752.70 138.60 L 757.60 148.80 L 761.90 159.20 L 765.60 169.90 L 768.80 180.80 L 771.40 192.00 L 773.50 203.40 L 778.50 241.20 L 782.40 280.40 L 764.30 284.90 L 754.70 351.90 L 748.60 388.10 L 745.80 401.30 Z" fill="#7a4a3d" fill-rule="nonzero" group-id="1" node-id="84" stroke="none" target-height="426.1" target-width="603.80005" target-x="178.6" target-y="-0"></path><path d="M 223.90 335.80 L 204.00 294.90 L 161.50 352.00 L 223.90 335.80 Z" fill="#dc6965" fill-rule="nonzero" group-id="1" node-id="86" stroke="none" target-height="57.100006" target-width="62.399994" target-x="161.5" target-y="294.9"></path><path d="M 204.20 294.90 L 234.80 261.30 L 166.10 242.90 L 204.20 294.90 Z" fill="#dc6965" fill-rule="nonzero" group-id="1" node-id="88" stroke="none" target-height="52" target-width="68.7" target-x="166.1" target-y="242.9"></path><path d="M 733.60 275.60 L 735.00 274.90 L 741.90 273.20 L 754.90 271.30 L 762.80 270.80 L 772.10 270.70 L 785.00 271.90 L 791.90 273.10 L 798.70 274.80 L 805.70 277.20 L 812.70 280.10 L 817.80 282.70 L 822.90 285.70 L 827.90 289.30 L 832.90 293.30 L 837.50 297.60 L 842.10 302.50 L 846.50 308.10 L 850.80 314.30 L 854.60 320.70 L 858.10 327.80 L 861.50 335.80 L 864.70 344.70 L 867.20 353.50 L 869.50 363.30 L 871.40 374.20 L 873.00 386.20 L 875.50 413.30 L 877.40 437.30 L 878.60 458.60 L 879.50 479.80 L 879.80 514.20 L 879.30 537.00 L 878.30 554.20 L 876.90 569.50 L 875.60 579.80 L 875.20 581.00 L 874.40 582.00 L 873.40 582.70 L 872.20 583.00 L 870.90 582.90 L 869.80 582.40 L 868.90 581.60 L 868.20 580.50 L 852.10 535.20 L 851.50 534.00 L 850.50 533.10 L 849.20 532.70 L 847.90 532.70 L 846.60 533.10 L 845.60 534.00 L 845.00 535.10 L 844.50 537.80 L 843.90 539.00 L 842.90 539.80 L 841.60 540.30 L 840.30 540.30 L 839.00 539.80 L 838.10 538.90 L 837.40 537.80 L 828.70 511.50 L 826.40 502.60 L 823.00 471.90 L 819.30 446.60 L 813.80 418.10 L 810.40 403.40 L 804.90 384.10 L 798.50 365.70 L 794.90 357.10 L 787.90 343.30 L 781.10 333.10 L 777.60 328.80 L 773.70 324.70 L 769.70 321.20 L 765.60 318.40 L 761.30 316.10 L 757.80 314.70 L 754.10 313.80 L 750.20 313.30 L 746.20 313.20 L 727.10 315.20 L 718.30 314.90 L 713.20 313.70 L 710.10 311.70 L 709.20 310.50 L 708.60 309.10 L 708.30 307.60 L 708.50 305.50 L 709.20 303.10 L 710.40 300.50 L 712.80 296.70 L 715.90 292.60 L 722.90 285.10 L 733.60 275.60 Z" fill="#7a4a3d" fill-rule="nonzero" group-id="1" node-id="90" stroke="none" target-height="312.3" target-width="171.5" target-x="708.3" target-y="270.7"></path><path d="M 736.30 246.80 L 756.20 287.60 L 798.70 230.60 L 736.30 246.80 Z" fill="#dc6965" fill-rule="nonzero" group-id="1" node-id="92" stroke="none" target-height="57" target-width="62.400024" target-x="736.3" target-y="230.6"></path><path d="M 756.00 287.60 L 725.40 321.20 L 794.10 339.60 L 756.00 287.60 Z" fill="#dc6965" fill-rule="nonzero" group-id="1" node-id="94" stroke="none" target-height="52" target-width="68.69995" target-x="725.4" target-y="287.6"></path><path d="M 702.00 924.00 L 647.30 713.30 L 646.10 711.00 L 641.60 705.10 L 634.80 698.80 L 630.70 695.70 L 618.70 688.20 L 611.80 684.70 L 603.30 680.80 L 593.10 676.70 L 597.60 679.90 L 602.10 683.90 L 606.70 688.60 L 612.70 696.50 L 615.60 701.30 L 620.80 712.00 L 623.00 718.00 L 624.90 724.70 L 626.70 732.10 L 649.00 931.70 L 650.60 951.60 L 664.50 946.10 L 672.50 942.10 L 688.20 933.00 L 702.00 924.00 Z" fill="#ffffff" fill-rule="nonzero" group-id="1" node-id="96" stroke="none" target-height="274.89996" target-width="108.900024" target-x="593.1" target-y="676.7"></path><path d="M 331.50 949.70 L 331.60 941.60 L 333.40 924.40 L 336.30 900.30 L 340.20 871.50 L 349.30 808.70 L 358.00 753.90 L 361.40 735.10 L 362.90 728.10 L 367.20 712.50 L 370.40 703.40 L 374.90 694.50 L 377.60 690.20 L 381.00 685.70 L 383.80 682.60 L 390.90 676.50 L 399.70 670.80 L 404.80 668.30 L 410.60 665.90 L 417.20 663.60 L 401.20 667.50 L 391.00 670.70 L 374.70 676.30 L 362.20 682.10 L 350.80 689.10 L 341.00 696.80 L 333.80 704.40 L 330.60 708.60 L 327.70 713.10 L 325.20 718.00 L 323.20 723.10 L 321.70 728.60 L 320.70 734.50 L 261.20 917.30 L 274.90 924.90 L 288.80 932.00 L 302.90 938.60 L 317.20 944.80 L 331.80 950.40 L 331.50 949.70 Z" fill="#ffffff" fill-rule="nonzero" group-id="1" node-id="98" stroke="none" target-height="286.80005" target-width="156" target-x="261.2" target-y="663.6"></path><path d="M 331.50 949.70 L 331.80 950.40 L 346.10 955.40 L 360.50 959.90 L 375.00 964.00 L 389.50 967.50 L 404.10 970.60 L 418.90 973.20 L 433.70 975.30 L 448.50 977.00 L 463.40 978.20 L 478.30 978.90 L 493.20 979.10 L 508.10 978.80 L 523.00 978.10 L 537.90 976.80 L 552.80 975.10 L 567.60 973.00 L 582.30 970.30 L 597.00 967.20 L 611.60 963.50 L 626.20 959.40 L 592.40 947.20 L 565.30 936.30 L 536.60 923.60 L 522.10 916.50 L 507.90 909.10 L 485.10 896.00 L 468.40 884.80 L 460.50 878.90 L 453.30 873.00 L 446.80 867.10 L 438.40 858.60 L 430.60 850.00 L 423.40 841.10 L 416.70 832.00 L 410.50 823.00 L 404.90 814.00 L 399.50 804.90 L 390.60 787.60 L 384.90 775.00 L 380.30 763.80 L 373.40 744.50 L 369.60 731.60 L 368.00 724.00 L 367.90 719.60 L 368.80 711.00 L 371.10 702.70 L 372.80 698.70 L 370.40 703.40 L 368.70 708.00 L 363.70 724.90 L 361.40 735.10 L 358.00 754.00 L 349.30 808.70 L 340.20 871.50 L 333.40 924.40 L 331.60 941.60 L 331.50 949.70 Z" fill="#7f2020" fill-rule="nonzero" group-id="1" node-id="100" stroke="none" target-height="280.39996" target-width="294.7" target-x="331.5" target-y="698.7"></path><path d="M 626.70 730.50 L 624.90 722.70 L 622.80 715.70 L 620.50 709.50 L 618.00 704.00 L 615.00 698.50 L 612.00 693.70 L 605.60 685.60 L 600.70 680.90 L 596.00 677.00 L 591.20 673.80 L 586.10 671.00 L 581.30 668.80 L 576.80 667.10 L 569.90 665.20 L 564.20 664.10 L 558.80 663.60 L 551.90 663.50 L 498.30 696.90 L 437.20 659.10 L 428.90 660.60 L 421.60 662.30 L 415.20 664.20 L 409.50 666.30 L 403.70 668.80 L 394.20 674.10 L 390.30 676.90 L 385.40 681.10 L 381.40 685.30 L 378.10 689.40 L 375.30 693.80 L 373.10 698.00 L 371.40 702.00 L 370.00 706.20 L 368.50 713.10 L 368.00 717.80 L 368.00 723.90 L 369.60 731.50 L 373.40 744.50 L 380.30 763.80 L 384.90 774.90 L 390.60 787.60 L 399.50 804.80 L 404.90 814.00 L 410.50 822.90 L 416.70 831.90 L 423.40 841.10 L 430.60 849.90 L 438.40 858.50 L 446.80 867.00 L 453.30 873.00 L 460.50 878.90 L 468.40 884.80 L 485.10 895.90 L 494.10 901.30 L 507.90 909.00 L 522.10 916.50 L 536.60 923.50 L 551.00 930.00 L 579.00 941.90 L 604.60 951.70 L 626.20 959.40 L 650.70 951.20 L 649.00 930.10 Z" fill="#dc6965" fill-rule="nonzero" group-id="1" node-id="102" stroke="none" target-height="300.30005" target-width="282.7" target-x="368" target-y="659.1"></path><path d="M 414.20 664.60 L 414.20 680.70 L 415.00 697.20 L 417.00 716.10 L 418.60 725.80 L 420.60 735.00 L 424.20 746.40 L 426.30 751.30 L 430.30 758.00 L 432.40 760.60 L 439.00 767.20 L 446.70 773.70 L 451.90 777.50 L 457.60 781.00 L 464.30 784.50 L 469.00 786.50 L 479.50 789.80 L 485.00 790.80 L 490.90 791.50 L 497.10 791.70 L 504.20 790.30 L 509.60 788.80 L 515.50 786.70 L 522.50 783.70 L 527.10 781.30 L 537.10 774.90 L 541.90 771.10 L 546.80 766.70 L 551.60 761.50 L 554.90 757.40 L 561.10 748.00 L 564.10 742.50 L 566.60 736.90 L 568.80 730.80 L 570.90 724.20 L 572.60 716.80 L 574.30 704.30 L 575.30 692.00 L 575.50 685.20 L 575.30 678.50 L 574.80 672.00 L 573.70 666.20 L 555.40 662.20 L 542.40 660.00 L 531.50 666.70 L 491.80 693.70 L 470.50 679.10 L 458.50 671.30 L 446.80 664.20 L 437.20 659.10 L 430.10 660.00 L 422.60 661.90 L 414.20 664.60 Z" fill="#ffcccc" fill-rule="nonzero" group-id="1" node-id="104" stroke="none" target-height="132.60004" target-width="161.29999" target-x="414.2" target-y="659.1"></path><path d="M 437.20 659.10 L 437.40 673.80 L 437.90 680.70 L 440.00 697.80 L 443.40 713.40 L 447.40 725.90 L 449.90 732.10 L 452.90 737.90 L 456.10 743.50 L 458.90 747.50 L 461.90 751.20 L 468.80 757.80 L 472.50 760.70 L 476.70 763.10 L 481.10 765.30 L 485.90 767.00 L 489.00 766.40 L 497.10 763.90 L 502.20 761.70 L 508.20 758.60 L 516.20 753.20 L 520.40 749.70 L 524.30 745.90 L 528.10 741.50 L 531.80 736.30 L 536.50 727.80 L 538.60 722.90 L 542.00 712.10 L 543.30 706.10 L 544.20 699.60 L 544.70 692.30 L 544.80 685.30 L 544.50 677.70 L 543.70 669.20 L 542.40 660.00 L 492.60 690.30 Z" fill="#ffffff" fill-rule="nonzero" group-id="1" node-id="106" stroke="none" target-height="107.900024" target-width="107.599976" target-x="437.2" target-y="659.1"></path><path d="M 501.90 715.00 L 501.20 718.60 L 499.10 721.70 L 497.60 722.90 L 494.20 724.30 L 490.50 724.30 L 487.10 722.90 L 484.40 720.30 L 483.00 716.90 L 483.00 713.10 L 484.40 709.70 L 487.10 707.10 L 490.50 705.70 L 494.20 705.70 L 497.60 707.10 L 500.30 709.70 L 501.70 713.10 L 501.90 715.00 Z" fill="#ffffff" fill-rule="nonzero" group-id="1" node-id="108" stroke="none" target-height="18.599976" target-width="18.899994" target-x="483" target-y="705.7"></path><path d="M 501.90 750.20 L 501.20 753.80 L 499.10 756.90 L 496.00 759.00 L 492.40 759.70 L 488.70 759.00 L 485.60 756.90 L 483.60 753.80 L 482.90 750.20 L 483.60 746.50 L 485.60 743.50 L 488.70 741.40 L 492.40 740.70 L 496.00 741.40 L 499.10 743.50 L 501.20 746.50 L 501.90 750.20 Z" fill="#ffffff" fill-rule="nonzero" group-id="1" node-id="110" stroke="none" target-height="19" target-width="19" target-x="482.9" target-y="740.7"></path><path d="M 433.80 663.00 L 491.30 694.20 L 492.60 693.40 L 437.20 659.10 L 423.80 661.70 L 417.20 663.60 L 427.70 662.20 L 431.00 662.30 L 433.80 663.00 Z" fill="none" group-id="1" node-id="112" stroke="none" target-height="35.100037" target-width="75.399994" target-x="417.2" target-y="659.1"></path><path d="M 556.10 663.50 L 568.50 666.90 L 580.90 670.70 L 593.10 675.00 L 587.40 671.70 L 581.50 668.90 L 575.40 666.70 L 569.10 665.00 L 562.60 664.00 L 556.10 663.50 Z" fill="none" group-id="1" node-id="114" stroke="none" target-height="11.5" target-width="37" target-x="556.1" target-y="663.5"></path><path d="M 436.20 785.70 L 491.00 807.00 L 542.60 783.10 L 569.80 835.40 L 491.10 820.30 L 405.60 833.50 L 436.20 785.70 Z" fill="#ffcccc" fill-rule="nonzero" group-id="1" node-id="116" stroke="none" target-height="52.30005" target-width="164.19998" target-x="405.6" target-y="783.1"></path><path d="M 491.10 814.10 L 437.10 912.90 L 475.20 894.10 L 491.10 814.10 Z" fill="#ffcccc" fill-rule="nonzero" group-id="1" node-id="118" stroke="none" target-height="98.80005" target-width="54" target-x="437.1" target-y="814.1"></path><path d="M 490.20 814.10 L 531.60 912.90 L 502.40 894.10 L 490.20 814.10 Z" fill="#ffcccc" fill-rule="nonzero" group-id="1" node-id="120" stroke="none" target-height="98.80005" target-width="41.399963" target-x="490.2" target-y="814.1"></path></g></svg>