<?xml version="1.0" standalone="no"?><!DOCTYPE svg PUBLIC "-//W3C//DTD SVG 1.1//EN" "http://www.w3.org/Graphics/SVG/1.1/DTD/svg11.dtd"><svg height="1022" node-id="1" sillyvg="true" template-height="1022" template-width="981" version="1.1" viewBox="0 0 981 1022" width="981" xmlns="http://www.w3.org/2000/svg" xmlns:xlink="http://www.w3.org/1999/xlink"><defs node-id="53"></defs><g node-id="143"><path d="M 449.20 535.40 L 449.50 534.50 L 449.00 532.70 L 447.30 531.70 L 445.50 532.00 L 435.90 542.20 L 430.70 547.00 L 419.60 556.20 L 414.10 560.30 L 403.90 566.90 L 399.30 569.40 L 393.20 572.10 L 391.60 573.50 L 391.70 574.00 L 392.40 574.50 L 394.10 574.90 L 397.10 574.90 L 404.90 573.60 L 412.70 570.90 L 416.70 569.10 L 425.40 563.90 L 429.60 560.70 L 433.90 556.80 L 438.10 552.30 L 442.00 547.50 L 445.70 541.90 L 449.20 535.40 Z" fill="#e5afa1" fill-rule="nonzero" group-id="1" node-id="57" stroke="none" target-height="43.200012" target-width="57.899994" target-x="391.6" target-y="531.7"></path><path d="M 534.10 535.40 L 533.90 534.50 L 534.30 532.70 L 536.00 531.70 L 537.80 532.00 L 547.50 542.20 L 552.60 547.00 L 563.70 556.20 L 569.20 560.30 L 579.40 566.90 L 584.00 569.40 L 590.10 572.10 L 591.70 573.50 L 591.60 574.00 L 590.90 574.50 L 589.20 574.90 L 586.20 574.90 L 578.40 573.60 L 570.60 570.90 L 566.60 569.10 L 557.90 563.90 L 553.70 560.70 L 549.50 556.80 L 545.20 552.30 L 541.30 547.50 L 537.60 541.90 L 534.10 535.40 Z" fill="#e5afa1" fill-rule="nonzero" group-id="1" node-id="59" stroke="none" target-height="43.200012" target-width="57.799988" target-x="533.9" target-y="531.7"></path><path d="M 968.20 532.00 L 968.00 547.30 L 967.30 562.40 L 966.10 577.40 L 964.40 592.40 L 962.30 607.20 L 959.70 622.00 L 956.60 636.70 L 953.10 651.20 L 949.20 665.60 L 944.80 679.90 L 939.90 694.00 L 934.70 708.00 L 929.00 721.80 L 922.80 735.30 L 916.20 748.80 L 909.30 762.00 L 901.90 774.90 L 894.10 787.70 L 885.90 800.20 L 877.20 812.50 L 868.20 824.60 L 858.80 836.30 L 849.10 847.80 L 838.90 859.00 L 828.30 869.90 L 817.30 880.50 L 806.10 890.70 L 794.60 900.50 L 782.90 909.90 L 770.90 918.90 L 758.60 927.50 L 746.00 935.70 L 733.30 943.50 L 720.30 950.90 L 707.10 957.90 L 693.70 964.50 L 680.10 970.60 L 666.30 976.30 L 652.40 981.60 L 638.30 986.40 L 624.00 990.80 L 609.60 994.80 L 595.10 998.30 L 580.40 1001.30 L 565.60 1003.90 L 550.70 1006.10 L 535.80 1007.70 L 520.70 1008.90 L 505.60 1009.60 L 490.40 1009.90 L 475.10 1009.60 L 460.00 1008.90 L 445.00 1007.70 L 430.00 1006.10 L 415.20 1003.90 L 400.40 1001.30 L 385.70 998.30 L 371.20 994.80 L 356.80 990.80 L 342.50 986.40 L 328.40 981.60 L 314.40 976.30 L 300.70 970.60 L 287.10 964.50 L 273.60 957.90 L 260.40 950.90 L 247.50 943.50 L 234.70 935.70 L 222.20 927.50 L 209.90 918.90 L 197.90 909.90 L 186.10 900.50 L 174.60 890.70 L 163.40 880.50 L 152.50 869.90 L 141.90 859.00 L 131.70 847.80 L 121.90 836.30 L 112.50 824.60 L 103.50 812.50 L 94.90 800.20 L 86.70 787.70 L 78.90 774.90 L 71.50 762.00 L 64.50 748.80 L 57.90 735.30 L 51.80 721.80 L 46.10 708.00 L 40.80 694.00 L 36.00 679.90 L 31.60 665.60 L 27.60 651.20 L 24.10 636.70 L 21.10 622.00 L 18.50 607.20 L 16.40 592.40 L 14.70 577.40 L 13.50 562.40 L 12.80 547.30 L 12.50 532.00 L 12.80 516.80 L 13.50 501.70 L 14.70 486.60 L 16.40 471.70 L 18.50 456.80 L 21.10 442.00 L 24.10 427.30 L 27.60 412.80 L 31.60 398.40 L 36.00 384.20 L 40.80 370.00 L 46.10 356.10 L 51.80 342.30 L 57.90 328.70 L 64.50 315.30 L 71.50 302.10 L 78.90 289.10 L 86.70 276.40 L 94.90 263.80 L 103.50 251.50 L 112.50 239.50 L 121.90 227.80 L 131.70 216.30 L 141.90 205.10 L 152.50 194.10 L 163.40 183.50 L 174.60 173.40 L 186.10 163.60 L 197.90 154.20 L 209.90 145.20 L 222.20 136.50 L 234.70 128.30 L 247.50 120.50 L 260.40 113.10 L 273.60 106.20 L 287.10 99.60 L 300.70 93.50 L 314.40 87.80 L 328.40 82.50 L 342.50 77.60 L 356.80 73.20 L 371.20 69.30 L 385.70 65.80 L 400.40 62.70 L 415.20 60.10 L 430.00 58.00 L 445.00 56.30 L 460.00 55.10 L 475.10 54.40 L 490.40 54.20 L 505.60 54.40 L 520.70 55.10 L 535.80 56.30 L 550.70 58.00 L 565.60 60.10 L 580.40 62.70 L 595.10 65.80 L 609.60 69.30 L 624.00 73.20 L 638.30 77.60 L 652.40 82.50 L 666.30 87.80 L 680.10 93.50 L 693.70 99.60 L 707.10 106.20 L 720.30 113.10 L 733.30 120.50 L 746.00 128.30 L 758.60 136.50 L 770.90 145.20 L 782.90 154.20 L 794.60 163.60 L 806.10 173.40 L 817.30 183.50 L 828.30 194.10 L 838.90 205.10 L 849.10 216.30 L 858.80 227.80 L 868.20 239.50 L 877.20 251.50 L 885.90 263.80 L 894.10 276.40 L 901.90 289.10 L 909.30 302.10 L 916.30 315.30 L 922.80 328.70 L 929.00 342.30 L 934.70 356.10 L 939.90 370.00 L 944.80 384.20 L 949.20 398.40 L 953.10 412.80 L 956.60 427.30 L 959.70 442.00 L 962.30 456.80 L 964.40 471.70 L 966.10 486.60 L 967.30 501.70 L 968.00 516.80 L 968.20 532.00 Z" fill="#8bbee6" fill-rule="nonzero" group-id="1" node-id="61" stroke="#ffffff" stroke-linecap="butt" stroke-width="24.42" target-height="955.7" target-width="955.7" target-x="12.5" target-y="54.2"></path><path d="M 490.40 1022.40 L 472.80 1022.10 L 455.50 1021.20 L 438.40 1019.60 L 421.40 1017.50 L 404.70 1014.90 L 387.90 1011.60 L 371.50 1007.80 L 355.20 1003.40 L 339.20 998.50 L 323.40 993.10 L 307.80 987.10 L 292.50 980.60 L 277.40 973.60 L 262.60 966.20 L 248.10 958.20 L 233.80 949.80 L 219.90 940.90 L 206.30 931.60 L 193.00 921.80 L 180.10 911.50 L 167.50 900.80 L 155.20 889.80 L 143.40 878.30 L 131.90 866.40 L 120.80 854.10 L 110.10 841.40 L 99.90 828.40 L 90.10 815.00 L 80.70 801.30 L 71.80 787.10 L 63.30 772.70 L 55.30 758.00 L 47.90 743.00 L 40.90 727.60 L 34.30 711.80 L 28.40 695.90 L 23.00 679.70 L 18.10 663.20 L 13.80 646.40 L 10.00 629.30 L 6.80 612.00 L 4.20 594.90 L 2.30 577.80 L 1.00 560.80 L 0.30 543.80 L 0.20 526.70 L 0.60 509.80 L 1.70 493.10 L 3.30 476.40 L 5.50 459.80 L 8.20 443.30 L 11.50 427.00 L 15.30 410.90 L 19.70 394.90 L 24.60 379.10 L 30.00 363.40 L 36.00 348.00 L 42.40 332.80 L 49.40 317.90 L 56.80 303.10 L 64.80 288.60 L 73.20 274.40 L 82.10 260.60 L 91.40 246.90 L 101.30 233.60 L 111.60 220.60 L 122.30 208.00 L 133.40 195.70 L 145.10 183.80 L 157.10 172.20 L 169.60 161.00 L 182.40 150.30 L 195.70 140.00 L 209.40 130.00 L 223.50 120.50 L 237.90 111.50 L 252.70 103.00 L 267.90 94.90 L 283.50 87.30 L 299.50 80.20 L 315.80 73.60 L 332.20 67.70 L 348.70 62.40 L 365.20 57.70 L 381.90 53.70 L 398.80 50.20 L 415.60 47.20 L 432.50 44.90 L 449.40 43.20 L 466.40 42.10 L 483.40 41.60 L 500.30 41.60 L 517.30 42.30 L 534.10 43.50 L 551.00 45.30 L 567.80 47.70 L 584.40 50.60 L 601.00 54.20 L 617.40 58.30 L 633.80 63.00 L 650.00 68.20 L 666.00 74.00 L 681.80 80.40 L 697.40 87.30 L 712.90 94.90 L 728.00 102.90 L 742.90 111.50 L 757.60 120.70 L 772.00 130.50 L 786.20 140.80 L 800.10 151.70 L 813.40 162.90 L 826.20 174.50 L 838.50 186.50 L 850.40 198.90 L 861.90 211.70 L 872.80 224.90 L 883.30 238.40 L 893.20 252.20 L 902.70 266.30 L 911.60 280.70 L 920.10 295.50 L 928.00 310.40 L 935.40 325.70 L 942.20 341.20 L 948.50 356.90 L 954.30 372.80 L 959.50 388.90 L 964.20 405.20 L 968.30 421.70 L 971.90 438.30 L 974.80 455.10 L 977.20 471.90 L 979.00 489.00 L 980.20 506.10 L 980.80 523.30 L 980.80 540.50 L 980.20 557.80 L 979.00 575.20 L 977.10 592.60 L 974.60 610.00 L 971.60 627.20 L 967.90 644.10 L 963.70 660.80 L 958.90 677.30 L 953.50 693.60 L 947.60 709.70 L 941.20 725.50 L 934.20 741.00 L 926.70 756.20 L 918.60 771.20 L 910.10 785.90 L 901.10 800.20 L 891.60 814.20 L 881.60 827.90 L 871.20 841.20 L 860.30 854.20 L 848.90 866.80 L 837.10 879.00 L 824.90 890.80 L 812.30 902.20 L 799.30 913.10 L 785.80 923.60 L 772.00 933.70 L 757.70 943.30 L 743.20 952.40 L 728.30 961.00 L 713.00 969.10 L 697.30 976.70 L 681.30 983.90 L 666.00 990.00 L 650.70 995.60 L 635.20 1000.70 L 619.50 1005.20 L 603.70 1009.30 L 587.80 1012.80 L 571.70 1015.70 L 555.60 1018.20 L 539.40 1020.00 L 523.10 1021.40 L 506.80 1022.20 L 490.40 1022.40 Z M 490.40 66.70 L 473.70 67.00 L 457.30 67.90 L 441.00 69.30 L 425.00 71.30 L 409.10 73.90 L 393.20 77.00 L 377.50 80.60 L 362.10 84.70 L 346.90 89.40 L 332.00 94.50 L 317.10 100.20 L 302.60 106.40 L 288.30 113.00 L 274.20 120.10 L 260.50 127.60 L 246.90 135.60 L 233.70 144.10 L 220.80 152.90 L 208.20 162.20 L 195.90 171.90 L 184.00 182.10 L 172.40 192.60 L 161.10 203.50 L 150.20 214.70 L 139.70 226.40 L 129.60 238.40 L 119.90 250.80 L 110.60 263.50 L 101.70 276.60 L 93.20 290.00 L 85.10 303.60 L 77.60 317.60 L 70.50 331.90 L 63.80 346.50 L 57.60 361.40 L 52.00 376.50 L 46.90 391.90 L 42.20 407.50 L 38.10 423.50 L 34.50 439.70 L 31.50 456.10 L 29.10 472.40 L 27.30 488.60 L 26.00 504.80 L 25.30 520.90 L 25.20 537.10 L 25.70 553.10 L 26.60 569.00 L 28.20 584.80 L 30.20 600.50 L 32.80 616.20 L 36.00 631.70 L 39.60 647.00 L 43.70 662.20 L 48.40 677.20 L 53.60 692.00 L 59.20 706.70 L 65.30 721.10 L 71.90 735.30 L 79.00 749.30 L 86.50 763.00 L 94.50 776.50 L 102.90 789.70 L 111.80 802.60 L 121.20 815.20 L 130.90 827.50 L 141.10 839.50 L 151.70 851.20 L 162.70 862.50 L 174.20 873.50 L 186.00 884.10 L 198.10 894.30 L 210.70 904.10 L 223.70 913.50 L 237.10 922.50 L 250.80 931.10 L 264.80 939.20 L 279.20 946.80 L 294.00 954.00 L 309.30 960.80 L 324.70 967.00 L 340.30 972.60 L 355.90 977.60 L 371.60 982.10 L 387.50 986.00 L 403.40 989.30 L 419.40 992.10 L 435.50 994.20 L 451.50 995.90 L 467.60 996.90 L 483.80 997.40 L 499.80 997.40 L 515.90 996.80 L 531.90 995.60 L 547.90 993.90 L 563.80 991.70 L 579.60 988.80 L 595.40 985.50 L 611.00 981.60 L 626.50 977.10 L 641.80 972.20 L 657.00 966.70 L 672.00 960.60 L 686.80 954.00 L 701.50 946.90 L 715.90 939.20 L 730.00 931.00 L 744.00 922.30 L 757.70 913.10 L 771.10 903.30 L 784.30 893.00 L 796.90 882.30 L 809.10 871.30 L 820.80 859.90 L 832.00 848.10 L 842.90 836.00 L 853.30 823.50 L 863.20 810.70 L 872.60 797.60 L 881.60 784.20 L 890.10 770.50 L 898.10 756.50 L 905.60 742.30 L 912.60 727.90 L 919.10 713.20 L 925.10 698.20 L 930.60 683.10 L 935.60 667.90 L 940.00 652.40 L 943.90 636.70 L 947.30 620.90 L 950.10 605.10 L 952.30 589.00 L 954.00 572.90 L 955.20 556.60 L 955.80 540.30 L 955.80 524.00 L 955.20 507.60 L 954.00 491.10 L 952.30 474.50 L 949.90 458.00 L 947.00 441.70 L 943.50 425.70 L 939.50 409.80 L 935.00 394.20 L 929.90 378.70 L 924.20 363.50 L 918.10 348.50 L 911.50 333.80 L 904.40 319.30 L 896.70 305.10 L 888.70 291.20 L 880.10 277.60 L 871.10 264.30 L 861.60 251.30 L 851.70 238.60 L 841.40 226.30 L 830.60 214.40 L 819.40 202.80 L 807.80 191.60 L 795.80 180.80 L 783.50 170.40 L 770.70 160.50 L 757.60 150.90 L 744.10 141.80 L 730.30 133.10 L 716.10 125.00 L 701.60 117.30 L 686.70 110.00 L 671.50 103.30 L 657.10 97.40 L 642.50 92.10 L 627.80 87.30 L 612.90 83.00 L 597.90 79.20 L 582.80 75.80 L 567.60 73.00 L 552.30 70.70 L 536.90 69.00 L 521.40 67.70 L 505.90 66.90 L 490.40 66.70 Z" fill="#ffffff" fill-rule="nonzero" group-id="1" node-id="63" stroke="none" target-height="980.80005" target-width="980.6" target-x="0.2" target-y="41.6"></path><path d="M 449.20 514.70 L 449.40 513.70 L 448.90 512.00 L 447.30 511.00 L 445.50 511.20 L 435.90 521.50 L 430.70 526.30 L 419.60 535.50 L 414.10 539.50 L 403.90 546.20 L 399.30 548.70 L 393.20 551.30 L 391.60 552.70 L 391.70 553.30 L 392.40 553.80 L 394.10 554.10 L 397.10 554.20 L 404.90 552.80 L 412.70 550.20 L 416.70 548.30 L 425.40 543.10 L 429.60 539.90 L 433.90 536.10 L 438.10 531.60 L 442.00 526.70 L 445.70 521.10 L 449.20 514.70 Z" fill="#e5afa1" fill-rule="nonzero" group-id="1" node-id="65" stroke="none" target-height="43.200012" target-width="57.799988" target-x="391.6" target-y="511"></path><path d="M 534.10 514.70 L 533.90 513.70 L 534.40 512.00 L 536.00 511.00 L 537.80 511.20 L 547.50 521.50 L 552.60 526.30 L 563.70 535.50 L 569.20 539.50 L 579.40 546.20 L 584.00 548.70 L 590.10 551.30 L 591.70 552.70 L 591.60 553.30 L 590.90 553.80 L 589.20 554.10 L 586.20 554.20 L 578.40 552.80 L 570.60 550.20 L 566.60 548.30 L 557.90 543.10 L 553.70 539.90 L 549.50 536.10 L 545.20 531.60 L 541.30 526.70 L 537.60 521.10 L 534.10 514.70 Z" fill="#e5afa1" fill-rule="nonzero" group-id="1" node-id="67" stroke="none" target-height="43.200012" target-width="57.799988" target-x="533.9" target-y="511"></path><path d="M 258.70 533.80 L 257.20 574.80 L 256.00 631.70 L 255.80 663.30 L 256.30 709.60 L 257.50 736.80 L 259.60 758.80 L 260.90 766.80 L 262.10 771.80 L 263.30 775.20 L 267.40 782.90 L 268.40 785.90 L 269.50 790.60 L 270.00 795.30 L 269.90 804.30 L 268.90 811.90 L 267.60 817.40 L 269.20 817.80 L 273.00 817.40 L 274.60 817.70 L 276.40 821.00 L 281.40 832.80 L 282.10 834.00 L 282.90 834.30 L 285.40 829.90 L 287.30 827.40 L 292.80 822.30 L 295.90 820.20 L 298.20 819.10 L 302.60 818.00 L 304.90 818.10 L 307.10 818.70 L 309.30 819.90 L 309.80 820.00 L 310.20 819.60 L 311.30 816.70 L 313.50 805.10 L 314.70 801.90 L 315.20 801.40 L 316.30 801.80 L 318.10 805.30 L 314.80 792.80 L 313.40 783.30 L 313.30 778.80 L 314.00 773.20 L 316.80 764.50 L 319.00 750.90 L 320.90 729.40 L 322.60 690.90 L 323.10 664.30 L 323.10 618.60 L 322.60 597.00 L 321.20 583.00 L 320.40 569.00 L 320.10 554.90 L 320.40 510.70 L 320.10 500.80 L 319.60 494.50 L 319.00 493.20 L 318.20 494.00 L 317.30 494.00 L 315.50 493.50 L 304.70 488.80 L 299.90 487.10 L 293.20 485.40 L 289.70 485.00 L 286.20 485.00 L 282.80 485.50 L 279.40 486.50 L 277.00 487.60 L 272.30 491.20 L 270.00 493.70 L 266.20 499.80 L 264.40 503.90 L 262.70 508.80 L 260.30 519.30 L 258.70 533.80 Z" fill="#5f3327" fill-rule="nonzero" group-id="1" node-id="69" stroke="none" target-height="349.3" target-width="67.3" target-x="255.8" target-y="485"></path><path d="M 638.70 528.00 L 646.70 568.20 L 658.60 623.80 L 665.60 654.70 L 676.80 699.60 L 684.20 725.80 L 691.30 746.70 L 694.40 754.20 L 696.70 758.80 L 698.70 761.80 L 704.40 768.40 L 706.10 771.10 L 708.20 775.40 L 709.80 779.90 L 711.80 788.70 L 712.50 796.30 L 712.60 801.90 L 714.20 801.90 L 717.80 800.70 L 719.40 800.60 L 721.90 803.40 L 729.50 813.80 L 730.40 814.70 L 731.20 814.90 L 732.70 810.00 L 734.00 807.20 L 738.10 800.90 L 740.70 798.20 L 742.60 796.60 L 746.70 794.50 L 748.90 794.00 L 751.20 794.10 L 753.60 794.70 L 754.10 794.70 L 754.50 794.30 L 754.90 791.20 L 754.30 779.40 L 754.70 776.00 L 755.10 775.40 L 756.30 775.50 L 758.90 778.60 L 752.80 767.10 L 749.30 758.20 L 748.10 753.90 L 747.50 748.30 L 748.20 739.10 L 747.20 725.40 L 744.20 704.00 L 737.00 666.10 L 731.30 640.20 L 720.90 595.70 L 715.40 574.80 L 710.80 561.50 L 706.80 548.00 L 703.20 534.40 L 693.40 491.30 L 690.90 481.70 L 688.90 475.80 L 688.00 474.60 L 687.40 475.50 L 686.50 475.80 L 684.70 475.70 L 673.10 473.60 L 668.10 473.00 L 661.10 472.90 L 657.70 473.30 L 654.30 474.10 L 651.00 475.40 L 647.90 477.20 L 645.90 478.80 L 642.20 483.40 L 640.50 486.40 L 638.20 493.10 L 637.40 497.50 L 636.90 502.70 L 637.00 513.40 L 638.70 528.00 Z" fill="#5f3327" fill-rule="nonzero" group-id="1" node-id="71" stroke="none" target-height="342.00003" target-width="122" target-x="636.9" target-y="472.9"></path><path d="M 556.10 682.10 L 568.50 685.60 L 580.90 689.40 L 593.10 693.70 L 587.40 690.40 L 581.50 687.60 L 575.40 685.40 L 569.10 683.70 L 562.60 682.60 L 556.10 682.10 Z" fill="none" group-id="1" node-id="73" stroke="none" target-height="11.600037" target-width="37" target-x="556.1" target-y="682.1"></path><path d="M 0.00 396.70 L 75.00 393.70 L 190.60 388.40 L 261.70 384.60 L 338.90 380.00 L 420.00 374.70 L 503.00 368.50 L 585.60 361.60 L 626.40 357.70 L 704.70 349.50 L 741.50 345.10 L 777.50 340.30 L 832.30 332.00 L 870.80 325.00 L 889.20 321.10 L 905.60 317.30 L 931.20 310.40 L 940.80 307.20 L 956.40 301.20 L 812.90 210.00 L 780.20 209.80 L 742.40 210.20 L 693.20 211.50 L 665.50 212.50 L 602.90 215.80 L 568.90 218.20 L 534.20 221.00 L 498.00 224.40 L 449.00 229.90 L 399.10 236.60 L 349.30 244.60 L 324.40 249.20 L 299.90 254.20 L 275.70 259.50 L 251.60 265.20 L 228.20 271.40 L 205.50 278.00 L 172.00 288.80 L 140.70 300.50 L 125.30 307.00 L 110.60 313.60 L 96.70 320.50 L 83.40 327.60 L 72.80 333.70 L 62.80 339.90 L 53.30 346.30 L 44.30 352.80 L 35.80 359.50 L 27.50 366.60 L 19.70 373.90 L 12.60 381.40 L 6.00 388.90 L 0.00 396.70 Z" fill="#bc9f26" fill-rule="nonzero" group-id="1" node-id="75" stroke="none" target-height="186.90001" target-width="956.4" target-x="0" target-y="209.8"></path><path d="M 438.80 635.30 L 436.70 676.70 L 432.60 721.00 L 512.10 792.20 L 565.10 712.10 L 547.80 623.50 L 438.80 635.30 Z" fill="#e5afa1" fill-rule="nonzero" group-id="1" node-id="77" stroke="none" target-height="168.70001" target-width="132.49997" target-x="432.6" target-y="623.5"></path><path d="M 732.10 393.10 L 738.60 392.90 L 743.30 393.20 L 748.30 393.80 L 757.80 396.00 L 765.10 399.10 L 768.50 401.20 L 771.60 403.70 L 774.30 406.70 L 776.10 409.20 L 777.50 412.00 L 778.70 415.20 L 779.50 418.80 L 779.90 422.40 L 779.90 426.40 L 779.40 431.10 L 777.40 439.90 L 774.40 449.30 L 769.50 462.90 L 762.60 479.10 L 758.40 487.60 L 750.20 501.80 L 742.60 512.40 L 738.50 517.40 L 734.10 522.00 L 729.50 526.20 L 724.70 530.00 L 719.60 533.20 L 714.30 535.90 L 708.00 537.10 L 703.00 537.50 L 697.50 537.50 L 690.70 536.90 L 689.90 536.50 L 689.30 535.80 L 688.80 534.50 L 688.50 532.40 L 688.60 529.60 L 689.70 521.20 L 691.30 513.80 L 696.20 495.60 L 706.20 464.20 L 713.50 443.10 L 732.10 393.10 Z" fill="#e5afa1" fill-rule="nonzero" group-id="1" node-id="79" stroke="none" target-height="144.6" target-width="91.400024" target-x="688.5" target-y="392.9"></path><path d="M 238.00 375.30 L 231.50 375.20 L 226.80 375.50 L 221.70 376.10 L 212.30 378.20 L 205.00 381.30 L 201.60 383.40 L 198.50 386.00 L 195.70 389.00 L 194.00 391.40 L 192.50 394.30 L 191.40 397.40 L 190.60 401.10 L 190.20 404.60 L 190.20 408.70 L 190.70 413.30 L 192.70 422.20 L 195.60 431.60 L 200.50 445.20 L 207.50 461.40 L 211.70 469.80 L 219.90 484.00 L 227.40 494.70 L 231.60 499.70 L 236.00 504.30 L 240.50 508.50 L 245.40 512.30 L 250.40 515.50 L 255.70 518.10 L 262.10 519.30 L 267.10 519.80 L 272.60 519.80 L 279.40 519.10 L 280.20 518.80 L 280.80 518.00 L 281.30 516.70 L 281.50 514.60 L 281.50 511.80 L 280.30 503.40 L 278.80 496.10 L 273.90 477.90 L 263.80 446.50 L 256.50 425.40 L 238.00 375.30 Z" fill="#e5afa1" fill-rule="nonzero" group-id="1" node-id="81" stroke="none" target-height="144.59998" target-width="91.3" target-x="190.2" target-y="375.2"></path><path d="M 233.80 345.10 L 237.80 376.70 L 242.40 403.70 L 249.30 435.70 L 253.70 453.20 L 260.50 477.00 L 268.80 501.30 L 278.40 525.50 L 283.80 537.30 L 289.60 548.90 L 295.70 560.10 L 300.70 568.30 L 311.20 583.80 L 316.80 591.10 L 322.80 598.10 L 328.90 604.70 L 335.40 610.90 L 342.00 616.60 L 349.00 621.90 L 356.30 626.70 L 363.80 630.90 L 381.20 638.90 L 397.30 645.00 L 407.80 648.50 L 419.00 651.60 L 431.60 654.70 L 449.20 657.70 L 458.50 658.80 L 467.80 659.50 L 477.30 659.60 L 491.80 659.00 L 505.30 657.70 L 525.30 654.90 L 549.70 650.30 L 562.80 647.10 L 576.40 643.20 L 594.50 636.90 L 603.50 633.20 L 612.20 629.20 L 620.60 624.70 L 628.70 619.90 L 636.80 613.90 L 647.70 604.10 L 658.80 592.20 L 664.50 585.50 L 677.60 567.90 L 684.00 558.20 L 690.70 547.10 L 697.70 534.40 L 702.60 524.80 L 712.40 502.90 L 717.50 490.40 L 722.00 478.20 L 726.40 464.90 L 730.80 450.60 L 735.10 435.10 L 738.80 420.00 L 742.40 403.70 L 745.70 386.20 L 748.80 367.40 L 740.80 351.20 L 731.10 334.40 L 725.10 325.00 L 717.90 314.90 L 712.80 308.30 L 701.40 295.30 L 695.10 289.10 L 688.60 283.20 L 681.70 277.70 L 670.70 270.50 L 659.00 264.70 L 652.90 262.40 L 646.70 260.60 L 640.20 259.20 L 633.60 258.40 L 633.10 261.40 L 630.90 265.20 L 626.70 269.10 L 620.50 272.80 L 610.90 276.80 L 604.70 278.70 L 589.10 282.20 L 579.50 283.80 L 556.60 286.30 L 527.10 287.80 L 478.80 283.40 L 435.90 283.40 L 404.80 290.00 L 388.70 277.40 L 376.30 268.90 L 369.70 264.80 L 363.00 261.20 L 356.70 258.30 L 352.40 256.70 L 348.60 255.70 L 345.20 255.20 L 342.60 255.20 L 340.40 255.60 L 338.50 256.40 L 336.80 257.50 L 335.50 259.00 L 334.40 261.00 L 333.60 263.60 L 333.20 267.00 L 321.20 269.10 L 316.00 269.70 L 312.70 269.60 L 312.40 269.30 L 312.40 268.90 L 313.10 268.20 L 318.50 265.40 L 293.50 285.60 L 278.20 298.80 L 262.20 313.80 L 246.80 329.50 L 239.80 337.50 L 233.80 345.10 Z" fill="#f4d5c1" fill-rule="nonzero" group-id="1" node-id="83" stroke="none" target-height="404.39996" target-width="515" target-x="233.8" target-y="255.2"></path><path d="M 432.60 463.90 L 431.80 468.60 L 429.50 473.20 L 427.30 475.90 L 424.50 478.40 L 421.20 480.80 L 417.50 482.80 L 413.40 484.50 L 408.80 485.90 L 404.00 487.00 L 399.00 487.60 L 393.60 487.80 L 388.20 487.60 L 383.10 487.00 L 378.40 485.90 L 373.80 484.50 L 369.70 482.80 L 366.00 480.80 L 362.60 478.40 L 359.90 475.90 L 357.70 473.20 L 355.40 468.60 L 354.60 463.90 L 355.40 459.10 L 357.70 454.50 L 359.90 451.80 L 362.60 449.30 L 366.00 446.90 L 369.70 444.90 L 373.80 443.20 L 378.40 441.80 L 383.10 440.70 L 388.20 440.10 L 393.60 439.90 L 399.00 440.10 L 404.00 440.70 L 408.80 441.80 L 413.40 443.20 L 417.50 444.90 L 421.20 446.90 L 424.50 449.30 L 427.30 451.80 L 429.50 454.50 L 431.80 459.10 L 432.60 463.90 Z" fill="#1e2c3f" fill-rule="nonzero" group-id="1" node-id="85" stroke="none" target-height="47.899994" target-width="78" target-x="354.6" target-y="439.9"></path><path d="M 536.00 578.70 L 535.20 583.20 L 532.80 587.60 L 530.50 590.20 L 527.50 592.70 L 523.70 595.10 L 519.60 597.00 L 515.10 598.70 L 510.10 600.10 L 505.00 601.00 L 499.70 601.60 L 494.10 601.80 L 488.50 601.60 L 483.20 601.00 L 478.10 600.10 L 473.10 598.70 L 468.60 597.00 L 464.50 595.10 L 460.70 592.70 L 457.70 590.20 L 455.40 587.60 L 453.00 583.20 L 452.20 578.70 L 453.00 574.20 L 455.40 569.80 L 457.70 567.20 L 460.70 564.70 L 464.50 562.30 L 468.60 560.40 L 473.10 558.70 L 478.10 557.30 L 483.20 556.40 L 488.50 555.80 L 494.10 555.60 L 499.70 555.80 L 505.00 556.40 L 510.10 557.30 L 515.10 558.70 L 519.60 560.40 L 523.70 562.30 L 527.50 564.70 L 530.50 567.20 L 532.80 569.80 L 535.20 574.20 L 536.00 578.70 Z" fill="#dc6965" fill-rule="nonzero" group-id="1" node-id="87" stroke="none" target-height="46.200012" target-width="83.79999" target-x="452.2" target-y="555.6"></path><path d="M 347.20 442.60 L 362.50 454.10 L 363.70 454.60 L 364.70 454.60 L 365.60 454.10 L 366.70 452.20 L 366.80 451.00 L 366.40 449.90 L 365.50 448.90 L 350.20 437.40 L 349.10 436.90 L 348.00 436.90 L 347.10 437.40 L 346.00 439.30 L 346.00 440.50 L 346.30 441.60 L 347.20 442.60 Z" fill="#1e2c3f" fill-rule="nonzero" group-id="1" node-id="89" stroke="none" target-height="17.700012" target-width="20.799988" target-x="346" target-y="436.9"></path><path d="M 426.30 432.00 L 411.30 444.50 L 410.50 445.60 L 410.30 446.60 L 410.60 447.60 L 412.20 449.20 L 413.30 449.50 L 414.40 449.40 L 415.60 448.80 L 430.60 436.20 L 431.40 435.20 L 431.60 434.20 L 431.30 433.20 L 429.80 431.60 L 428.70 431.30 L 427.50 431.40 L 426.30 432.00 Z" fill="#1e2c3f" fill-rule="nonzero" group-id="1" node-id="91" stroke="none" target-height="18.200012" target-width="21.300018" target-x="410.3" target-y="431.3"></path><path d="M 382.20 431.90 L 384.30 446.90 L 384.70 448.10 L 385.50 448.80 L 386.40 449.00 L 388.60 448.40 L 389.40 447.60 L 390.00 446.60 L 390.00 445.30 L 388.00 430.30 L 387.50 429.10 L 386.80 428.40 L 385.80 428.10 L 383.60 428.70 L 382.80 429.50 L 382.30 430.50 L 382.20 431.90 Z" fill="#1e2c3f" fill-rule="nonzero" group-id="1" node-id="93" stroke="none" target-height="20.899994" target-width="7.799988" target-x="382.2" target-y="428.1"></path><path d="M 633.60 463.90 L 632.80 468.60 L 630.50 473.20 L 628.30 475.90 L 625.60 478.40 L 622.20 480.80 L 618.50 482.80 L 614.40 484.50 L 609.80 485.90 L 605.10 487.00 L 600.00 487.60 L 594.60 487.80 L 589.20 487.60 L 584.20 487.00 L 579.50 485.90 L 574.80 484.50 L 570.70 482.80 L 567.10 480.80 L 563.70 478.40 L 560.90 475.90 L 558.70 473.20 L 557.40 470.90 L 555.90 466.30 L 555.70 463.90 L 555.90 461.40 L 557.40 456.80 L 558.70 454.50 L 560.90 451.80 L 563.70 449.30 L 567.10 446.90 L 570.70 444.90 L 574.80 443.20 L 579.50 441.80 L 584.20 440.70 L 589.20 440.10 L 594.60 439.90 L 600.00 440.10 L 605.10 440.70 L 609.80 441.80 L 614.40 443.20 L 618.50 444.90 L 622.20 446.90 L 625.60 449.30 L 628.30 451.80 L 630.50 454.50 L 632.80 459.10 L 633.60 463.90 Z" fill="#1e2c3f" fill-rule="nonzero" group-id="1" node-id="95" stroke="none" target-height="47.899994" target-width="77.89996" target-x="555.7" target-y="439.9"></path><path d="M 548.30 442.60 L 563.50 454.10 L 564.70 454.60 L 565.70 454.60 L 566.60 454.10 L 567.40 453.20 L 567.80 451.00 L 567.40 449.90 L 566.50 448.90 L 551.30 437.40 L 550.10 436.90 L 549.10 436.90 L 548.20 437.40 L 547.50 438.30 L 547.00 440.50 L 547.40 441.60 L 548.30 442.60 Z" fill="#1e2c3f" fill-rule="nonzero" group-id="1" node-id="97" stroke="none" target-height="17.700012" target-width="20.799988" target-x="547" target-y="436.9"></path><path d="M 627.40 432.00 L 612.40 444.50 L 611.60 445.60 L 611.40 446.60 L 611.60 447.60 L 613.20 449.20 L 614.30 449.50 L 615.40 449.40 L 616.60 448.80 L 631.60 436.20 L 632.40 435.20 L 632.60 434.20 L 632.40 433.20 L 630.80 431.60 L 629.70 431.30 L 628.60 431.40 L 627.40 432.00 Z" fill="#1e2c3f" fill-rule="nonzero" group-id="1" node-id="99" stroke="none" target-height="18.200012" target-width="21.199951" target-x="611.4" target-y="431.3"></path><path d="M 583.20 431.90 L 585.30 446.90 L 585.70 448.10 L 586.50 448.80 L 587.50 449.00 L 589.60 448.40 L 590.50 447.60 L 591.00 446.60 L 591.10 445.30 L 589.00 430.30 L 588.60 429.10 L 587.80 428.40 L 586.80 428.10 L 584.70 428.70 L 583.80 429.50 L 583.30 430.50 L 583.20 431.90 Z" fill="#1e2c3f" fill-rule="nonzero" group-id="1" node-id="101" stroke="none" target-height="20.899994" target-width="7.8999634" target-x="583.2" target-y="428.1"></path><path d="M 332.80 411.80 L 338.10 408.70 L 343.50 406.00 L 349.20 403.80 L 355.00 401.90 L 367.00 399.30 L 379.30 398.20 L 387.50 398.20 L 395.70 398.90 L 403.90 400.10 L 411.90 401.90 L 419.60 404.30 L 427.00 407.10 L 428.30 407.40 L 429.40 407.20 L 430.40 406.60 L 431.50 404.70 L 431.50 403.60 L 431.00 402.70 L 430.00 402.00 L 423.20 399.30 L 416.40 397.00 L 409.50 395.20 L 402.60 393.80 L 395.60 392.80 L 388.50 392.30 L 381.50 392.20 L 374.40 392.60 L 367.30 393.50 L 360.10 394.90 L 352.30 396.90 L 344.40 399.50 L 334.40 403.90 L 329.80 406.70 L 328.80 407.60 L 328.40 408.60 L 328.50 409.80 L 329.60 411.70 L 330.50 412.20 L 331.60 412.30 L 332.80 411.80 Z" fill="#1e2c3f" fill-rule="nonzero" group-id="1" node-id="103" stroke="none" target-height="20.099976" target-width="103.100006" target-x="328.4" target-y="392.2"></path><path d="M 541.10 411.80 L 546.40 408.70 L 551.80 406.00 L 557.40 403.80 L 563.30 401.90 L 575.30 399.30 L 587.60 398.20 L 595.80 398.20 L 604.00 398.90 L 612.20 400.10 L 620.20 401.90 L 627.90 404.30 L 635.20 407.10 L 636.60 407.40 L 637.70 407.20 L 638.70 406.60 L 639.80 404.70 L 639.80 403.60 L 639.30 402.70 L 638.20 402.00 L 631.50 399.30 L 624.70 397.00 L 617.80 395.20 L 610.90 393.80 L 603.90 392.80 L 596.80 392.30 L 589.80 392.20 L 582.70 392.60 L 575.60 393.50 L 568.40 394.90 L 560.60 396.90 L 552.70 399.50 L 542.70 403.90 L 538.10 406.70 L 537.10 407.60 L 536.70 408.60 L 536.80 409.80 L 537.90 411.70 L 538.80 412.20 L 539.90 412.30 L 541.10 411.80 Z" fill="#1e2c3f" fill-rule="nonzero" group-id="1" node-id="105" stroke="none" target-height="20.099976" target-width="103.099976" target-x="536.7" target-y="392.2"></path><path d="M 739.60 405.00 L 736.10 408.90 L 730.40 413.90 L 724.20 417.60 L 718.60 419.20 L 715.70 419.40 L 712.70 419.00 L 709.60 418.00 L 705.20 415.40 L 700.50 410.60 L 698.90 407.10 L 697.40 398.40 L 693.90 354.40 L 692.00 342.70 L 690.80 339.10 L 689.90 337.60 L 689.00 336.80 L 688.20 336.40 L 682.90 337.20 L 679.40 336.40 L 677.30 335.30 L 675.30 333.60 L 672.10 329.00 L 669.50 323.10 L 666.70 313.00 L 662.60 287.80 L 660.70 281.60 L 659.10 277.30 L 657.60 274.40 L 656.20 272.40 L 654.90 271.10 L 653.70 270.50 L 652.60 270.30 L 651.00 270.50 L 649.20 271.50 L 647.20 273.40 L 644.50 276.90 L 638.40 287.60 L 624.10 315.10 L 620.10 321.80 L 614.20 330.00 L 607.90 336.70 L 604.60 339.30 L 601.20 341.30 L 598.50 342.40 L 595.80 343.10 L 592.90 343.50 L 590.00 343.30 L 525.80 334.60 L 523.70 334.10 L 521.40 333.00 L 518.70 331.30 L 514.90 328.30 L 496.40 311.70 L 491.20 307.80 L 487.60 305.50 L 480.00 302.10 L 476.10 301.00 L 472.00 300.60 L 467.80 300.80 L 465.10 301.50 L 462.50 302.80 L 460.10 304.70 L 457.90 307.10 L 453.40 313.10 L 443.20 330.00 L 439.30 336.00 L 433.30 343.30 L 430.00 346.70 L 426.30 349.70 L 422.30 352.30 L 417.80 354.50 L 414.40 355.70 L 406.50 357.30 L 398.00 357.80 L 393.60 358.70 L 388.70 360.20 L 378.90 364.50 L 365.70 372.30 L 357.50 377.90 L 349.50 384.00 L 333.90 397.00 L 320.00 410.20 L 314.20 416.20 L 304.80 427.10 L 301.80 429.80 L 298.50 430.90 L 296.20 431.00 L 293.70 430.70 L 290.90 429.80 L 286.80 428.00 L 282.30 425.50 L 268.00 417.00 L 263.20 414.60 L 256.60 412.20 L 253.40 411.60 L 250.20 411.40 L 247.10 411.70 L 244.00 412.60 L 241.80 413.60 L 237.50 416.90 L 235.20 419.40 L 232.70 423.00 L 230.10 427.70 L 227.50 433.90 L 225.30 440.20 L 223.20 448.00 L 221.10 457.70 L 216.50 450.40 L 209.60 437.60 L 205.60 428.80 L 201.80 419.30 L 198.00 408.10 L 195.70 400.40 L 191.90 383.10 L 190.50 374.10 L 189.50 364.50 L 189.00 354.40 L 189.00 344.30 L 189.60 333.80 L 190.90 322.80 L 192.30 314.60 L 194.20 306.20 L 196.50 297.60 L 199.30 288.80 L 202.60 280.20 L 206.40 271.50 L 210.80 262.50 L 215.90 253.30 L 192.90 244.40 L 195.10 235.20 L 199.70 220.00 L 203.30 210.10 L 207.40 199.70 L 212.80 188.10 L 216.70 180.30 L 226.10 163.80 L 231.50 155.60 L 237.40 147.30 L 244.00 139.00 L 250.90 131.00 L 258.50 123.10 L 266.80 115.40 L 265.90 111.00 L 266.10 105.10 L 267.90 99.10 L 269.40 96.10 L 271.60 92.70 L 274.60 89.10 L 277.90 85.70 L 282.30 82.20 L 287.90 78.40 L 293.70 75.10 L 301.10 71.60 L 310.00 68.00 L 319.20 65.00 L 330.10 62.00 L 343.20 59.10 L 356.30 56.60 L 371.70 54.40 L 389.50 52.40 L 513.60 43.70 L 525.80 43.20 L 537.90 43.20 L 550.00 43.90 L 561.90 45.10 L 573.80 47.00 L 585.60 49.30 L 597.20 52.30 L 608.70 55.90 L 620.00 59.90 L 631.10 64.60 L 641.90 69.80 L 652.60 75.50 L 663.00 81.70 L 673.10 88.50 L 682.90 95.80 L 699.50 109.20 L 705.00 114.10 L 718.10 126.90 L 725.40 135.00 L 733.30 144.80 L 743.70 159.10 L 748.90 167.40 L 753.80 175.80 L 758.50 184.90 L 763.10 194.60 L 767.10 204.60 L 770.80 215.20 L 774.00 226.50 L 776.00 235.00 L 777.70 243.80 L 779.00 253.10 L 780.00 262.70 L 760.70 375.20 L 757.50 376.20 L 755.20 377.50 L 752.80 379.30 L 748.20 384.40 L 744.40 390.90 L 742.70 394.70 L 739.60 405.00 Z" fill="#e5afa1" fill-rule="nonzero" group-id="1" node-id="107" stroke="none" target-height="414.5" target-width="591" target-x="189" target-y="43.2"></path><path d="M 735.30 392.00 L 731.80 395.90 L 725.90 400.90 L 719.60 404.60 L 713.90 406.20 L 710.90 406.40 L 707.90 406.00 L 704.70 405.00 L 700.30 402.40 L 695.40 397.60 L 693.90 394.00 L 692.30 385.40 L 688.70 341.40 L 687.90 335.30 L 686.30 328.30 L 685.50 326.10 L 684.60 324.60 L 683.80 323.80 L 682.90 323.40 L 679.50 324.00 L 675.60 324.00 L 673.90 323.40 L 671.70 322.30 L 669.80 320.60 L 666.40 316.00 L 663.80 310.10 L 660.90 300.00 L 656.80 274.80 L 654.90 268.60 L 653.20 264.30 L 651.70 261.40 L 650.30 259.40 L 648.90 258.10 L 647.70 257.50 L 646.50 257.20 L 644.90 257.50 L 643.10 258.50 L 641.10 260.40 L 638.30 263.90 L 632.10 274.60 L 617.50 302.10 L 613.40 308.80 L 607.40 317.00 L 601.00 323.70 L 597.60 326.30 L 594.20 328.30 L 591.40 329.40 L 588.60 330.10 L 585.70 330.40 L 582.70 330.30 L 517.20 321.60 L 515.10 321.10 L 512.70 320.00 L 510.00 318.30 L 506.10 315.30 L 487.30 298.70 L 481.90 294.80 L 478.20 292.50 L 470.50 289.10 L 466.50 288.00 L 462.40 287.60 L 458.10 287.80 L 455.30 288.50 L 452.70 289.80 L 450.20 291.70 L 447.90 294.10 L 443.30 300.10 L 433.00 317.00 L 428.90 322.90 L 422.90 330.30 L 419.40 333.70 L 415.70 336.70 L 411.60 339.30 L 407.10 341.50 L 403.50 342.70 L 395.50 344.30 L 386.80 344.80 L 382.30 345.70 L 377.40 347.20 L 367.40 351.50 L 353.90 359.30 L 345.50 364.90 L 337.30 371.00 L 321.40 384.00 L 307.30 397.20 L 301.30 403.20 L 291.70 414.10 L 288.60 416.80 L 285.40 417.90 L 283.00 418.00 L 280.40 417.70 L 277.60 416.80 L 273.40 415.00 L 268.70 412.50 L 254.20 404.00 L 249.30 401.60 L 242.60 399.20 L 239.30 398.60 L 236.10 398.40 L 232.90 398.70 L 229.70 399.60 L 227.50 400.60 L 223.00 403.90 L 220.80 406.40 L 218.20 410.00 L 215.50 414.70 L 212.80 420.90 L 210.60 427.20 L 208.50 435.00 L 206.30 444.70 L 199.70 438.50 L 189.50 427.30 L 183.40 419.70 L 175.40 408.10 L 167.40 394.40 L 163.80 386.90 L 160.50 378.80 L 157.50 370.50 L 155.10 361.80 L 153.10 352.50 L 152.10 345.40 L 151.50 338.20 L 151.20 330.60 L 151.50 322.80 L 152.10 315.10 L 153.30 307.10 L 155.10 298.80 L 157.50 290.20 L 160.40 281.90 L 164.00 273.30 L 168.30 264.40 L 173.50 255.20 L 177.60 231.40 L 181.90 215.00 L 188.10 197.10 L 192.40 186.70 L 197.80 175.10 L 201.80 167.30 L 211.50 150.80 L 216.90 142.60 L 223.00 134.30 L 229.70 126.00 L 236.70 118.00 L 244.50 110.10 L 252.90 102.40 L 252.00 98.00 L 252.30 92.10 L 254.10 86.10 L 255.60 83.10 L 257.80 79.70 L 260.90 76.10 L 264.30 72.70 L 268.70 69.20 L 274.50 65.40 L 280.40 62.10 L 287.90 58.60 L 297.10 55.00 L 306.40 52.00 L 317.60 49.00 L 330.90 46.10 L 344.30 43.60 L 360.00 41.40 L 378.10 39.40 L 504.80 30.70 L 517.30 30.20 L 529.60 30.20 L 541.90 30.90 L 554.10 32.10 L 566.30 34.00 L 578.30 36.40 L 590.10 39.30 L 601.90 42.90 L 613.40 47.00 L 624.70 51.60 L 635.80 56.80 L 646.70 62.50 L 657.20 68.70 L 667.50 75.50 L 677.50 82.80 L 694.50 96.20 L 706.10 106.60 L 713.40 114.00 L 720.80 122.00 L 729.00 131.80 L 739.50 146.10 L 744.90 154.40 L 749.90 162.80 L 754.70 171.90 L 759.30 181.70 L 763.40 191.60 L 767.20 202.20 L 770.50 213.50 L 772.50 222.00 L 774.20 230.90 L 775.60 240.10 L 776.60 249.70 L 778.60 397.70 L 771.20 391.50 L 763.70 386.40 L 759.50 384.10 L 755.20 382.20 L 749.50 380.80 L 746.90 380.60 L 744.30 381.00 L 742.00 381.80 L 739.90 383.30 L 737.40 386.60 L 735.30 392.00 Z" fill="#7a4a3d" fill-rule="nonzero" group-id="1" node-id="109" stroke="none" target-height="414.5" target-width="627.39996" target-x="151.2" target-y="30.2"></path><path d="M 626.20 54.20 L 624.60 74.20 L 623.30 96.00 L 622.30 122.70 L 622.10 137.20 L 622.50 167.50 L 623.30 182.60 L 624.50 197.50 L 626.20 211.40 L 629.50 228.90 L 631.50 236.50 L 635.20 247.40 L 639.50 255.90 L 642.10 259.80 L 644.80 262.90 L 647.70 265.40 L 650.70 267.40 L 651.60 283.30 L 653.30 295.40 L 654.70 301.80 L 656.50 308.10 L 658.70 314.10 L 660.50 318.00 L 664.70 324.60 L 667.30 327.40 L 670.10 329.70 L 673.20 331.50 L 675.70 332.50 L 678.40 333.10 L 681.40 333.30 L 687.50 333.10 L 689.90 333.50 L 691.90 334.30 L 693.60 335.50 L 695.60 337.60 L 697.20 340.40 L 698.50 343.90 L 700.20 351.70 L 701.40 363.30 L 702.30 378.00 L 703.70 389.60 L 704.70 393.70 L 707.00 400.00 L 708.40 402.20 L 711.70 405.60 L 713.70 406.70 L 716.10 407.50 L 718.80 407.80 L 722.10 407.70 L 725.20 407.10 L 728.90 406.00 L 733.30 404.20 L 738.40 401.70 L 742.20 398.70 L 748.50 395.40 L 752.60 394.20 L 758.60 393.50 L 762.00 393.70 L 765.40 394.30 L 768.90 395.60 L 772.70 397.60 L 776.30 400.00 L 780.10 403.40 L 784.10 407.80 L 785.30 408.90 L 786.20 409.20 L 787.00 409.10 L 787.90 408.50 L 788.80 407.10 L 790.00 404.30 L 791.10 399.90 L 792.80 386.70 L 793.50 368.90 L 793.40 353.90 L 792.80 336.20 L 791.50 317.80 L 789.40 297.50 L 787.70 283.80 L 783.10 255.20 L 780.40 240.70 L 773.60 211.60 L 769.60 197.10 L 765.20 182.90 L 760.30 169.10 L 752.20 148.80 L 743.10 129.90 L 738.00 120.80 L 732.70 112.20 L 727.10 104.10 L 721.40 96.50 L 715.10 89.20 L 708.60 82.60 L 701.90 76.60 L 694.90 71.20 L 689.00 67.30 L 682.90 63.90 L 676.60 60.90 L 670.10 58.40 L 663.30 56.30 L 656.50 54.80 L 649.40 53.80 L 642.00 53.40 L 634.30 53.50 L 626.20 54.20 Z" fill="#7a4a3d" fill-rule="nonzero" group-id="1" node-id="111" stroke="none" target-height="355.80002" target-width="171.40002" target-x="622.1" target-y="53.4"></path><path d="M 619.90 980.00 L 635.50 974.80 L 647.70 970.20 L 665.10 963.10 L 691.40 951.40 L 707.90 943.50 L 657.70 752.30 L 655.70 745.70 L 653.30 739.40 L 650.30 733.40 L 646.80 727.60 L 642.90 722.20 L 638.60 717.10 L 633.80 712.30 L 628.60 707.90 L 623.50 704.40 L 609.70 696.90 L 584.80 684.60 L 569.50 679.50 L 562.70 677.60 L 558.20 676.70 L 555.70 680.90 L 553.40 683.90 L 550.50 687.10 L 546.30 690.70 L 539.20 695.30 L 534.30 697.70 L 529.40 699.70 L 523.50 701.50 L 516.40 703.30 L 509.30 704.50 L 501.00 705.50 L 491.30 706.10 L 484.90 706.00 L 479.20 705.50 L 474.00 704.60 L 468.90 703.20 L 460.30 699.80 L 453.00 695.40 L 445.90 689.50 L 440.10 682.80 L 438.40 680.20 L 436.70 676.70 L 429.70 678.00 L 418.10 681.00 L 404.10 685.20 L 377.60 693.90 L 371.60 696.60 L 362.00 702.20 L 352.20 709.60 L 343.70 717.60 L 339.60 722.10 L 331.40 733.00 L 327.60 739.00 L 324.10 745.70 L 320.70 753.20 L 309.30 960.80 L 325.40 967.40 L 341.20 973.20 L 356.70 978.30 L 371.80 982.60 L 387.30 986.50 L 402.30 989.70 L 417.00 992.30 L 431.20 994.30 L 445.80 995.80 L 459.80 996.90 L 473.50 997.60 L 500.10 997.60 L 512.90 997.10 L 537.20 995.20 L 553.10 993.30 L 568.00 991.10 L 581.90 988.60 L 595.80 985.80 L 619.90 980.00 Z" fill="#f4d5c1" fill-rule="nonzero" group-id="1" node-id="113" stroke="none" target-height="320.89996" target-width="398.60004" target-x="309.3" target-y="676.7"></path><path d="M 391.60 689.10 L 439.40 760.10 L 446.10 765.60 L 451.20 768.90 L 456.90 772.10 L 463.70 775.40 L 470.90 778.30 L 478.90 780.90 L 490.10 783.30 L 496.10 784.00 L 502.00 784.30 L 508.10 784.20 L 514.30 783.50 L 520.70 782.50 L 531.90 779.80 L 537.10 778.10 L 542.10 776.00 L 546.80 773.60 L 551.20 770.80 L 555.60 767.40 L 560.10 763.30 L 564.20 758.90 L 568.60 753.50 L 573.20 747.20 L 575.90 742.90 L 580.40 733.90 L 583.80 724.30 L 591.40 687.90 L 601.40 692.30 L 611.20 697.20 L 621.90 703.30 L 631.70 710.10 L 634.60 712.60 L 638.90 717.30 L 647.40 868.40 L 655.40 967.00 L 642.80 972.00 L 632.30 975.70 L 620.50 979.40 L 594.70 986.20 L 569.60 991.20 L 556.30 993.30 L 541.90 995.20 L 514.80 997.40 L 490.10 998.10 L 476.90 997.90 L 463.90 997.40 L 450.50 996.40 L 436.70 994.90 L 422.40 993.00 L 408.30 990.70 L 393.90 987.70 L 379.10 984.20 L 364.00 980.00 L 404.20 859.80 L 351.80 709.90 L 359.20 703.90 L 363.00 701.30 L 372.80 695.70 L 382.80 691.50 L 391.60 689.10 Z" fill="#abc699" fill-rule="nonzero" group-id="1" node-id="115" stroke="none" target-height="310.19995" target-width="303.60004" target-x="351.8" target-y="687.9"></path><path d="M 351.80 709.90 L 360.70 891.90 L 364.00 980.00 L 379.90 984.10 L 395.30 987.60 L 410.20 990.50 L 424.70 992.80 L 439.40 994.70 L 453.50 996.10 L 467.20 997.10 L 493.60 997.80 L 506.30 997.60 L 529.90 996.30 L 545.40 994.80 L 559.60 993.00 L 585.60 988.50 L 607.40 983.40 L 622.10 979.20 L 633.50 975.60 L 643.50 972.00 L 655.40 967.00 L 656.20 962.10 L 656.20 952.60 L 655.60 945.60 L 654.40 938.00 L 652.30 928.30 L 644.80 929.00 L 637.40 929.20 L 629.80 928.90 L 622.20 928.20 L 614.50 927.00 L 605.10 925.00 L 595.60 922.40 L 586.00 919.20 L 576.30 915.40 L 566.90 911.20 L 557.40 906.50 L 547.90 901.30 L 538.40 895.70 L 526.10 887.70 L 513.90 879.20 L 501.80 870.10 L 489.90 860.60 L 478.40 850.80 L 467.20 840.70 L 445.60 820.10 L 420.90 794.40 L 407.70 779.80 L 384.50 752.50 L 366.90 730.30 L 351.80 709.90 Z" fill="#6c8959" fill-rule="nonzero" group-id="1" node-id="117" stroke="none" target-height="287.89996" target-width="304.40002" target-x="351.8" target-y="709.9"></path><path d="M 0.00 396.70 L 30.80 383.90 L 67.00 369.90 L 114.80 352.50 L 142.10 343.10 L 172.80 333.00 L 204.60 323.00 L 239.20 312.60 L 287.10 299.30 L 338.00 286.40 L 364.20 280.30 L 391.20 274.40 L 418.20 268.90 L 445.70 263.90 L 473.60 259.10 L 501.50 254.90 L 529.70 251.20 L 558.00 248.10 L 579.40 246.10 L 621.90 243.40 L 643.10 242.60 L 664.30 242.20 L 685.40 242.30 L 706.30 242.80 L 727.00 243.90 L 747.70 245.40 L 768.20 247.50 L 788.40 250.10 L 808.30 253.20 L 824.20 256.20 L 839.80 259.50 L 855.20 263.30 L 870.40 267.40 L 885.30 271.90 L 900.10 276.90 L 914.60 282.30 L 928.80 288.20 L 942.80 294.40 L 956.40 301.20 L 944.30 290.10 L 934.10 281.30 L 907.50 259.80 L 891.00 247.60 L 871.50 233.80 L 843.10 215.30 L 827.00 205.40 L 810.70 196.00 L 793.30 186.60 L 774.80 177.10 L 746.30 163.70 L 715.60 151.00 L 699.90 145.10 L 683.80 139.60 L 667.30 134.40 L 650.20 129.50 L 633.20 125.10 L 615.70 121.20 L 597.80 117.70 L 579.50 114.80 L 564.90 112.90 L 550.10 111.40 L 535.00 110.30 L 519.80 109.60 L 504.20 109.30 L 488.80 109.40 L 473.20 110.10 L 457.40 111.30 L 441.40 113.00 L 425.10 115.20 L 409.10 117.90 L 392.90 121.20 L 376.50 125.10 L 359.90 129.70 L 343.00 134.90 L 326.60 140.50 L 309.90 146.90 L 293.10 154.00 L 276.00 161.90 L 258.60 170.50 L 244.70 178.00 L 230.70 186.10 L 216.50 194.70 L 202.10 204.00 L 187.50 213.90 L 172.80 224.50 L 158.80 235.20 L 144.60 246.50 L 130.30 258.50 L 115.80 271.30 L 101.20 284.80 L 86.30 299.20 L 72.30 313.30 L 58.20 328.30 L 43.90 344.00 L 29.40 360.70 L 14.80 378.20 L 0.00 396.70 Z" fill="#ffda3e" fill-rule="nonzero" group-id="1" node-id="119" stroke="none" target-height="287.40002" target-width="956.4" target-x="0" target-y="109.3"></path><path d="M 150.40 209.20 L 153.50 198.80 L 156.40 190.40 L 160.10 181.40 L 168.90 162.30 L 178.60 144.80 L 184.20 135.90 L 190.50 126.60 L 197.70 116.80 L 205.30 107.40 L 213.70 97.70 L 223.10 88.00 L 230.40 81.00 L 238.20 74.00 L 246.60 67.10 L 255.60 60.30 L 264.70 53.90 L 274.50 47.60 L 284.90 41.50 L 295.90 35.70 L 307.10 30.30 L 318.90 25.30 L 331.50 20.50 L 344.90 16.10 L 355.50 13.10 L 378.20 7.80 L 403.20 3.60 L 415.70 2.20 L 428.70 1.10 L 442.40 0.40 L 456.70 0.00 L 471.70 0.10 L 486.10 0.60 L 501.30 1.60 L 517.10 3.10 L 533.70 5.10 L 551.00 7.60 L 567.70 10.50 L 585.10 13.90 L 603.30 17.90 L 622.30 22.60 L 642.10 28.00 L 649.90 30.50 L 657.60 33.40 L 665.30 36.80 L 672.90 40.70 L 682.70 46.40 L 692.40 52.70 L 701.80 59.60 L 710.90 67.00 L 719.70 74.80 L 728.20 82.90 L 736.30 91.40 L 744.10 100.00 L 758.60 117.70 L 765.20 126.50 L 777.10 144.00 L 782.30 152.40 L 791.30 168.50 L 798.00 182.50 L 800.70 189.30 L 802.70 194.90 L 804.60 203.40 L 804.80 206.30 L 804.20 210.00 L 240.40 272.10 L 222.10 272.50 L 207.50 272.30 L 198.20 271.80 L 184.00 270.10 L 177.50 268.90 L 172.30 267.40 L 168.20 265.80 L 164.20 263.90 L 161.00 261.80 L 158.60 259.60 L 156.50 257.00 L 154.80 254.30 L 152.80 248.50 L 151.80 241.80 L 151.40 221.00 L 150.40 209.20 Z" fill="#ffda3e" fill-rule="nonzero" group-id="1" node-id="121" stroke="none" target-height="272.5" target-width="654.4" target-x="150.4" target-y="0"></path><path d="M 819.40 203.00 L 799.60 200.20 L 782.40 198.30 L 762.90 196.60 L 718.70 194.20 L 674.10 193.30 L 650.30 193.40 L 623.80 193.90 L 594.50 194.90 L 565.10 196.50 L 533.20 198.70 L 498.50 201.70 L 445.60 207.40 L 417.00 211.00 L 357.20 219.70 L 326.20 224.80 L 293.70 230.70 L 259.70 237.20 L 226.40 244.00 L 191.70 251.70 L 155.50 260.10 L 117.90 269.40 L 151.80 241.80 L 170.60 235.00 L 186.70 229.80 L 205.00 224.30 L 229.30 217.60 L 265.70 208.80 L 287.80 204.00 L 309.90 199.50 L 334.40 195.10 L 361.30 190.70 L 388.40 186.70 L 417.70 183.00 L 449.40 179.60 L 473.00 177.40 L 523.90 174.00 L 551.30 172.70 L 578.20 171.90 L 606.30 171.40 L 635.60 171.40 L 666.20 171.90 L 696.30 172.80 L 727.50 174.30 L 759.90 176.30 L 793.50 179.00 Z" fill="#ffe67b" fill-rule="nonzero" group-id="1" node-id="123" stroke="none" target-height="98" target-width="701.5" target-x="117.9" target-y="171.4"></path><path d="M 173.90 175.00 L 228.70 196.40 L 280.40 172.50 L 307.50 224.80 L 228.80 209.70 L 143.40 222.80 L 173.90 175.00 Z" fill="#ffffff" fill-rule="nonzero" group-id="1" node-id="125" stroke="none" target-height="52.300003" target-width="164.1" target-x="143.4" target-y="172.5"></path><path d="M 228.80 203.50 L 174.80 302.30 L 212.90 283.50 L 228.80 203.50 Z" fill="#ffffff" fill-rule="nonzero" group-id="1" node-id="127" stroke="none" target-height="98.79999" target-width="54" target-x="174.8" target-y="203.5"></path><path d="M 227.90 203.50 L 269.30 302.30 L 240.10 283.50 L 227.90 203.50 Z" fill="#ffffff" fill-rule="nonzero" group-id="1" node-id="129" stroke="none" target-height="98.79999" target-width="41.399994" target-x="227.9" target-y="203.5"></path><path d="M 452.70 948.50 L 436.00 951.10 L 428.60 966.30 L 421.00 951.20 L 404.20 948.90 L 416.30 937.00 L 413.30 920.30 L 428.30 928.10 L 443.20 920.10 L 440.50 936.80 L 452.70 948.50 Z" fill="#ffda3e" fill-rule="nonzero" group-id="1" node-id="131" stroke="none" target-height="46.200012" target-width="48.5" target-x="404.2" target-y="920.1"></path><path d="M 518.30 842.60 L 501.60 845.20 L 494.20 860.40 L 486.60 845.30 L 469.90 842.90 L 481.90 831.00 L 478.90 814.40 L 493.90 822.10 L 508.90 814.20 L 506.10 830.90 L 518.30 842.60 Z" fill="#ffda3e" fill-rule="nonzero" group-id="1" node-id="133" stroke="none" target-height="46.200012" target-width="48.399994" target-x="469.9" target-y="814.2"></path><path d="M 552.10 956.50 L 535.40 959.00 L 528.00 974.20 L 520.40 959.10 L 503.60 956.80 L 515.70 944.90 L 512.70 928.20 L 527.70 936.00 L 542.60 928.00 L 539.90 944.70 L 552.10 956.50 Z" fill="#ffda3e" fill-rule="nonzero" group-id="1" node-id="135" stroke="none" target-height="46.200012" target-width="48.49997" target-x="503.6" target-y="928"></path><path d="M 577.50 897.30 L 566.80 898.90 L 562.10 908.70 L 557.30 899.00 L 546.60 897.50 L 554.20 889.90 L 552.30 879.30 L 561.90 884.20 L 571.50 879.20 L 569.70 889.80 L 577.50 897.30 Z" fill="#ffda3e" fill-rule="nonzero" group-id="1" node-id="137" stroke="none" target-height="29.5" target-width="30.900024" target-x="546.6" target-y="879.2"></path><path d="M 605.10 794.10 L 594.20 795.80 L 589.40 805.70 L 584.40 795.80 L 573.40 794.30 L 581.30 786.50 L 579.30 775.60 L 589.20 780.70 L 599.00 775.50 L 597.20 786.40 L 605.10 794.10 Z" fill="#ffda3e" fill-rule="nonzero" group-id="1" node-id="139" stroke="none" target-height="30.200012" target-width="31.699951" target-x="573.4" target-y="775.5"></path><path d="M 435.50 815.40 L 424.80 817.00 L 420.10 826.70 L 415.20 817.10 L 404.50 815.60 L 412.20 808.00 L 410.30 797.30 L 419.90 802.30 L 429.50 797.20 L 427.70 807.90 L 435.50 815.40 Z" fill="#ffda3e" fill-rule="nonzero" group-id="1" node-id="141" stroke="none" target-height="29.5" target-width="31" target-x="404.5" target-y="797.2"></path></g></svg>