<?xml version="1.0" standalone="no"?><!DOCTYPE svg PUBLIC "-//W3C//DTD SVG 1.1//EN" "http://www.w3.org/Graphics/SVG/1.1/DTD/svg11.dtd"><svg height="146" node-id="1" sillyvg="true" template-height="146" template-width="112" version="1.1" viewBox="0 0 112 146" width="112" xmlns="http://www.w3.org/2000/svg" xmlns:xlink="http://www.w3.org/1999/xlink"><defs node-id="28"></defs><path d="M 93.70 114.20 L 56.40 94.70 L 55.90 94.70 L 18.70 114.20 L 15.90 116.10 L 13.60 118.50 L 11.70 121.20 L 10.30 124.10 L 9.50 127.30 L 9.20 130.70 L 9.20 145.50 L 103.20 145.50 L 103.20 130.70 L 102.90 127.30 L 102.00 124.10 L 100.60 121.20 L 98.70 118.50 L 96.40 116.10 L 93.70 114.20 Z" fill="#1d99d8" fill-rule="nonzero" node-id="30" stroke="none" target-height="50.800003" target-width="94" target-x="9.2" target-y="94.7"></path><path d="M 74.60 104.20 L 68.90 101.10 L 67.80 99.20 L 67.70 87.60 L 44.70 87.60 L 44.50 99.20 L 43.40 101.10 L 37.70 104.20 L 55.90 125.20 Z" fill="#ffd0b4" fill-rule="nonzero" node-id="32" stroke="none" target-height="37.6" target-width="36.899998" target-x="37.7" target-y="87.6"></path><path d="M 68.70 100.90 L 56.20 118.90 L 43.70 100.90 L 34.20 106.10 L 47.90 145.50 L 64.40 145.50 L 78.20 106.10 L 68.70 100.90 Z" fill="#d4efff" fill-rule="nonzero" node-id="34" stroke="none" target-height="44.6" target-width="43.999996" target-x="34.2" target-y="100.9"></path><path d="M 41.70 125.60 L 41.10 123.90 L 40.50 120.10 L 40.90 115.60 L 42.20 112.90 L 43.30 111.90 L 44.80 112.00 L 46.40 112.40 L 50.20 114.40 L 53.90 118.00 L 53.80 122.30 L 50.20 124.50 L 48.40 125.20 L 44.10 125.90 L 41.70 125.60 Z" fill="#088ab2" fill-rule="nonzero" node-id="36" stroke="none" target-height="14" target-width="13.400002" target-x="40.5" target-y="111.9"></path><path d="M 70.70 125.50 L 71.30 123.80 L 71.90 119.90 L 71.50 115.40 L 70.10 112.80 L 69.10 111.80 L 67.50 111.90 L 66.00 112.30 L 62.10 114.30 L 58.40 117.90 L 58.60 122.20 L 62.20 124.40 L 63.90 125.10 L 68.20 125.80 L 70.70 125.50 Z" fill="#088ab2" fill-rule="nonzero" node-id="38" stroke="none" target-height="14" target-width="13.5" target-x="58.4" target-y="111.8"></path><path d="M 59.10 121.50 L 59.00 122.10 L 58.10 123.00 L 55.10 123.20 L 53.70 122.60 L 53.10 121.20 L 53.30 118.20 L 54.10 117.30 L 56.30 117.50 L 58.30 117.20 L 59.10 118.20 Z" fill="#088ab2" fill-rule="nonzero" node-id="40" stroke="none" target-height="6" target-width="6" target-x="53.1" target-y="117.2"></path><path d="M 22.60 61.10 L 18.40 61.10 L 16.80 61.50 L 14.50 63.10 L 13.40 65.60 L 13.30 67.10 L 14.10 71.80 L 14.90 73.60 L 17.00 76.40 L 19.10 77.80 L 21.50 78.80 L 26.70 79.40 L 27.70 79.20 L 28.40 78.60 L 28.70 77.50 L 28.60 75.60 L 27.90 73.00 L 25.80 67.60 L 22.60 61.10 Z" fill="#f9d2c2" fill-rule="nonzero" node-id="42" stroke="none" target-height="18.300003" target-width="15.400001" target-x="13.3" target-y="61.1"></path><path d="M 21.60 67.20 L 23.40 67.70 L 23.90 66.60 L 22.50 65.90 L 20.10 65.50 L 18.30 66.20 L 17.30 67.80 L 17.40 70.10 L 18.70 72.10 L 20.40 73.40 L 22.30 74.00 L 23.70 73.90 L 25.10 72.90 L 25.30 72.40 L 24.90 71.50 L 24.10 71.10 L 22.60 71.90 L 20.80 71.80 L 20.00 71.20 L 19.50 70.40 L 19.60 68.60 L 20.10 67.80 L 21.60 67.20 Z" fill="#dda08e" fill-rule="nonzero" node-id="44" stroke="none" target-height="8.5" target-width="8" target-x="17.3" target-y="65.5"></path><path d="M 89.70 61.10 L 93.90 61.10 L 95.50 61.50 L 97.80 63.20 L 98.90 65.60 L 99.10 67.10 L 98.30 71.80 L 97.50 73.60 L 95.30 76.40 L 93.20 77.80 L 90.80 78.80 L 85.60 79.40 L 84.60 79.20 L 84.00 78.60 L 83.70 77.50 L 83.80 75.60 L 84.40 73.00 L 86.50 67.60 L 89.70 61.10 Z" fill="#f9d2c2" fill-rule="nonzero" node-id="46" stroke="none" target-height="18.300003" target-width="15.400002" target-x="83.7" target-y="61.1"></path><path d="M 90.70 67.20 L 89.00 67.70 L 88.50 66.60 L 89.90 65.90 L 92.20 65.50 L 94.00 66.20 L 95.00 67.80 L 94.90 70.10 L 93.70 72.10 L 92.00 73.40 L 90.00 74.00 L 88.60 73.90 L 87.20 72.90 L 87.00 72.40 L 87.40 71.60 L 88.20 71.10 L 89.70 71.90 L 91.60 71.80 L 92.30 71.30 L 92.80 70.40 L 92.80 68.60 L 92.30 67.80 L 90.70 67.20 Z" fill="#dda08e" fill-rule="nonzero" node-id="48" stroke="none" target-height="8.5" target-width="8" target-x="87" target-y="65.5"></path><g node-id="73"><path d="M 56.90 24.90 L 61.60 25.30 L 66.10 26.40 L 70.30 28.00 L 74.20 30.20 L 77.80 32.80 L 81.10 35.90 L 83.90 39.40 L 86.30 43.20 L 88.20 47.40 L 89.60 51.80 L 90.40 56.40 L 90.60 61.30 L 90.20 66.20 L 89.20 70.80 L 87.60 75.20 L 85.50 79.30 L 83.00 83.00 L 80.00 86.40 L 76.60 89.30 L 72.90 91.80 L 68.90 93.80 L 64.60 95.20 L 60.20 96.10 L 55.40 96.30 L 50.70 95.90 L 46.30 94.90 L 42.10 93.20 L 38.10 91.10 L 34.50 88.50 L 31.30 85.40 L 28.40 81.90 L 26.00 78.10 L 24.10 73.90 L 22.70 69.50 L 21.90 64.80 L 21.70 59.90 L 22.10 55.00 L 23.10 50.40 L 24.70 46.10 L 26.80 42.00 L 29.30 38.20 L 32.30 34.90 L 35.70 31.90 L 39.40 29.40 L 43.40 27.40 L 47.70 26.00 L 52.20 25.20 L 56.90 24.90 Z" fill="#ffe2d4" fill-rule="nonzero" group-id="1" node-id="52" stroke="none" target-height="71.4" target-width="68.899994" target-x="21.7" target-y="24.9"></path></g><path d="M 44.10 66.70 L 43.80 68.10 L 43.00 69.30 L 41.90 70.10 L 40.50 70.30 L 39.10 70.10 L 37.90 69.30 L 37.10 68.10 L 36.90 66.70 L 37.10 65.30 L 37.90 64.20 L 39.10 63.40 L 40.50 63.10 L 41.90 63.40 L 43.00 64.20 L 43.80 65.30 L 44.10 66.70 Z" fill="#423f43" fill-rule="nonzero" node-id="55" stroke="none" target-height="7.2000046" target-width="7.199997" target-x="36.9" target-y="63.1"></path><path d="M 46.00 57.30 L 43.60 56.30 L 41.30 56.10 L 39.10 56.30 L 35.60 57.70 L 33.40 59.40 L 39.10 58.90 L 45.60 59.70 L 46.50 59.30 L 46.90 58.40 L 46.00 57.30 Z" fill="#423f43" fill-rule="nonzero" node-id="57" stroke="none" target-height="3.6000023" target-width="13.5" target-x="33.4" target-y="56.1"></path><path d="M 75.50 66.70 L 75.20 68.10 L 74.40 69.30 L 73.30 70.10 L 71.90 70.30 L 70.50 70.10 L 69.30 69.30 L 68.50 68.10 L 68.30 66.70 L 68.50 65.30 L 69.30 64.20 L 70.50 63.40 L 71.90 63.10 L 73.30 63.40 L 74.40 64.20 L 75.20 65.30 L 75.50 66.70 Z" fill="#423f43" fill-rule="nonzero" node-id="59" stroke="none" target-height="7.2000046" target-width="7.199997" target-x="68.3" target-y="63.1"></path><path d="M 66.40 57.30 L 68.80 56.30 L 71.10 56.10 L 73.30 56.30 L 76.80 57.70 L 79.00 59.40 L 73.30 58.90 L 66.70 59.70 L 65.90 59.30 L 65.50 58.40 L 66.40 57.30 Z" fill="#423f43" fill-rule="nonzero" node-id="61" stroke="none" target-height="3.6000023" target-width="13.5" target-x="65.5" target-y="56.1"></path><path d="M 50.10 78.60 L 50.40 80.50 L 51.00 82.30 L 51.90 83.80 L 53.10 84.90 L 54.60 85.60 L 56.10 85.90 L 57.70 85.60 L 59.10 84.90 L 60.40 83.80 L 61.30 82.30 L 61.90 80.60 L 62.10 78.60 Z" fill="#ef9586" fill-rule="nonzero" node-id="63" stroke="none" target-height="7.300003" target-width="12" target-x="50.1" target-y="78.6"></path><path d="M 56.20 69.80 L 54.40 70.50 L 53.70 72.30 L 56.10 71.50 L 58.70 72.30 L 57.90 70.50 L 56.20 69.80 Z" fill="#d1c5c5" fill-rule="nonzero" node-id="65" stroke="none" target-height="2.5" target-width="5" target-x="53.7" target-y="69.8"></path><path d="M 23.50 62.50 L 25.20 49.40 L 25.40 44.60 L 29.50 42.90 L 32.20 41.40 L 34.70 39.40 L 37.20 36.60 L 38.50 34.50 L 39.50 32.00 L 40.10 29.00 L 42.80 32.60 L 45.00 34.80 L 47.60 36.70 L 50.80 38.40 L 53.10 39.20 L 55.60 39.50 L 58.50 39.50 L 61.20 38.90 L 64.30 37.70 L 67.80 35.60 L 69.00 37.70 L 71.60 40.40 L 73.70 41.50 L 76.10 42.30 L 79.30 42.60 L 84.50 53.00 L 88.40 59.00 L 90.50 61.30 L 92.50 60.80 L 95.90 61.60 L 97.20 52.20 L 97.40 47.90 L 97.10 37.50 L 95.40 28.30 L 92.70 21.30 L 90.80 18.00 L 88.50 15.00 L 85.70 12.20 L 83.40 10.70 L 77.20 7.30 L 73.10 5.60 L 68.00 4.00 L 60.80 2.80 L 56.80 2.70 L 52.80 3.00 L 48.70 3.80 L 44.40 5.20 L 41.00 0.00 L 39.80 7.20 L 33.70 4.20 L 36.70 7.60 L 38.00 9.70 L 34.40 10.40 L 29.10 12.50 L 25.90 14.40 L 22.00 18.00 L 18.30 23.00 L 16.70 26.20 L 15.30 30.10 L 14.30 34.10 L 13.70 38.50 L 13.50 47.40 L 13.90 51.70 L 15.40 59.00 L 16.30 61.40 L 19.00 60.70 L 20.80 60.70 L 22.20 61.20 L 23.50 62.50 Z" fill="#423f43" fill-rule="nonzero" node-id="67" stroke="none" target-height="62.5" target-width="83.9" target-x="13.5" target-y="0"></path><path d="M 42.20 79.30 L 41.40 81.20 L 40.40 82.10 L 37.90 83.10 L 36.20 83.30 L 33.10 82.70 L 31.00 81.20 L 30.40 80.30 L 30.20 79.30 L 31.00 77.30 L 33.10 75.80 L 36.20 75.30 L 37.90 75.40 L 40.40 76.40 L 41.40 77.30 L 42.20 79.30 Z" fill="#fcd3c4" fill-rule="nonzero" node-id="69" stroke="none" target-height="8" target-width="12" target-x="30.2" target-y="75.3"></path><path d="M 82.70 79.30 L 81.90 81.20 L 80.90 82.10 L 78.40 83.10 L 76.70 83.30 L 73.60 82.70 L 71.50 81.20 L 70.90 80.30 L 70.70 79.30 L 71.50 77.30 L 73.60 75.80 L 76.70 75.30 L 78.40 75.40 L 80.90 76.40 L 81.90 77.30 L 82.70 79.30 Z" fill="#fcd3c4" fill-rule="nonzero" node-id="71" stroke="none" target-height="8" target-width="12" target-x="70.7" target-y="75.3"></path></svg>