<?xml version="1.0" standalone="no"?><!DOCTYPE svg PUBLIC "-//W3C//DTD SVG 1.1//EN" "http://www.w3.org/Graphics/SVG/1.1/DTD/svg11.dtd"><svg height="146" node-id="1" sillyvg="true" template-height="146" template-width="112" version="1.1" viewBox="0 0 112 146" width="112" xmlns="http://www.w3.org/2000/svg" xmlns:xlink="http://www.w3.org/1999/xlink"><defs node-id="43"></defs><path d="M 78.60 106.60 L 72.80 103.40 L 71.70 101.60 L 71.60 89.00 L 48.20 89.00 L 48.10 101.60 L 47.00 103.40 L 41.20 106.60 L 59.00 116.30 Z" fill="#ffd0b4" fill-rule="nonzero" node-id="45" stroke="none" target-height="27.300003" target-width="37.399998" target-x="41.2" target-y="89"></path><path d="M 59.90 113.90 L 62.60 113.60 L 67.60 112.20 L 72.00 109.40 L 75.40 105.50 L 77.70 100.60 L 71.60 97.90 L 70.50 101.50 L 69.50 103.10 L 67.60 105.10 L 65.40 106.70 L 61.80 107.80 L 59.90 108.00 L 56.10 107.40 L 54.40 106.70 L 52.20 105.10 L 50.30 103.10 L 49.30 101.50 L 48.20 97.90 L 42.10 100.60 L 44.40 105.50 L 46.00 107.50 L 49.90 110.90 L 54.60 113.10 L 59.90 113.90 Z" fill="#ffd0b4" fill-rule="nonzero" node-id="47" stroke="none" target-height="16" target-width="35.6" target-x="42.1" target-y="97.9"></path><path d="M 97.40 109.50 L 77.70 100.60 L 75.40 105.50 L 73.80 107.50 L 69.90 110.90 L 65.20 113.10 L 62.60 113.60 L 59.90 113.80 L 57.20 113.60 L 52.20 112.20 L 47.80 109.40 L 44.40 105.50 L 42.10 100.60 L 22.40 109.50 L 19.70 111.50 L 17.30 113.80 L 15.50 116.50 L 14.10 119.50 L 13.20 122.70 L 12.90 126.10 L 12.90 144.10 L 106.90 144.10 L 106.90 126.10 L 106.60 122.70 L 105.70 119.50 L 104.30 116.50 L 102.50 113.80 L 100.20 111.50 L 97.40 109.50 Z" fill="#1d99d8" fill-rule="nonzero" node-id="49" stroke="none" target-height="43.500008" target-width="94" target-x="12.9" target-y="100.6"></path><path d="M 40.50 101.40 L 34.00 104.30 L 34.00 127.40 L 40.50 127.40 L 40.50 101.40 Z" fill="#d4efff" fill-rule="nonzero" node-id="51" stroke="none" target-height="26" target-width="6.5" target-x="34" target-y="101.4"></path><path d="M 85.80 104.30 L 79.30 101.40 L 79.30 127.40 L 85.80 127.40 L 85.80 104.30 Z" fill="#d4efff" fill-rule="nonzero" node-id="53" stroke="none" target-height="26" target-width="6.5" target-x="79.3" target-y="101.4"></path><path d="M 83.50 123.20 L 36.30 123.20 L 30.00 134.60 L 30.00 144.00 L 89.80 144.00 L 89.80 134.60 L 83.50 123.20 Z" fill="#d4efff" fill-rule="nonzero" node-id="55" stroke="none" target-height="20.800003" target-width="59.800003" target-x="30" target-y="123.2"></path><path d="M 80.00 127.30 L 40.40 127.30 L 35.00 136.10 L 35.00 144.00 L 85.30 144.00 L 85.30 136.10 L 80.00 127.30 Z" fill="#a2d1f4" fill-rule="nonzero" node-id="57" stroke="none" target-height="16.699997" target-width="50.300003" target-x="35" target-y="127.3"></path><g node-id="140"><path d="M 54.60 55.00 L 55.50 57.90 L 55.90 60.80 L 55.90 63.70 L 55.50 66.70 L 54.70 69.50 L 53.40 72.30 L 49.90 77.50 L 47.60 79.80 L 42.10 83.70 L 38.90 85.20 L 35.50 86.30 L 28.90 87.30 L 25.60 87.20 L 19.50 86.00 L 16.70 84.80 L 14.10 83.30 L 11.80 81.50 L 9.70 79.40 L 8.00 77.00 L 6.70 74.20 L 5.80 71.30 L 5.30 68.40 L 5.30 65.50 L 5.80 62.50 L 6.60 59.70 L 7.80 56.90 L 11.40 51.70 L 13.70 49.40 L 19.10 45.50 L 22.30 44.00 L 25.70 42.90 L 32.30 41.90 L 35.60 42.00 L 41.70 43.20 L 44.60 44.40 L 47.10 45.90 L 49.50 47.70 L 51.50 49.80 L 53.20 52.20 L 54.60 55.00 Z" fill="#1a92c1" fill-rule="nonzero" group-id="1" node-id="61" stroke="none" target-height="45.4" target-width="50.600002" target-x="5.3" target-y="41.9"></path></g><path d="M 26.30 57.80 L 22.10 57.80 L 20.50 58.20 L 18.10 59.80 L 17.00 62.30 L 16.90 63.80 L 17.70 68.50 L 18.50 70.40 L 20.70 73.10 L 22.80 74.60 L 25.10 75.50 L 30.40 76.20 L 31.40 75.90 L 32.00 75.30 L 32.30 74.30 L 32.20 72.30 L 31.60 69.70 L 29.50 64.30 L 26.30 57.80 Z" fill="#f9d2c2" fill-rule="nonzero" node-id="64" stroke="none" target-height="18.399998" target-width="15.4" target-x="16.9" target-y="57.8"></path><path d="M 25.30 63.90 L 27.00 64.40 L 27.50 63.30 L 26.10 62.60 L 23.70 62.20 L 22.00 62.90 L 21.00 64.50 L 21.00 66.70 L 22.30 68.80 L 24.00 70.00 L 26.00 70.70 L 27.40 70.60 L 28.80 69.60 L 29.00 69.10 L 28.60 68.30 L 27.80 67.80 L 26.30 68.60 L 24.40 68.50 L 23.20 67.10 L 23.20 65.30 L 23.70 64.40 L 25.30 63.90 Z" fill="#dda08e" fill-rule="nonzero" node-id="66" stroke="none" target-height="8.499996" target-width="8" target-x="21" target-y="62.2"></path><path d="M 93.50 57.90 L 97.70 57.90 L 99.40 58.40 L 101.70 60.00 L 102.80 62.50 L 102.90 64.00 L 102.10 68.60 L 101.30 70.50 L 99.10 73.30 L 97.00 74.70 L 94.60 75.60 L 89.40 76.30 L 88.40 76.00 L 87.80 75.40 L 87.50 74.40 L 87.50 72.40 L 88.20 69.80 L 90.30 64.40 L 93.50 57.90 Z" fill="#f9d2c2" fill-rule="nonzero" node-id="68" stroke="none" target-height="18.400002" target-width="15.400002" target-x="87.5" target-y="57.9"></path><path d="M 94.50 64.00 L 92.80 64.50 L 92.30 63.40 L 93.70 62.70 L 96.10 62.30 L 97.80 63.00 L 98.80 64.60 L 98.80 66.90 L 97.50 69.00 L 95.80 70.20 L 93.80 70.90 L 92.40 70.70 L 91.00 69.80 L 90.80 69.20 L 91.20 68.40 L 92.00 68.00 L 93.50 68.80 L 95.40 68.70 L 96.10 68.10 L 96.60 67.30 L 96.50 65.40 L 96.10 64.60 L 94.50 64.00 Z" fill="#dda08e" fill-rule="nonzero" node-id="70" stroke="none" target-height="8.600002" target-width="8" target-x="90.8" target-y="62.3"></path><g node-id="141"><path d="M 60.70 21.80 L 65.40 22.30 L 69.90 23.30 L 74.10 25.00 L 78.00 27.10 L 81.60 29.80 L 84.90 32.90 L 87.70 36.40 L 90.10 40.20 L 92.00 44.40 L 93.40 48.80 L 94.20 53.50 L 94.40 58.40 L 94.00 63.30 L 93.00 67.90 L 91.40 72.30 L 89.30 76.40 L 86.80 80.10 L 83.80 83.50 L 80.40 86.40 L 76.70 88.90 L 72.60 90.90 L 68.30 92.30 L 63.90 93.20 L 59.10 93.40 L 54.40 93.00 L 49.90 91.90 L 45.70 90.30 L 41.80 88.10 L 38.20 85.50 L 34.90 82.40 L 32.10 78.90 L 29.70 75.10 L 27.80 70.90 L 26.40 66.40 L 25.60 61.80 L 25.40 56.90 L 25.80 51.90 L 26.80 47.30 L 28.40 43.00 L 30.50 38.90 L 33.00 35.10 L 36.00 31.80 L 39.40 28.80 L 43.10 26.30 L 47.20 24.40 L 51.50 22.90 L 56.00 22.10 L 60.70 21.80 Z" fill="#ffe2d4" fill-rule="nonzero" group-id="2" node-id="74" stroke="none" target-height="71.600006" target-width="69" target-x="25.4" target-y="21.8"></path></g><path d="M 45.60 74.80 L 44.80 76.80 L 43.90 77.60 L 41.30 78.60 L 39.60 78.80 L 37.90 78.60 L 35.40 77.60 L 34.40 76.80 L 33.60 74.80 L 34.40 72.80 L 35.40 72.00 L 37.90 71.00 L 39.60 70.80 L 41.30 71.00 L 43.90 72.00 L 44.80 72.80 L 45.60 74.80 Z" fill="#fcd3c4" fill-rule="nonzero" node-id="77" stroke="none" target-height="8" target-width="12" target-x="33.6" target-y="70.8"></path><path d="M 86.20 74.80 L 85.40 76.80 L 84.40 77.60 L 81.90 78.60 L 80.20 78.80 L 77.10 78.30 L 75.00 76.80 L 74.40 75.90 L 74.20 74.80 L 75.00 72.80 L 77.10 71.40 L 80.20 70.80 L 81.90 71.00 L 84.40 72.00 L 85.40 72.80 L 86.20 74.80 Z" fill="#fcd3c4" fill-rule="nonzero" node-id="79" stroke="none" target-height="8" target-width="12" target-x="74.2" target-y="70.8"></path><path d="M 47.80 63.50 L 47.50 64.90 L 46.70 66.00 L 45.50 66.80 L 44.20 67.10 L 42.80 66.80 L 41.60 66.00 L 40.80 64.90 L 40.50 63.50 L 40.80 62.10 L 41.60 60.90 L 42.70 60.10 L 44.20 59.90 L 45.60 60.10 L 46.70 60.90 L 47.50 62.10 L 47.80 63.50 Z" fill="#423f43" fill-rule="nonzero" node-id="81" stroke="none" target-height="7.199997" target-width="7.299999" target-x="40.5" target-y="59.9"></path><path d="M 49.70 54.00 L 47.20 53.00 L 45.00 52.80 L 42.80 53.00 L 39.20 54.40 L 37.00 56.10 L 42.70 55.60 L 49.30 56.40 L 50.20 56.00 L 50.50 55.20 L 49.70 54.00 Z" fill="#423f43" fill-rule="nonzero" node-id="83" stroke="none" target-height="3.6000023" target-width="13.5" target-x="37" target-y="52.8"></path><path d="M 79.20 63.50 L 79.00 64.90 L 78.20 66.10 L 77.00 66.90 L 75.60 67.10 L 74.20 66.90 L 73.10 66.10 L 72.30 64.90 L 72.00 63.50 L 72.30 62.10 L 73.10 61.00 L 74.20 60.20 L 75.60 59.90 L 77.00 60.20 L 78.20 61.00 L 79.00 62.10 L 79.20 63.50 Z" fill="#423f43" fill-rule="nonzero" node-id="85" stroke="none" target-height="7.199997" target-width="7.199997" target-x="72" target-y="59.9"></path><path d="M 70.20 54.00 L 72.60 53.10 L 74.90 52.80 L 77.00 53.10 L 80.60 54.40 L 82.80 56.10 L 77.10 55.70 L 70.50 56.40 L 69.70 56.10 L 69.30 55.20 L 70.20 54.00 Z" fill="#423f43" fill-rule="nonzero" node-id="87" stroke="none" target-height="3.6000023" target-width="13.5" target-x="69.3" target-y="52.8"></path><path d="M 53.90 75.40 L 54.10 77.40 L 54.70 79.10 L 55.60 80.60 L 56.90 81.70 L 58.30 82.50 L 59.90 82.70 L 61.50 82.50 L 62.80 81.80 L 64.10 80.60 L 65.00 79.10 L 65.60 77.40 L 65.90 75.40 Z" fill="#ef9586" fill-rule="nonzero" node-id="89" stroke="none" target-height="7.2999954" target-width="12" target-x="53.9" target-y="75.4"></path><path d="M 59.90 66.60 L 58.10 67.30 L 57.40 69.10 L 59.90 68.30 L 62.40 69.10 L 61.70 67.30 L 59.90 66.60 Z" fill="#d1c5c5" fill-rule="nonzero" node-id="91" stroke="none" target-height="2.5" target-width="5" target-x="57.4" target-y="66.6"></path><path d="M 92.90 32.50 L 92.70 32.70 L 88.10 25.40 L 85.00 21.70 L 81.10 17.90 L 75.00 13.60 L 71.20 11.80 L 67.30 10.30 L 63.00 9.10 L 58.00 8.40 L 53.50 8.20 L 49.60 8.60 L 46.20 9.30 L 42.90 10.50 L 40.00 12.00 L 37.40 13.80 L 33.00 18.10 L 28.90 24.30 L 25.70 31.60 L 23.60 39.60 L 23.40 39.50 L 23.30 41.60 L 23.30 46.60 L 23.90 52.70 L 24.50 55.50 L 25.40 57.70 L 26.20 57.30 L 27.80 55.50 L 30.40 52.20 L 31.60 48.00 L 31.90 44.00 L 31.90 42.30 L 31.50 42.20 L 39.40 40.40 L 48.70 39.40 L 48.60 43.20 L 52.50 43.10 L 52.00 45.30 L 52.30 45.50 L 57.40 44.10 L 57.40 47.00 L 61.00 46.40 L 65.90 44.80 L 69.70 42.20 L 71.90 39.20 L 89.10 40.20 L 91.00 44.50 L 92.50 49.10 L 94.40 58.60 L 95.50 57.80 L 97.40 57.80 L 97.90 53.40 L 97.90 49.10 L 97.40 44.70 L 96.40 40.50 L 94.80 36.40 L 92.90 32.50 Z" fill="#423f43" fill-rule="nonzero" node-id="93" stroke="none" target-height="50.399998" target-width="74.600006" target-x="23.3" target-y="8.2"></path><path d="M 96.90 23.10 L 93.00 18.40 L 89.90 15.40 L 85.60 12.10 L 79.00 8.10 L 74.90 6.30 L 70.60 4.80 L 65.90 3.80 L 60.60 3.10 L 55.10 3.80 L 50.30 4.80 L 46.10 6.20 L 42.00 8.00 L 35.30 12.00 L 31.00 15.30 L 27.90 18.30 L 24.00 22.90 L 23.20 25.30 L 23.20 47.30 L 29.20 44.80 L 35.20 42.80 L 41.40 41.20 L 47.70 40.10 L 54.00 39.50 L 60.50 39.30 L 66.90 39.50 L 73.20 40.20 L 79.50 41.30 L 85.70 42.90 L 91.70 44.90 L 97.70 47.40 L 97.70 25.40 L 96.90 23.10 Z M 70.30 36.90 L 60.90 35.70 L 51.20 36.90 L 51.50 32.40 L 52.50 30.20 L 53.90 28.40 L 55.70 27.00 L 57.90 26.10 L 60.30 25.80 L 63.70 26.10 L 65.80 27.10 L 67.70 28.50 L 69.10 30.30 L 70.00 32.50 L 70.30 34.90 Z" fill="#1d99d8" fill-rule="nonzero" node-id="95" stroke="none" target-height="44.300003" target-width="74.5" target-x="23.2" target-y="3.1"></path><g node-id="142"><g node-id="145"><path d="M 27.40 20.50 L 27.80 19.60 L 28.70 19.90 L 28.40 20.90 Z" fill="#ffffff" fill-opacity="0.2" fill-rule="nonzero" group-id="3,6" node-id="101" stroke="none" target-height="1.2999992" target-width="1.3000011" target-x="27.4" target-y="19.6"></path></g><path d="M 48.00 28.90 L 46.00 28.10 L 46.40 27.20 L 48.40 28.00 Z M 44.00 27.30 L 42.00 26.50 L 42.40 25.50 L 44.40 26.40 Z M 40.10 25.70 L 38.10 24.90 L 38.50 24.00 L 40.50 24.80 Z M 36.20 24.10 L 34.20 23.30 L 34.50 22.40 L 36.50 23.20 Z M 32.20 22.50 L 30.20 21.70 L 30.60 20.70 L 32.60 21.50 Z" fill="#ffffff" fill-opacity="0.2" fill-rule="nonzero" group-id="3" node-id="104" stroke="none" target-height="8.199999" target-width="18.2" target-x="30.2" target-y="20.7"></path><g node-id="146"><path d="M 49.90 29.70 L 50.30 28.80 L 51.20 29.10 L 50.90 30.10 Z" fill="#ffffff" fill-opacity="0.2" fill-rule="nonzero" group-id="3,7" node-id="108" stroke="none" target-height="1.3000011" target-width="1.2999992" target-x="49.9" target-y="28.8"></path></g></g><g node-id="143"><g node-id="147"><path d="M 92.00 20.00 L 92.90 19.70 L 93.30 20.60 L 92.40 21.00 Z" fill="#ffffff" fill-opacity="0.2" fill-rule="nonzero" group-id="4,8" node-id="116" stroke="none" target-height="1.2999992" target-width="1.300003" target-x="92" target-y="19.7"></path></g><path d="M 72.70 28.90 L 72.40 28.00 L 74.40 27.20 L 74.70 28.10 Z M 76.70 27.30 L 76.30 26.40 L 78.30 25.60 L 78.70 26.50 Z M 80.60 25.80 L 80.20 24.80 L 82.20 24.00 L 82.60 25.00 Z M 84.50 24.20 L 84.10 23.20 L 86.10 22.40 L 86.50 23.40 Z M 88.40 22.60 L 88.10 21.60 L 90.10 20.80 L 90.40 21.80 Z" fill="#ffffff" fill-opacity="0.2" fill-rule="nonzero" group-id="4" node-id="119" stroke="none" target-height="8.1" target-width="18" target-x="72.4" target-y="20.8"></path><g node-id="148"><path d="M 69.50 29.20 L 70.40 28.80 L 70.80 29.70 L 69.80 30.10 Z" fill="#ffffff" fill-opacity="0.2" fill-rule="nonzero" group-id="4,9" node-id="123" stroke="none" target-height="1.3000011" target-width="1.300003" target-x="69.5" target-y="28.8"></path></g></g><g node-id="144"><g node-id="149"><path d="M 60.10 5.00 L 60.10 4.00 L 61.10 4.00 L 61.10 5.00 Z" fill="#ffffff" fill-opacity="0.2" fill-rule="nonzero" group-id="5,10" node-id="131" stroke="none" target-height="1" target-width="1" target-x="60.1" target-y="4"></path></g><path d="M 61.10 21.50 L 60.10 21.50 L 60.10 19.40 L 61.10 19.40 Z M 61.10 17.40 L 60.10 17.40 L 60.10 15.30 L 61.10 15.30 Z M 61.10 13.20 L 60.10 13.20 L 60.10 11.20 L 61.10 11.20 Z M 61.10 9.10 L 60.10 9.10 L 60.10 7.00 L 61.10 7.00 Z" fill="#ffffff" fill-opacity="0.2" fill-rule="nonzero" group-id="5" node-id="134" stroke="none" target-height="14.5" target-width="1" target-x="60.1" target-y="7"></path><g node-id="150"><path d="M 60.10 24.60 L 60.10 23.60 L 61.10 23.60 L 61.10 24.60 Z" fill="#ffffff" fill-opacity="0.2" fill-rule="nonzero" group-id="5,11" node-id="138" stroke="none" target-height="1" target-width="1" target-x="60.1" target-y="23.6"></path></g></g></svg>