<?xml version="1.0" standalone="no"?><!DOCTYPE svg PUBLIC "-//W3C//DTD SVG 1.1//EN" "http://www.w3.org/Graphics/SVG/1.1/DTD/svg11.dtd"><svg height="146" node-id="1" sillyvg="true" template-height="146" template-width="112" version="1.1" viewBox="0 0 112 146" width="112" xmlns="http://www.w3.org/2000/svg" xmlns:xlink="http://www.w3.org/1999/xlink"><defs node-id="36"></defs><path d="M 93.30 114.50 L 56.00 95.10 L 55.50 95.10 L 18.30 114.50 L 15.50 116.50 L 13.20 118.80 L 11.30 121.50 L 10.00 124.50 L 9.10 127.60 L 8.80 131.00 L 8.80 145.80 L 102.80 145.80 L 102.80 131.00 L 102.50 127.60 L 101.60 124.50 L 100.20 121.50 L 98.30 118.80 L 96.00 116.50 L 93.30 114.50 Z" fill="#1d99d8" fill-rule="nonzero" node-id="38" stroke="none" target-height="50.700005" target-width="94" target-x="8.8" target-y="95.1"></path><path d="M 74.40 130.40 L 88.40 130.50 L 89.60 131.80 L 89.80 136.20 L 89.10 137.90 L 87.50 138.60 L 73.50 138.40 L 72.20 137.20 L 72.00 132.70 L 72.70 131.10 L 74.40 130.40 Z" fill="#a2d1f4" fill-rule="nonzero" node-id="40" stroke="none" target-height="8.200012" target-width="17.800003" target-x="72" target-y="130.4"></path><path d="M 29.30 145.80 L 44.70 145.80 L 91.60 113.60 L 83.90 109.60 L 29.30 145.80 Z" fill="#a2d1f4" fill-rule="nonzero" node-id="42" stroke="none" target-height="36.200005" target-width="62.3" target-x="29.3" target-y="109.6"></path><path d="M 59.80 111.90 L 59.50 113.50 L 58.60 114.70 L 57.40 115.60 L 55.80 115.90 L 54.20 115.60 L 52.90 114.70 L 52.10 113.50 L 51.80 111.90 L 52.10 110.30 L 52.90 109.00 L 54.20 108.20 L 55.80 107.80 L 57.40 108.20 L 58.60 109.00 L 59.50 110.30 L 59.80 111.90 Z" fill="#d4efff" fill-rule="nonzero" node-id="44" stroke="none" target-height="8.099998" target-width="8" target-x="51.8" target-y="107.8"></path><path d="M 74.20 104.60 L 68.50 101.40 L 67.40 99.60 L 67.30 87.90 L 44.30 87.90 L 44.10 99.60 L 43.00 101.40 L 37.30 104.60 Z" fill="#ffd0b4" fill-rule="nonzero" node-id="46" stroke="none" target-height="16.699997" target-width="36.899998" target-x="37.3" target-y="87.9"></path><path d="M 68.10 95.90 L 77.60 106.30 L 68.60 112.50 L 67.40 113.00 L 66.10 113.20 L 64.80 112.90 L 63.70 112.20 L 56.30 105.80 L 55.90 104.60 L 56.60 103.50 Z" fill="#d4efff" fill-rule="nonzero" node-id="48" stroke="none" target-height="17.299995" target-width="21.699997" target-x="55.9" target-y="95.9"></path><path d="M 43.50 95.90 L 34.00 106.30 L 43.00 112.50 L 44.20 113.00 L 45.50 113.20 L 46.80 112.90 L 47.90 112.20 L 55.30 105.80 L 55.70 104.60 L 55.00 103.50 Z" fill="#d4efff" fill-rule="nonzero" node-id="50" stroke="none" target-height="17.299995" target-width="21.7" target-x="34" target-y="95.9"></path><path d="M 22.80 60.90 L 18.70 60.90 L 17.10 61.30 L 14.80 62.90 L 13.70 65.40 L 13.60 66.80 L 14.40 71.40 L 15.20 73.30 L 17.30 76.00 L 19.40 77.40 L 21.70 78.30 L 26.80 78.90 L 27.90 78.70 L 28.50 78.10 L 28.80 77.10 L 28.70 75.20 L 28.00 72.60 L 26.00 67.30 L 22.80 60.90 Z" fill="#f9d2c2" fill-rule="nonzero" node-id="52" stroke="none" target-height="18" target-width="15.199999" target-x="13.6" target-y="60.9"></path><path d="M 21.80 66.90 L 23.50 67.40 L 24.00 66.30 L 22.60 65.70 L 20.30 65.30 L 18.60 65.90 L 17.60 67.50 L 17.70 69.70 L 18.90 71.80 L 20.50 73.00 L 22.50 73.60 L 23.90 73.50 L 25.20 72.60 L 25.40 72.00 L 25.00 71.20 L 24.30 70.80 L 22.80 71.50 L 20.90 71.50 L 19.70 70.10 L 19.80 68.30 L 20.30 67.50 L 21.80 66.90 Z" fill="#dda08e" fill-rule="nonzero" node-id="54" stroke="none" target-height="8.299995" target-width="7.799999" target-x="17.6" target-y="65.3"></path><path d="M 88.80 60.90 L 92.90 60.90 L 94.50 61.30 L 96.80 62.90 L 97.90 65.40 L 98.00 66.80 L 97.20 71.40 L 96.40 73.30 L 94.30 76.00 L 92.20 77.40 L 89.90 78.30 L 84.80 78.90 L 83.80 78.70 L 83.20 78.10 L 82.90 77.10 L 82.90 75.20 L 83.60 72.60 L 85.60 67.30 L 88.80 60.90 Z" fill="#f9d2c2" fill-rule="nonzero" node-id="56" stroke="none" target-height="18" target-width="15.099998" target-x="82.9" target-y="60.9"></path><path d="M 89.80 66.90 L 88.10 67.40 L 87.60 66.30 L 88.90 65.70 L 91.30 65.30 L 93.00 65.90 L 94.00 67.50 L 93.90 69.70 L 92.70 71.80 L 91.00 73.00 L 89.10 73.60 L 87.70 73.50 L 86.30 72.60 L 86.10 72.00 L 86.50 71.20 L 87.30 70.80 L 88.90 71.50 L 90.70 71.50 L 91.90 70.10 L 91.80 68.30 L 91.40 67.50 L 89.80 66.90 Z" fill="#dda08e" fill-rule="nonzero" node-id="58" stroke="none" target-height="8.299995" target-width="7.9000015" target-x="86.1" target-y="65.3"></path><path d="M 107.80 44.90 L 107.50 47.00 L 106.80 49.00 L 105.50 51.10 L 103.70 53.10 L 100.90 55.40 L 97.20 57.70 L 92.60 59.80 L 87.80 61.50 L 82.30 63.10 L 76.00 64.30 L 63.00 65.80 L 55.80 66.00 L 48.60 65.80 L 35.50 64.30 L 29.30 63.10 L 23.80 61.50 L 19.00 59.80 L 14.40 57.70 L 10.70 55.40 L 7.90 53.10 L 6.00 51.10 L 4.80 49.00 L 4.10 47.00 L 3.80 44.90 L 4.10 42.80 L 4.80 40.80 L 6.00 38.70 L 7.90 36.70 L 10.70 34.40 L 14.40 32.10 L 19.00 30.00 L 23.80 28.30 L 29.30 26.70 L 35.50 25.50 L 48.60 24.00 L 55.80 23.80 L 63.00 24.00 L 76.00 25.50 L 82.30 26.70 L 87.80 28.30 L 92.60 30.00 L 97.20 32.10 L 100.90 34.40 L 103.70 36.70 L 105.50 38.70 L 106.80 40.80 L 107.50 42.80 L 107.80 44.90 Z" fill="#1a92c1" fill-rule="nonzero" node-id="60" stroke="none" target-height="42.2" target-width="104" target-x="3.8" target-y="23.8"></path><g node-id="97"><path d="M 56.50 25.30 L 61.20 25.80 L 65.50 26.80 L 69.70 28.40 L 73.60 30.50 L 77.10 33.10 L 80.30 36.10 L 83.10 39.50 L 85.40 43.30 L 87.30 47.40 L 88.70 51.70 L 89.50 56.30 L 89.70 61.10 L 89.30 66.00 L 88.30 70.50 L 86.80 74.80 L 84.70 78.80 L 82.20 82.50 L 79.30 85.80 L 75.90 88.70 L 72.30 91.10 L 68.30 93.10 L 64.10 94.50 L 59.70 95.30 L 55.10 95.60 L 50.40 95.10 L 46.10 94.10 L 41.90 92.50 L 38.10 90.40 L 34.50 87.80 L 31.30 84.80 L 28.50 81.40 L 26.20 77.60 L 24.30 73.50 L 22.90 69.10 L 22.10 64.60 L 21.90 59.70 L 22.30 54.90 L 23.30 50.40 L 24.90 46.10 L 26.90 42.10 L 29.40 38.40 L 32.40 35.10 L 35.70 32.20 L 39.30 29.80 L 43.30 27.80 L 47.50 26.40 L 51.90 25.60 L 56.50 25.30 Z" fill="#ffe2d4" fill-rule="nonzero" group-id="1" node-id="64" stroke="none" target-height="70.3" target-width="67.799995" target-x="21.9" target-y="25.3"></path></g><path d="M 43.90 66.40 L 43.70 67.80 L 42.90 69.00 L 41.70 69.70 L 40.40 70.00 L 39.00 69.70 L 37.90 69.00 L 37.10 67.80 L 36.80 66.40 L 37.10 65.00 L 37.90 63.90 L 39.00 63.20 L 40.40 62.90 L 41.80 63.20 L 42.90 63.90 L 43.60 65.00 L 43.90 66.40 Z" fill="#423f43" fill-rule="nonzero" node-id="67" stroke="none" target-height="7.0999985" target-width="7.1000023" target-x="36.8" target-y="62.9"></path><path d="M 45.80 57.10 L 43.40 56.20 L 41.20 56.00 L 39.00 56.20 L 35.50 57.50 L 33.30 59.20 L 39.00 58.80 L 45.40 59.50 L 46.20 59.10 L 46.60 58.30 L 45.80 57.10 Z" fill="#423f43" fill-rule="nonzero" node-id="69" stroke="none" target-height="3.5" target-width="13.299999" target-x="33.3" target-y="56"></path><path d="M 74.80 66.40 L 74.50 67.80 L 73.80 69.00 L 72.60 69.70 L 71.20 70.00 L 69.90 69.70 L 68.70 69.00 L 68.00 67.80 L 67.70 66.40 L 68.00 65.10 L 68.70 63.90 L 69.90 63.20 L 71.20 62.90 L 72.60 63.20 L 73.80 63.90 L 74.50 65.10 L 74.80 66.40 Z" fill="#423f43" fill-rule="nonzero" node-id="71" stroke="none" target-height="7.0999985" target-width="7.100006" target-x="67.7" target-y="62.9"></path><path d="M 65.90 57.10 L 68.30 56.20 L 70.50 56.00 L 72.60 56.20 L 76.10 57.50 L 78.30 59.20 L 72.70 58.80 L 66.20 59.50 L 65.40 59.10 L 65.00 58.30 L 65.90 57.10 Z" fill="#423f43" fill-rule="nonzero" node-id="73" stroke="none" target-height="3.5" target-width="13.300003" target-x="65" target-y="56"></path><path d="M 49.90 78.10 L 50.10 80.10 L 50.70 81.80 L 51.60 83.20 L 52.90 84.40 L 54.20 85.00 L 55.80 85.30 L 57.40 85.00 L 58.80 84.40 L 60.00 83.20 L 60.90 81.80 L 61.50 80.10 L 61.70 78.10 Z" fill="#ef9586" fill-rule="nonzero" node-id="75" stroke="none" target-height="7.2000046" target-width="11.799999" target-x="49.9" target-y="78.1"></path><path d="M 55.80 69.50 L 54.10 70.20 L 53.30 71.90 L 55.80 71.20 L 58.30 71.90 L 57.60 70.20 L 55.80 69.50 Z" fill="#d1c5c5" fill-rule="nonzero" node-id="77" stroke="none" target-height="2.4000015" target-width="5" target-x="53.3" target-y="69.5"></path><path d="M 23.10 62.40 L 25.20 54.70 L 28.20 47.50 L 30.30 43.80 L 32.70 40.40 L 36.70 36.50 L 39.00 34.90 L 39.60 40.20 L 47.90 34.50 L 50.80 31.90 L 50.40 33.70 L 49.60 35.40 L 48.50 36.80 L 47.10 38.00 L 50.50 37.90 L 53.00 37.40 L 55.70 36.60 L 58.90 35.10 L 63.10 32.00 L 65.40 29.80 L 72.30 38.10 L 77.20 42.60 L 79.60 44.20 L 80.40 42.30 L 80.40 41.20 L 83.50 46.40 L 87.30 54.10 L 89.00 59.40 L 89.30 61.50 L 90.80 59.10 L 92.60 53.20 L 93.40 48.10 L 93.90 42.20 L 94.00 34.00 L 78.80 22.40 L 47.90 15.70 L 32.20 20.80 L 18.10 34.20 L 18.10 46.90 L 19.10 54.80 L 20.90 60.10 L 22.00 61.50 L 23.10 62.40 Z" fill="#423f43" fill-rule="nonzero" node-id="79" stroke="none" target-height="46.7" target-width="75.9" target-x="18.1" target-y="15.7"></path><path d="M 60.80 5.20 L 60.60 6.60 L 59.30 8.80 L 57.10 10.10 L 55.80 10.30 L 53.30 9.60 L 51.50 7.80 L 51.00 6.60 L 50.80 5.20 L 51.50 2.60 L 53.30 0.80 L 55.80 0.10 L 57.10 0.30 L 59.30 1.60 L 60.60 3.80 L 60.80 5.20 Z" fill="#1a92c1" fill-rule="nonzero" node-id="81" stroke="none" target-height="10.2" target-width="10" target-x="50.8" target-y="0.1"></path><path d="M 56.10 23.90 L 64.20 24.20 L 72.30 25.00 L 80.20 26.40 L 88.10 28.40 L 88.10 27.10 L 87.80 24.00 L 87.00 21.10 L 85.60 18.30 L 83.80 15.70 L 81.50 13.30 L 78.70 11.10 L 75.60 9.20 L 72.20 7.50 L 68.40 6.20 L 64.50 5.20 L 60.30 4.60 L 55.80 4.40 L 51.30 4.60 L 47.10 5.20 L 43.20 6.20 L 39.40 7.50 L 35.90 9.20 L 32.90 11.10 L 30.10 13.30 L 27.80 15.70 L 26.00 18.30 L 24.60 21.10 L 23.70 24.00 L 23.40 27.10 L 23.50 28.60 L 33.00 26.10 L 38.50 25.20 L 49.90 24.10 L 56.10 23.90 Z" fill="#1d99d8" fill-rule="nonzero" node-id="83" stroke="none" target-height="24.2" target-width="64.7" target-x="23.4" target-y="4.4"></path><path d="M 55.80 27.10 L 62.70 27.30 L 75.10 28.60 L 81.10 29.80 L 91.20 32.70 L 95.80 34.70 L 99.50 36.80 L 102.50 38.90 L 106.00 42.70 L 107.60 46.50 L 107.80 44.90 L 107.50 42.80 L 106.80 40.80 L 105.50 38.70 L 103.70 36.70 L 100.90 34.40 L 97.20 32.10 L 92.60 30.00 L 87.70 28.30 L 82.30 26.70 L 76.00 25.50 L 63.00 24.00 L 55.80 23.80 L 48.60 24.00 L 35.60 25.50 L 29.30 26.70 L 23.80 28.30 L 19.00 30.00 L 14.40 32.10 L 10.70 34.40 L 7.90 36.70 L 6.00 38.70 L 4.80 40.80 L 4.10 42.80 L 3.80 44.90 L 4.00 46.50 L 5.60 42.70 L 9.10 38.90 L 12.10 36.80 L 15.80 34.70 L 20.40 32.70 L 30.40 29.80 L 36.40 28.60 L 48.90 27.30 L 55.80 27.10 Z" fill="#1d99d8" fill-rule="nonzero" node-id="85" stroke="none" target-height="22.7" target-width="104" target-x="3.8" target-y="23.8"></path><path d="M 35.70 25.60 L 37.90 18.50 L 40.50 12.70 L 44.00 7.50 L 46.50 5.30 L 42.20 6.50 L 39.90 9.60 L 37.90 13.10 L 35.10 20.10 L 33.40 26.00 L 35.70 25.60 Z" fill="#d4efff" fill-rule="nonzero" node-id="87" stroke="none" target-height="20.7" target-width="13.099998" target-x="33.4" target-y="5.3"></path><path d="M 77.70 25.60 L 75.00 16.70 L 71.40 9.50 L 69.00 6.40 L 64.70 5.30 L 67.30 7.50 L 70.80 12.60 L 73.40 18.40 L 75.60 25.50 L 77.80 25.90 Z" fill="#d4efff" fill-rule="nonzero" node-id="89" stroke="none" target-height="20.599998" target-width="13.100006" target-x="64.7" target-y="5.3"></path><path d="M 54.80 4.40 L 54.80 24.00 L 56.80 24.00 L 56.80 4.40 L 55.80 4.40 Z" fill="#d4efff" fill-rule="nonzero" node-id="91" stroke="none" target-height="19.6" target-width="2" target-x="54.8" target-y="4.4"></path><path d="M 42.70 76.90 L 42.00 78.90 L 41.00 79.70 L 39.20 80.50 L 36.80 80.90 L 34.50 80.50 L 32.70 79.70 L 31.70 78.90 L 30.90 76.90 L 31.70 75.00 L 32.70 74.20 L 34.50 73.30 L 36.80 73.00 L 39.20 73.30 L 41.00 74.20 L 42.00 75.00 L 42.70 76.90 Z" fill="#fcd3c4" fill-rule="nonzero" node-id="93" stroke="none" target-height="7.9000015" target-width="11.800001" target-x="30.9" target-y="73"></path><path d="M 82.50 76.90 L 81.80 78.90 L 80.80 79.70 L 79.00 80.50 L 76.70 80.90 L 74.30 80.50 L 72.50 79.70 L 71.00 78.00 L 70.80 76.90 L 71.50 75.00 L 72.50 74.20 L 74.30 73.30 L 76.70 73.00 L 79.00 73.30 L 80.80 74.20 L 81.80 75.00 L 82.50 76.90 Z" fill="#fcd3c4" fill-rule="nonzero" node-id="95" stroke="none" target-height="7.9000015" target-width="11.699997" target-x="70.8" target-y="73"></path></svg>