<?xml version="1.0" standalone="no"?><!DOCTYPE svg PUBLIC "-//W3C//DTD SVG 1.1//EN" "http://www.w3.org/Graphics/SVG/1.1/DTD/svg11.dtd"><svg height="146" node-id="1" sillyvg="true" template-height="146" template-width="112" version="1.1" viewBox="0 0 112 146" width="112" xmlns="http://www.w3.org/2000/svg" xmlns:xlink="http://www.w3.org/1999/xlink"><defs node-id="31"></defs><path d="M 75.50 106.40 L 69.80 103.20 L 68.60 101.40 L 68.50 88.80 L 45.10 88.80 L 45.00 101.40 L 43.90 103.20 L 38.10 106.40 L 56.00 116.10 Z" fill="#ffd0b4" fill-rule="nonzero" node-id="33" stroke="none" target-height="27.299995" target-width="37.4" target-x="38.1" target-y="88.8"></path><path d="M 56.80 113.70 L 59.50 113.50 L 64.50 112.00 L 68.90 109.20 L 72.30 105.30 L 74.60 100.50 L 68.50 97.70 L 67.40 101.30 L 66.40 102.90 L 64.60 105.00 L 62.30 106.50 L 58.80 107.70 L 56.80 107.80 L 53.10 107.20 L 51.30 106.50 L 49.10 105.00 L 47.20 102.90 L 46.20 101.30 L 45.10 97.70 L 39.00 100.50 L 41.30 105.30 L 44.70 109.20 L 49.10 112.00 L 51.50 112.90 L 56.80 113.70 Z" fill="#ffd0b4" fill-rule="nonzero" node-id="35" stroke="none" target-height="16" target-width="35.6" target-x="39" target-y="97.7"></path><path d="M 94.30 109.40 L 74.60 100.50 L 72.30 105.30 L 70.80 107.40 L 66.80 110.70 L 62.10 112.90 L 59.50 113.50 L 56.80 113.70 L 54.10 113.50 L 49.10 112.00 L 44.70 109.20 L 41.30 105.30 L 39.00 100.50 L 19.30 109.40 L 16.60 111.30 L 14.20 113.70 L 12.40 116.40 L 11.00 119.40 L 10.10 122.50 L 9.80 125.90 L 9.80 143.90 L 103.80 143.90 L 103.80 125.90 L 103.50 122.50 L 102.70 119.40 L 101.30 116.40 L 99.40 113.70 L 97.10 111.30 L 94.30 109.40 Z" fill="#1d99d8" fill-rule="nonzero" node-id="37" stroke="none" target-height="43.399994" target-width="94" target-x="9.8" target-y="100.5"></path><path d="M 37.40 101.20 L 30.90 104.10 L 30.90 127.20 L 37.40 127.20 L 37.40 101.20 Z" fill="#d4efff" fill-rule="nonzero" node-id="39" stroke="none" target-height="26" target-width="6.500002" target-x="30.9" target-y="101.2"></path><path d="M 82.70 104.10 L 76.20 101.20 L 76.20 127.20 L 82.70 127.20 L 82.70 104.10 Z" fill="#d4efff" fill-rule="nonzero" node-id="41" stroke="none" target-height="26" target-width="6.5" target-x="76.2" target-y="101.2"></path><path d="M 80.40 123.00 L 33.20 123.00 L 26.90 134.50 L 26.90 143.90 L 86.70 143.90 L 86.70 134.50 L 80.40 123.00 Z" fill="#d4efff" fill-rule="nonzero" node-id="43" stroke="none" target-height="20.899994" target-width="59.799995" target-x="26.9" target-y="123"></path><path d="M 76.90 127.20 L 37.30 127.20 L 31.90 135.90 L 31.90 143.90 L 82.20 143.90 L 82.20 135.90 L 76.90 127.20 Z" fill="#a2d1f4" fill-rule="nonzero" node-id="45" stroke="none" target-height="16.699997" target-width="50.299995" target-x="31.9" target-y="127.2"></path><path d="M 23.20 55.30 L 19.00 55.30 L 17.40 55.80 L 15.00 57.40 L 13.90 59.90 L 13.80 61.40 L 14.60 66.00 L 15.40 67.90 L 17.60 70.70 L 19.70 72.10 L 22.10 73.00 L 27.30 73.70 L 28.30 73.40 L 28.90 72.80 L 29.20 71.80 L 29.10 69.90 L 28.50 67.20 L 26.40 61.80 L 23.20 55.30 Z" fill="#f9d2c2" fill-rule="nonzero" node-id="47" stroke="none" target-height="18.399998" target-width="15.400001" target-x="13.8" target-y="55.3"></path><path d="M 22.20 61.40 L 23.90 61.90 L 24.40 60.80 L 23.00 60.20 L 20.70 59.80 L 18.90 60.50 L 17.90 62.00 L 18.00 64.20 L 19.20 66.30 L 20.90 67.60 L 22.90 68.20 L 24.30 68.10 L 25.70 67.10 L 25.90 66.60 L 25.50 65.80 L 24.70 65.30 L 23.20 66.10 L 21.30 66.00 L 20.10 64.70 L 20.10 62.80 L 20.60 62.00 L 22.20 61.40 Z" fill="#dda08e" fill-rule="nonzero" node-id="49" stroke="none" target-height="8.399998" target-width="8" target-x="17.9" target-y="59.8"></path><path d="M 90.40 55.30 L 94.60 55.30 L 96.30 55.80 L 98.60 57.40 L 99.70 59.90 L 99.80 61.40 L 99.00 66.00 L 98.20 67.90 L 96.10 70.70 L 94.00 72.10 L 91.60 73.00 L 86.30 73.70 L 85.30 73.40 L 84.70 72.80 L 84.40 71.80 L 84.50 69.90 L 85.10 67.20 L 87.20 61.80 L 90.40 55.30 Z" fill="#f9d2c2" fill-rule="nonzero" node-id="51" stroke="none" target-height="18.399998" target-width="15.400002" target-x="84.4" target-y="55.3"></path><path d="M 91.40 61.40 L 89.70 61.90 L 89.20 60.80 L 90.60 60.20 L 93.00 59.80 L 94.80 60.50 L 95.80 62.10 L 95.70 64.30 L 94.50 66.40 L 92.80 67.60 L 90.80 68.30 L 89.40 68.10 L 88.00 67.20 L 87.80 66.60 L 88.20 65.80 L 89.00 65.40 L 90.50 66.20 L 92.40 66.10 L 93.10 65.50 L 93.60 64.70 L 93.60 62.90 L 93.10 62.10 L 91.50 61.40 Z" fill="#dda08e" fill-rule="nonzero" node-id="53" stroke="none" target-height="8.500004" target-width="8" target-x="87.8" target-y="59.8"></path><g node-id="82"><path d="M 57.50 19.30 L 62.30 19.70 L 66.70 20.80 L 70.90 22.40 L 74.90 24.60 L 78.50 27.20 L 81.80 30.30 L 84.60 33.80 L 87.00 37.60 L 88.90 41.80 L 90.30 46.20 L 91.10 50.90 L 91.40 55.80 L 90.90 60.70 L 89.90 65.30 L 88.30 69.70 L 86.20 73.80 L 83.70 77.50 L 80.70 80.90 L 77.30 83.90 L 73.60 86.40 L 69.60 88.40 L 65.30 89.80 L 60.80 90.60 L 56.10 90.90 L 51.30 90.50 L 46.90 89.40 L 42.70 87.80 L 38.70 85.60 L 35.10 83.00 L 31.90 79.90 L 29.00 76.40 L 26.60 72.60 L 24.70 68.40 L 23.30 64.00 L 22.50 59.30 L 22.30 54.40 L 22.70 49.50 L 23.70 44.90 L 25.30 40.50 L 27.40 36.40 L 29.90 32.70 L 32.90 29.30 L 36.30 26.30 L 40.00 23.80 L 44.00 21.80 L 48.30 20.40 L 52.80 19.50 L 57.50 19.30 Z" fill="#ffe2d4" fill-rule="nonzero" group-id="1" node-id="57" stroke="none" target-height="71.600006" target-width="69.100006" target-x="22.3" target-y="19.3"></path></g><path d="M 44.70 61.00 L 44.40 62.40 L 43.60 63.50 L 42.50 64.30 L 41.10 64.60 L 39.70 64.30 L 38.50 63.50 L 37.70 62.40 L 37.50 61.00 L 37.70 59.60 L 38.50 58.40 L 39.70 57.60 L 41.10 57.40 L 42.50 57.60 L 43.60 58.40 L 44.40 59.60 L 44.70 61.00 Z" fill="#423f43" fill-rule="nonzero" node-id="60" stroke="none" target-height="7.199997" target-width="7.200001" target-x="37.5" target-y="57.4"></path><path d="M 46.60 51.50 L 44.10 50.50 L 41.90 50.30 L 39.70 50.50 L 36.10 51.90 L 33.90 53.60 L 39.60 53.10 L 46.20 53.90 L 47.00 53.50 L 47.40 52.70 L 46.60 51.50 Z" fill="#423f43" fill-rule="nonzero" node-id="62" stroke="none" target-height="3.6000023" target-width="13.5" target-x="33.9" target-y="50.3"></path><path d="M 76.20 61.00 L 75.90 62.40 L 75.10 63.50 L 73.90 64.30 L 72.50 64.60 L 71.20 64.30 L 70.00 63.50 L 69.20 62.40 L 68.90 61.00 L 69.20 59.60 L 70.00 58.40 L 71.20 57.60 L 72.50 57.40 L 73.90 57.60 L 75.10 58.40 L 75.90 59.60 L 76.20 61.00 Z" fill="#423f43" fill-rule="nonzero" node-id="64" stroke="none" target-height="7.199997" target-width="7.2999954" target-x="68.9" target-y="57.4"></path><path d="M 67.10 51.50 L 69.50 50.50 L 71.70 50.30 L 73.90 50.50 L 77.50 51.90 L 79.70 53.60 L 74.00 53.10 L 67.40 53.90 L 66.60 53.50 L 66.20 52.70 L 67.10 51.50 Z" fill="#423f43" fill-rule="nonzero" node-id="66" stroke="none" target-height="3.6000023" target-width="13.5" target-x="66.2" target-y="50.3"></path><path d="M 50.80 72.90 L 51.00 74.90 L 51.60 76.60 L 52.50 78.10 L 53.80 79.20 L 55.20 79.90 L 56.80 80.20 L 58.40 79.90 L 59.80 79.20 L 61.00 78.10 L 61.90 76.60 L 62.50 74.90 L 62.80 72.90 Z" fill="#ef9586" fill-rule="nonzero" node-id="68" stroke="none" target-height="7.2999954" target-width="12" target-x="50.8" target-y="72.9"></path><path d="M 56.80 64.00 L 55.00 64.70 L 54.30 66.50 L 56.80 65.70 L 59.30 66.50 L 58.60 64.70 L 56.80 64.00 Z" fill="#d1c5c5" fill-rule="nonzero" node-id="70" stroke="none" target-height="2.5" target-width="5" target-x="54.3" target-y="64"></path><path d="M 42.50 97.30 L 42.50 97.30 Z" fill="#994734" fill-rule="nonzero" node-id="72" stroke="none" target-height="0" target-width="0" target-x="42.5" target-y="97.3"></path><path d="M 42.50 97.30 L 42.50 97.30 Z" fill="#994734" fill-rule="nonzero" node-id="74" stroke="none" target-height="0" target-width="0" target-x="42.5" target-y="97.3"></path><path d="M 23.70 55.50 L 25.40 48.00 L 28.00 40.70 L 29.80 37.00 L 32.00 33.40 L 34.60 30.10 L 36.60 28.20 L 41.20 25.40 L 43.80 25.90 L 44.10 25.40 L 44.20 23.90 L 45.40 25.20 L 46.10 25.00 L 46.50 23.90 L 47.10 23.60 L 48.80 24.80 L 49.50 24.90 L 50.50 23.00 L 53.20 24.40 L 54.30 23.30 L 55.30 24.00 L 55.90 24.00 L 56.70 22.90 L 57.30 22.50 L 58.90 24.10 L 60.60 22.80 L 61.60 23.90 L 62.40 23.90 L 63.40 22.60 L 67.00 24.10 L 68.40 23.50 L 70.40 25.70 L 70.70 24.10 L 73.90 26.90 L 76.90 27.30 L 81.10 31.70 L 85.40 38.40 L 88.80 46.50 L 91.00 55.20 L 91.60 55.30 L 93.60 54.40 L 94.60 53.60 L 95.20 52.50 L 95.70 43.20 L 95.60 38.90 L 94.50 28.80 L 92.30 20.30 L 89.40 14.00 L 87.50 11.20 L 85.30 8.80 L 82.70 6.70 L 82.00 8.00 L 80.50 5.90 L 79.90 5.50 L 78.50 6.70 L 74.80 6.70 L 72.10 3.30 L 70.10 4.40 L 67.70 2.60 L 60.20 2.50 L 58.30 3.00 L 57.20 4.10 L 56.70 4.10 L 52.70 2.40 L 52.10 2.40 L 50.10 3.30 L 44.80 3.80 L 41.50 3.80 L 40.20 3.60 L 39.40 3.00 L 37.60 6.30 L 34.80 6.60 L 33.90 8.20 L 32.20 8.30 L 31.20 10.10 L 30.60 10.10 L 28.60 8.90 L 27.70 9.10 L 23.50 15.00 L 20.50 21.70 L 19.50 25.20 L 18.80 28.80 L 18.20 35.90 L 18.20 41.10 L 18.50 45.80 L 20.00 52.00 L 20.90 53.80 L 22.60 55.90 L 23.30 56.00 L 23.70 55.50 Z" fill="#423f43" fill-rule="nonzero" node-id="76" stroke="none" target-height="53.6" target-width="77.5" target-x="18.2" target-y="2.4"></path><path d="M 42.50 72.30 L 41.70 74.30 L 40.80 75.10 L 38.20 76.10 L 36.50 76.30 L 33.50 75.80 L 31.30 74.30 L 30.70 73.40 L 30.50 72.30 L 31.30 70.30 L 33.50 68.90 L 36.50 68.30 L 38.20 68.50 L 40.80 69.50 L 41.70 70.30 L 42.50 72.30 Z" fill="#fcd3c4" fill-rule="nonzero" node-id="78" stroke="none" target-height="8" target-width="12" target-x="30.5" target-y="68.3"></path><path d="M 83.10 72.30 L 82.30 74.30 L 81.30 75.10 L 78.80 76.10 L 77.10 76.30 L 74.00 75.80 L 71.90 74.30 L 71.30 73.40 L 71.10 72.30 L 71.90 70.30 L 74.00 68.90 L 77.10 68.30 L 78.80 68.50 L 81.30 69.50 L 82.30 70.30 L 83.10 72.30 Z" fill="#fcd3c4" fill-rule="nonzero" node-id="80" stroke="none" target-height="8" target-width="12" target-x="71.1" target-y="68.3"></path></svg>