<?xml version="1.0" standalone="no"?><!DOCTYPE svg PUBLIC "-//W3C//DTD SVG 1.1//EN" "http://www.w3.org/Graphics/SVG/1.1/DTD/svg11.dtd"><svg height="146" node-id="1" sillyvg="true" template-height="146" template-width="112" version="1.1" viewBox="0 0 112 146" width="112" xmlns="http://www.w3.org/2000/svg" xmlns:xlink="http://www.w3.org/1999/xlink"><defs node-id="31"></defs><path d="M 94.20 111.10 L 56.90 91.70 L 56.40 91.70 L 19.20 111.10 L 16.40 113.10 L 14.10 115.40 L 12.20 118.10 L 10.80 121.10 L 10.00 124.30 L 9.70 127.70 L 9.70 144.50 L 103.70 144.50 L 103.70 127.70 L 103.40 124.30 L 102.50 121.10 L 101.10 118.10 L 99.20 115.40 L 96.90 113.10 L 94.20 111.10 Z" fill="#1d99d8" fill-rule="nonzero" node-id="33" stroke="none" target-height="52.800003" target-width="94" target-x="9.7" target-y="91.7"></path><path d="M 75.10 101.20 L 69.40 98.00 L 68.30 96.20 L 68.20 84.60 L 45.20 84.60 L 45.00 96.20 L 43.90 98.00 L 38.20 101.20 L 56.40 122.20 Z" fill="#ffd0b4" fill-rule="nonzero" node-id="35" stroke="none" target-height="37.6" target-width="36.899998" target-x="38.2" target-y="84.6"></path><path d="M 69.20 97.80 L 56.70 115.80 L 44.20 97.80 L 34.70 103.00 L 48.40 144.50 L 64.90 144.50 L 78.70 103.00 L 69.20 97.80 Z" fill="#d4efff" fill-rule="nonzero" node-id="37" stroke="none" target-height="46.699997" target-width="43.999996" target-x="34.7" target-y="97.8"></path><path d="M 42.20 122.60 L 41.60 120.80 L 41.00 117.00 L 41.40 112.50 L 42.70 109.90 L 43.80 108.80 L 45.30 108.90 L 46.90 109.40 L 50.70 111.40 L 54.40 115.00 L 54.30 119.30 L 50.70 121.50 L 48.90 122.20 L 44.60 122.80 L 42.20 122.60 Z" fill="#088ab2" fill-rule="nonzero" node-id="39" stroke="none" target-height="14" target-width="13.400002" target-x="41" target-y="108.8"></path><path d="M 71.20 122.40 L 71.80 120.70 L 72.40 116.90 L 72.00 112.40 L 70.60 109.80 L 69.60 108.70 L 68.00 108.80 L 66.50 109.20 L 62.60 111.30 L 58.90 114.80 L 59.10 119.20 L 62.70 121.40 L 64.40 122.00 L 68.70 122.70 L 71.20 122.40 Z" fill="#088ab2" fill-rule="nonzero" node-id="41" stroke="none" target-height="14" target-width="13.5" target-x="58.9" target-y="108.7"></path><path d="M 59.60 118.50 L 59.50 119.10 L 58.60 120.00 L 55.60 120.10 L 54.20 119.50 L 53.70 118.10 L 53.80 115.10 L 54.70 114.20 L 56.80 114.40 L 58.80 114.10 L 59.60 115.00 Z" fill="#088ab2" fill-rule="nonzero" node-id="43" stroke="none" target-height="6" target-width="5.8999977" target-x="53.7" target-y="114.1"></path><path d="M 22.70 56.00 L 18.40 56.00 L 16.80 56.40 L 14.40 58.00 L 13.30 60.60 L 13.10 62.10 L 14.00 66.80 L 14.80 68.70 L 17.00 71.50 L 19.10 72.90 L 21.50 73.90 L 26.80 74.50 L 27.90 74.30 L 28.50 73.70 L 28.80 72.60 L 28.70 70.70 L 28.00 68.00 L 25.90 62.50 L 22.70 56.00 Z" fill="#f9d2c2" fill-rule="nonzero" node-id="45" stroke="none" target-height="18.5" target-width="15.699999" target-x="13.1" target-y="56"></path><path d="M 21.70 62.10 L 23.40 62.60 L 23.90 61.50 L 22.50 60.80 L 20.10 60.40 L 18.30 61.10 L 17.20 62.70 L 17.30 65.00 L 18.60 67.10 L 19.70 68.00 L 22.40 69.00 L 23.80 68.90 L 25.20 67.90 L 25.40 67.30 L 25.00 66.50 L 24.20 66.10 L 22.60 66.90 L 20.80 66.80 L 20.00 66.20 L 19.50 65.40 L 19.50 63.50 L 20.00 62.70 L 21.70 62.10 Z" fill="#dda08e" fill-rule="nonzero" node-id="47" stroke="none" target-height="8.599998" target-width="8.199999" target-x="17.2" target-y="60.4"></path><path d="M 90.70 56.00 L 95.00 56.00 L 96.60 56.40 L 99.00 58.10 L 100.10 60.60 L 100.20 62.10 L 99.40 66.80 L 98.60 68.70 L 96.40 71.50 L 94.30 73.00 L 91.80 73.90 L 86.60 74.60 L 85.50 74.30 L 84.90 73.70 L 84.60 72.60 L 84.70 70.70 L 85.30 68.00 L 87.40 62.50 L 90.70 56.00 Z" fill="#f9d2c2" fill-rule="nonzero" node-id="49" stroke="none" target-height="18.599998" target-width="15.599998" target-x="84.6" target-y="56"></path><path d="M 91.70 62.10 L 89.90 62.60 L 89.50 61.50 L 90.80 60.80 L 93.30 60.40 L 95.10 61.10 L 96.10 62.70 L 96.00 65.00 L 94.80 67.10 L 93.60 68.00 L 92.40 68.60 L 90.60 69.00 L 88.80 68.50 L 88.00 67.30 L 88.40 66.50 L 89.20 66.10 L 90.70 66.90 L 91.70 67.00 L 92.60 66.80 L 93.40 66.20 L 93.80 65.40 L 93.80 63.50 L 93.30 62.70 L 91.70 62.10 Z" fill="#dda08e" fill-rule="nonzero" node-id="51" stroke="none" target-height="8.599998" target-width="8.099998" target-x="88" target-y="60.4"></path><g node-id="82"><path d="M 57.40 19.20 L 64.50 20.10 L 71.00 22.40 L 75.00 24.60 L 78.60 27.20 L 81.90 30.40 L 84.80 33.90 L 87.20 37.80 L 89.20 42.00 L 90.60 46.50 L 91.40 51.20 L 91.60 56.20 L 91.20 61.20 L 90.20 65.80 L 88.60 70.20 L 86.50 74.40 L 83.90 78.20 L 80.90 81.60 L 77.40 84.60 L 73.70 87.10 L 69.60 89.10 L 63.00 91.10 L 59.60 91.60 L 55.90 91.70 L 52.30 91.40 L 45.50 89.90 L 42.40 88.60 L 38.40 86.40 L 34.70 83.70 L 31.40 80.60 L 28.50 77.00 L 26.10 73.20 L 24.20 68.90 L 22.80 64.40 L 21.90 59.70 L 21.70 54.70 L 22.10 49.80 L 23.20 45.10 L 24.70 40.70 L 26.90 36.50 L 29.40 32.70 L 32.50 29.30 L 35.90 26.30 L 39.60 23.80 L 43.70 21.80 L 50.30 19.80 L 57.40 19.20 Z" fill="#ffe2d4" fill-rule="nonzero" group-id="1" node-id="55" stroke="none" target-height="72.5" target-width="69.899994" target-x="21.7" target-y="19.2"></path></g><path d="M 44.40 61.70 L 44.10 63.10 L 43.30 64.20 L 42.20 65.00 L 40.80 65.30 L 39.30 65.00 L 38.20 64.20 L 37.40 63.10 L 37.10 61.70 L 37.40 60.20 L 38.20 59.10 L 39.30 58.30 L 40.80 58.00 L 42.20 58.30 L 43.30 59.10 L 44.10 60.20 L 44.40 61.70 Z" fill="#423f43" fill-rule="nonzero" node-id="58" stroke="none" target-height="7.300003" target-width="7.300003" target-x="37.1" target-y="58"></path><path d="M 46.30 52.10 L 43.10 50.90 L 39.30 51.10 L 35.70 52.50 L 33.50 54.20 L 39.30 53.70 L 45.90 54.50 L 46.80 54.10 L 47.20 53.20 L 46.30 52.10 Z" fill="#423f43" fill-rule="nonzero" node-id="60" stroke="none" target-height="3.5999985" target-width="13.700001" target-x="33.5" target-y="50.9"></path><path d="M 76.30 61.70 L 76.00 63.10 L 75.20 64.20 L 74.00 65.00 L 72.60 65.30 L 71.20 65.00 L 70.00 64.20 L 69.20 63.10 L 68.90 61.70 L 69.20 60.20 L 70.00 59.10 L 71.20 58.30 L 72.60 58.00 L 74.00 58.30 L 75.20 59.10 L 76.00 60.20 L 76.30 61.70 Z" fill="#423f43" fill-rule="nonzero" node-id="62" stroke="none" target-height="7.300003" target-width="7.4000015" target-x="68.9" target-y="58"></path><path d="M 67.00 52.10 L 70.30 50.90 L 74.00 51.10 L 77.60 52.50 L 79.80 54.20 L 74.00 53.70 L 67.40 54.50 L 66.50 54.10 L 66.10 53.20 L 67.00 52.10 Z" fill="#423f43" fill-rule="nonzero" node-id="64" stroke="none" target-height="3.5999985" target-width="13.700005" target-x="66.1" target-y="50.9"></path><path d="M 50.60 73.70 L 50.80 75.70 L 51.40 77.40 L 52.40 79.00 L 53.60 80.10 L 55.10 80.90 L 56.70 81.10 L 58.30 80.80 L 59.70 80.10 L 61.00 78.90 L 61.90 77.50 L 62.50 75.70 L 62.80 73.70 Z" fill="#ef9586" fill-rule="nonzero" node-id="66" stroke="none" target-height="7.4000015" target-width="12.200001" target-x="50.6" target-y="73.7"></path><path d="M 56.70 64.80 L 54.90 65.50 L 54.10 67.30 L 56.60 66.50 L 59.20 67.30 L 58.50 65.50 L 56.70 64.80 Z" fill="#d1c5c5" fill-rule="nonzero" node-id="68" stroke="none" target-height="2.5" target-width="5.1000023" target-x="54.1" target-y="64.8"></path><path d="M 42.20 76.60 L 41.40 78.50 L 40.40 79.40 L 37.70 80.40 L 36.10 80.60 L 34.50 80.40 L 31.80 79.40 L 30.20 77.60 L 30.20 75.50 L 31.80 73.70 L 34.50 72.70 L 36.10 72.50 L 37.70 72.70 L 40.40 73.70 L 41.40 74.60 L 42.20 76.60 Z" fill="#fcd3c4" fill-rule="nonzero" node-id="70" stroke="none" target-height="8.099998" target-width="12" target-x="30.2" target-y="72.5"></path><path d="M 83.30 76.60 L 82.50 78.50 L 81.50 79.40 L 78.80 80.40 L 77.20 80.60 L 75.50 80.40 L 72.90 79.40 L 71.30 77.60 L 71.30 75.50 L 72.90 73.70 L 75.50 72.70 L 77.20 72.50 L 78.80 72.70 L 81.50 73.70 L 82.50 74.60 L 83.30 76.60 Z" fill="#fcd3c4" fill-rule="nonzero" node-id="72" stroke="none" target-height="8.099998" target-width="12" target-x="71.3" target-y="72.5"></path><path d="M 23.40 57.50 L 24.30 53.00 L 26.40 47.20 L 29.20 42.90 L 32.20 40.70 L 40.70 38.10 L 45.90 37.00 L 57.20 35.60 L 63.00 35.40 L 68.70 35.70 L 73.90 36.50 L 77.20 37.30 L 82.80 39.80 L 84.60 41.50 L 86.50 44.00 L 88.20 46.90 L 89.60 50.10 L 90.50 53.30 L 90.70 56.00 L 94.10 55.70 L 96.70 56.60 L 97.90 51.40 L 99.00 43.20 L 99.20 38.20 L 98.90 33.10 L 98.00 27.70 L 97.00 24.10 L 93.90 17.30 L 91.70 14.10 L 89.00 11.10 L 85.70 8.40 L 79.90 5.00 L 72.30 2.40 L 63.70 1.80 L 59.50 2.40 L 58.30 3.20 L 50.90 2.00 L 43.40 2.30 L 39.30 3.00 L 34.90 4.50 L 32.00 5.80 L 26.30 9.80 L 23.80 12.30 L 21.30 15.50 L 18.90 19.30 L 16.00 25.10 L 15.00 28.20 L 14.20 32.00 L 13.80 36.10 L 14.00 41.80 L 14.70 48.10 L 16.20 56.70 L 19.50 55.80 L 20.70 55.70 L 21.90 55.90 L 22.80 56.50 L 23.40 57.50 Z" fill="#423f43" fill-rule="nonzero" node-id="74" stroke="none" target-height="55.7" target-width="85.399994" target-x="13.8" target-y="1.8"></path><path d="M 40.50 74.90 L 36.60 74.10 L 33.30 72.00 L 31.10 68.60 L 30.30 64.70 L 31.10 60.90 L 33.30 57.60 L 36.60 55.40 L 40.50 54.60 L 44.40 55.40 L 47.70 57.60 L 49.90 60.90 L 50.60 64.80 L 50.00 68.30 L 48.20 71.30 L 45.60 73.50 L 44.00 74.30 L 40.50 74.90 Z M 40.50 55.80 L 38.10 56.20 L 36.00 57.10 L 34.20 58.40 L 32.80 60.30 L 31.90 62.40 L 31.50 64.80 L 31.90 67.20 L 32.80 69.30 L 34.20 71.10 L 36.00 72.50 L 38.10 73.40 L 40.50 73.70 L 42.90 73.40 L 45.00 72.50 L 46.80 71.10 L 48.20 69.30 L 49.10 67.20 L 49.40 64.80 L 49.10 62.40 L 48.20 60.30 L 46.80 58.50 L 45.00 57.10 L 42.90 56.20 L 40.50 55.80 Z" fill="#332e2c" fill-rule="nonzero" node-id="76" stroke="none" target-height="20.300003" target-width="20.3" target-x="30.3" target-y="54.6"></path><path d="M 72.90 74.90 L 69.00 74.20 L 65.70 72.00 L 63.50 68.70 L 62.70 64.80 L 63.40 60.90 L 65.60 57.60 L 69.00 55.40 L 72.80 54.60 L 76.70 55.40 L 80.00 57.60 L 82.20 60.90 L 83.00 64.80 L 82.40 68.30 L 80.60 71.30 L 78.00 73.50 L 76.40 74.30 L 72.90 74.90 Z M 72.90 55.80 L 70.50 56.20 L 68.40 57.10 L 66.60 58.40 L 65.20 60.30 L 64.30 62.40 L 63.90 64.80 L 64.30 67.20 L 65.20 69.30 L 66.60 71.10 L 68.40 72.50 L 70.50 73.40 L 72.90 73.70 L 75.30 73.40 L 77.40 72.50 L 79.20 71.10 L 80.60 69.30 L 81.50 67.20 L 81.80 64.80 L 81.50 62.40 L 80.60 60.30 L 79.20 58.50 L 77.40 57.10 L 75.30 56.20 L 72.90 55.80 Z" fill="#332e2c" fill-rule="nonzero" node-id="78" stroke="none" target-height="20.300003" target-width="20.3" target-x="62.7" target-y="54.6"></path><path d="M 49.60 61.40 L 48.80 60.40 L 50.80 59.20 L 54.40 58.00 L 57.10 57.80 L 59.40 58.10 L 63.10 59.30 L 64.50 60.00 L 63.80 61.00 L 61.10 59.70 L 57.00 59.00 L 53.00 59.60 L 49.60 61.40 Z" fill="#332e2c" fill-rule="nonzero" node-id="80" stroke="none" target-height="3.6000023" target-width="15.700001" target-x="48.8" target-y="57.8"></path></svg>