<?xml version="1.0" standalone="no"?><!DOCTYPE svg PUBLIC "-//W3C//DTD SVG 1.1//EN" "http://www.w3.org/Graphics/SVG/1.1/DTD/svg11.dtd"><svg height="146" node-id="1" sillyvg="true" template-height="146" template-width="112" version="1.1" viewBox="0 0 112 146" width="112" xmlns="http://www.w3.org/2000/svg" xmlns:xlink="http://www.w3.org/1999/xlink"><defs node-id="29"></defs><path d="M 93.60 114.70 L 56.40 95.20 L 55.90 95.20 L 18.70 114.70 L 15.90 116.60 L 13.60 119.00 L 11.70 121.70 L 10.30 124.70 L 9.50 127.80 L 9.20 131.20 L 9.20 146.00 L 103.20 146.00 L 103.20 131.20 L 102.90 127.80 L 102.00 124.70 L 100.60 121.70 L 98.70 119.00 L 96.40 116.60 L 93.60 114.70 Z" fill="#1d99d8" fill-rule="nonzero" node-id="31" stroke="none" target-height="50.800003" target-width="94" target-x="9.2" target-y="95.2"></path><path d="M 74.80 130.50 L 88.70 130.70 L 90.00 132.00 L 90.20 136.40 L 89.50 138.10 L 87.80 138.80 L 73.80 138.60 L 72.60 137.30 L 72.40 132.90 L 73.10 131.20 L 74.80 130.50 Z" fill="#a2d1f4" fill-rule="nonzero" node-id="33" stroke="none" target-height="8.300003" target-width="17.799995" target-x="72.4" target-y="130.5"></path><path d="M 29.60 146.00 L 45.10 146.00 L 92.00 113.70 L 84.30 109.70 L 29.60 146.00 Z" fill="#a2d1f4" fill-rule="nonzero" node-id="35" stroke="none" target-height="36.300003" target-width="62.4" target-x="29.6" target-y="109.7"></path><path d="M 60.20 112.00 L 59.90 113.60 L 59.00 114.90 L 57.70 115.70 L 56.20 116.10 L 54.60 115.70 L 53.30 114.90 L 52.50 113.60 L 52.10 112.00 L 52.50 110.50 L 53.30 109.20 L 54.60 108.30 L 56.20 108.00 L 57.70 108.30 L 59.00 109.20 L 59.90 110.50 L 60.20 112.00 Z" fill="#d4efff" fill-rule="nonzero" node-id="37" stroke="none" target-height="8.099998" target-width="8.100002" target-x="52.1" target-y="108"></path><path d="M 74.60 104.70 L 68.90 101.60 L 67.80 99.80 L 67.70 88.10 L 44.60 88.10 L 44.50 99.80 L 43.40 101.60 L 37.70 104.70 Z" fill="#ffd0b4" fill-rule="nonzero" node-id="39" stroke="none" target-height="16.599998" target-width="36.899998" target-x="37.7" target-y="88.1"></path><path d="M 68.40 96.00 L 78.00 106.50 L 69.00 112.60 L 67.80 113.20 L 66.50 113.30 L 65.20 113.10 L 64.10 112.40 L 56.70 106.00 L 56.30 104.80 L 56.90 103.70 Z" fill="#d4efff" fill-rule="nonzero" node-id="41" stroke="none" target-height="17.300003" target-width="21.7" target-x="56.3" target-y="96"></path><path d="M 43.90 96.00 L 34.40 106.40 L 43.40 112.60 L 44.60 113.20 L 45.90 113.30 L 47.10 113.00 L 48.30 112.30 L 55.60 106.00 L 56.10 104.80 L 55.40 103.70 Z" fill="#d4efff" fill-rule="nonzero" node-id="43" stroke="none" target-height="17.300003" target-width="21.699997" target-x="34.4" target-y="96"></path><path d="M 22.30 58.90 L 18.10 58.90 L 16.50 59.40 L 14.10 61.00 L 13.00 63.50 L 12.90 65.00 L 13.70 69.60 L 14.50 71.50 L 16.70 74.30 L 18.80 75.70 L 21.20 76.60 L 26.40 77.30 L 27.40 77.00 L 28.10 76.40 L 28.30 75.40 L 28.30 73.50 L 27.60 70.80 L 25.50 65.40 L 22.30 58.90 Z" fill="#f9d2c2" fill-rule="nonzero" node-id="45" stroke="none" target-height="18.400002" target-width="15.4" target-x="12.9" target-y="58.9"></path><path d="M 21.30 65.00 L 23.00 65.50 L 23.50 64.40 L 22.20 63.80 L 19.80 63.40 L 18.00 64.00 L 16.90 65.70 L 17.00 67.90 L 18.30 70.00 L 20.00 71.20 L 22.00 71.90 L 23.40 71.70 L 24.80 70.80 L 25.00 70.20 L 24.60 69.40 L 23.80 69.00 L 22.30 69.80 L 20.40 69.70 L 19.70 69.10 L 19.20 68.30 L 19.20 66.40 L 19.70 65.70 L 20.40 65.10 L 21.30 65.00 Z" fill="#dda08e" fill-rule="nonzero" node-id="47" stroke="none" target-height="8.5" target-width="8.1" target-x="16.9" target-y="63.4"></path><path d="M 89.50 58.90 L 93.70 58.90 L 95.40 59.40 L 97.70 61.00 L 98.80 63.50 L 98.90 65.00 L 98.10 69.60 L 97.30 71.50 L 95.20 74.30 L 93.10 75.70 L 90.70 76.60 L 85.50 77.30 L 84.40 77.00 L 83.80 76.40 L 83.50 75.40 L 83.60 73.50 L 84.20 70.80 L 86.30 65.40 L 89.50 58.90 Z" fill="#f9d2c2" fill-rule="nonzero" node-id="49" stroke="none" target-height="18.400002" target-width="15.400002" target-x="83.5" target-y="58.9"></path><path d="M 90.50 65.00 L 88.80 65.50 L 88.30 64.40 L 89.70 63.80 L 92.10 63.40 L 93.90 64.00 L 94.90 65.70 L 94.80 67.90 L 93.50 70.00 L 91.80 71.20 L 89.80 71.90 L 88.40 71.70 L 87.00 70.80 L 86.80 70.20 L 87.20 69.40 L 88.10 69.00 L 89.60 69.80 L 91.40 69.70 L 92.60 68.30 L 92.60 66.40 L 92.20 65.70 L 91.40 65.10 L 90.50 65.00 Z" fill="#dda08e" fill-rule="nonzero" node-id="51" stroke="none" target-height="8.5" target-width="8.099998" target-x="86.8" target-y="63.4"></path><g node-id="76"><path d="M 56.70 22.70 L 61.40 23.10 L 65.80 24.10 L 70.00 25.80 L 74.00 27.90 L 77.60 30.60 L 80.90 33.70 L 83.70 37.20 L 86.10 41.00 L 88.00 45.20 L 89.40 49.60 L 90.20 54.30 L 90.50 59.20 L 90.00 64.10 L 89.00 68.70 L 87.50 73.10 L 85.40 77.20 L 82.80 80.90 L 79.80 84.30 L 76.40 87.20 L 72.70 89.70 L 68.70 91.70 L 64.40 93.20 L 59.90 94.00 L 55.20 94.30 L 50.40 93.80 L 46.00 92.80 L 41.80 91.20 L 37.80 89.00 L 34.20 86.40 L 31.00 83.30 L 28.10 79.80 L 25.70 75.90 L 23.80 71.70 L 22.40 67.30 L 21.60 62.70 L 21.40 57.80 L 21.80 52.80 L 22.80 48.20 L 24.40 43.90 L 26.50 39.80 L 29.00 36.00 L 32.00 32.70 L 35.40 29.70 L 39.10 27.20 L 43.20 25.20 L 47.40 23.80 L 51.90 22.90 L 56.70 22.70 Z" fill="#ffe2d4" fill-rule="nonzero" group-id="1" node-id="55" stroke="none" target-height="71.600006" target-width="69.1" target-x="21.4" target-y="22.7"></path></g><path d="M 43.80 64.60 L 43.50 66.00 L 42.70 67.10 L 41.60 67.90 L 40.20 68.20 L 38.80 67.90 L 37.60 67.10 L 36.80 66.00 L 36.60 64.60 L 36.90 63.20 L 37.60 62.00 L 38.80 61.20 L 40.20 61.00 L 41.60 61.20 L 42.70 62.00 L 43.50 63.20 L 43.80 64.60 Z" fill="#423f43" fill-rule="nonzero" node-id="58" stroke="none" target-height="7.199997" target-width="7.200001" target-x="36.6" target-y="61"></path><path d="M 45.70 55.10 L 43.20 54.10 L 41.00 53.90 L 38.80 54.10 L 35.20 55.50 L 33.00 57.20 L 38.70 56.80 L 45.30 57.50 L 46.20 57.10 L 46.50 56.30 L 45.70 55.10 Z" fill="#423f43" fill-rule="nonzero" node-id="60" stroke="none" target-height="3.5999985" target-width="13.5" target-x="33" target-y="53.9"></path><path d="M 75.30 64.60 L 75.00 66.00 L 74.20 67.10 L 73.00 67.90 L 71.70 68.20 L 70.30 67.90 L 69.10 67.10 L 68.30 66.00 L 68.00 64.60 L 68.30 63.20 L 69.10 62.00 L 70.30 61.20 L 71.70 61.00 L 73.00 61.20 L 74.20 62.00 L 75.00 63.20 L 75.30 64.60 Z" fill="#423f43" fill-rule="nonzero" node-id="62" stroke="none" target-height="7.199997" target-width="7.300003" target-x="68" target-y="61"></path><path d="M 66.20 55.10 L 68.60 54.10 L 70.90 53.90 L 73.10 54.10 L 76.60 55.50 L 78.80 57.20 L 73.10 56.80 L 66.60 57.50 L 65.70 57.10 L 65.30 56.30 L 66.20 55.10 Z" fill="#423f43" fill-rule="nonzero" node-id="64" stroke="none" target-height="3.5999985" target-width="13.5" target-x="65.3" target-y="53.9"></path><path d="M 49.90 76.50 L 50.10 78.50 L 50.70 80.20 L 51.70 81.70 L 52.90 82.80 L 54.30 83.50 L 55.90 83.80 L 57.50 83.50 L 58.90 82.80 L 60.10 81.70 L 61.00 80.20 L 61.60 78.50 L 61.90 76.50 Z" fill="#ef9586" fill-rule="nonzero" node-id="66" stroke="none" target-height="7.300003" target-width="12" target-x="49.9" target-y="76.5"></path><path d="M 55.90 67.70 L 54.10 68.40 L 53.40 70.20 L 55.90 69.40 L 58.40 70.20 L 57.70 68.40 L 55.90 67.70 Z" fill="#d1c5c5" fill-rule="nonzero" node-id="68" stroke="none" target-height="2.5" target-width="5" target-x="53.4" target-y="67.7"></path><path d="M 22.30 59.60 L 23.20 50.30 L 27.00 45.70 L 28.40 43.40 L 29.60 40.80 L 30.40 38.00 L 30.60 35.00 L 37.40 34.20 L 47.30 32.00 L 53.60 29.50 L 56.20 28.00 L 55.30 31.80 L 54.00 34.40 L 58.00 32.20 L 59.30 30.90 L 60.50 29.30 L 60.60 34.10 L 60.00 37.60 L 66.50 32.50 L 68.50 30.10 L 68.90 32.90 L 68.20 35.70 L 71.80 34.20 L 74.70 32.10 L 79.00 36.40 L 84.50 43.80 L 87.10 48.60 L 88.60 52.10 L 89.70 55.80 L 90.40 59.90 L 93.00 59.50 L 95.30 60.10 L 99.00 57.30 L 101.60 54.60 L 102.40 53.10 L 102.60 51.70 L 102.20 49.60 L 101.10 47.10 L 98.70 43.10 L 98.00 41.60 L 97.90 39.60 L 98.70 35.00 L 100.80 29.20 L 100.20 26.50 L 98.00 23.50 L 95.80 21.70 L 89.70 17.80 L 87.50 15.90 L 85.60 13.80 L 84.50 10.40 L 83.30 8.20 L 81.70 6.00 L 79.30 3.80 L 75.20 1.50 L 72.40 0.70 L 69.50 0.20 L 66.00 0.20 L 61.80 0.60 L 56.20 2.40 L 45.50 7.00 L 35.80 6.50 L 29.70 7.00 L 24.80 8.60 L 20.50 11.30 L 18.70 13.10 L 17.20 15.30 L 16.10 17.70 L 15.50 20.40 L 15.40 23.40 L 16.40 29.00 L 16.30 32.70 L 14.80 36.20 L 11.00 41.30 L 9.80 45.40 L 9.80 47.60 L 10.30 50.00 L 11.30 52.30 L 12.90 54.90 L 15.70 58.10 L 15.90 59.10 L 15.00 60.80 L 16.30 60.00 L 17.70 59.60 L 22.30 59.60 Z" fill="#423f43" fill-rule="nonzero" node-id="70" stroke="none" target-height="60.6" target-width="92.799995" target-x="9.8" target-y="0.2"></path><path d="M 41.60 77.00 L 40.90 79.00 L 39.90 79.80 L 37.30 80.80 L 35.60 81.00 L 32.60 80.50 L 30.40 79.00 L 29.80 78.10 L 29.60 77.00 L 30.40 75.00 L 32.60 73.60 L 35.60 73.00 L 37.30 73.20 L 39.90 74.20 L 40.90 75.00 L 41.60 77.00 Z" fill="#fcd3c4" fill-rule="nonzero" node-id="72" stroke="none" target-height="8" target-width="11.999998" target-x="29.6" target-y="73"></path><path d="M 82.20 77.00 L 81.40 79.00 L 80.50 79.80 L 77.90 80.80 L 76.20 81.00 L 74.50 80.80 L 72.00 79.80 L 71.00 79.00 L 70.20 77.00 L 71.00 75.00 L 72.00 74.20 L 74.50 73.20 L 76.20 73.00 L 77.90 73.20 L 80.50 74.20 L 81.40 75.00 L 82.20 77.00 Z" fill="#fcd3c4" fill-rule="nonzero" node-id="74" stroke="none" target-height="8" target-width="12" target-x="70.2" target-y="73"></path></svg>