<?xml version="1.0" standalone="no"?><!DOCTYPE svg PUBLIC "-//W3C//DTD SVG 1.1//EN" "http://www.w3.org/Graphics/SVG/1.1/DTD/svg11.dtd"><svg height="146" node-id="1" sillyvg="true" template-height="146" template-width="112" version="1.1" viewBox="0 0 112 146" width="112" xmlns="http://www.w3.org/2000/svg" xmlns:xlink="http://www.w3.org/1999/xlink"><defs node-id="37"></defs><path d="M 96.50 113.00 L 59.30 93.60 L 58.70 93.60 L 21.50 113.00 L 18.80 115.00 L 16.50 117.30 L 14.60 120.00 L 13.20 123.00 L 12.30 126.10 L 12.00 129.50 L 12.00 144.30 L 106.00 144.30 L 106.00 129.50 L 105.70 126.10 L 104.90 123.00 L 103.50 120.00 L 101.60 117.30 L 99.30 115.00 L 96.50 113.00 Z" fill="#db5d84" fill-rule="nonzero" node-id="39" stroke="none" target-height="50.700005" target-width="94" target-x="12" target-y="93.6"></path><path d="M 77.50 103.10 L 71.80 99.90 L 70.70 98.10 L 70.50 86.40 L 47.50 86.40 L 47.40 98.10 L 46.30 99.90 L 40.60 103.10 L 58.70 124.10 Z" fill="#ffd0b4" fill-rule="nonzero" node-id="41" stroke="none" target-height="37.699997" target-width="36.9" target-x="40.6" target-y="86.4"></path><path d="M 71.50 99.70 L 59.00 117.70 L 46.50 99.70 L 37.00 104.90 L 50.80 144.30 L 67.30 144.30 L 81.10 104.90 L 71.50 99.70 Z" fill="#ffd7e9" fill-rule="nonzero" node-id="43" stroke="none" target-height="44.600006" target-width="44.1" target-x="37" target-y="99.7"></path><path d="M 44.50 124.40 L 43.90 122.70 L 43.30 118.90 L 43.70 114.40 L 45.10 111.80 L 46.20 110.70 L 47.70 110.80 L 49.20 111.20 L 53.10 113.30 L 56.80 116.80 L 56.70 121.10 L 53.00 123.30 L 51.30 124.00 L 47.00 124.70 L 44.50 124.40 Z" fill="#c9507c" fill-rule="nonzero" node-id="45" stroke="none" target-height="14" target-width="13.5" target-x="43.3" target-y="110.7"></path><path d="M 73.50 124.30 L 74.10 122.60 L 74.70 118.80 L 74.30 114.30 L 73.00 111.70 L 71.90 110.60 L 70.40 110.70 L 68.80 111.10 L 65.00 113.20 L 61.30 116.70 L 61.40 121.00 L 65.00 123.20 L 66.80 123.90 L 71.10 124.60 L 73.50 124.30 Z" fill="#c9507c" fill-rule="nonzero" node-id="47" stroke="none" target-height="14" target-width="13.399998" target-x="61.3" target-y="110.6"></path><path d="M 62.00 120.30 L 61.90 121.00 L 61.00 121.90 L 57.90 122.00 L 56.60 121.40 L 56.00 120.00 L 56.10 117.00 L 57.00 116.10 L 59.10 116.30 L 61.20 116.00 L 61.90 116.90 Z" fill="#c9507c" fill-rule="nonzero" node-id="49" stroke="none" target-height="6" target-width="6" target-x="56" target-y="116"></path><path d="M 24.50 58.80 L 20.40 58.80 L 18.80 59.20 L 16.60 60.80 L 15.50 63.20 L 15.40 64.70 L 16.20 69.20 L 17.00 71.00 L 19.00 73.70 L 21.10 75.10 L 23.40 76.00 L 28.50 76.70 L 29.50 76.40 L 30.10 75.80 L 30.40 74.80 L 30.30 72.90 L 29.70 70.40 L 27.60 65.10 L 24.50 58.80 Z" fill="#f9d2c2" fill-rule="nonzero" node-id="51" stroke="none" target-height="17.899998" target-width="15" target-x="15.4" target-y="58.8"></path><path d="M 23.50 64.70 L 25.20 65.20 L 25.70 64.10 L 22.90 63.10 L 21.20 63.30 L 19.70 64.50 L 19.30 66.30 L 19.40 67.50 L 20.60 69.50 L 22.30 70.70 L 24.20 71.30 L 25.60 71.20 L 26.90 70.30 L 27.10 69.70 L 26.70 68.90 L 26.00 68.50 L 24.50 69.30 L 22.70 69.20 L 21.50 67.90 L 21.50 66.10 L 21.90 65.40 L 23.50 64.70 Z" fill="#dda08e" fill-rule="nonzero" node-id="53" stroke="none" target-height="8.200005" target-width="7.800001" target-x="19.3" target-y="63.1"></path><path d="M 93.50 58.80 L 97.60 58.80 L 99.20 59.20 L 101.50 60.80 L 102.50 63.20 L 102.70 64.70 L 101.90 69.20 L 101.10 71.00 L 99.00 73.70 L 97.00 75.10 L 94.60 76.00 L 89.60 76.70 L 88.60 76.40 L 88.00 75.80 L 87.70 74.80 L 87.80 72.90 L 88.40 70.40 L 90.40 65.10 L 93.50 58.80 Z" fill="#f9d2c2" fill-rule="nonzero" node-id="55" stroke="none" target-height="17.899998" target-width="15" target-x="87.7" target-y="58.8"></path><path d="M 94.50 64.70 L 92.80 65.20 L 92.40 64.10 L 95.10 63.10 L 96.90 63.30 L 98.30 64.50 L 98.80 66.30 L 98.60 67.50 L 97.40 69.50 L 95.80 70.70 L 93.80 71.30 L 92.50 71.20 L 91.10 70.30 L 90.90 69.70 L 91.30 68.90 L 92.10 68.50 L 93.60 69.30 L 95.40 69.20 L 96.50 67.90 L 96.60 66.10 L 96.10 65.40 L 94.50 64.70 Z" fill="#dda08e" fill-rule="nonzero" node-id="57" stroke="none" target-height="8.200005" target-width="7.9000015" target-x="90.9" target-y="63.1"></path><path d="M 93.70 55.10 L 93.50 49.70 L 92.70 44.60 L 91.40 39.70 L 89.50 35.10 L 87.10 30.90 L 84.40 27.10 L 81.10 23.70 L 77.60 20.80 L 73.70 18.40 L 67.40 16.00 L 60.60 15.10 L 54.00 15.40 L 47.40 17.00 L 44.30 18.40 L 40.50 20.80 L 36.90 23.70 L 33.70 27.10 L 30.90 30.90 L 28.60 35.10 L 26.70 39.70 L 25.30 44.50 L 24.50 49.60 L 24.30 55.10 L 25.00 64.40 L 26.90 72.10 L 30.20 78.90 L 34.40 84.20 L 39.60 88.40 L 45.50 91.40 L 49.70 92.70 L 54.20 93.40 L 59.00 93.60 L 63.80 93.40 L 68.30 92.70 L 72.50 91.40 L 78.50 88.40 L 83.70 84.20 L 87.90 78.90 L 91.10 72.10 L 93.10 64.40 L 93.70 55.10 Z" fill="#ffe2d4" fill-rule="nonzero" node-id="59" stroke="none" target-height="78.5" target-width="69.399994" target-x="24.3" target-y="15.1"></path><path d="M 53.00 76.00 L 53.20 78.00 L 53.80 79.70 L 54.80 81.20 L 56.00 82.40 L 57.40 83.10 L 59.00 83.30 L 60.60 83.10 L 62.00 82.40 L 63.20 81.20 L 64.20 79.70 L 64.80 78.00 L 65.00 76.00 Z" fill="#f57272" fill-rule="nonzero" node-id="61" stroke="none" target-height="7.300003" target-width="12" target-x="53" target-y="76"></path><path d="M 59.00 64.60 L 57.20 65.40 L 56.50 67.20 L 59.00 66.40 L 61.60 67.20 L 60.80 65.40 L 59.00 64.60 Z" fill="#d1b6b6" fill-rule="nonzero" node-id="63" stroke="none" target-height="2.5999985" target-width="5.0999985" target-x="56.5" target-y="64.6"></path><path d="M 44.70 73.50 L 44.00 75.50 L 43.00 76.30 L 40.40 77.30 L 38.70 77.50 L 35.70 76.90 L 33.50 75.50 L 33.00 74.50 L 32.70 73.50 L 33.50 71.50 L 35.70 70.10 L 38.70 69.50 L 40.40 69.70 L 43.00 70.70 L 44.00 71.50 L 44.70 73.50 Z" fill="#fcd3c4" fill-rule="nonzero" node-id="65" stroke="none" target-height="8" target-width="12" target-x="32.7" target-y="69.5"></path><path d="M 85.30 73.50 L 84.50 75.50 L 83.60 76.30 L 81.00 77.30 L 79.30 77.50 L 77.70 77.30 L 75.10 76.30 L 74.10 75.50 L 73.30 73.50 L 74.10 71.50 L 75.10 70.70 L 77.70 69.70 L 79.30 69.50 L 81.00 69.70 L 83.60 70.70 L 84.50 71.50 L 85.30 73.50 Z" fill="#fcd3c4" fill-rule="nonzero" node-id="67" stroke="none" target-height="8" target-width="12" target-x="73.3" target-y="69.5"></path><path d="M 46.10 61.20 L 45.80 62.70 L 45.00 63.90 L 43.80 64.70 L 42.30 65.00 L 40.90 64.70 L 39.70 63.90 L 38.90 62.70 L 38.60 61.20 L 38.90 59.70 L 39.70 58.50 L 40.90 57.70 L 42.30 57.50 L 43.80 57.70 L 45.00 58.50 L 45.80 59.70 L 46.10 61.20 Z" fill="#423f43" fill-rule="nonzero" node-id="69" stroke="none" target-height="7.5" target-width="7.5" target-x="38.6" target-y="57.5"></path><path d="M 48.30 53.80 L 49.00 52.80 L 48.50 52.00 L 47.90 51.60 L 44.70 51.30 L 40.40 51.50 L 37.90 52.10 L 35.50 53.70 L 48.20 53.90 Z" fill="#423f43" fill-rule="nonzero" node-id="71" stroke="none" target-height="2.6000023" target-width="13.5" target-x="35.5" target-y="51.3"></path><path d="M 79.50 61.20 L 79.20 62.70 L 78.40 63.90 L 77.20 64.70 L 75.70 65.00 L 74.30 64.70 L 73.10 63.90 L 72.30 62.70 L 72.00 61.20 L 72.30 59.70 L 73.10 58.50 L 74.30 57.70 L 75.70 57.50 L 77.20 57.70 L 78.40 58.50 L 79.20 59.70 L 79.50 61.20 Z" fill="#423f43" fill-rule="nonzero" node-id="73" stroke="none" target-height="7.5" target-width="7.5" target-x="72" target-y="57.5"></path><path d="M 69.80 53.80 L 69.10 52.80 L 69.50 52.00 L 70.10 51.60 L 73.40 51.30 L 77.70 51.50 L 80.20 52.10 L 82.60 53.70 L 69.80 53.90 Z" fill="#423f43" fill-rule="nonzero" node-id="75" stroke="none" target-height="2.6000023" target-width="13.5" target-x="69.1" target-y="51.3"></path><path d="M 43.00 74.40 L 39.50 73.80 L 36.50 72.10 L 34.40 69.50 L 33.60 67.90 L 33.00 64.40 L 33.60 60.90 L 35.40 58.00 L 38.00 55.80 L 41.20 54.60 L 44.80 54.60 L 46.50 55.00 L 49.50 56.80 L 51.60 59.40 L 52.40 60.90 L 53.00 64.40 L 52.40 67.90 L 50.60 70.90 L 48.00 73.00 L 46.50 73.80 L 43.00 74.40 Z M 43.00 55.60 L 40.60 55.90 L 38.50 56.80 L 36.80 58.10 L 35.40 59.90 L 34.50 62.00 L 34.20 64.40 L 34.50 66.70 L 35.40 68.80 L 36.80 70.60 L 38.50 72.00 L 40.60 72.90 L 43.00 73.20 L 45.40 72.90 L 47.50 72.00 L 49.20 70.60 L 50.60 68.80 L 51.50 66.70 L 51.80 64.40 L 51.50 62.00 L 50.60 59.90 L 49.20 58.10 L 47.50 56.80 L 45.40 55.90 L 43.00 55.60 Z" fill="#332e2c" fill-rule="nonzero" node-id="77" stroke="none" target-height="19.800003" target-width="20" target-x="33" target-y="54.6"></path><path d="M 75.00 74.40 L 71.50 73.80 L 68.50 72.10 L 66.40 69.50 L 65.60 67.90 L 65.00 64.40 L 65.60 60.90 L 67.40 58.00 L 70.00 55.80 L 73.20 54.60 L 76.80 54.60 L 78.50 55.00 L 81.50 56.80 L 83.60 59.40 L 84.40 60.90 L 85.00 64.40 L 84.40 67.90 L 82.60 70.90 L 80.00 73.00 L 78.50 73.80 L 75.00 74.40 Z M 75.00 55.60 L 72.60 55.90 L 70.50 56.80 L 68.80 58.10 L 67.40 59.90 L 66.50 62.00 L 66.20 64.40 L 66.50 66.70 L 67.40 68.80 L 68.80 70.60 L 70.50 72.00 L 72.60 72.90 L 75.00 73.20 L 77.40 72.90 L 79.50 72.00 L 81.20 70.60 L 82.60 68.80 L 83.50 66.70 L 83.80 64.40 L 83.50 62.00 L 82.60 59.90 L 81.20 58.10 L 79.50 56.80 L 77.40 55.90 L 75.00 55.60 Z" fill="#332e2c" fill-rule="nonzero" node-id="79" stroke="none" target-height="19.800003" target-width="20" target-x="65" target-y="54.6"></path><path d="M 52.00 61.10 L 51.30 60.00 L 53.20 58.90 L 56.80 57.70 L 59.50 57.50 L 61.80 57.80 L 65.30 58.90 L 66.80 59.70 L 66.10 60.70 L 63.40 59.40 L 59.40 58.70 L 55.40 59.20 L 52.00 61.10 Z" fill="#332e2c" fill-rule="nonzero" node-id="81" stroke="none" target-height="3.5999985" target-width="15.500004" target-x="51.3" target-y="57.5"></path><path d="M 24.70 59.90 L 25.40 56.20 L 28.00 48.10 L 29.70 44.20 L 33.80 37.50 L 38.50 32.40 L 43.50 28.70 L 48.30 26.70 L 52.10 26.10 L 50.60 29.00 L 49.40 31.90 L 48.60 35.10 L 57.60 28.60 L 58.00 35.10 L 65.10 31.30 L 71.90 27.00 L 77.40 35.60 L 80.90 32.00 L 84.20 36.20 L 88.60 43.50 L 92.00 51.70 L 93.70 59.50 L 95.50 58.70 L 98.30 59.00 L 99.10 54.10 L 99.60 47.00 L 99.50 38.90 L 99.10 35.00 L 98.40 31.40 L 97.40 28.20 L 92.50 19.90 L 88.70 15.80 L 84.10 13.20 L 81.40 12.40 L 78.20 11.90 L 74.20 12.00 L 72.10 10.00 L 67.60 7.00 L 63.90 5.60 L 60.40 4.70 L 56.80 4.30 L 50.90 4.80 L 44.80 6.70 L 40.40 8.90 L 36.10 11.60 L 32.10 14.70 L 28.70 17.80 L 23.50 23.80 L 19.50 30.80 L 17.20 37.00 L 16.10 42.80 L 16.00 47.10 L 16.30 51.30 L 17.90 59.80 L 20.20 59.40 L 22.40 59.40 L 24.70 59.90 Z" fill="#2d1817" fill-rule="nonzero" node-id="83" stroke="none" target-height="55.600002" target-width="83.6" target-x="16" target-y="4.3"></path><path d="M 36.30 26.20 L 36.10 29.40 L 35.50 31.90 L 34.70 33.80 L 33.60 35.40 L 32.00 36.70 L 30.10 37.60 L 25.20 38.50 L 18.70 38.40 L 15.70 37.70 L 12.80 36.40 L 10.20 34.60 L 7.90 32.40 L 6.10 29.80 L 4.70 26.90 L 3.80 23.80 L 3.60 20.70 L 3.80 17.60 L 4.70 14.60 L 6.10 11.60 L 7.90 9.00 L 10.20 6.80 L 12.80 5.00 L 15.70 3.80 L 18.70 3.00 L 21.90 2.80 L 24.60 3.20 L 26.80 4.10 L 28.70 5.30 L 31.90 8.80 L 33.10 11.00 L 34.60 14.50 L 35.50 18.40 L 36.30 26.20 Z" fill="#2d1817" fill-rule="nonzero" node-id="85" stroke="none" target-height="35.7" target-width="32.7" target-x="3.6" target-y="2.8"></path><path d="M 29.30 24.90 L 29.00 26.30 L 28.20 27.50 L 27.10 28.30 L 25.60 28.60 L 24.20 28.30 L 23.00 27.50 L 22.20 26.30 L 21.90 24.90 L 22.20 23.40 L 23.00 22.20 L 24.20 21.40 L 25.60 21.20 L 27.10 21.40 L 28.20 22.20 L 29.00 23.40 L 29.30 24.90 Z" fill="#ed91b2" fill-rule="nonzero" node-id="87" stroke="none" target-height="7.3999996" target-width="7.3999996" target-x="21.9" target-y="21.2"></path><path d="M 32.50 18.20 L 32.20 19.60 L 31.40 20.80 L 30.30 21.60 L 28.80 21.90 L 27.30 21.60 L 26.20 20.80 L 25.40 19.60 L 25.10 18.20 L 25.40 16.70 L 26.20 15.50 L 27.30 14.80 L 28.80 14.50 L 30.30 14.80 L 31.40 15.50 L 32.20 16.70 L 32.50 18.20 Z" fill="#ed91b2" fill-rule="nonzero" node-id="89" stroke="none" target-height="7.3999996" target-width="7.3999996" target-x="25.1" target-y="14.5"></path><path d="M 78.70 23.20 L 78.90 25.60 L 80.20 29.30 L 81.70 31.50 L 83.50 33.30 L 85.50 34.80 L 90.50 37.50 L 93.60 37.30 L 96.60 36.50 L 99.30 35.20 L 101.70 33.50 L 103.80 31.40 L 105.60 29.00 L 106.90 26.30 L 107.70 23.40 L 108.00 20.20 L 107.80 17.90 L 106.60 13.50 L 104.30 9.60 L 102.80 7.90 L 101.10 6.40 L 97.10 4.20 L 92.80 3.00 L 90.50 2.90 L 87.90 3.30 L 85.80 4.00 L 84.20 5.00 L 81.60 7.90 L 79.70 12.70 L 79.10 16.10 L 78.70 23.20 Z" fill="#2d1817" fill-rule="nonzero" node-id="91" stroke="none" target-height="34.6" target-width="29.300003" target-x="78.7" target-y="2.9"></path><path d="M 95.60 22.60 L 95.30 24.00 L 94.50 25.20 L 93.30 26.00 L 91.90 26.30 L 90.40 26.00 L 89.20 25.20 L 88.50 24.00 L 88.20 22.60 L 88.50 21.10 L 89.20 20.00 L 90.40 19.20 L 91.90 18.90 L 93.30 19.20 L 94.50 20.00 L 95.30 21.10 L 95.60 22.60 Z" fill="#ed91b2" fill-rule="nonzero" node-id="93" stroke="none" target-height="7.3999996" target-width="7.4000015" target-x="88.2" target-y="18.9"></path><path d="M 90.50 17.80 L 90.20 19.30 L 89.40 20.40 L 88.20 21.20 L 86.80 21.50 L 85.30 21.20 L 84.10 20.40 L 83.40 19.30 L 83.10 17.80 L 83.40 16.40 L 84.10 15.20 L 85.30 14.40 L 86.80 14.10 L 88.20 14.40 L 89.40 15.20 L 90.20 16.40 L 90.50 17.80 Z" fill="#ed91b2" fill-rule="nonzero" node-id="95" stroke="none" target-height="7.3999996" target-width="7.4000015" target-x="83.1" target-y="14.1"></path></svg>