<?xml version="1.0" standalone="no"?><!DOCTYPE svg PUBLIC "-//W3C//DTD SVG 1.1//EN" "http://www.w3.org/Graphics/SVG/1.1/DTD/svg11.dtd"><svg height="146" node-id="1" sillyvg="true" template-height="146" template-width="112" version="1.1" viewBox="0 0 112 146" width="112" xmlns="http://www.w3.org/2000/svg" xmlns:xlink="http://www.w3.org/1999/xlink"><defs node-id="35"></defs><path d="M 96.10 114.20 L 58.90 94.70 L 58.30 94.70 L 21.10 114.20 L 18.30 116.10 L 16.00 118.40 L 14.20 121.10 L 12.80 124.10 L 11.90 127.30 L 11.60 130.70 L 11.60 145.50 L 105.60 145.50 L 105.60 130.70 L 105.30 127.30 L 104.40 124.10 L 103.00 121.10 L 101.20 118.40 L 98.90 116.10 L 96.10 114.20 Z" fill="#db5d84" fill-rule="nonzero" node-id="37" stroke="none" target-height="50.800003" target-width="94" target-x="11.6" target-y="94.7"></path><path d="M 77.00 104.20 L 71.30 101.10 L 70.20 99.20 L 70.10 87.60 L 47.10 87.60 L 46.90 99.20 L 45.80 101.10 L 40.10 104.20 L 58.30 125.20 Z" fill="#ffd0b4" fill-rule="nonzero" node-id="39" stroke="none" target-height="37.6" target-width="36.9" target-x="40.1" target-y="87.6"></path><path d="M 71.10 100.90 L 58.60 118.90 L 46.10 100.90 L 36.60 106.10 L 50.40 145.50 L 66.80 145.50 L 80.60 106.10 L 71.10 100.90 Z" fill="#ffd7e9" fill-rule="nonzero" node-id="41" stroke="none" target-height="44.6" target-width="44" target-x="36.6" target-y="100.9"></path><path d="M 44.10 125.60 L 43.50 123.90 L 42.90 120.00 L 43.30 115.50 L 44.60 112.90 L 45.70 111.90 L 47.20 112.00 L 48.80 112.40 L 52.60 114.40 L 56.40 118.00 L 56.20 122.30 L 52.60 124.50 L 50.80 125.20 L 46.50 125.90 L 44.10 125.60 Z" fill="#c9507c" fill-rule="nonzero" node-id="43" stroke="none" target-height="14" target-width="13.5" target-x="42.9" target-y="111.9"></path><path d="M 73.10 125.50 L 73.70 123.80 L 74.30 119.90 L 73.90 115.40 L 72.60 112.80 L 71.50 111.80 L 69.90 111.90 L 68.40 112.30 L 64.50 114.30 L 60.80 117.90 L 61.00 122.20 L 64.60 124.40 L 66.30 125.10 L 70.70 125.80 L 73.10 125.50 Z" fill="#c9507c" fill-rule="nonzero" node-id="45" stroke="none" target-height="14" target-width="13.500004" target-x="60.8" target-y="111.8"></path><path d="M 61.50 121.50 L 61.40 122.10 L 60.50 123.00 L 57.50 123.20 L 56.10 122.50 L 55.60 121.20 L 55.70 118.10 L 56.60 117.20 L 58.70 117.40 L 60.70 117.10 L 61.50 118.10 Z" fill="#c9507c" fill-rule="nonzero" node-id="47" stroke="none" target-height="6.0999985" target-width="5.9000015" target-x="55.6" target-y="117.1"></path><path d="M 39.70 88.70 L 39.50 86.70 L 38.80 85.00 L 37.70 83.50 L 36.20 82.20 L 34.60 81.40 L 32.60 81.00 L 32.20 76.70 L 31.60 75.10 L 30.70 73.80 L 28.90 72.90 L 27.50 72.70 L 25.30 73.00 L 22.90 73.80 L 20.70 75.10 L 18.90 76.70 L 17.40 79.30 L 17.30 82.20 L 15.90 83.50 L 14.90 85.20 L 14.50 87.00 L 14.50 88.90 L 15.00 90.80 L 16.00 92.40 L 17.40 93.60 L 19.20 94.50 L 19.40 96.30 L 20.00 97.90 L 21.00 99.40 L 22.30 100.50 L 23.80 101.30 L 25.60 101.80 L 27.50 101.80 L 29.20 101.30 L 30.70 100.50 L 32.00 99.40 L 33.00 98.00 L 33.70 96.20 L 35.40 95.60 L 38.00 93.60 L 39.50 90.50 L 39.70 88.70 Z" fill="#2d1817" fill-rule="nonzero" node-id="49" stroke="none" target-height="29.100006" target-width="25.2" target-x="14.5" target-y="72.7"></path><path d="M 77.60 88.70 L 77.80 86.70 L 78.50 85.00 L 79.60 83.50 L 81.10 82.20 L 82.70 81.40 L 84.70 81.00 L 85.10 76.70 L 85.70 75.10 L 86.60 73.80 L 88.40 72.90 L 89.80 72.70 L 92.00 73.00 L 94.40 73.80 L 96.60 75.10 L 98.40 76.70 L 99.90 79.30 L 100.00 82.20 L 101.40 83.50 L 102.40 85.20 L 102.80 87.00 L 102.80 88.90 L 102.30 90.80 L 101.30 92.40 L 99.90 93.60 L 98.20 94.50 L 97.90 96.30 L 97.30 97.90 L 96.30 99.30 L 95.00 100.50 L 93.50 101.30 L 91.70 101.70 L 89.80 101.70 L 88.20 101.30 L 86.60 100.50 L 85.30 99.40 L 84.30 98.00 L 83.60 96.20 L 81.90 95.60 L 79.30 93.60 L 77.80 90.50 L 77.60 88.70 Z" fill="#2d1817" fill-rule="nonzero" node-id="51" stroke="none" target-height="29" target-width="25.200005" target-x="77.6" target-y="72.7"></path><path d="M 58.60 64.40 L 56.80 65.20 L 56.10 67.00 L 58.60 66.20 L 61.20 67.00 L 60.40 65.20 L 58.60 64.40 Z" fill="#d1b6b6" fill-rule="nonzero" node-id="53" stroke="none" target-height="2.5999985" target-width="5.1000023" target-x="56.1" target-y="64.4"></path><path d="M 23.80 58.70 L 19.70 58.70 L 18.10 59.10 L 15.80 60.70 L 14.80 63.10 L 14.60 64.60 L 15.40 69.10 L 16.20 70.90 L 18.30 73.60 L 20.30 75.00 L 22.70 75.90 L 27.70 76.60 L 28.70 76.30 L 29.30 75.70 L 29.60 74.70 L 29.50 72.80 L 28.90 70.30 L 26.90 65.00 L 23.80 58.70 Z" fill="#f9d2c2" fill-rule="nonzero" node-id="55" stroke="none" target-height="17.899998" target-width="15" target-x="14.6" target-y="58.7"></path><path d="M 22.80 64.60 L 24.50 65.10 L 25.00 64.00 L 23.70 63.40 L 21.30 63.00 L 19.60 63.60 L 18.60 65.20 L 18.70 67.40 L 19.20 68.40 L 19.90 69.40 L 21.60 70.60 L 23.50 71.20 L 24.90 71.10 L 26.20 70.20 L 26.30 69.00 L 25.80 68.50 L 25.20 68.40 L 23.80 69.10 L 22.90 69.20 L 21.20 68.50 L 20.80 67.70 L 20.80 65.90 L 21.20 65.20 L 22.80 64.50 Z" fill="#dda08e" fill-rule="nonzero" node-id="57" stroke="none" target-height="8.199997" target-width="7.699999" target-x="18.6" target-y="63"></path><path d="M 92.80 58.60 L 96.90 58.60 L 98.50 59.00 L 100.70 60.60 L 101.80 63.00 L 101.90 64.50 L 101.10 69.00 L 100.40 70.90 L 98.30 73.50 L 96.20 74.90 L 93.90 75.80 L 88.80 76.50 L 87.80 76.20 L 87.20 75.60 L 86.90 74.60 L 87.00 72.70 L 87.60 70.20 L 89.70 64.90 L 92.80 58.60 Z" fill="#f9d2c2" fill-rule="nonzero" node-id="59" stroke="none" target-height="17.900002" target-width="15" target-x="86.9" target-y="58.6"></path><path d="M 93.80 64.60 L 92.10 65.00 L 91.60 63.90 L 93.00 63.30 L 95.30 62.90 L 97.00 63.60 L 98.00 65.10 L 97.90 67.30 L 96.70 69.30 L 95.00 70.50 L 92.70 71.20 L 91.00 70.60 L 90.20 69.50 L 90.60 68.80 L 91.40 68.40 L 92.80 69.10 L 93.70 69.20 L 95.40 68.50 L 95.80 67.70 L 95.80 65.90 L 95.30 65.10 L 93.80 64.60 Z" fill="#dda08e" fill-rule="nonzero" node-id="61" stroke="none" target-height="8.299995" target-width="7.800003" target-x="90.2" target-y="62.9"></path><path d="M 93.00 54.90 L 92.80 49.50 L 92.00 44.40 L 90.60 39.60 L 88.70 34.90 L 86.40 30.70 L 83.60 26.90 L 80.40 23.50 L 76.90 20.60 L 73.00 18.30 L 66.70 15.80 L 59.90 14.90 L 53.20 15.20 L 46.70 16.90 L 43.60 18.30 L 39.70 20.60 L 36.20 23.50 L 33.00 26.90 L 30.20 30.70 L 27.90 34.90 L 26.00 39.50 L 24.60 44.40 L 23.80 49.50 L 23.60 54.90 L 24.30 64.20 L 26.20 71.90 L 29.50 78.70 L 33.70 84.00 L 38.80 88.20 L 44.80 91.20 L 49.00 92.50 L 53.50 93.20 L 58.30 93.40 L 63.10 93.20 L 67.60 92.50 L 71.80 91.20 L 77.70 88.20 L 82.90 84.00 L 87.10 78.70 L 90.40 71.90 L 92.30 64.20 L 93.00 54.90 Z" fill="#ffe2d4" fill-rule="nonzero" node-id="63" stroke="none" target-height="78.5" target-width="69.4" target-x="23.6" target-y="14.9"></path><path d="M 52.20 73.90 L 52.50 75.90 L 53.10 77.60 L 54.00 79.10 L 55.30 80.30 L 56.70 81.00 L 58.20 81.20 L 59.80 81.00 L 61.20 80.30 L 62.50 79.10 L 63.40 77.60 L 64.00 75.90 L 64.20 73.90 Z" fill="#f57272" fill-rule="nonzero" node-id="65" stroke="none" target-height="7.2999954" target-width="11.999996" target-x="52.2" target-y="73.9"></path><path d="M 44.00 73.30 L 43.20 75.30 L 42.20 76.10 L 39.70 77.20 L 38.00 77.30 L 34.90 76.80 L 32.80 75.30 L 32.20 74.40 L 32.00 73.30 L 32.80 71.30 L 34.90 69.90 L 38.00 69.30 L 39.70 69.50 L 42.20 70.50 L 43.20 71.30 L 44.00 73.30 Z" fill="#fcd3c4" fill-rule="nonzero" node-id="67" stroke="none" target-height="8" target-width="12" target-x="32" target-y="69.3"></path><path d="M 84.60 73.30 L 83.80 75.30 L 82.80 76.10 L 80.20 77.20 L 78.60 77.30 L 75.50 76.80 L 73.40 75.30 L 72.80 74.40 L 72.60 73.30 L 73.40 71.30 L 75.50 69.90 L 78.60 69.30 L 80.20 69.50 L 82.80 70.50 L 83.80 71.30 L 84.60 73.30 Z" fill="#fcd3c4" fill-rule="nonzero" node-id="69" stroke="none" target-height="8" target-width="12" target-x="72.6" target-y="69.3"></path><path d="M 45.30 59.90 L 45.00 61.40 L 44.20 62.50 L 43.10 63.30 L 41.60 63.60 L 40.10 63.30 L 38.90 62.50 L 38.10 61.40 L 37.80 59.90 L 38.10 58.40 L 38.90 57.20 L 40.10 56.40 L 41.60 56.10 L 43.10 56.40 L 44.20 57.20 L 45.00 58.40 L 45.30 59.90 Z" fill="#423f43" fill-rule="nonzero" node-id="71" stroke="none" target-height="7.5" target-width="7.5" target-x="37.8" target-y="56.1"></path><path d="M 47.50 52.50 L 48.20 51.50 L 47.80 50.70 L 47.20 50.30 L 43.90 50.00 L 39.60 50.20 L 37.10 50.80 L 34.70 52.40 L 47.50 52.60 Z" fill="#423f43" fill-rule="nonzero" node-id="73" stroke="none" target-height="2.5999985" target-width="13.5" target-x="34.7" target-y="50"></path><path d="M 78.70 59.90 L 78.40 61.40 L 77.60 62.50 L 76.50 63.30 L 75.00 63.60 L 73.50 63.30 L 72.30 62.50 L 71.50 61.40 L 71.20 59.90 L 71.50 58.40 L 72.30 57.20 L 73.50 56.40 L 75.00 56.10 L 76.50 56.40 L 77.60 57.20 L 78.40 58.40 L 78.70 59.90 Z" fill="#423f43" fill-rule="nonzero" node-id="75" stroke="none" target-height="7.5" target-width="7.5" target-x="71.2" target-y="56.1"></path><path d="M 69.00 52.50 L 68.30 51.50 L 68.80 50.70 L 69.40 50.30 L 72.60 50.00 L 76.90 50.20 L 79.40 50.80 L 81.80 52.40 L 69.10 52.60 Z" fill="#423f43" fill-rule="nonzero" node-id="77" stroke="none" target-height="2.5999985" target-width="13.5" target-x="68.3" target-y="50"></path><path d="M 42.30 73.90 L 38.80 73.20 L 37.20 72.50 L 34.60 70.30 L 32.90 67.30 L 32.30 63.90 L 32.90 60.40 L 34.60 57.40 L 37.20 55.20 L 40.50 54.00 L 44.10 54.00 L 45.80 54.50 L 48.70 56.20 L 50.90 58.80 L 51.70 60.40 L 52.30 63.90 L 51.70 67.30 L 49.90 70.30 L 47.30 72.50 L 45.80 73.20 L 42.30 73.90 Z M 42.30 55.00 L 39.90 55.30 L 37.80 56.20 L 36.00 57.60 L 34.70 59.40 L 33.80 61.50 L 33.50 63.80 L 33.80 66.20 L 34.70 68.30 L 36.00 70.10 L 37.80 71.40 L 39.90 72.30 L 42.30 72.60 L 44.70 72.30 L 46.70 71.40 L 48.50 70.10 L 49.90 68.30 L 50.80 66.20 L 51.10 63.80 L 50.80 61.50 L 49.90 59.40 L 48.50 57.60 L 46.70 56.20 L 44.60 55.30 L 42.30 55.00 Z" fill="#332e2c" fill-rule="nonzero" node-id="79" stroke="none" target-height="19.900002" target-width="20" target-x="32.3" target-y="54"></path><path d="M 74.30 73.90 L 70.80 73.20 L 67.80 71.50 L 65.60 68.90 L 64.90 67.30 L 64.30 63.90 L 64.90 60.40 L 66.60 57.40 L 69.20 55.20 L 72.50 54.00 L 76.10 54.00 L 77.80 54.50 L 80.70 56.20 L 82.90 58.80 L 83.70 60.40 L 84.30 63.90 L 83.70 67.30 L 82.90 68.90 L 80.70 71.50 L 77.80 73.20 L 74.30 73.90 Z M 74.30 55.00 L 71.90 55.30 L 69.80 56.20 L 68.00 57.60 L 66.70 59.40 L 65.80 61.50 L 65.50 63.80 L 65.80 66.20 L 66.70 68.30 L 68.00 70.10 L 69.80 71.40 L 71.90 72.30 L 74.30 72.60 L 76.70 72.30 L 78.70 71.40 L 80.50 70.10 L 81.90 68.30 L 82.80 66.20 L 83.10 63.80 L 82.80 61.50 L 81.90 59.40 L 80.50 57.60 L 78.70 56.20 L 76.60 55.30 L 74.30 55.00 Z" fill="#332e2c" fill-rule="nonzero" node-id="81" stroke="none" target-height="19.900002" target-width="20" target-x="64.3" target-y="54"></path><path d="M 51.30 60.50 L 50.50 59.50 L 52.50 58.30 L 56.10 57.10 L 58.70 56.90 L 61.00 57.20 L 64.60 58.40 L 66.00 59.10 L 65.40 60.10 L 62.60 58.90 L 58.70 58.10 L 54.70 58.70 L 51.30 60.50 Z" fill="#332e2c" fill-rule="nonzero" node-id="83" stroke="none" target-height="3.5999985" target-width="15.5" target-x="50.5" target-y="56.9"></path><path d="M 23.70 58.80 L 24.50 51.90 L 25.80 48.10 L 26.80 46.90 L 35.10 40.60 L 37.10 38.40 L 38.70 35.70 L 40.10 32.10 L 41.30 30.20 L 42.90 28.50 L 44.20 27.70 L 46.00 27.20 L 48.30 27.00 L 51.90 29.30 L 53.60 29.80 L 56.40 29.50 L 58.50 28.80 L 62.50 24.60 L 64.50 23.90 L 68.40 25.10 L 71.10 25.70 L 73.80 25.80 L 78.30 25.10 L 80.10 25.50 L 80.70 26.20 L 81.10 27.70 L 80.30 32.40 L 80.80 33.90 L 82.40 34.80 L 85.60 35.30 L 86.70 35.80 L 87.50 36.60 L 88.10 37.70 L 88.30 39.60 L 86.70 43.00 L 86.20 45.30 L 87.30 47.50 L 90.10 50.50 L 90.70 51.60 L 93.30 58.70 L 95.90 58.40 L 98.40 58.80 L 99.10 50.20 L 98.20 37.40 L 96.60 29.30 L 95.40 25.90 L 94.00 23.40 L 91.40 19.90 L 89.60 18.00 L 87.30 16.30 L 83.80 15.00 L 81.60 14.80 L 79.90 11.60 L 77.90 9.00 L 75.60 6.90 L 70.30 3.80 L 63.30 1.90 L 59.40 1.40 L 53.40 1.40 L 47.50 2.70 L 44.40 3.90 L 40.00 6.20 L 35.70 9.10 L 31.80 12.30 L 28.50 15.60 L 25.70 19.00 L 23.80 22.00 L 20.20 30.10 L 17.90 38.60 L 17.30 43.10 L 17.10 47.40 L 17.40 59.10 L 20.30 58.60 L 23.70 58.80 Z" fill="#2d1817" fill-rule="nonzero" node-id="85" stroke="none" target-height="57.699997" target-width="82" target-x="17.1" target-y="1.4"></path><path d="M 33.20 35.00 L 32.30 34.40 L 28.40 25.60 L 28.30 25.10 L 28.90 24.20 L 29.90 24.30 L 30.20 24.80 L 34.10 33.60 L 34.10 34.40 L 33.20 35.00 Z" fill="#ed91b2" fill-rule="nonzero" node-id="87" stroke="none" target-height="10.799999" target-width="5.799999" target-x="28.3" target-y="24.2"></path><path d="M 32.90 32.90 L 34.00 30.40 L 34.70 29.80 L 35.60 29.60 L 36.50 30.00 L 37.70 32.20 L 37.90 33.70 L 37.80 36.70 L 37.00 38.80 L 35.90 39.70 L 34.70 40.10 L 33.40 40.20 L 31.30 39.70 L 29.40 38.60 L 27.80 37.10 L 26.80 35.40 L 26.80 34.00 L 27.40 32.60 L 28.40 32.10 L 30.80 32.10 L 32.90 32.90 Z" fill="#ed91b2" fill-rule="nonzero" node-id="89" stroke="none" target-height="10.6" target-width="11.100002" target-x="26.8" target-y="29.6"></path></svg>