<?xml version="1.0" standalone="no"?><!DOCTYPE svg PUBLIC "-//W3C//DTD SVG 1.1//EN" "http://www.w3.org/Graphics/SVG/1.1/DTD/svg11.dtd"><svg height="146" node-id="1" sillyvg="true" template-height="146" template-width="112" version="1.1" viewBox="0 0 112 146" width="112" xmlns="http://www.w3.org/2000/svg" xmlns:xlink="http://www.w3.org/1999/xlink"><defs node-id="40"></defs><path d="M 67.30 111.70 L 61.50 108.50 L 60.40 106.70 L 60.20 94.80 L 36.90 94.80 L 36.70 106.70 L 35.60 108.50 L 29.80 111.70 L 47.70 121.40 Z" fill="#ffd0b4" fill-rule="nonzero" node-id="42" stroke="none" target-height="26.599998" target-width="37.500004" target-x="29.8" target-y="94.8"></path><path d="M 48.50 119.00 L 51.30 118.80 L 56.30 117.30 L 60.60 114.50 L 64.10 110.60 L 66.30 105.80 L 60.20 103.00 L 59.10 106.60 L 58.10 108.20 L 56.30 110.30 L 54.00 111.80 L 50.50 113.00 L 48.50 113.10 L 44.80 112.50 L 43.10 111.80 L 40.80 110.30 L 38.90 108.20 L 38.00 106.60 L 36.80 103.00 L 30.70 105.80 L 33.00 110.60 L 36.40 114.50 L 40.80 117.30 L 43.20 118.20 L 48.50 119.00 Z" fill="#ffd0b4" fill-rule="nonzero" node-id="44" stroke="none" target-height="16" target-width="35.600002" target-x="30.7" target-y="103"></path><path d="M 86.00 114.70 L 66.30 105.70 L 64.10 110.60 L 62.50 112.60 L 58.50 116.00 L 53.80 118.20 L 51.20 118.70 L 48.50 118.90 L 45.80 118.70 L 40.80 117.30 L 36.40 114.50 L 33.00 110.60 L 30.70 105.70 L 11.10 114.70 L 8.30 116.60 L 6.00 118.90 L 4.10 121.60 L 2.70 124.60 L 1.80 127.80 L 1.50 131.20 L 1.50 146.00 L 95.50 146.00 L 95.50 131.20 L 95.20 127.80 L 94.40 124.60 L 93.00 121.60 L 91.10 118.90 L 88.80 116.60 L 86.00 114.70 Z" fill="#db5d84" fill-rule="nonzero" node-id="46" stroke="none" target-height="40.300003" target-width="94" target-x="1.5" target-y="105.7"></path><path d="M 29.10 106.50 L 22.60 109.40 L 22.60 132.50 L 29.10 132.50 L 29.10 106.50 Z" fill="#ffd7e9" fill-rule="nonzero" node-id="48" stroke="none" target-height="26" target-width="6.5" target-x="22.6" target-y="106.5"></path><path d="M 74.40 109.40 L 67.90 106.50 L 67.90 132.50 L 74.40 132.50 L 74.40 109.40 Z" fill="#ffd7e9" fill-rule="nonzero" node-id="50" stroke="none" target-height="26" target-width="6.5" target-x="67.9" target-y="106.5"></path><path d="M 72.10 128.30 L 25.00 128.30 L 18.60 139.70 L 18.60 146.00 L 78.50 146.00 L 78.50 139.70 L 72.10 128.30 Z" fill="#ffd7e9" fill-rule="nonzero" node-id="52" stroke="none" target-height="17.699997" target-width="59.9" target-x="18.6" target-y="128.3"></path><path d="M 68.60 132.50 L 29.00 132.50 L 23.70 141.20 L 23.70 146.00 L 74.00 146.00 L 74.00 141.20 L 68.60 132.50 Z" fill="#ed91b2" fill-rule="nonzero" node-id="54" stroke="none" target-height="13.5" target-width="50.3" target-x="23.7" target-y="132.5"></path><path d="M 14.00 65.40 L 9.90 65.40 L 8.30 65.80 L 6.10 67.40 L 5.00 69.80 L 4.90 71.30 L 5.70 75.80 L 6.50 77.60 L 8.60 80.30 L 10.60 81.70 L 12.90 82.60 L 18.00 83.20 L 19.00 83.00 L 19.60 82.40 L 19.90 81.40 L 19.80 79.50 L 19.20 77.00 L 17.10 71.70 L 14.00 65.40 Z" fill="#f9d2c2" fill-rule="nonzero" node-id="56" stroke="none" target-height="17.799995" target-width="15" target-x="4.9" target-y="65.4"></path><path d="M 13.10 71.30 L 14.70 71.80 L 15.20 70.70 L 13.90 70.10 L 11.50 69.70 L 9.80 70.40 L 8.80 71.90 L 8.90 74.10 L 10.10 76.10 L 11.80 77.30 L 13.70 78.00 L 15.10 77.90 L 16.40 77.00 L 16.60 76.40 L 16.20 75.60 L 15.50 75.20 L 14.00 75.90 L 12.20 75.90 L 11.00 74.50 L 11.00 72.70 L 11.50 71.90 L 13.10 71.30 Z" fill="#dda08e" fill-rule="nonzero" node-id="58" stroke="none" target-height="8.300003" target-width="7.8" target-x="8.8" target-y="69.7"></path><path d="M 83.10 65.30 L 87.10 65.30 L 88.70 65.70 L 91.00 67.30 L 92.10 69.70 L 92.20 71.20 L 91.40 75.70 L 90.60 77.60 L 88.50 80.20 L 86.50 81.60 L 84.20 82.50 L 79.10 83.20 L 78.10 82.90 L 77.50 82.30 L 77.20 81.30 L 77.30 79.40 L 77.90 76.90 L 79.90 71.60 L 83.10 65.30 Z" fill="#f9d2c2" fill-rule="nonzero" node-id="60" stroke="none" target-height="17.899994" target-width="15" target-x="77.2" target-y="65.3"></path><path d="M 84.00 71.20 L 82.30 71.70 L 81.80 70.60 L 83.20 70.00 L 85.50 69.60 L 87.20 70.30 L 88.20 71.80 L 88.10 74.00 L 86.90 76.00 L 85.30 77.20 L 82.90 77.80 L 81.20 77.30 L 80.40 76.20 L 80.80 75.40 L 81.60 75.00 L 83.10 75.80 L 84.00 75.90 L 85.60 75.10 L 86.10 74.40 L 86.00 72.60 L 85.60 71.80 L 84.00 71.20 Z" fill="#dda08e" fill-rule="nonzero" node-id="62" stroke="none" target-height="8.200005" target-width="7.7999954" target-x="80.4" target-y="69.6"></path><path d="M 83.90 61.50 L 83.70 56.10 L 82.80 51.10 L 81.50 46.20 L 79.50 41.60 L 77.20 37.50 L 74.30 33.70 L 71.00 30.30 L 67.50 27.40 L 63.50 25.10 L 57.10 22.70 L 50.10 21.70 L 43.40 22.00 L 36.70 23.70 L 33.50 25.10 L 29.60 27.40 L 26.00 30.30 L 22.70 33.70 L 19.90 37.50 L 17.50 41.60 L 15.60 46.20 L 14.20 51.10 L 13.40 56.10 L 13.20 61.50 L 13.90 70.80 L 15.80 78.40 L 19.20 85.20 L 23.40 90.50 L 28.70 94.70 L 34.70 97.70 L 39.10 99.00 L 43.70 99.70 L 48.50 99.90 L 53.40 99.70 L 58.00 99.00 L 62.30 97.70 L 68.30 94.70 L 73.60 90.50 L 77.90 85.20 L 81.20 78.40 L 83.20 70.80 L 83.90 61.50 Z" fill="#ffe2d4" fill-rule="nonzero" node-id="64" stroke="none" target-height="78.2" target-width="70.700005" target-x="13.2" target-y="21.7"></path><path d="M 42.30 80.80 L 42.50 82.80 L 43.10 84.60 L 44.00 86.00 L 45.30 87.20 L 46.70 87.90 L 48.30 88.20 L 49.80 87.90 L 51.20 87.20 L 52.50 86.00 L 53.40 84.60 L 54.00 82.80 L 54.30 80.80 Z" fill="#f57272" fill-rule="nonzero" node-id="66" stroke="none" target-height="7.399994" target-width="12" target-x="42.3" target-y="80.8"></path><path d="M 48.30 71.40 L 46.50 72.10 L 45.80 73.90 L 48.30 73.10 L 50.80 73.90 L 50.10 72.10 L 48.30 71.40 Z" fill="#d1b6b6" fill-rule="nonzero" node-id="68" stroke="none" target-height="2.5" target-width="5" target-x="45.8" target-y="71.4"></path><path d="M 34.00 80.30 L 33.20 82.20 L 32.20 83.10 L 29.70 84.10 L 28.00 84.30 L 24.90 83.70 L 22.80 82.20 L 22.20 81.30 L 22.00 80.30 L 22.80 78.30 L 24.90 76.80 L 28.00 76.30 L 29.70 76.40 L 32.20 77.40 L 33.20 78.30 L 34.00 80.30 Z" fill="#fcd3c4" fill-rule="nonzero" node-id="70" stroke="none" target-height="8" target-width="12" target-x="22" target-y="76.3"></path><path d="M 74.60 80.30 L 73.80 82.20 L 72.80 83.10 L 70.30 84.10 L 68.60 84.30 L 65.50 83.70 L 63.40 82.20 L 62.80 81.30 L 62.60 80.30 L 63.40 78.30 L 65.50 76.80 L 68.60 76.30 L 70.30 76.40 L 72.80 77.40 L 73.80 78.30 L 74.60 80.30 Z" fill="#fcd3c4" fill-rule="nonzero" node-id="72" stroke="none" target-height="8" target-width="12" target-x="62.6" target-y="76.3"></path><path d="M 35.40 68.00 L 35.10 69.40 L 34.30 70.60 L 33.10 71.40 L 31.60 71.70 L 30.10 71.40 L 28.90 70.60 L 28.10 69.40 L 27.90 68.00 L 28.10 66.50 L 28.90 65.30 L 30.10 64.50 L 31.60 64.20 L 33.10 64.50 L 34.30 65.30 L 35.10 66.50 L 35.40 68.00 Z" fill="#423f43" fill-rule="nonzero" node-id="74" stroke="none" target-height="7.5" target-width="7.500002" target-x="27.9" target-y="64.2"></path><path d="M 37.50 60.60 L 38.30 59.60 L 37.80 58.70 L 37.20 58.40 L 33.90 58.00 L 29.60 58.20 L 27.10 58.90 L 24.70 60.40 L 37.50 60.70 Z" fill="#423f43" fill-rule="nonzero" node-id="76" stroke="none" target-height="2.7000008" target-width="13.599998" target-x="24.7" target-y="58"></path><path d="M 68.70 68.00 L 68.40 69.40 L 67.60 70.60 L 66.50 71.40 L 65.00 71.70 L 63.50 71.40 L 62.30 70.60 L 61.50 69.40 L 61.20 68.00 L 61.50 66.50 L 62.30 65.30 L 63.50 64.50 L 65.00 64.20 L 66.50 64.50 L 67.60 65.30 L 68.40 66.50 L 68.70 68.00 Z" fill="#423f43" fill-rule="nonzero" node-id="78" stroke="none" target-height="7.5" target-width="7.499996" target-x="61.2" target-y="64.2"></path><path d="M 59.10 60.60 L 58.30 59.60 L 58.80 58.70 L 59.40 58.40 L 62.60 58.00 L 66.90 58.20 L 69.50 58.90 L 71.90 60.40 L 59.10 60.70 Z" fill="#423f43" fill-rule="nonzero" node-id="80" stroke="none" target-height="2.7000008" target-width="13.600002" target-x="58.3" target-y="58"></path><path d="M 15.60 46.80 L 23.30 46.80 L 23.40 41.70 L 25.80 41.70 L 25.80 46.00 L 35.00 46.00 L 34.30 34.90 L 37.00 46.10 L 39.40 46.10 L 39.50 37.50 L 40.70 46.30 L 52.40 46.30 L 52.40 37.70 L 54.30 46.30 L 60.10 46.30 L 60.10 37.90 L 62.80 46.50 L 69.50 46.50 L 69.30 41.50 L 71.30 45.60 L 77.30 45.60 L 77.30 39.30 L 80.00 55.50 L 81.60 62.10 L 82.60 64.50 L 83.40 65.40 L 86.00 65.10 L 89.20 65.90 L 89.80 56.30 L 89.90 43.00 L 89.10 35.20 L 88.40 32.80 L 85.50 26.70 L 83.20 22.90 L 77.70 16.10 L 72.00 11.40 L 68.80 9.50 L 65.20 8.00 L 61.20 7.10 L 58.10 6.80 L 54.90 6.90 L 51.30 7.40 L 47.30 8.40 L 42.60 7.40 L 39.20 7.20 L 35.40 7.40 L 31.10 8.30 L 28.30 9.20 L 25.40 10.70 L 22.40 12.70 L 19.70 15.00 L 17.10 18.20 L 14.40 22.20 L 11.30 28.90 L 8.60 38.40 L 7.90 45.60 L 7.60 56.20 L 8.20 63.00 L 8.90 65.70 L 10.60 65.20 L 14.10 65.40 L 14.10 57.60 L 14.50 51.30 L 15.60 46.80 Z" fill="#2d1817" fill-rule="nonzero" node-id="82" stroke="none" target-height="59.100002" target-width="82.3" target-x="7.6" target-y="6.8"></path><path d="M 88.60 14.10 L 88.40 16.60 L 87.60 19.00 L 86.40 21.20 L 84.80 23.10 L 82.90 24.80 L 80.60 26.20 L 78.10 27.20 L 75.30 27.90 L 72.40 28.10 L 69.40 27.90 L 66.60 27.20 L 64.10 26.20 L 61.80 24.80 L 59.90 23.10 L 58.30 21.20 L 57.10 19.00 L 56.30 16.60 L 56.10 14.10 L 56.30 11.50 L 57.10 9.20 L 58.30 7.00 L 59.90 5.00 L 61.80 3.30 L 64.10 1.90 L 66.60 0.90 L 69.40 0.30 L 72.40 0.00 L 75.30 0.30 L 78.10 0.90 L 80.60 1.90 L 82.90 3.30 L 84.80 5.00 L 86.40 7.00 L 87.60 9.20 L 88.40 11.50 L 88.60 14.10 Z" fill="#2d1817" fill-rule="nonzero" node-id="84" stroke="none" target-height="28.1" target-width="32.5" target-x="56.1" target-y="0"></path><path d="M 104.50 21.80 L 104.20 24.30 L 103.40 26.50 L 102.10 28.40 L 100.40 30.00 L 98.30 31.40 L 95.90 32.50 L 90.50 33.70 L 84.50 33.70 L 79.50 32.50 L 77.20 31.40 L 75.40 30.00 L 74.00 28.40 L 72.90 26.50 L 72.20 24.30 L 71.90 21.80 L 72.20 19.20 L 72.90 17.00 L 74.00 15.10 L 75.50 13.40 L 77.40 12.00 L 79.60 10.80 L 84.70 9.50 L 90.70 9.50 L 96.00 10.80 L 98.40 12.00 L 100.50 13.40 L 102.10 15.10 L 103.40 17.10 L 104.20 19.30 L 104.50 21.80 Z" fill="#2d1817" fill-rule="nonzero" node-id="86" stroke="none" target-height="24.2" target-width="32.6" target-x="71.9" target-y="9.5"></path><path d="M 107.60 35.20 L 107.10 38.50 L 106.40 39.90 L 104.90 41.80 L 103.10 43.20 L 101.60 43.90 L 98.40 44.50 L 95.20 43.90 L 93.80 43.20 L 91.90 41.80 L 90.40 39.90 L 89.30 36.90 L 89.20 35.20 L 89.80 32.00 L 90.40 30.60 L 91.90 28.70 L 93.80 27.30 L 95.20 26.60 L 98.40 26.00 L 101.60 26.60 L 103.10 27.30 L 104.90 28.70 L 106.40 30.60 L 107.10 32.00 L 107.60 35.20 Z" fill="#2d1817" fill-rule="nonzero" node-id="88" stroke="none" target-height="18.5" target-width="18.400002" target-x="89.2" target-y="26"></path><path d="M 109.90 45.30 L 109.60 47.40 L 108.80 49.20 L 107.60 50.80 L 106.10 52.00 L 104.20 52.80 L 102.20 53.00 L 100.10 52.80 L 98.30 52.00 L 96.70 50.80 L 95.50 49.20 L 94.70 47.40 L 94.40 45.30 L 94.70 43.30 L 95.50 41.40 L 96.70 39.90 L 98.30 38.70 L 100.10 37.90 L 102.20 37.60 L 104.20 37.90 L 106.10 38.70 L 107.60 39.90 L 108.80 41.40 L 109.60 43.30 L 109.90 45.30 Z" fill="#2d1817" fill-rule="nonzero" node-id="90" stroke="none" target-height="15.400002" target-width="15.5" target-x="94.4" target-y="37.6"></path><path d="M 110.40 54.40 L 110.10 56.30 L 109.40 58.00 L 108.30 59.40 L 106.80 60.60 L 105.10 61.30 L 103.20 61.60 L 101.30 61.30 L 99.60 60.60 L 98.10 59.40 L 97.00 58.00 L 96.30 56.30 L 96.00 54.40 L 96.30 52.40 L 97.00 50.70 L 98.10 49.30 L 99.60 48.20 L 101.30 47.50 L 103.20 47.20 L 105.10 47.50 L 106.80 48.20 L 108.30 49.30 L 109.40 50.70 L 110.10 52.40 L 110.40 54.40 Z" fill="#2d1817" fill-rule="nonzero" node-id="92" stroke="none" target-height="14.399998" target-width="14.400002" target-x="96" target-y="47.2"></path><path d="M 110.20 64.70 L 109.90 66.60 L 109.20 68.20 L 108.10 69.70 L 106.70 70.80 L 105.00 71.50 L 103.10 71.70 L 101.20 71.50 L 99.50 70.80 L 98.10 69.70 L 97.00 68.20 L 96.30 66.60 L 96.00 64.70 L 96.30 62.80 L 97.00 61.10 L 98.10 59.70 L 99.50 58.60 L 101.20 57.90 L 103.10 57.60 L 105.00 57.90 L 106.70 58.60 L 108.10 59.70 L 109.20 61.10 L 109.90 62.80 L 110.20 64.70 Z" fill="#2d1817" fill-rule="nonzero" node-id="94" stroke="none" target-height="14.099998" target-width="14.199997" target-x="96" target-y="57.6"></path><path d="M 108.50 75.50 L 108.30 77.20 L 107.70 78.70 L 106.60 80.10 L 105.20 81.10 L 103.70 81.80 L 102.00 82.00 L 100.30 81.80 L 98.80 81.10 L 97.50 80.10 L 96.40 78.70 L 95.80 77.20 L 95.60 75.50 L 95.80 73.80 L 96.40 72.30 L 97.50 71.00 L 98.80 69.90 L 100.30 69.30 L 102.00 69.10 L 103.70 69.30 L 105.20 69.90 L 106.60 71.00 L 107.70 72.30 L 108.30 73.80 L 108.50 75.50 Z" fill="#2d1817" fill-rule="nonzero" node-id="96" stroke="none" target-height="12.900002" target-width="12.900002" target-x="95.6" target-y="69.1"></path><path d="M 100.10 95.20 L 99.00 94.00 L 98.10 91.90 L 97.70 89.40 L 97.80 86.50 L 98.30 84.70 L 99.20 82.90 L 100.50 81.20 L 101.30 80.90 L 103.40 80.70 L 104.40 81.10 L 105.20 81.90 L 105.90 83.30 L 106.20 85.10 L 106.00 87.90 L 105.30 90.80 L 103.50 93.60 L 101.50 94.90 L 100.10 95.20 Z" fill="#2d1817" fill-rule="nonzero" node-id="98" stroke="none" target-height="14.5" target-width="8.5" target-x="97.7" target-y="80.7"></path><path d="M 105.30 82.40 L 102.40 81.70 L 99.40 82.20 L 99.10 81.60 L 99.30 81.30 L 100.90 80.80 L 104.00 80.90 L 105.60 81.50 L 105.70 82.20 L 105.30 82.40 Z" fill="#ed91b2" fill-rule="nonzero" node-id="100" stroke="none" target-height="1.5999985" target-width="6.5999985" target-x="99.1" target-y="80.8"></path><path d="M 85.90 30.60 L 85.20 30.20 L 83.30 26.50 L 81.30 23.40 L 79.10 20.80 L 74.20 16.40 L 68.00 12.70 L 64.70 11.40 L 61.60 10.40 L 57.20 9.60 L 56.70 9.30 L 56.60 8.80 L 56.80 8.30 L 57.40 8.10 L 61.90 8.90 L 65.20 10.00 L 68.60 11.40 L 75.00 15.20 L 80.10 19.80 L 82.40 22.50 L 84.60 25.80 L 86.60 29.60 L 86.60 30.20 L 85.90 30.60 Z" fill="#ed91b2" fill-rule="nonzero" node-id="102" stroke="none" target-height="22.5" target-width="30" target-x="56.6" target-y="8.1"></path><path d="M 79.70 18.50 L 76.10 17.50 L 71.90 14.80 L 70.60 13.60 L 69.40 11.50 L 68.90 9.90 L 68.90 8.60 L 69.30 7.60 L 71.00 6.10 L 73.10 5.60 L 75.20 5.70 L 76.10 6.00 L 77.40 7.30 L 77.70 9.40 L 77.00 11.70 L 79.50 11.00 L 80.70 11.00 L 81.90 11.30 L 82.80 12.00 L 83.40 12.90 L 83.60 14.20 L 82.80 16.80 L 81.50 18.00 L 79.70 18.50 Z M 74.30 14.50 L 76.50 16.10 L 78.30 16.80 L 80.30 16.90 L 81.20 16.40 L 81.70 15.50 L 82.00 14.10 L 81.70 13.00 L 80.40 12.50 L 78.70 12.60 L 75.70 13.90 Z M 73.80 7.10 L 71.10 7.70 L 70.60 8.30 L 70.40 9.30 L 70.70 10.70 L 71.80 12.80 L 73.80 14.20 L 75.40 11.40 L 76.20 8.70 L 76.00 7.90 L 75.40 7.40 L 73.80 7.10 Z" fill="#ed91b2" fill-rule="nonzero" node-id="104" stroke="none" target-height="12.9" target-width="14.699997" target-x="68.9" target-y="5.6"></path></svg>