<?xml version="1.0" standalone="no"?><!DOCTYPE svg PUBLIC "-//W3C//DTD SVG 1.1//EN" "http://www.w3.org/Graphics/SVG/1.1/DTD/svg11.dtd"><svg height="146" node-id="1" sillyvg="true" template-height="146" template-width="112" version="1.1" viewBox="0 0 112 146" width="112" xmlns="http://www.w3.org/2000/svg" xmlns:xlink="http://www.w3.org/1999/xlink"><defs node-id="28"></defs><path d="M 99.40 51.60 L 99.60 58.10 L 99.20 63.70 L 98.30 68.50 L 97.00 72.70 L 95.20 76.70 L 93.00 80.30 L 90.40 83.30 L 87.50 85.90 L 84.30 88.10 L 80.70 89.90 L 76.90 91.50 L 72.80 92.70 L 67.10 93.80 L 61.10 94.40 L 54.80 94.60 L 48.50 94.30 L 42.50 93.50 L 36.90 92.10 L 32.80 90.70 L 29.00 89.00 L 25.50 86.90 L 22.20 84.50 L 19.30 81.70 L 16.70 78.60 L 14.40 75.00 L 12.40 71.10 L 10.90 67.00 L 9.90 62.40 L 9.20 57.30 L 9.00 51.50 L 9.30 46.50 L 10.00 41.50 L 11.20 36.50 L 12.90 31.70 L 15.00 27.00 L 17.50 22.60 L 20.40 18.40 L 23.60 14.60 L 27.20 11.10 L 31.00 8.00 L 35.20 5.40 L 39.50 3.20 L 46.50 1.10 L 53.90 0.30 L 57.70 0.60 L 61.30 1.30 L 64.70 2.50 L 71.00 6.20 L 74.20 8.70 L 79.10 9.90 L 83.10 11.50 L 86.40 13.30 L 89.30 15.60 L 91.80 18.10 L 93.80 20.90 L 95.40 23.90 L 97.70 30.40 L 98.60 35.50 L 99.20 40.90 L 99.40 51.60 Z" fill="#2d1817" fill-rule="nonzero" node-id="30" stroke="none" target-height="94.299995" target-width="90.6" target-x="9" target-y="0.3"></path><path d="M 93.50 114.70 L 56.60 95.40 L 56.00 95.40 L 19.00 114.70 L 16.30 116.60 L 14.00 118.90 L 12.10 121.60 L 10.80 124.60 L 9.90 127.70 L 9.60 131.10 L 9.60 145.80 L 103.00 145.80 L 103.00 131.10 L 102.70 127.70 L 101.90 124.60 L 100.50 121.60 L 98.60 118.90 L 96.30 116.60 L 93.50 114.70 Z" fill="#db5d84" fill-rule="nonzero" node-id="32" stroke="none" target-height="50.4" target-width="93.4" target-x="9.6" target-y="95.4"></path><path d="M 74.80 130.40 L 88.70 130.60 L 90.00 131.90 L 90.10 132.80 L 90.00 137.20 L 88.70 138.50 L 73.90 138.50 L 72.60 137.20 L 72.40 132.80 L 73.10 131.10 L 74.80 130.40 Z" fill="#ed91b2" fill-rule="nonzero" node-id="34" stroke="none" target-height="8.100006" target-width="17.699997" target-x="72.4" target-y="130.4"></path><path d="M 30.00 145.80 L 45.30 145.80 L 91.90 113.80 L 84.20 109.80 L 30.00 145.80 Z" fill="#ed91b2" fill-rule="nonzero" node-id="36" stroke="none" target-height="36" target-width="61.9" target-x="30" target-y="109.8"></path><path d="M 60.30 112.10 L 60.00 113.60 L 59.10 114.90 L 57.90 115.70 L 56.30 116.10 L 54.80 115.70 L 53.50 114.90 L 52.60 113.60 L 52.30 112.10 L 52.60 110.50 L 53.50 109.20 L 54.80 108.40 L 56.30 108.10 L 57.90 108.40 L 59.10 109.20 L 60.00 110.50 L 60.30 112.10 Z" fill="#ffd7e9" fill-rule="nonzero" node-id="38" stroke="none" target-height="8" target-width="8" target-x="52.3" target-y="108.1"></path><path d="M 74.60 104.80 L 69.00 101.70 L 67.90 99.90 L 67.70 88.30 L 44.90 88.30 L 44.70 99.90 L 43.60 101.70 L 38.00 104.80 Z" fill="#ffd0b4" fill-rule="nonzero" node-id="40" stroke="none" target-height="16.5" target-width="36.6" target-x="38" target-y="88.3"></path><path d="M 68.50 96.20 L 78.00 106.50 L 69.10 112.60 L 67.90 113.20 L 66.60 113.30 L 65.30 113.10 L 64.20 112.40 L 56.90 106.00 L 56.40 104.80 L 57.10 103.70 Z" fill="#ffd7e9" fill-rule="nonzero" node-id="42" stroke="none" target-height="17.100006" target-width="21.599998" target-x="56.4" target-y="96.2"></path><path d="M 44.10 96.20 L 34.70 106.50 L 43.60 112.60 L 44.80 113.20 L 46.10 113.30 L 47.30 113.10 L 48.50 112.40 L 55.80 106.00 L 56.20 104.80 L 55.60 103.70 Z" fill="#ffd7e9" fill-rule="nonzero" node-id="44" stroke="none" target-height="17.100006" target-width="21.5" target-x="34.7" target-y="96.2"></path><path d="M 91.70 55.80 L 91.40 50.40 L 90.60 45.30 L 89.30 40.50 L 87.30 35.90 L 84.90 31.70 L 82.10 27.90 L 78.80 24.50 L 75.20 21.70 L 71.30 19.30 L 64.90 16.90 L 57.90 16.00 L 51.10 16.30 L 44.50 18.00 L 41.30 19.30 L 37.40 21.70 L 33.80 24.50 L 30.50 27.90 L 27.70 31.70 L 25.30 35.90 L 23.40 40.50 L 22.00 45.30 L 21.20 50.40 L 21.00 55.80 L 21.70 65.10 L 23.70 72.70 L 27.00 79.40 L 31.20 84.80 L 36.50 89.00 L 42.50 91.90 L 46.90 93.20 L 51.50 94.00 L 56.30 94.20 L 61.20 94.00 L 65.80 93.20 L 70.10 91.90 L 76.20 89.00 L 81.40 84.80 L 85.70 79.40 L 89.00 72.70 L 91.00 65.10 L 91.70 55.80 Z" fill="#ffe2d4" fill-rule="nonzero" node-id="46" stroke="none" target-height="78.2" target-width="70.7" target-x="21" target-y="16"></path><path d="M 50.30 75.10 L 50.50 77.10 L 51.10 78.80 L 52.00 80.30 L 53.30 81.50 L 54.70 82.20 L 56.30 82.40 L 57.90 82.20 L 59.20 81.50 L 60.50 80.30 L 61.40 78.80 L 62.00 77.10 L 62.30 75.10 Z" fill="#f57272" fill-rule="nonzero" node-id="48" stroke="none" target-height="7.300003" target-width="12" target-x="50.3" target-y="75.1"></path><path d="M 56.30 65.70 L 54.50 66.40 L 53.80 68.20 L 56.30 67.40 L 58.80 68.20 L 58.10 66.40 L 56.30 65.70 Z" fill="#d1b6b6" fill-rule="nonzero" node-id="50" stroke="none" target-height="2.5" target-width="5" target-x="53.8" target-y="65.7"></path><path d="M 42.00 74.50 L 41.20 76.50 L 40.30 77.30 L 37.70 78.40 L 36.00 78.50 L 33.00 78.00 L 30.80 76.50 L 30.20 75.60 L 30.00 74.50 L 30.80 72.50 L 33.00 71.10 L 36.00 70.50 L 37.70 70.70 L 40.30 71.70 L 41.20 72.50 L 42.00 74.50 Z" fill="#fcd3c4" fill-rule="nonzero" node-id="52" stroke="none" target-height="8" target-width="12" target-x="30" target-y="70.5"></path><path d="M 82.60 74.50 L 81.80 76.50 L 80.90 77.30 L 78.30 78.40 L 76.60 78.50 L 73.50 78.00 L 71.40 76.50 L 70.80 75.60 L 70.60 74.50 L 71.40 72.50 L 73.50 71.10 L 76.60 70.50 L 78.30 70.70 L 80.90 71.70 L 81.80 72.50 L 82.60 74.50 Z" fill="#fcd3c4" fill-rule="nonzero" node-id="54" stroke="none" target-height="8" target-width="12" target-x="70.6" target-y="70.5"></path><path d="M 43.40 62.20 L 43.10 63.70 L 42.30 64.90 L 41.10 65.70 L 39.60 66.00 L 38.10 65.70 L 37.00 64.90 L 36.20 63.70 L 35.90 62.20 L 36.20 60.70 L 37.00 59.60 L 38.10 58.80 L 39.60 58.50 L 41.10 58.80 L 42.30 59.60 L 43.10 60.70 L 43.40 62.20 Z" fill="#423f43" fill-rule="nonzero" node-id="56" stroke="none" target-height="7.5" target-width="7.5" target-x="35.9" target-y="58.5"></path><path d="M 45.60 54.90 L 46.30 53.90 L 45.80 53.00 L 45.20 52.60 L 42.00 52.30 L 37.70 52.50 L 35.20 53.20 L 32.80 54.70 L 45.50 54.90 Z" fill="#423f43" fill-rule="nonzero" node-id="58" stroke="none" target-height="2.6000023" target-width="13.5" target-x="32.8" target-y="52.3"></path><path d="M 76.80 62.20 L 76.50 63.70 L 75.70 64.90 L 74.50 65.70 L 73.00 66.00 L 71.50 65.70 L 70.40 64.90 L 69.60 63.70 L 69.30 62.20 L 69.60 60.70 L 70.40 59.60 L 71.50 58.80 L 73.00 58.50 L 74.50 58.80 L 75.70 59.60 L 76.50 60.70 L 76.80 62.20 Z" fill="#423f43" fill-rule="nonzero" node-id="60" stroke="none" target-height="7.5" target-width="7.5" target-x="69.3" target-y="58.5"></path><path d="M 67.10 54.90 L 66.40 53.90 L 66.80 53.00 L 67.40 52.60 L 70.70 52.30 L 75.00 52.50 L 77.50 53.20 L 79.90 54.70 L 67.10 54.90 Z" fill="#423f43" fill-rule="nonzero" node-id="62" stroke="none" target-height="2.6000023" target-width="13.5" target-x="66.4" target-y="52.3"></path><path d="M 25.10 71.60 L 23.60 62.60 L 23.60 53.80 L 24.60 47.40 L 26.80 41.10 L 28.60 38.20 L 30.70 35.50 L 33.30 33.10 L 36.40 31.00 L 40.30 29.20 L 40.90 31.40 L 45.10 29.20 L 47.90 26.70 L 48.30 29.50 L 47.90 32.30 L 53.60 30.00 L 56.90 27.50 L 57.80 29.10 L 57.90 30.90 L 62.50 28.40 L 66.90 25.60 L 71.10 22.40 L 75.40 25.10 L 78.30 27.70 L 82.10 32.60 L 84.00 36.00 L 85.60 39.60 L 87.00 44.00 L 88.10 49.40 L 88.70 54.80 L 88.90 61.30 L 88.40 69.00 L 97.00 55.20 L 94.10 42.30 L 91.10 33.10 L 86.80 24.00 L 84.20 20.10 L 82.10 17.80 L 79.40 15.80 L 76.20 14.10 L 72.80 12.70 L 65.00 10.70 L 58.90 9.90 L 52.70 9.70 L 44.90 10.30 L 38.10 12.00 L 35.40 13.10 L 33.30 14.40 L 28.70 18.80 L 26.50 21.60 L 23.60 26.30 L 20.90 31.60 L 18.80 37.30 L 17.20 43.40 L 16.40 47.50 L 15.70 55.80 L 16.50 63.00 L 18.20 67.40 L 20.40 69.90 L 22.20 71.00 L 25.10 71.60 Z" fill="#2d1817" fill-rule="nonzero" node-id="64" stroke="none" target-height="61.899998" target-width="81.3" target-x="15.7" target-y="9.7"></path><path d="M 36.60 29.40 L 36.70 28.90 L 36.30 28.00 L 32.80 28.00 L 31.00 25.70 L 30.10 25.40 L 29.40 26.00 L 28.50 28.80 L 25.30 30.20 L 25.10 30.70 L 25.50 31.50 L 27.90 33.20 L 28.20 36.70 L 29.10 37.10 L 32.00 35.10 L 34.80 35.90 L 35.70 35.60 L 35.90 34.70 L 35.00 32.30 L 35.10 31.40 Z" fill="#ed91b2" fill-rule="nonzero" node-id="66" stroke="none" target-height="11.699999" target-width="11.6" target-x="25.1" target-y="25.4"></path><path d="M 44.80 23.40 L 44.90 22.90 L 44.40 22.30 L 41.40 22.50 L 39.60 20.70 L 38.80 20.40 L 38.20 21.10 L 37.70 23.60 L 35.10 25.10 L 35.10 25.90 L 35.40 26.20 L 37.70 27.40 L 38.00 30.00 L 38.50 30.60 L 38.90 30.70 L 41.20 28.70 L 43.80 29.10 L 44.60 28.80 L 44.70 28.00 L 43.70 26.00 L 43.70 25.30 Z" fill="#ed91b2" fill-rule="nonzero" node-id="68" stroke="none" target-height="10.300001" target-width="9.800003" target-x="35.1" target-y="20.4"></path></svg>