<?xml version="1.0" standalone="no"?><!DOCTYPE svg PUBLIC "-//W3C//DTD SVG 1.1//EN" "http://www.w3.org/Graphics/SVG/1.1/DTD/svg11.dtd"><svg height="146" node-id="1" sillyvg="true" template-height="146" template-width="112" version="1.1" viewBox="0 0 112 146" width="112" xmlns="http://www.w3.org/2000/svg" xmlns:xlink="http://www.w3.org/1999/xlink"><defs node-id="35"></defs><path d="M 43.50 104.50 L 40.30 104.80 L 38.30 104.60 L 36.20 104.10 L 34.10 103.00 L 30.70 102.70 L 27.40 101.00 L 25.70 99.50 L 23.90 97.20 L 18.70 96.80 L 14.20 95.50 L 11.90 94.30 L 9.90 92.70 L 8.20 87.30 L 8.00 82.20 L 8.90 78.60 L 9.90 76.80 L 7.80 74.00 L 5.70 69.40 L 5.20 64.60 L 6.20 60.30 L 12.90 45.90 L 17.40 37.60 L 19.90 33.80 L 22.30 30.80 L 25.50 27.90 L 29.70 26.50 L 37.40 25.40 L 51.10 24.90 L 65.50 25.40 L 91.70 27.70 L 95.50 38.40 L 97.80 43.30 L 101.10 48.00 L 103.10 51.70 L 104.90 57.90 L 105.40 61.70 L 105.40 68.30 L 106.90 78.00 L 106.40 82.20 L 104.70 85.40 L 103.30 86.90 L 98.90 89.70 L 95.40 91.20 L 93.00 94.30 L 88.80 98.50 L 85.90 100.60 L 82.70 102.40 L 79.00 103.70 L 76.30 104.20 L 73.50 104.30 L 59.60 103.00 L 54.80 103.00 L 51.10 103.30 L 43.50 104.50 Z" fill="#2d1817" fill-rule="nonzero" node-id="37" stroke="none" target-height="79.9" target-width="101.700005" target-x="5.2" target-y="24.9"></path><path d="M 93.30 114.50 L 56.30 95.20 L 55.80 95.20 L 18.80 114.50 L 16.00 116.50 L 13.70 118.80 L 11.90 121.50 L 10.50 124.50 L 9.70 127.60 L 9.40 131.00 L 9.40 145.70 L 102.80 145.70 L 102.80 131.00 L 102.50 127.60 L 101.60 124.50 L 100.20 121.50 L 98.40 118.80 L 96.10 116.50 L 93.30 114.50 Z" fill="#db5d84" fill-rule="nonzero" node-id="39" stroke="none" target-height="50.5" target-width="93.4" target-x="9.4" target-y="95.2"></path><path d="M 74.50 130.30 L 88.40 130.40 L 89.70 131.70 L 89.90 132.60 L 89.70 137.00 L 88.40 138.30 L 73.60 138.30 L 72.30 137.00 L 72.20 132.60 L 72.90 131.00 L 74.50 130.30 Z" fill="#ed91b2" fill-rule="nonzero" node-id="41" stroke="none" target-height="8" target-width="17.700005" target-x="72.2" target-y="130.3"></path><path d="M 29.70 145.60 L 45.00 145.60 L 91.60 113.60 L 84.00 109.60 L 29.70 145.60 Z" fill="#ed91b2" fill-rule="nonzero" node-id="43" stroke="none" target-height="36.000008" target-width="61.899998" target-x="29.7" target-y="109.6"></path><path d="M 60.10 111.90 L 59.70 113.50 L 58.90 114.70 L 57.60 115.60 L 56.10 115.90 L 54.50 115.60 L 53.20 114.70 L 52.40 113.50 L 52.10 111.90 L 52.40 110.30 L 53.20 109.10 L 54.50 108.20 L 56.10 107.90 L 57.60 108.20 L 58.90 109.10 L 59.70 110.30 L 60.10 111.90 Z" fill="#ffd7e9" fill-rule="nonzero" node-id="45" stroke="none" target-height="8" target-width="8" target-x="52.1" target-y="107.9"></path><path d="M 74.40 104.60 L 68.70 101.50 L 67.60 99.70 L 67.50 88.10 L 44.60 88.10 L 44.50 99.70 L 43.40 101.50 L 37.70 104.60 Z" fill="#ffd0b4" fill-rule="nonzero" node-id="47" stroke="none" target-height="16.5" target-width="36.7" target-x="37.7" target-y="88.1"></path><path d="M 68.20 96.00 L 77.70 106.40 L 68.80 112.50 L 67.60 113.00 L 66.30 113.20 L 65.00 112.90 L 63.90 112.20 L 56.60 105.90 L 56.20 104.70 L 56.80 103.60 Z" fill="#ffd7e9" fill-rule="nonzero" node-id="49" stroke="none" target-height="17.199997" target-width="21.499996" target-x="56.2" target-y="96"></path><path d="M 43.90 96.00 L 34.40 106.40 L 43.30 112.50 L 44.50 113.00 L 45.80 113.20 L 47.10 112.90 L 48.20 112.20 L 55.50 105.90 L 56.00 104.70 L 55.30 103.60 Z" fill="#ffd7e9" fill-rule="nonzero" node-id="51" stroke="none" target-height="17.199997" target-width="21.599998" target-x="34.4" target-y="96"></path><path d="M 21.20 59.90 L 17.10 59.90 L 15.60 60.30 L 13.30 61.90 L 12.20 64.30 L 12.10 65.70 L 12.90 70.30 L 13.70 72.10 L 15.80 74.80 L 17.80 76.20 L 20.10 77.10 L 25.20 77.70 L 26.20 77.50 L 26.80 76.90 L 27.10 75.90 L 27.00 74.00 L 26.40 71.40 L 24.40 66.20 L 21.20 59.90 Z" fill="#f9d2c2" fill-rule="nonzero" node-id="53" stroke="none" target-height="17.799995" target-width="15" target-x="12.1" target-y="59.9"></path><path d="M 20.30 65.80 L 22.00 66.30 L 22.40 65.20 L 21.10 64.60 L 18.80 64.20 L 17.00 64.80 L 16.10 66.40 L 16.10 68.50 L 17.40 70.60 L 19.00 71.80 L 21.00 72.40 L 22.40 72.30 L 23.70 71.40 L 23.90 70.80 L 23.50 70.00 L 22.70 69.60 L 21.30 70.40 L 19.50 70.30 L 18.30 68.90 L 18.30 67.10 L 18.80 66.30 L 20.30 65.80 Z" fill="#dda08e" fill-rule="nonzero" node-id="55" stroke="none" target-height="8.200005" target-width="7.799999" target-x="16.1" target-y="64.2"></path><path d="M 90.30 59.80 L 94.40 59.80 L 95.90 60.20 L 98.20 61.80 L 99.30 64.20 L 99.40 65.70 L 98.60 70.20 L 97.80 72.00 L 95.70 74.70 L 93.70 76.10 L 91.40 77.00 L 86.30 77.60 L 85.30 77.40 L 84.70 76.80 L 84.40 75.80 L 84.50 73.90 L 85.10 71.40 L 87.10 66.10 L 90.30 59.80 Z" fill="#f9d2c2" fill-rule="nonzero" node-id="57" stroke="none" target-height="17.8" target-width="15" target-x="84.4" target-y="59.8"></path><path d="M 91.20 65.70 L 89.60 66.20 L 89.10 65.10 L 91.80 64.10 L 93.60 64.30 L 95.10 65.50 L 95.50 67.30 L 95.40 68.50 L 94.20 70.50 L 92.50 71.70 L 90.60 72.30 L 89.20 72.20 L 87.80 71.30 L 87.60 70.70 L 88.00 70.00 L 88.80 69.60 L 90.30 70.30 L 92.10 70.30 L 92.80 69.70 L 93.30 68.90 L 93.30 67.10 L 92.80 66.40 L 91.20 65.70 Z" fill="#dda08e" fill-rule="nonzero" node-id="59" stroke="none" target-height="8.200005" target-width="7.9000015" target-x="87.6" target-y="64.1"></path><path d="M 90.50 56.10 L 90.20 50.60 L 89.40 45.50 L 88.10 40.70 L 86.20 36.10 L 83.90 31.90 L 81.10 28.10 L 77.90 24.70 L 74.30 21.80 L 70.50 19.40 L 64.20 17.00 L 57.30 16.10 L 50.70 16.30 L 44.10 18.00 L 41.00 19.40 L 37.20 21.80 L 33.70 24.60 L 30.40 28.10 L 27.70 31.90 L 25.30 36.10 L 23.40 40.70 L 22.10 45.50 L 21.30 50.60 L 21.10 56.10 L 21.70 65.40 L 23.70 73.10 L 26.90 79.80 L 31.10 85.20 L 36.30 89.40 L 42.20 92.40 L 46.50 93.70 L 51.00 94.40 L 55.70 94.60 L 60.50 94.40 L 65.00 93.70 L 69.30 92.40 L 75.20 89.40 L 80.40 85.20 L 84.60 79.80 L 87.80 73.10 L 89.80 65.40 L 90.50 56.10 Z" fill="#ffe2d4" fill-rule="nonzero" node-id="61" stroke="none" target-height="78.5" target-width="69.4" target-x="21.1" target-y="16.1"></path><path d="M 49.70 76.20 L 49.90 78.20 L 50.50 80.00 L 51.50 81.40 L 52.70 82.60 L 54.10 83.30 L 55.70 83.60 L 57.30 83.30 L 58.70 82.60 L 59.90 81.40 L 60.90 80.00 L 61.50 78.20 L 61.70 76.20 Z" fill="#f57272" fill-rule="nonzero" node-id="63" stroke="none" target-height="7.4000015" target-width="12" target-x="49.7" target-y="76.2"></path><path d="M 55.80 66.80 L 54.00 67.50 L 53.20 69.30 L 55.70 68.50 L 58.30 69.30 L 57.50 67.50 L 55.80 66.80 Z" fill="#d1b6b6" fill-rule="nonzero" node-id="65" stroke="none" target-height="2.5" target-width="5.0999985" target-x="53.2" target-y="66.8"></path><path d="M 41.50 75.70 L 40.70 77.60 L 39.70 78.50 L 37.10 79.50 L 35.50 79.70 L 32.40 79.10 L 30.20 77.60 L 29.70 76.70 L 29.50 75.70 L 30.20 73.70 L 32.40 72.20 L 35.50 71.70 L 37.10 71.80 L 39.70 72.80 L 40.70 73.70 L 41.50 75.70 Z" fill="#fcd3c4" fill-rule="nonzero" node-id="67" stroke="none" target-height="8" target-width="12" target-x="29.5" target-y="71.7"></path><path d="M 82.00 75.70 L 81.30 77.60 L 80.30 78.50 L 77.70 79.50 L 76.00 79.70 L 73.00 79.10 L 70.80 77.60 L 70.30 76.70 L 70.00 75.70 L 70.80 73.70 L 73.00 72.20 L 76.00 71.70 L 77.70 71.80 L 80.30 72.80 L 81.30 73.70 L 82.00 75.70 Z" fill="#fcd3c4" fill-rule="nonzero" node-id="69" stroke="none" target-height="8" target-width="12" target-x="70" target-y="71.7"></path><path d="M 42.80 63.40 L 42.50 64.80 L 41.70 66.00 L 40.50 66.80 L 39.10 67.10 L 37.60 66.80 L 36.40 66.00 L 35.60 64.80 L 35.30 63.40 L 35.60 61.90 L 36.40 60.70 L 37.60 59.90 L 39.10 59.60 L 40.50 59.90 L 41.70 60.70 L 42.50 61.90 L 42.80 63.40 Z" fill="#423f43" fill-rule="nonzero" node-id="71" stroke="none" target-height="7.5" target-width="7.5" target-x="35.3" target-y="59.6"></path><path d="M 45.00 56.00 L 45.70 54.90 L 44.70 53.80 L 41.40 53.40 L 37.10 53.60 L 34.60 54.20 L 32.20 55.80 L 45.00 56.00 Z" fill="#423f43" fill-rule="nonzero" node-id="73" stroke="none" target-height="2.5999985" target-width="13.5" target-x="32.2" target-y="53.4"></path><path d="M 76.20 63.40 L 75.90 64.80 L 75.10 66.00 L 73.90 66.80 L 72.50 67.10 L 71.00 66.80 L 69.80 66.00 L 69.00 64.80 L 68.70 63.40 L 69.00 61.90 L 69.80 60.70 L 71.00 59.90 L 72.50 59.60 L 73.90 59.90 L 75.10 60.70 L 75.90 61.90 L 76.20 63.40 Z" fill="#423f43" fill-rule="nonzero" node-id="75" stroke="none" target-height="7.5" target-width="7.5" target-x="68.7" target-y="59.6"></path><path d="M 66.50 56.00 L 65.80 55.00 L 66.30 54.10 L 66.90 53.80 L 70.10 53.40 L 74.40 53.60 L 76.90 54.30 L 79.30 55.90 L 66.60 56.10 Z" fill="#423f43" fill-rule="nonzero" node-id="77" stroke="none" target-height="2.699997" target-width="13.5" target-x="65.8" target-y="53.4"></path><path d="M 21.30 58.30 L 23.40 49.80 L 26.70 43.80 L 29.50 48.80 L 44.90 45.90 L 46.50 36.60 L 48.50 46.70 L 58.10 45.90 L 58.20 38.50 L 58.90 36.60 L 60.40 46.10 L 80.10 47.00 L 80.20 43.50 L 80.50 42.80 L 81.10 42.80 L 83.60 45.50 L 85.20 47.90 L 88.80 54.60 L 90.40 58.40 L 91.80 50.20 L 92.60 42.10 L 92.70 33.10 L 92.20 28.70 L 91.20 24.80 L 87.00 17.80 L 84.20 14.40 L 80.60 11.10 L 74.90 7.30 L 67.70 4.40 L 63.50 3.40 L 58.60 2.70 L 54.30 2.60 L 50.30 3.00 L 46.60 3.80 L 43.00 5.00 L 36.60 8.20 L 32.30 11.20 L 28.80 14.30 L 25.70 17.60 L 21.70 23.50 L 19.80 29.00 L 19.30 33.00 L 19.10 37.30 L 19.50 46.00 L 21.30 58.30 Z" fill="#2d1817" fill-rule="nonzero" node-id="79" stroke="none" target-height="55.800003" target-width="73.6" target-x="19.1" target-y="2.6"></path><path d="M 58.60 2.40 L 58.40 3.30 L 57.10 4.60 L 55.30 4.60 L 54.00 3.30 L 54.00 1.50 L 55.30 0.20 L 57.10 0.20 L 58.40 1.50 L 58.60 2.40 Z" fill="#c15d7c" fill-rule="nonzero" node-id="81" stroke="none" target-height="4.4" target-width="4.5999985" target-x="54" target-y="0.2"></path><path d="M 23.90 28.20 L 35.70 24.60 L 42.00 23.30 L 49.20 22.40 L 54.00 22.20 L 65.50 22.80 L 71.50 23.60 L 78.30 25.00 L 85.90 27.00 L 87.30 27.60 L 88.40 28.60 L 89.20 29.90 L 89.50 31.40 L 90.80 52.80 L 90.50 59.80 L 93.00 53.30 L 93.80 49.70 L 94.40 44.10 L 94.40 38.60 L 93.20 31.00 L 90.70 24.20 L 88.30 19.90 L 85.50 16.10 L 82.10 12.60 L 78.40 9.60 L 74.40 7.10 L 69.90 5.00 L 62.90 3.10 L 55.30 2.50 L 51.40 2.80 L 47.70 3.50 L 40.80 5.80 L 36.40 8.00 L 32.50 10.70 L 28.90 13.90 L 25.80 17.60 L 23.10 21.60 L 21.00 25.90 L 18.80 32.90 L 18.00 40.50 L 18.20 47.20 L 19.20 53.90 L 20.10 57.00 L 21.30 59.80 L 20.80 44.50 L 21.20 36.80 L 22.20 31.00 L 22.70 29.50 L 23.90 28.20 Z" fill="#d06784" fill-rule="nonzero" node-id="83" stroke="none" target-height="57.3" target-width="76.4" target-x="18" target-y="2.5"></path><path d="M 28.80 26.60 L 34.20 25.00 L 35.30 19.30 L 37.60 12.30 L 39.30 8.70 L 41.50 5.20 L 36.50 7.80 L 33.00 14.80 L 28.80 26.60 Z" fill="#ed91b2" fill-rule="nonzero" node-id="85" stroke="none" target-height="21.400002" target-width="12.700001" target-x="28.8" target-y="5.2"></path><path d="M 76.10 24.50 L 81.80 25.80 L 77.40 13.90 L 73.80 6.70 L 68.90 4.50 L 71.10 8.10 L 72.90 11.80 L 75.10 18.90 L 76.10 24.50 Z" fill="#ed91b2" fill-rule="nonzero" node-id="87" stroke="none" target-height="21.3" target-width="12.900002" target-x="68.9" target-y="4.5"></path><path d="M 54.00 22.20 L 58.40 22.20 L 58.40 2.30 L 54.00 2.40 Z" fill="#ed91b2" fill-rule="nonzero" node-id="89" stroke="none" target-height="19.900002" target-width="4.4000015" target-x="54" target-y="2.3"></path></svg>