<?xml version="1.0" standalone="no"?><!DOCTYPE svg PUBLIC "-//W3C//DTD SVG 1.1//EN" "http://www.w3.org/Graphics/SVG/1.1/DTD/svg11.dtd"><svg height="146" node-id="1" sillyvg="true" template-height="146" template-width="112" version="1.1" viewBox="0 0 112 146" width="112" xmlns="http://www.w3.org/2000/svg" xmlns:xlink="http://www.w3.org/1999/xlink"><defs node-id="36"></defs><path d="M 92.00 94.50 L 20.70 95.60 L 19.10 95.30 L 17.90 94.40 L 17.00 93.10 L 16.70 91.60 L 15.10 57.90 L 60.50 34.70 L 96.70 58.30 L 97.00 89.50 L 96.80 90.80 L 95.50 93.00 L 93.40 94.30 L 92.00 94.50 Z" fill="#2d1817" fill-rule="nonzero" node-id="38" stroke="none" target-height="60.899998" target-width="81.9" target-x="15.1" target-y="34.7"></path><path d="M 21.40 59.50 L 17.30 59.50 L 15.70 59.90 L 13.40 61.50 L 12.30 63.90 L 12.20 65.40 L 13.00 69.90 L 13.80 71.70 L 15.90 74.40 L 17.90 75.80 L 20.20 76.70 L 25.30 77.30 L 26.30 77.10 L 26.90 76.50 L 27.20 75.50 L 27.10 73.60 L 26.50 71.10 L 24.50 65.80 L 21.40 59.50 Z" fill="#f9d2c2" fill-rule="nonzero" node-id="40" stroke="none" target-height="17.800003" target-width="15.000001" target-x="12.2" target-y="59.5"></path><path d="M 20.40 65.40 L 22.10 65.90 L 22.50 64.80 L 21.20 64.20 L 18.90 63.80 L 17.20 64.40 L 16.20 66.00 L 16.30 68.20 L 17.50 70.20 L 19.10 71.40 L 21.10 72.00 L 22.40 71.90 L 23.80 71.00 L 24.00 70.40 L 23.60 69.60 L 22.80 69.20 L 21.30 69.90 L 19.50 69.90 L 18.30 68.50 L 18.40 66.70 L 18.80 66.00 L 20.40 65.40 Z" fill="#dda08e" fill-rule="nonzero" node-id="42" stroke="none" target-height="8.200001" target-width="7.799999" target-x="16.2" target-y="63.8"></path><path d="M 90.70 59.30 L 94.70 59.30 L 96.30 59.70 L 98.60 61.30 L 99.70 63.70 L 99.80 65.20 L 99.00 69.70 L 98.20 71.60 L 96.10 74.20 L 94.10 75.60 L 91.80 76.50 L 86.70 77.20 L 85.70 76.90 L 85.10 76.30 L 84.80 75.30 L 84.90 73.40 L 85.50 70.90 L 87.50 65.60 L 90.70 59.30 Z" fill="#f9d2c2" fill-rule="nonzero" node-id="44" stroke="none" target-height="17.899998" target-width="15" target-x="84.8" target-y="59.3"></path><path d="M 91.60 65.30 L 89.90 65.70 L 89.50 64.60 L 90.80 64.00 L 93.10 63.60 L 94.80 64.30 L 95.80 65.80 L 95.70 68.00 L 94.50 70.00 L 92.90 71.20 L 90.50 71.90 L 88.80 71.30 L 88.00 70.20 L 88.40 69.50 L 89.20 69.10 L 90.70 69.80 L 91.60 69.90 L 93.20 69.20 L 93.70 68.40 L 93.60 66.60 L 93.20 65.80 L 91.60 65.30 Z" fill="#dda08e" fill-rule="nonzero" node-id="46" stroke="none" target-height="8.300003" target-width="7.800003" target-x="88" target-y="63.6"></path><path d="M 93.20 113.90 L 56.20 94.60 L 55.70 94.60 L 18.70 113.90 L 15.90 115.90 L 13.70 118.20 L 11.80 120.90 L 10.40 123.80 L 9.60 127.00 L 9.30 130.40 L 9.30 145.00 L 102.70 145.00 L 102.70 130.40 L 102.40 127.00 L 101.50 123.80 L 100.20 120.90 L 98.30 118.20 L 96.00 115.90 L 93.20 113.90 Z" fill="#db5d84" fill-rule="nonzero" node-id="48" stroke="none" target-height="50.4" target-width="93.399994" target-x="9.3" target-y="94.6"></path><path d="M 74.30 104.10 L 68.70 100.90 L 67.60 99.10 L 67.40 87.50 L 44.60 87.50 L 44.40 99.10 L 43.30 100.90 L 37.70 104.00 Z" fill="#ffd0b4" fill-rule="nonzero" node-id="50" stroke="none" target-height="16.599998" target-width="36.600002" target-x="37.7" target-y="87.5"></path><path d="M 90.70 55.60 L 90.50 50.20 L 89.70 45.10 L 88.30 40.30 L 86.40 35.60 L 84.10 31.40 L 81.30 27.60 L 78.10 24.20 L 74.60 21.30 L 70.70 19.00 L 64.40 16.50 L 57.60 15.60 L 50.90 15.90 L 44.40 17.60 L 41.30 19.00 L 37.40 21.30 L 33.90 24.20 L 30.70 27.60 L 27.90 31.40 L 25.60 35.60 L 23.70 40.30 L 22.30 45.10 L 21.50 50.20 L 21.30 55.60 L 22.00 64.90 L 23.90 72.60 L 27.20 79.40 L 31.40 84.70 L 36.50 88.90 L 42.50 91.90 L 46.70 93.20 L 51.20 93.90 L 56.00 94.10 L 60.80 93.90 L 65.30 93.20 L 69.50 91.90 L 75.50 88.90 L 80.60 84.70 L 84.80 79.40 L 88.10 72.60 L 90.00 64.90 L 90.70 55.60 Z" fill="#ffe2d4" fill-rule="nonzero" node-id="52" stroke="none" target-height="78.5" target-width="69.399994" target-x="21.3" target-y="15.6"></path><path d="M 50.00 76.40 L 50.20 78.50 L 50.80 80.20 L 51.80 81.60 L 53.00 82.80 L 54.40 83.50 L 56.00 83.80 L 57.60 83.50 L 59.00 82.80 L 60.20 81.60 L 61.20 80.20 L 61.80 78.50 L 62.00 76.40 Z" fill="#f57272" fill-rule="nonzero" node-id="54" stroke="none" target-height="7.4000015" target-width="12" target-x="50" target-y="76.4"></path><path d="M 56.00 67.00 L 54.20 67.70 L 53.50 69.50 L 56.00 68.70 L 58.60 69.50 L 57.80 67.70 L 56.00 67.00 Z" fill="#d1b6b6" fill-rule="nonzero" node-id="56" stroke="none" target-height="2.5" target-width="5.0999985" target-x="53.5" target-y="67"></path><path d="M 41.70 75.90 L 40.90 77.80 L 40.00 78.70 L 37.40 79.70 L 35.70 79.90 L 32.60 79.30 L 30.50 77.80 L 29.90 76.90 L 29.70 75.90 L 30.50 73.90 L 32.60 72.40 L 35.70 71.90 L 37.40 72.00 L 40.00 73.00 L 40.90 73.90 L 41.70 75.90 Z" fill="#fcd3c4" fill-rule="nonzero" node-id="58" stroke="none" target-height="8" target-width="12" target-x="29.7" target-y="71.9"></path><path d="M 82.30 75.90 L 81.50 77.80 L 80.50 78.70 L 78.00 79.70 L 76.30 79.90 L 73.20 79.30 L 71.10 77.80 L 70.50 76.90 L 70.30 75.90 L 71.10 73.90 L 73.20 72.40 L 76.30 71.90 L 78.00 72.00 L 80.50 73.00 L 81.50 73.90 L 82.30 75.90 Z" fill="#fcd3c4" fill-rule="nonzero" node-id="60" stroke="none" target-height="8" target-width="12" target-x="70.3" target-y="71.9"></path><path d="M 76.50 65.30 L 76.20 66.80 L 75.40 68.00 L 74.20 68.80 L 72.70 69.10 L 71.20 68.80 L 70.00 68.00 L 69.20 66.80 L 69.00 65.30 L 69.20 63.80 L 70.00 62.70 L 71.20 61.90 L 72.70 61.60 L 74.20 61.90 L 75.40 62.70 L 76.20 63.80 L 76.50 65.30 Z" fill="#423f43" fill-rule="nonzero" node-id="62" stroke="none" target-height="7.5" target-width="7.5" target-x="69" target-y="61.6"></path><path d="M 66.80 57.90 L 66.10 56.90 L 66.50 56.10 L 67.10 55.70 L 70.30 55.40 L 74.60 55.60 L 77.20 56.30 L 79.50 57.80 L 66.80 58.00 Z" fill="#423f43" fill-rule="nonzero" node-id="64" stroke="none" target-height="2.5999985" target-width="13.400002" target-x="66.1" target-y="55.4"></path><path d="M 43.10 65.30 L 42.80 66.80 L 42.00 68.00 L 40.80 68.80 L 39.30 69.10 L 37.80 68.80 L 36.70 68.00 L 35.90 66.80 L 35.60 65.30 L 35.90 63.80 L 36.70 62.70 L 37.80 61.90 L 39.30 61.60 L 40.80 61.90 L 42.00 62.70 L 42.80 63.80 L 43.10 65.30 Z" fill="#423f43" fill-rule="nonzero" node-id="66" stroke="none" target-height="7.5" target-width="7.5" target-x="35.6" target-y="61.6"></path><path d="M 45.30 57.90 L 46.00 56.90 L 45.50 56.10 L 44.90 55.70 L 41.70 55.40 L 37.40 55.60 L 34.90 56.30 L 32.50 57.80 L 45.20 58.00 Z" fill="#423f43" fill-rule="nonzero" node-id="68" stroke="none" target-height="2.5999985" target-width="13.5" target-x="32.5" target-y="55.4"></path><path d="M 22.30 63.50 L 22.00 57.50 L 23.10 51.90 L 24.30 48.90 L 26.20 46.00 L 27.60 44.70 L 29.70 43.40 L 32.80 42.10 L 37.80 40.70 L 44.10 39.60 L 50.80 38.90 L 58.00 38.70 L 71.50 38.90 L 77.80 40.20 L 80.80 41.40 L 83.40 43.00 L 86.50 46.00 L 88.20 49.90 L 90.70 58.90 L 91.40 55.80 L 96.70 59.00 L 97.00 53.30 L 96.50 44.30 L 95.60 38.80 L 94.30 33.20 L 92.20 27.40 L 90.40 23.70 L 88.30 20.00 L 85.60 16.40 L 82.70 13.20 L 79.10 10.20 L 75.00 7.40 L 71.70 5.70 L 63.90 3.00 L 59.20 2.00 L 54.40 1.90 L 49.10 2.80 L 46.40 4.00 L 43.10 6.10 L 38.30 6.70 L 34.90 7.80 L 30.10 10.30 L 25.10 14.50 L 22.70 17.40 L 20.40 21.10 L 18.50 25.00 L 16.90 29.90 L 15.60 35.90 L 15.10 40.30 L 14.80 51.40 L 15.10 58.20 L 18.10 58.10 L 19.70 58.50 L 20.90 59.20 L 21.50 60.40 L 22.30 63.50 Z" fill="#2d1817" fill-rule="nonzero" node-id="70" stroke="none" target-height="61.6" target-width="82.2" target-x="14.8" target-y="1.9"></path><path d="M 55.40 22.50 L 60.60 22.80 L 65.60 23.80 L 70.30 25.30 L 74.80 27.40 L 78.90 29.90 L 82.60 33.00 L 85.90 36.40 L 88.60 40.20 L 90.90 44.30 L 89.90 40.40 L 88.60 36.60 L 86.80 33.10 L 84.50 29.80 L 81.90 26.80 L 78.90 24.00 L 75.60 21.60 L 72.00 19.60 L 68.10 18.00 L 64.10 16.80 L 59.80 16.10 L 55.40 15.80 L 50.90 16.10 L 46.60 16.80 L 42.60 18.00 L 38.70 19.60 L 35.10 21.60 L 31.80 24.00 L 28.80 26.80 L 26.20 29.80 L 23.90 33.10 L 22.10 36.60 L 20.80 40.40 L 19.90 44.30 L 22.10 40.20 L 24.80 36.40 L 28.10 33.00 L 31.80 29.90 L 35.90 27.40 L 40.40 25.30 L 45.10 23.80 L 50.10 22.80 L 55.40 22.50 Z" fill="#ffffff" fill-rule="nonzero" node-id="72" stroke="none" target-height="28.5" target-width="71" target-x="19.9" target-y="15.8"></path><path d="M 94.80 28.90 L 90.10 28.90 L 90.10 24.50 L 89.80 23.90 L 89.20 23.60 L 83.80 23.60 L 83.20 23.90 L 83.00 24.50 L 83.00 28.90 L 78.30 28.90 L 77.60 29.20 L 77.30 29.90 L 77.30 34.90 L 77.60 35.60 L 79.60 35.90 L 78.30 37.40 L 78.00 38.10 L 78.30 38.80 L 82.00 42.30 L 82.70 42.60 L 83.40 42.30 L 86.50 38.90 L 89.40 42.30 L 90.10 42.70 L 90.80 42.40 L 94.60 39.20 L 95.00 38.50 L 94.80 37.70 L 93.30 36.00 L 94.80 36.00 L 95.50 35.70 L 95.80 35.00 L 95.70 29.60 L 94.80 28.90 Z" fill="#ed91b2" fill-rule="nonzero" node-id="74" stroke="none" target-height="19.1" target-width="18.5" target-x="77.3" target-y="23.6"></path><path d="M 89.20 33.20 L 89.00 34.20 L 87.60 35.60 L 86.50 35.80 L 85.50 35.60 L 84.10 34.20 L 83.80 33.20 L 84.10 32.10 L 85.50 30.70 L 86.50 30.50 L 87.60 30.70 L 89.00 32.10 L 89.20 33.20 Z" fill="#ffffff" fill-rule="nonzero" node-id="76" stroke="none" target-height="5.299999" target-width="5.399994" target-x="83.8" target-y="30.5"></path><path d="M 52.50 104.00 L 59.50 104.00 L 59.50 145.00 L 52.50 145.00 Z" fill="#ed91b2" fill-rule="nonzero" node-id="78" stroke="none" target-height="41" target-width="7" target-x="52.5" target-y="104"></path><path d="M 57.50 108.20 L 57.40 108.80 L 56.60 109.60 L 55.40 109.60 L 54.60 108.80 L 54.60 107.60 L 55.40 106.80 L 56.60 106.80 L 57.40 107.60 L 57.50 108.20 Z" fill="#ffd7e9" fill-rule="nonzero" node-id="80" stroke="none" target-height="2.7999954" target-width="2.9000015" target-x="54.6" target-y="106.8"></path><path d="M 57.50 116.60 L 57.10 117.60 L 56.00 118.10 L 54.90 117.60 L 54.50 116.60 L 54.90 115.50 L 56.00 115.10 L 57.10 115.50 L 57.50 116.60 Z" fill="#ffd7e9" fill-rule="nonzero" node-id="82" stroke="none" target-height="3" target-width="3" target-x="54.5" target-y="115.1"></path><path d="M 57.50 124.90 L 57.40 125.50 L 56.60 126.30 L 55.40 126.30 L 54.60 125.50 L 54.60 124.30 L 55.40 123.50 L 56.60 123.50 L 57.40 124.30 L 57.50 124.90 Z" fill="#ffd7e9" fill-rule="nonzero" node-id="84" stroke="none" target-height="2.800003" target-width="2.9000015" target-x="54.6" target-y="123.5"></path><path d="M 57.50 133.20 L 57.10 134.30 L 56.00 134.70 L 54.90 134.30 L 54.50 133.20 L 54.90 132.10 L 56.00 131.70 L 57.10 132.10 L 57.50 133.20 Z" fill="#ffd7e9" fill-rule="nonzero" node-id="86" stroke="none" target-height="3" target-width="3" target-x="54.5" target-y="131.7"></path><path d="M 57.50 141.50 L 57.10 142.60 L 56.00 143.00 L 54.90 142.60 L 54.50 141.50 L 54.90 140.40 L 56.00 140.00 L 57.10 140.40 L 57.50 141.50 Z" fill="#ffd7e9" fill-rule="nonzero" node-id="88" stroke="none" target-height="3" target-width="3" target-x="54.5" target-y="140"></path><path d="M 55.40 103.50 L 43.80 98.60 L 36.40 104.90 L 35.80 106.40 L 35.90 107.20 L 36.80 108.60 L 37.50 109.00 L 39.10 109.00 L 40.40 108.20 L 40.80 107.50 L 41.20 109.20 L 42.40 110.10 L 44.00 110.20 L 45.30 109.40 L 45.50 110.40 L 46.80 111.70 L 47.80 111.90 L 49.00 111.60 L 55.80 105.10 L 56.00 104.20 L 55.40 103.50 Z" fill="#ffd7e9" fill-rule="nonzero" node-id="90" stroke="none" target-height="13.300003" target-width="20.2" target-x="35.8" target-y="98.6"></path><path d="M 56.60 103.50 L 68.30 98.60 L 75.60 104.90 L 76.20 106.40 L 76.10 107.20 L 75.20 108.60 L 74.50 109.00 L 72.90 109.00 L 71.60 108.20 L 71.30 107.50 L 70.80 109.20 L 69.60 110.10 L 68.00 110.20 L 66.70 109.40 L 66.50 110.40 L 65.20 111.70 L 64.20 111.90 L 63.00 111.60 L 56.20 105.10 L 56.00 104.20 L 56.60 103.50 Z" fill="#ffd7e9" fill-rule="nonzero" node-id="92" stroke="none" target-height="13.300003" target-width="20.199997" target-x="56" target-y="98.6"></path></svg>