<?xml version="1.0" standalone="no"?><!DOCTYPE svg PUBLIC "-//W3C//DTD SVG 1.1//EN" "http://www.w3.org/Graphics/SVG/1.1/DTD/svg11.dtd"><svg t="1742929402258" class="icon" viewBox="0 0 1024 1024" version="1.1" xmlns="http://www.w3.org/2000/svg" p-id="72413" xmlns:xlink="http://www.w3.org/1999/xlink" width="16" height="16"><path d="M549.512 954.258l448.955-456.99c18.921-19.257 18.921-50.573 0-69.826s-49.904-19.257-68.822 0l-417.637 425.174-417.804-425.342c-8.723-8.917-20.882-14.445-34.327-14.445s-25.603 5.527-34.318 14.434c-18.927 19.264-18.927 50.578-0.005 70.007l448.785 456.99c10.385 10.718 24.115 14.903 37.677 14.066 13.395 0.834 27.126-3.348 37.512-14.066zM512 610.297c13.395 1.006 27.126-3.348 37.512-13.899l448.955-456.99c18.921-19.257 18.921-50.573 0-70.001-18.921-19.257-49.904-19.093-68.822 0l-417.637 425.342-417.804-425.508c-18.921-19.093-49.736-19.257-68.659 0-18.921 19.426-18.921 50.738 0 70.001l448.785 456.99c10.385 10.551 24.115 14.903 37.677 14.066z" fill="#d81e06" p-id="72414"></path></svg>