<svg xmlns="http://www.w3.org/2000/svg" width="198.742" height="137.24" viewBox="0 0 198.742 137.24">
  <g id="组_386" data-name="组 386" transform="translate(-880.55 432.006)">
    <path id="路径_12783" data-name="路径 12783" d="M133,16.806c3.526-.529,6.611-.859,9.652-1.212,4.892-.551,9.608-1.08,15.822-2.2l.264,1.366a153.948,153.948,0,0,1-15.932,2.2c-3.019.331-6.082.683-9.608,1.212Z" transform="translate(883.541 -415.861)" fill="#fff" fill-rule="evenodd"/>
    <path id="路径_12784" data-name="路径 12784" d="M134.882,11.39a49.736,49.736,0,0,1,6.038,7.184,24.57,24.57,0,0,1,3.592,7.735l-1.322.331a23.579,23.579,0,0,0-3.416-7.294,46.913,46.913,0,0,0-5.884-6.985Z" transform="translate(884.612 -418.268)" fill="#fff" fill-rule="evenodd"/>
    <rect id="矩形_3184" data-name="矩形 3184" width="1.388" height="8.682" transform="translate(978.925 -410.757)" fill="#fff"/>
    <rect id="矩形_3185" data-name="矩形 3185" width="1.763" height="1.388" transform="translate(959.952 -382.859)" fill="#fff"/>
    <rect id="矩形_3186" data-name="矩形 3186" width="1.388" height="12.561" transform="matrix(0.017, -1, 1, 0.017, 919.413, -381.647)" fill="#fff"/>
    <path id="路径_12785" data-name="路径 12785" d="M116.39,16.5q7.669.242,15.425,0c5.134-.242,10.269-.661,15.425-1.344l.176,1.366q-7.757,1.036-15.425,1.344c-5.156.242-10.313.242-15.425,0Z" transform="translate(863.549 -413.731)" fill="#fff" fill-rule="evenodd"/>
    <path id="路径_12786" data-name="路径 12786" d="M106.376,33.8l-.837-3.482-.2-.793.815-.066,9.277-.617.088,1.388-8.462.573.639,2.688Z" transform="translate(850.249 -397.265)" fill="#fff" fill-rule="evenodd"/>
    <path id="路径_12787" data-name="路径 12787" d="M107.674,32.56a59.061,59.061,0,0,0,3.548,5.994,20.956,20.956,0,0,0,3.878,4.275l-.859,1.08a21.332,21.332,0,0,1-4.143-4.562A61.272,61.272,0,0,1,106.44,33.2Z" transform="translate(851.573 -392.788)" fill="#fff" fill-rule="evenodd"/>
    <path id="路径_12788" data-name="路径 12788" d="M106.025,37.91l5.553,1.653-.375,1.322-5.553-1.653Z" transform="translate(850.622 -386.348)" fill="#fff" fill-rule="evenodd"/>
    <rect id="矩形_3187" data-name="矩形 3187" width="7.382" height="1.388" transform="translate(944.148 -349.675) rotate(-12.88)" fill="#fff"/>
    <path id="路径_12789" data-name="路径 12789" d="M106,36.946a44.756,44.756,0,0,1,9.806-1.476v1.388a43.564,43.564,0,0,0-9.52,1.41Z" transform="translate(851.043 -389.285)" fill="#fff" fill-rule="evenodd"/>
    <path id="路径_12790" data-name="路径 12790" d="M122.182,35.28a79.021,79.021,0,0,1,12.23,1.058,70.868,70.868,0,0,1,12.252,3.107l-.441,1.3a70.89,70.89,0,0,0-12.032-3.063,78.69,78.69,0,0,0-12.032-1.014Z" transform="translate(870.494 -389.514)" fill="#fff" fill-rule="evenodd"/>
    <path id="路径_12791" data-name="路径 12791" d="M124.6,54.4a52.138,52.138,0,0,0,19.833-10.533A36.448,36.448,0,0,0,155.6,25.07l1.322.331a37.77,37.77,0,0,1-11.613,19.5A53.371,53.371,0,0,1,125,55.766Z" transform="translate(873.43 -401.803)" fill="#fff" fill-rule="evenodd"/>
    <rect id="矩形_3188" data-name="矩形 3188" width="13.42" height="1.388" transform="translate(1041.155 -382.837)" fill="#fff"/>
    <rect id="矩形_3189" data-name="矩形 3189" width="2.666" height="1.366" transform="translate(945.673 -398.681)" fill="#fff"/>
    <path id="路径_12792" data-name="路径 12792" d="M87.9,13.52l11.26,1.829-.22,1.344L87.7,14.864Z" transform="translate(829.017 -415.704)" fill="#fff" fill-rule="evenodd"/>
    <rect id="矩形_3190" data-name="矩形 3190" width="1.939" height="1.388" transform="translate(959.093 -397.667)" fill="#fff"/>
    <path id="路径_12793" data-name="路径 12793" d="M129.959,12.49a50.22,50.22,0,0,1,4.716,29.022c-1.609,12.737-7.4,23.006-11.745,25.782l-.749-1.19c4.1-2.6,9.586-12.428,11.018-24.769a48.92,48.92,0,0,0-4.561-28.228Z" transform="translate(870.518 -416.944)" fill="#fff" fill-rule="evenodd"/>
    <rect id="矩形_3191" data-name="矩形 3191" width="7.823" height="1.388" transform="translate(904.201 -382.815)" fill="#fff"/>
    <rect id="矩形_3192" data-name="矩形 3192" width="60.688" height="1.388" transform="translate(966.739 -383.035)" fill="#fff"/>
    <rect id="矩形_3193" data-name="矩形 3193" width="1.388" height="20.582" transform="translate(978.727 -396.565)" fill="#fff"/>
    <path id="路径_12794" data-name="路径 12794" d="M95.117,19.5A29.925,29.925,0,0,0,97.585,41.27c3.5,6.413,9.674,12.054,18.577,16.747l-.639,1.234C106.378,54.4,100.1,48.586,96.373,41.931a31.4,31.4,0,0,1-2.6-22.741Z" transform="translate(835.064 -408.88)" fill="#fff" fill-rule="evenodd"/>
    <path id="路径_12795" data-name="路径 12795" d="M87.29,33.633c5.553-.992,11.018-1.939,16.9-2.688a176.049,176.049,0,0,1,17.761-1.454v1.388a171.992,171.992,0,0,0-17.629,1.432c-5.685.727-11.26,1.7-16.836,2.688Z" transform="translate(828.523 -396.483)" fill="#fff" fill-rule="evenodd"/>
    <rect id="矩形_3194" data-name="矩形 3194" width="8.44" height="1.388" transform="translate(978.462 -411.418)" fill="#fff"/>
    <rect id="矩形_3195" data-name="矩形 3195" width="1.388" height="5.597" transform="translate(978.925 -418.579)" fill="#fff"/>
    <path id="路径_12796" data-name="路径 12796" d="M101.789,7.69l4.143,1.7,1.432.573-1.388.683-3.5,1.7-.617-1.256,2.115-.992-2.71-1.124Z" transform="translate(845.338 -422.722)" fill="#fff" fill-rule="evenodd"/>
    <path id="路径_12797" data-name="路径 12797" d="M125.264,6.63a36.778,36.778,0,0,1,12.781,5.223L137.3,13a36.581,36.581,0,0,0-5.95-3.129A35.125,35.125,0,0,0,125,7.974Z" transform="translate(873.912 -423.997)" fill="#fff" fill-rule="evenodd"/>
    <rect id="矩形_3196" data-name="矩形 3196" width="7.096" height="1.388" transform="matrix(0.957, -0.29, 0.29, 0.957, 956.284, -416.091)" fill="#fff"/>
    <path id="路径_12798" data-name="路径 12798" d="M110.82,8.149,114.941,6.1l.617,1.234-4.121,2.049Z" transform="translate(856.845 -424.635)" fill="#fff" fill-rule="evenodd"/>
    <rect id="矩形_3197" data-name="矩形 3197" width="1.366" height="5.09" transform="translate(987.361 -417.329) rotate(-58.23)" fill="#fff"/>
    <path id="路径_12799" data-name="路径 12799" d="M127,9.279a24.108,24.108,0,0,0,4.694-.4,38.365,38.365,0,0,0,4.738-1.212l.419,1.3a38.258,38.258,0,0,1-4.914,1.256A25.451,25.451,0,0,1,127,10.6Z" transform="translate(876.319 -422.746)" fill="#fff" fill-rule="evenodd"/>
    <path id="路径_12800" data-name="路径 12800" d="M122.82,28.94a247.28,247.28,0,0,1,24.967,1.432c8.264.837,16.395,2.049,24.526,3.5l-.242,1.366q-12.12-2.2-24.438-3.5T122.82,30.306Z" transform="translate(871.288 -397.145)" fill="#fff" fill-rule="evenodd"/>
    <path id="路径_12801" data-name="路径 12801" d="M72.858,82.806A64.257,64.257,0,0,1,71.293,67.8c.331-16.637,7.779-30.652,19.833-41.538s28.647-18.643,47.4-22.785A152.051,152.051,0,0,1,173.872.016a154.627,154.627,0,0,1,26.135,2.732c20.1,3.856,37.77,11.767,50.331,23.182a56.963,56.963,0,0,1,19.678,44.315,68.114,68.114,0,0,1-1.234,11.481h-.507a67.366,67.366,0,0,0,1.234-11.393,56.413,56.413,0,0,0-19.524-43.94C237.49,15.044,219.905,7.178,199.918,3.343A153.615,153.615,0,0,0,173.85.545a151.013,151.013,0,0,0-35.258,3.438C119.971,8.1,103.334,15.838,91.434,26.635S72.087,51.338,71.756,67.8a63.244,63.244,0,0,0,1.565,14.9Z" transform="translate(809.262 -431.993)" fill="#fff" fill-rule="evenodd"/>
    <path id="路径_12802" data-name="路径 12802" d="M78.839,51.448a1.587,1.587,0,0,0,.793-.176.97.97,0,0,0,.176-.617h.22l.154,1.829h-.22a.628.628,0,0,0-.286-.573,1.476,1.476,0,0,0-.815-.11l-5.223.264a1.829,1.829,0,0,0-.529.353,1.014,1.014,0,0,0-.176.419h-.22v-1.3l4.936-3.349-4.055.22a1.212,1.212,0,0,0-.793.176,1.689,1.689,0,0,0-.176.595H72.4l-.154-1.829h.22a.925.925,0,0,0,.286.595,1.388,1.388,0,0,0,.793,0l6.236-.331v.154l-5.729,3.746,4.782-.242ZM77.1,45.19V43.251l-3.173.639,3.063,1.3Zm2.777,1.939h-.22a.6.6,0,0,0-.176-.419,2.4,2.4,0,0,0-.749-.419L72.47,43.6v-.176l6.611-1.41a1.631,1.631,0,0,0,.419-.11l.286-.132a.506.506,0,0,0,.154-.154.793.793,0,0,0,0-.242h.22l-.132,2.2h-.22a.727.727,0,0,0,0-.441.4.4,0,0,0-.353-.154H79.1l-1.432.309-.132,2.2,1.168.485.331.11h.242a.353.353,0,0,0,.353,0,.683.683,0,0,0,.132-.419h.242l-.11,1.653Zm-.309-7.448a1.609,1.609,0,0,0,.793,0,.948.948,0,0,0,.353-.529h.22l-.4,1.807h-.22a.992.992,0,0,0,0-.639,1.587,1.587,0,0,0-.749-.331L74.5,38.645a1.455,1.455,0,0,0-.595.176.639.639,0,0,0-.286.353H73.4l.286-1.278,5.8-1.587-3.922-1.036a1.609,1.609,0,0,0-.815,0,.837.837,0,0,0-.331.529h-.22l.4-1.763h.22a.793.793,0,0,0,0,.639,1.586,1.586,0,0,0,.727.331L81.571,36.6v.154L74.96,38.579l4.628,1.19ZM76.393,29.191l-.859,2.2h.22a.521.521,0,0,1,.419-.485,1.454,1.454,0,0,1,.859.22l4.8,2.093a1.057,1.057,0,0,1,.419.286.264.264,0,0,1,0,.286c0,.11-.22.154-.551.11h0a1.1,1.1,0,0,0-.4,0,.206.206,0,0,0-.2.2.242.242,0,0,0,0,.264.441.441,0,0,0,.264.22.992.992,0,0,0,.749,0,.749.749,0,0,0,.507-.485,1.08,1.08,0,0,0-.176-1.168A3.7,3.7,0,0,0,81,31.946l-3.68-1.631a1.454,1.454,0,0,1-.727-.485.793.793,0,0,1,0-.639h-.2Zm7.669,2.446h-.176a.749.749,0,0,0,0-.639,1.3,1.3,0,0,0-.6-.507L78.883,28a1.565,1.565,0,0,0-.771-.242c-.154,0-.309.154-.463.419l-.2-.11,1.08-2.049.2.11a.793.793,0,0,0,0,.639,1.388,1.388,0,0,0,.617.507l4.407,2.468a1.322,1.322,0,0,0,.749.264.683.683,0,0,0,.463-.419h.2l-1.08,2.049Zm.859-4.694-3.658-3,6.743,1.014h0l-4.87-3.9a1.829,1.829,0,0,1-.529-.617.859.859,0,0,1,.176-.617l-.066-.286-1.1,1.454.176.132a.9.9,0,0,1,.529-.331,1.366,1.366,0,0,1,.705.4L86.2,23.726l-5.95-.9-.771,1.058.176.132a.683.683,0,0,1,.419-.066,1.366,1.366,0,0,1,.617,0l4.077,3.261a1.565,1.565,0,0,1,.551.617,1.036,1.036,0,0,1-.2.617l.176.154,1.1-1.476-.176-.132a.793.793,0,0,1-.529.331,1.366,1.366,0,0,1-.705-.4Zm6.39-7.713a4.407,4.407,0,0,1-.154,1.234,2.886,2.886,0,0,1-.551.948,2.2,2.2,0,0,1-2.2.815,4.407,4.407,0,0,1-2.512-1.322,4.87,4.87,0,0,1-1.609-2.556,2.49,2.49,0,0,1,.529-2.2,3.041,3.041,0,0,1,.793-.573l.529-.22v-.2a1.938,1.938,0,0,0-.154-.264h0l1.741,1.52h0a3.394,3.394,0,0,0-1.521-.485,1.212,1.212,0,0,0-1.014.485,1.7,1.7,0,0,0-.264,1.741,5.443,5.443,0,0,0,1.5,2.2,5.046,5.046,0,0,0,2.2,1.322,1.609,1.609,0,0,0,1.675-.485,1.124,1.124,0,0,0,.308-.573,1.828,1.828,0,0,0,0-.683l-1.278-1.543a2.2,2.2,0,0,0-.661-.463c-.132,0-.309.132-.551.375l-.176-.176L89.372,16.5l.176.176a.639.639,0,0,0-.2.485,1.41,1.41,0,0,0,.441.573Z" transform="translate(810.421 -414.056)" fill="#fff" fill-rule="evenodd"/>
    <path id="路径_12803" data-name="路径 12803" d="M114.686,4.81a5.664,5.664,0,0,0,.4,2.556,1.41,1.41,0,0,0,1.234.948,1.543,1.543,0,0,0,1.322-.948,5.884,5.884,0,0,0,.573-2.578,5.928,5.928,0,0,0-.4-2.534,1.432,1.432,0,0,0-1.256-.948,1.476,1.476,0,0,0-1.3.948,5.773,5.773,0,0,0-.573,2.556Zm-.881,0a5.421,5.421,0,0,1,.815-2.843A2.314,2.314,0,0,1,116.471.91a2.2,2.2,0,0,1,1.9,1.058,4.76,4.76,0,0,1,.617,2.821,5.443,5.443,0,0,1-.793,2.865,2.336,2.336,0,0,1-1.961,1.058,2.2,2.2,0,0,1-1.873-1.058A4.958,4.958,0,0,1,113.8,4.81Z" transform="translate(860.404 -430.882)" fill="#fff" fill-rule="evenodd"/>
    <path id="路径_12804" data-name="路径 12804" d="M116.74,8.338v-.22a.859.859,0,0,0,.617-.176,1.388,1.388,0,0,0,.2-.793l.419-4.98a1.476,1.476,0,0,0,0-.793c0-.154-.286-.22-.595-.242V1l4.231.2V2.961h-.154a2.2,2.2,0,0,0-.242-1.058.948.948,0,0,0-.771-.309h-1.08a.4.4,0,0,0-.309.11.771.771,0,0,0-.132.419l-.154,2.005a.772.772,0,0,0,0,.331.264.264,0,0,0,.2,0h.551a1.124,1.124,0,0,0,.793-.176,1.388,1.388,0,0,0,.242-.837h.154l-.22,2.644h-.154a1.9,1.9,0,0,0,0-.926c0-.154-.353-.242-.749-.264H118.9a.286.286,0,0,0-.176,0,.418.418,0,0,0,0,.264l-.176,2.071a1.256,1.256,0,0,0,.11.793c0,.154.286.242.617.264v.22Z" transform="translate(863.97 -430.774)" fill="#fff" fill-rule="evenodd"/>
    <path id="路径_12805" data-name="路径 12805" d="M132.183,8.367v.2a3.526,3.526,0,0,1-1.19,1.124,1.961,1.961,0,0,1-1.278.2,2.2,2.2,0,0,1-1.7-1.344,4.716,4.716,0,0,1-.154-2.865,5.069,5.069,0,0,1,1.3-2.666,2.358,2.358,0,0,1,2.2-.771,2.2,2.2,0,0,1,.881.375,3.128,3.128,0,0,0,.485.286.2.2,0,0,0,.2,0,.485.485,0,0,0,0-.264h.154l-.331,2.4h0a3.658,3.658,0,0,0-.353-1.631,1.256,1.256,0,0,0-.948-.683,1.675,1.675,0,0,0-1.587.705,5.4,5.4,0,0,0-1.036,2.4,4.826,4.826,0,0,0,0,2.534,1.521,1.521,0,0,0,1.146,1.168,1.653,1.653,0,0,0,1.08-.176,3.945,3.945,0,0,0,1.124-.992Z" transform="translate(877.175 -429.327)" fill="#fff" fill-rule="evenodd"/>
    <path id="路径_12806" data-name="路径 12806" d="M130,9.916V9.7a.793.793,0,0,0,.639-.11,1.432,1.432,0,0,0,.286-.749l.992-4.914a1.543,1.543,0,0,0,0-.793.683.683,0,0,0-.551-.309V2.6l2.2.375v.2a.815.815,0,0,0-.617.132,1.608,1.608,0,0,0-.308.749l-.353,1.829a.441.441,0,0,0,0,.286h.176l2.2.353h.154a.97.97,0,0,0,.11-.286l.353-1.807a1.543,1.543,0,0,0,0-.793.749.749,0,0,0-.551-.309v-.22l2.2.375V3.7a.793.793,0,0,0-.639,0,1.344,1.344,0,0,0-.286.749l-.992,4.914a1.168,1.168,0,0,0,0,.793c0,.154.242.242.529.309v.22l-2.2-.375v-.22a.793.793,0,0,0,.617,0,1.41,1.41,0,0,0,.308-.727l.4-2.027a.508.508,0,0,0,0-.264h-.132l-2.2-.375h-.2a.618.618,0,0,0-.11.242l-.375,2.005a1.389,1.389,0,0,0,0,.793.683.683,0,0,0,.551.353v.22Z" transform="translate(879.93 -428.848)" fill="#fff" fill-rule="evenodd"/>
    <path id="路径_12807" data-name="路径 12807" d="M132.81,10.24v-.22a.705.705,0,0,0,.639,0,1.52,1.52,0,0,0,.4-.683L135.476,4.6a1.52,1.52,0,0,0,.132-.793.815.815,0,0,0-.507-.4v-.2l2.2.683v.2a.837.837,0,0,0-.639,0,1.344,1.344,0,0,0-.4.683l-1.653,4.76a1.3,1.3,0,0,0,0,.771c0,.154.2.286.485.375v.22Z" transform="translate(883.312 -428.114)" fill="#fff" fill-rule="evenodd"/>
    <path id="路径_12808" data-name="路径 12808" d="M135.758,9.766a1.477,1.477,0,0,0-.154.815.992.992,0,0,0,.507.4v.2L134.37,10.6v-.2a.881.881,0,0,0,.661,0,1.433,1.433,0,0,0,.4-.705l1.785-4.914a1.543,1.543,0,0,0,0-.617.683.683,0,0,0-.331-.331v-.2l1.234.4,1.058,5.928,1.388-3.812a1.433,1.433,0,0,0,.154-.793.815.815,0,0,0-.507-.4v-.22l1.741.573v.2a.992.992,0,0,0-.639,0,1.476,1.476,0,0,0-.4.727l-2.2,5.84h-.154l-1.19-6.721Z" transform="translate(885.19 -427.596)" fill="#fff" fill-rule="evenodd"/>
    <path id="路径_12809" data-name="路径 12809" d="M136.87,11.485v-.2a.815.815,0,0,0,.639,0,1.587,1.587,0,0,0,.441-.661l2.005-4.606a1.322,1.322,0,0,0,.154-.771c0-.176-.176-.309-.463-.441v-.2L143.7,6.2l-.595,1.543h-.132a1.917,1.917,0,0,0,.11-.992.925.925,0,0,0-.617-.507l-.9-.507a.463.463,0,0,0-.331,0,1.344,1.344,0,0,0-.22.4l-.793,1.829c0,.154-.11.242,0,.286s0,0,.154.132l.948.375a1.014,1.014,0,0,0,.815,0,1.52,1.52,0,0,0,.529-.683h.132l-1.234,2.446h-.154a1.454,1.454,0,0,0,.154-.881c0-.176-.264-.331-.617-.485l-.97-.375h-.2c-.044,0,0,0-.154.242l-.881,2.049a1.674,1.674,0,0,0-.154.529s0,.154.22.22l1.124.419a1.388,1.388,0,0,0,1.08,0,2.71,2.71,0,0,0,.992-.859v.132l-1.1,1.543Z" transform="translate(888.199 -426.429)" fill="#fff" fill-rule="evenodd"/>
    <path id="路径_12810" data-name="路径 12810" d="M139.4,12.7l.771-2.336h.176a4.031,4.031,0,0,0,0,1.631,1.036,1.036,0,0,0,.617.793.9.9,0,0,0,.837-.11,1.719,1.719,0,0,0,.705-.771,1.7,1.7,0,0,0,.154-.793,2.2,2.2,0,0,0-.264-.837l-.485-.926a2.952,2.952,0,0,1-.331-1.1,2.2,2.2,0,0,1,.242-1.08,2.512,2.512,0,0,1,1.036-1.146,1.5,1.5,0,0,1,1.3-.132,1.918,1.918,0,0,1,.573.4l.353.309a.154.154,0,0,0,.154,0,.794.794,0,0,0,.176-.2h.132l-.815,2.2h-.154a3.9,3.9,0,0,0,0-1.5.948.948,0,0,0-.573-.727.9.9,0,0,0-.749,0,1.388,1.388,0,0,0-.6.683,1.146,1.146,0,0,0-.154.705,2.467,2.467,0,0,0,.264.815l.551,1.014a2.932,2.932,0,0,1,.353,1.146,2.491,2.491,0,0,1-.287,1.1,2.688,2.688,0,0,1-1.124,1.278,1.719,1.719,0,0,1-1.432,0,2.2,2.2,0,0,1-.639-.4l-.353-.264a.242.242,0,0,0-.176,0,.287.287,0,0,0-.176.154Z" transform="translate(891.244 -424.998)" fill="#fff" fill-rule="evenodd"/>
    <path id="路径_12811" data-name="路径 12811" d="M141.27,12.886l.132-.2a.749.749,0,0,0,.617.176,1.52,1.52,0,0,0,.573-.573l2.887-4.1a1.609,1.609,0,0,0,.331-.727c0-.154-.132-.331-.375-.529l.132-.176L149.2,9.14l-.881,1.388h-.132a1.984,1.984,0,0,0,.309-.97,1.014,1.014,0,0,0-.485-.617l-1.08-.705a.4.4,0,0,0-.309,0,.881.881,0,0,0-.308.331L145.148,10.2a.683.683,0,0,0-.132.264.213.213,0,0,0,.132.176l.859.551a1.058,1.058,0,0,0,.771.242,1.565,1.565,0,0,0,.661-.573h.11l-1.476,2.093h-.132a1.366,1.366,0,0,0,.331-.815c0-.176-.176-.4-.529-.595l-.837-.573h-.2a.947.947,0,0,0-.22.22l-1.278,1.829a1.058,1.058,0,0,0-.242.485.264.264,0,0,0,.176.242l.992.661a1.388,1.388,0,0,0,1.036.309,2.645,2.645,0,0,0,1.146-.639v.154l-1.388,1.278Z" transform="translate(893.495 -423.841)" fill="#fff" fill-rule="evenodd"/>
    <path id="路径_12812" data-name="路径 12812" d="M157.866,26.452l-.154.176a3.967,3.967,0,0,1-1.543-.573,2.028,2.028,0,0,1-.771-1.036,2.2,2.2,0,0,1,.441-2.2,4.606,4.606,0,0,1,2.468-1.454,5.09,5.09,0,0,1,2.975,0,2.044,2.044,0,0,1,1.653,2.49,2.2,2.2,0,0,0,0,.573.2.2,0,0,0,.154.132.419.419,0,0,0,.286,0v.132l-2.2.793v-.154a3.151,3.151,0,0,0,1.278-1.036,1.212,1.212,0,0,0,.2-1.146,1.675,1.675,0,0,0-1.366-1.1,6.1,6.1,0,0,0-4.826,1.366,1.5,1.5,0,0,0-.507,1.565,1.631,1.631,0,0,0,.639.9,3.745,3.745,0,0,0,1.278.573Z" transform="translate(910.35 -406.534)" fill="#fff" fill-rule="evenodd"/>
    <path id="路径_12813" data-name="路径 12813" d="M155.91,24.99h.22a.705.705,0,0,0,.331.529,1.631,1.631,0,0,0,.815,0l4.936-.926a1.256,1.256,0,0,0,.727-.286.749.749,0,0,0,0-.617h.22l.507,2.2h-.22a.578.578,0,0,0-.353-.529,1.542,1.542,0,0,0-.793,0l-4.936.926a1.278,1.278,0,0,0-.749.286.749.749,0,0,0,0,.617h-.22Z" transform="translate(911.116 -403.464)" fill="#fff" fill-rule="evenodd"/>
    <path id="路径_12814" data-name="路径 12814" d="M154.2,22.213h.2c.154.264.308.419.463.441a1.455,1.455,0,0,0,.793-.176l4.583-2.027a1.212,1.212,0,0,0,.639-.463c0-.132,0-.331,0-.617h.2l1.014,2.093h-.2a.881.881,0,0,0-.485-.463,1.675,1.675,0,0,0-.771.2l-4.584,2.027a1.41,1.41,0,0,0-.661.441.794.794,0,0,0,0,.617l-.2.11Z" transform="translate(909.057 -408.663)" fill="#fff" fill-rule="evenodd"/>
    <path id="路径_12815" data-name="路径 12815" d="M157.572,26.988a1.432,1.432,0,0,0-.793.154.837.837,0,0,0-.176.595h-.242l-.11-1.829h.22a1.058,1.058,0,0,0,.264.573,1.631,1.631,0,0,0,.815.132l5.223-.154a1.278,1.278,0,0,0,.529-.331.749.749,0,0,0,.2-.419h.22v1.322l-5.134,3.151h4.055a1.212,1.212,0,0,0,.793-.176c.132,0,.176-.286.2-.573h.22v1.829h-.22a.815.815,0,0,0-.264-.573,1.542,1.542,0,0,0-.793-.132l-6.236.176V30.58l5.972-3.724Z" transform="translate(911.525 -401.032)" fill="#fff" fill-rule="evenodd"/>
    <path id="路径_12816" data-name="路径 12816" d="M148.63,16.614l.154-.154a.6.6,0,0,0,.573.2,2.2,2.2,0,0,0,.881-.595L153.61,13a1.939,1.939,0,0,0,.573-.705.661.661,0,0,0-.2-.573l.176-.132,1.036,1.058-2.975,5.134,5.465-2.6L158.7,16.24l-.154.154c-.22-.2-.4-.286-.551-.264a2.027,2.027,0,0,0-.749.507l-3.57,3.261a1.917,1.917,0,0,0-.551.661.794.794,0,0,0,.22.573l-.154.154-1.543-1.565.176-.154a.793.793,0,0,0,.551.242,1.741,1.741,0,0,0,.749-.485l3.614-3.305-5.928,2.821-.11-.11,3.151-5.553-3.5,3.2a2.2,2.2,0,0,0-.639.771.617.617,0,0,0,.22.573l-.154.154Z" transform="translate(902.353 -418.028)" fill="#fff" fill-rule="evenodd"/>
    <path id="路径_12817" data-name="路径 12817" d="M150.93,18.517l.176-.132c.2.242.375.353.529.353a1.124,1.124,0,0,0,.727-.331l4.121-2.887a1.565,1.565,0,0,0,.551-.551.75.75,0,0,0-.176-.617l.176-.132,2.622,3.46-1.3,1.014v-.11a2.2,2.2,0,0,0,.617-.793,1.014,1.014,0,0,0-.264-.771L157.938,16a.419.419,0,0,0-.264-.2,1.014,1.014,0,0,0-.4.2l-1.631,1.168a.661.661,0,0,0-.22.2v.2l.617.815c.22.309.441.485.639.485a1.344,1.344,0,0,0,.793-.309l.11.132-2.2,1.454v-.11a1.653,1.653,0,0,0,.6-.661.97.97,0,0,0-.287-.749l-.617-.815H154.9a.683.683,0,0,0-.264.132L152.8,19.222a1.3,1.3,0,0,0-.4.375s0,.176,0,.309l.727.926a1.41,1.41,0,0,0,.881.661,2.666,2.666,0,0,0,1.3-.22v.176l-1.741.727Z" transform="translate(905.122 -414.862)" fill="#fff" fill-rule="evenodd"/>
    <path id="路径_12818" data-name="路径 12818" d="M154.789,20.937a1.939,1.939,0,0,0-.639.529.8.8,0,0,0,.176.529,2.2,2.2,0,0,0,1.719.948,4.407,4.407,0,0,0,2.424-.815,3.967,3.967,0,0,0,1.719-1.851,2.005,2.005,0,0,0-.287-1.939c-.154-.2-.264-.286-.4-.286a1.785,1.785,0,0,0-.683.309l-4.033,2.578Zm-2.049-.529.2-.132a.661.661,0,0,0,.507.375,1.388,1.388,0,0,0,.749-.286l4.231-2.666a1.344,1.344,0,0,0,.573-.529.639.639,0,0,0-.154-.617l.2-.132,1.366,1.983a2.666,2.666,0,0,1,.441,2.358,4.055,4.055,0,0,1-1.829,2.093,5.355,5.355,0,0,1-1.609.705,3.68,3.68,0,0,1-1.543,0,2.512,2.512,0,0,1-.992-.419,3.9,3.9,0,0,1-.9-.97Z" transform="translate(907.3 -412.214)" fill="#fff" fill-rule="evenodd"/>
    <path id="路径_12819" data-name="路径 12819" d="M156.3,28.668h.22a.727.727,0,0,0,.242.573,1.212,1.212,0,0,0,.793.132l5.024-.132a1.432,1.432,0,0,0,.771-.154c.132-.11.176-.309.2-.617h.22l.264,4.407h-1.653v-.154a1.7,1.7,0,0,0,.925-.331.837.837,0,0,0,.22-.749V30.057a.992.992,0,0,0-.463,0H161.06a.683.683,0,0,0-.286,0v1.212a1.1,1.1,0,0,0,.286.771,1.3,1.3,0,0,0,.837.176v.154h-2.556v-.176a1.388,1.388,0,0,0,.859-.22.97.97,0,0,0,.176-.771V29.99a.727.727,0,0,0-.308,0h-2.2a1.124,1.124,0,0,0-.529,0,.612.612,0,0,0-.11.286v1.19A1.565,1.565,0,0,0,157.6,32.5a3.019,3.019,0,0,0,1.19.529v.132l-1.851-.331Z" transform="translate(911.585 -397.71)" fill="#fff" fill-rule="evenodd"/>
    <path id="路径_12820" data-name="路径 12820" d="M83.722,13.016l-.132-.176,1.7-1.5.132.176a.793.793,0,0,0-.286.551,2.446,2.446,0,0,0,.507.815l2.027,2.534a4.077,4.077,0,0,0,1.5,1.278,1.124,1.124,0,0,0,1.234-.242,1.366,1.366,0,0,0,.463-1.3,3.438,3.438,0,0,0-.881-1.741l-2.027-2.49a1.807,1.807,0,0,0-.705-.617.705.705,0,0,0-.595.2l-.154-.176L87.843,9.16,88,9.314a.6.6,0,0,0-.22.573,1.851,1.851,0,0,0,.463.815l1.939,2.358a4.407,4.407,0,0,1,1.1,2.2,1.851,1.851,0,0,1-.661,1.675,2.424,2.424,0,0,1-.859.485,1.587,1.587,0,0,1-.9,0,2.005,2.005,0,0,1-.837-.463,6.965,6.965,0,0,1-.97-.992l-1.785-2.2a3.063,3.063,0,0,0-.926-.881A.573.573,0,0,0,83.722,13.016Z" transform="translate(824.07 -420.952)" fill="#fff" fill-rule="evenodd"/>
    <path id="路径_12821" data-name="路径 12821" d="M90.044,15.177c.2.353.375.573.507.617a.727.727,0,0,0,.617,0v.176l-1.565.948v-.2a.859.859,0,0,0,.4-.507,1.542,1.542,0,0,0-.264-.771l-2.512-4.672a1.918,1.918,0,0,0-.551-.331.837.837,0,0,0-.463,0l-.11-.11,1.146-.683,5.245,3.129L90.529,9.2c-.242-.353-.463-.639-.617-.639a1.365,1.365,0,0,0-.595.11v-.2l1.565-.948v.2a.859.859,0,0,0-.4.507,1.543,1.543,0,0,0,.264.771l3,5.465h-.132l-5.862-3.526Z" transform="translate(827.091 -422.914)" fill="#fff" fill-rule="evenodd"/>
    <path id="路径_12822" data-name="路径 12822" d="M92.092,14.617v-.2c.242-.176.4-.331.419-.507a1.476,1.476,0,0,0-.264-.771l-2.4-4.407a1.256,1.256,0,0,0-.507-.595.749.749,0,0,0-.617,0v-.2L90.7,6.75v.22c-.242.154-.4.331-.4.485a1.3,1.3,0,0,0,.242.771l2.4,4.407a1.388,1.388,0,0,0,.529.617.705.705,0,0,0,.595-.11l.132.2Z" transform="translate(830.245 -423.853)" fill="#fff" fill-rule="evenodd"/>
    <path id="路径_12823" data-name="路径 12823" d="M95.433,13.784l-4.121-4.76a4.275,4.275,0,0,0-.793-.793.507.507,0,0,0-.529,0v-.2l1.917-.97v.22a1.168,1.168,0,0,0-.375.331.352.352,0,0,0,0,.331,6.346,6.346,0,0,0,.837,1.1l2.578,2.931-.529-4.65V6.908a2.2,2.2,0,0,0,0-.264c0-.154-.154-.242-.264-.264a.992.992,0,0,0-.463,0v-.2l1.366-.661v.2a.485.485,0,0,0-.22.375,2.954,2.954,0,0,0,0,.948l.859,6.611Z" transform="translate(831.773 -425.333)" fill="#fff" fill-rule="evenodd"/>
    <path id="路径_12824" data-name="路径 12824" d="M94.876,13.408v-.2c.286-.132.441-.264.485-.419A1.521,1.521,0,0,0,95.229,12L93.466,7.26a1.3,1.3,0,0,0-.4-.661H92.43V6.4L96.485,4.77,97.1,6.313h-.132a2.2,2.2,0,0,0-.595-.793.926.926,0,0,0-.793,0l-1.212.463a.291.291,0,0,0-.242.2.815.815,0,0,0,0,.441l.683,1.9q0,.242.132.264a.264.264,0,0,0,.22,0l.925-.375a1.036,1.036,0,0,0,.661-.485,1.432,1.432,0,0,0,0-.859H96.9l.881,2.4h-.154a1.542,1.542,0,0,0-.485-.749,1.036,1.036,0,0,0-.793,0l-.948.4s-.154,0-.154.132V9.53l.639,2.358a1.344,1.344,0,0,0,.242.485.286.286,0,0,0,.309,0l1.1-.441a1.631,1.631,0,0,0,.881-.683,2.732,2.732,0,0,0,0-1.3H98.6l.242,1.9Z" transform="translate(834.71 -426.236)" fill="#fff" fill-rule="evenodd"/>
    <path id="路径_12825" data-name="路径 12825" d="M97.276,7.8a.529.529,0,0,0,0,.2h.154a1.829,1.829,0,0,0,1.146-.815,1.7,1.7,0,0,0,0-1.366,1.653,1.653,0,0,0-.683-1.036,1.344,1.344,0,0,0-1.146,0,.378.378,0,0,0-.353.242.793.793,0,0,0,0,.485l.705,2.2ZM96.989,12.2v-.22h0a.661.661,0,0,0,.441-.4,1.829,1.829,0,0,0,0-.837L95.954,5.922a1.124,1.124,0,0,0-.375-.661H94.94v-.22L97.276,4.2a1.653,1.653,0,0,1,1.388,0,2.027,2.027,0,0,1,.815,1.278,2.556,2.556,0,0,1,0,1.278,1.829,1.829,0,0,1-.683.97A26.294,26.294,0,0,0,101,9.757c.507.375.749.551.9.529v.2l-1.1.375c-.441-.375-.9-.771-1.366-1.212L98,8.214l-.286.132a.265.265,0,0,0,0,.22l.529,1.763a1.367,1.367,0,0,0,.4.749.551.551,0,0,0,.595,0h0v.22Z" transform="translate(837.731 -427.102)" fill="#fff" fill-rule="evenodd"/>
    <path id="路径_12826" data-name="路径 12826" d="M101.124,10.6v-.22a.705.705,0,0,0,.529-.331,1.256,1.256,0,0,0,0-.793l-.749-4.98a1.454,1.454,0,0,0-.264-.727.749.749,0,0,0-.639-.2v-.22l2.2-.419v.22a.815.815,0,0,0-.551.331,1.344,1.344,0,0,0,0,.815l.749,4.958a1.146,1.146,0,0,0,.264.727c0,.132.309.154.6,0V10Z" transform="translate(843.821 -428.716)" fill="#fff" fill-rule="evenodd"/>
    <path id="路径_12827" data-name="路径 12827" d="M103.569,10.393v-.22a.771.771,0,0,0,.595-.309,2.027,2.027,0,0,0,0-.948l-.683-5.311V3.342c0-.022-.11,0-.264,0h-.132a1.256,1.256,0,0,0-.948.463,2.2,2.2,0,0,0-.154,1.212h-.154l-.2-1.917,4.539-.749.242,1.917h-.154a2.2,2.2,0,0,0-.441-1.146,1.565,1.565,0,0,0-1.146-.11c-.176,0-.264,0-.286.11a.838.838,0,0,0,0,.286l.683,5.245a1.273,1.273,0,0,0,.286.948.854.854,0,0,0,.639.11v.22Z" transform="translate(845.783 -429.149)" fill="#fff" fill-rule="evenodd"/>
    <path id="路径_12828" data-name="路径 12828" d="M105.863,9.636v-.22h0a.683.683,0,0,0,.551-.22,1.3,1.3,0,0,0,.154-.749V6.4l-1.7-3.349a1.013,1.013,0,0,0-.331-.441.881.881,0,0,0-.441-.154v-.22h2.336v.22l-.463.132a.331.331,0,0,0-.132.242,1.808,1.808,0,0,0,.132.441h0l1.234,2.512,1.08-2.446a2.781,2.781,0,0,0,.2-.463.971.971,0,0,0,0-.22.264.264,0,0,0,0-.22,1.41,1.41,0,0,0-.441,0V2.1h1.587v.22a.705.705,0,0,0-.4.22,3.592,3.592,0,0,0-.4.705l-1.432,3.041v2.2a.926.926,0,0,0,.154.639c0,.132.309.176.617.176v.242Z" transform="translate(848.756 -429.45)" fill="#fff" fill-rule="evenodd"/>
    <path id="路径_12829" data-name="路径 12829" d="M99.828,11.245l-.992-2.2h.154a4.827,4.827,0,0,0,1.19,1.278,1.41,1.41,0,0,0,1.1.309.837.837,0,0,0,.639-.529,1.322,1.322,0,0,0,0-.97,1.763,1.763,0,0,0-.419-.705,3.041,3.041,0,0,0-.837-.529l-1.08-.485a3.173,3.173,0,0,1-1.08-.705,2.357,2.357,0,0,1-.573-.97,1.983,1.983,0,0,1,0-1.432,1.388,1.388,0,0,1,1.036-.749,1.52,1.52,0,0,1,.771,0h.507a.137.137,0,0,0,.132-.11.529.529,0,0,0,0-.264h.132l.837,2.2h-.176a4.033,4.033,0,0,0-1.014-1.19,1.234,1.234,0,0,0-1.014-.286.837.837,0,0,0-.595.441,1.08,1.08,0,0,0,0,.837,1.741,1.741,0,0,0,.4.639,2.468,2.468,0,0,0,.815.507l1.19.529a3.547,3.547,0,0,1,1.124.727,2.622,2.622,0,0,1,.551,1.014,2.049,2.049,0,0,1,0,1.587,1.565,1.565,0,0,1-1.146.815,2.2,2.2,0,0,1-.837,0h-.507s-.132,0-.154.11a.242.242,0,0,0,0,.22Z" transform="translate(841.173 -428.15)" fill="#fff" fill-rule="evenodd"/>
    <path id="路径_12830" data-name="路径 12830" d="M167.108,30.47a40.571,40.571,0,0,1,4.407-6.39c.661-.242,1.014,0,1.036.992a16.835,16.835,0,0,1-5.333,5.4ZM125.7,104.136c.815.463.573-.132,1.168-.132a3.79,3.79,0,0,0,.353-2.6c-.881-.727-.375-.881-1.961-1.278a31.31,31.31,0,0,0,.551,4.011Zm-7.052-.375v-2.909c1.454.264,2.4-1.344,2.8-2.931a1.278,1.278,0,0,0,.176-1.565,13.221,13.221,0,0,0-2.865-.793,1.543,1.543,0,0,1-.551-1.168h1.719a.309.309,0,0,0-.2-.353c.11-1.146,0-2.358.926-2.732.485-.463.242-.948.375-1.653h1.08v2.865a6.611,6.611,0,0,0-1.5,2.644,12.3,12.3,0,0,1,4.187,1.454,9.344,9.344,0,0,0,1.653-1.829c.661-.331,1.256-.661,1.08-1.587-1.917-1.234-3.768-.9-4.561-2.2a.926.926,0,0,1,1.1-.132,32.193,32.193,0,0,1,5.046,2.424,1.432,1.432,0,0,1,.793,1.719c-1.1.661-4.253,2.38-4.407,3.5-.992-.793-2.865-1.741-2.358-.485.353.375.441,1.234,0,1.476a9.851,9.851,0,0,1-2.666,3.526c-.353.507-.551,1.19-1.763.9Zm-2.2-4.407.485.2a8.815,8.815,0,0,1,1.763-1.344,2.2,2.2,0,0,0,.485-1.939,3.812,3.812,0,0,1-2.2.727c-.286.837-.727.815-.551,2.358Zm8.219-4.121L125.7,95.1a2.005,2.005,0,0,0-1.036-1.565,14.938,14.938,0,0,1-2.005-.551.749.749,0,0,0-.176,1.08c.375.419,1.1.309,2.2,1.168Zm8.219-2.071h.9c-.154-1.1-.353-1.587-.485-2.688a33.518,33.518,0,0,1-4.033-1.1,5.157,5.157,0,0,1,.154-2.336c-.132-.485-.485-.9-.353-1.322-.859-.264-1.476-.859-2.49-.551-.22,0-.331.595-.176.793,1.014,0,0,1.146,0,2.556a40.66,40.66,0,0,0-5.289-2.622c-.22.2-1.014.441-.793.9s.617.573.485.859a17.8,17.8,0,0,1,3.173,1.036,40.084,40.084,0,0,1,8.814,4.562ZM94.852,91.488a3.658,3.658,0,0,0,2.2-1.939c.242-.375.573-.132,1.1-.551,0-.331.837-.837,1.1-1.1a1.034,1.034,0,0,0,.286-.9,2.336,2.336,0,0,1,1.9.353c0,.154.2.4.375.375s.308-.463.176-1.278a1.5,1.5,0,0,1-.727-1.454c.859.132,1.3.529,2.2.419.353-1.08-1.146-.881-.727-1.873,1.014,0,1.278-.154,2.314-.2.507.529.992.771,1.521,1.278a9.608,9.608,0,0,1,1.917.419,6.148,6.148,0,0,1-1.829,2.755,30.655,30.655,0,0,1-3.107,1.256,3.746,3.746,0,0,0-.573,2.6c1.675.309,4.253-1.785,4.407-1.807a20.558,20.558,0,0,0,2.556-2.2,3.416,3.416,0,0,0-.353-3.239c-1.675.639-1.9-.441-1.917-.485a2.468,2.468,0,0,0-2.005-1.1,1.565,1.565,0,0,0,0-1.565,1.058,1.058,0,0,0-1.631-.375c-.22.441-.242.507-.727.441-.154-.617-.331-.992.176-1.344l1.1-1.08c.705-.22,1.609-.463,2.2,0s.529.705,1.036.529c1.653-1.058-.308-1.653-1.278-2.358.881-1.058,3.526-3.085,2.424-4.562-.22,0-1.807-.507-2.2.176,0,.573.242,1.476-.242,1.829-.9.97-1.168,1.256-2.027,2.314-.771-.22-1.256-.859-2.005-.2.551.309.639.9.749,1.521-.529.617-.375,1.212-1.036,1.763-.948,0-.97-.948-1.521-1.322a1.454,1.454,0,0,1-1.234.22.705.705,0,0,0-1.146.264c.573.573.881.859,1.454,1.454a6.193,6.193,0,0,1-.353,2.005h-.837a.97.97,0,0,0,.529,1.1.573.573,0,0,1,.2.727,14.631,14.631,0,0,1-2.931-.375V84.7a1.454,1.454,0,0,1,1.454,1.1,16.373,16.373,0,0,0-2.975,5.773ZM92.736,84.15v-1.52a8.594,8.594,0,0,0,1.146-1.52A30.039,30.039,0,0,0,96.328,76.7a1.565,1.565,0,0,1,.419,1.9,1.609,1.609,0,0,1-.727,1.829,1.961,1.961,0,0,0-.551,1.807,1.212,1.212,0,0,1-1.1.375v.551a2.2,2.2,0,0,1-1.7.97Zm7.36-1.278c.353-.837.353-1.5,1.256-1.5a4.959,4.959,0,0,1,1.454.705c-.727.22-1.124.529-1.212.9Zm87.858,39.158v-3.173l-3.239,3.063Zm0,2.38V122.8h-4.407v-.771l4.738-4.407h1.036v4.407h1.388v.771h-1.388v1.609Zm-15.712-1.631H173.5a1.5,1.5,0,0,0,.639.97,2.358,2.358,0,0,0,1.212.309,2.2,2.2,0,0,0,1.454-.463,1.432,1.432,0,0,0,.617-1.19,1.3,1.3,0,0,0-.573-1.124,2.49,2.49,0,0,0-1.52-.419,3.085,3.085,0,0,0-1.036.176,2.006,2.006,0,0,0-.727.485l-1.124-.11.948-3.482h4.826v.793h-3.878l-.507,1.829a4.077,4.077,0,0,1,1.829-.441,3.57,3.57,0,0,1,2.2.639,1.807,1.807,0,0,1,.881,1.565,2.2,2.2,0,0,1-.837,1.5,3.7,3.7,0,0,1-2.556.815,3.966,3.966,0,0,1-2.2-.529,1.807,1.807,0,0,1-.948-1.366Zm-7.03-2.931a1.344,1.344,0,0,0-.551-1.146,2.2,2.2,0,0,0-1.344-.419,2.314,2.314,0,0,0-1.432.463,1.41,1.41,0,0,0-.6,1.168,1.234,1.234,0,0,0,.573,1.058,2.424,2.424,0,0,0,1.41.4,2.38,2.38,0,0,0,1.41-.4,1.322,1.322,0,0,0,.529-1.124Zm-4.936,2.887h1.168a1.41,1.41,0,0,0,.573.815,2.005,2.005,0,0,0,1.08.264,2.755,2.755,0,0,0,.992-.176,2.2,2.2,0,0,0,.705-.485,2.688,2.688,0,0,0,.463-.793,3.172,3.172,0,0,0,.176-1.014v-.176a2.886,2.886,0,0,1-1.014.661,3.967,3.967,0,0,1-1.366.242,3.415,3.415,0,0,1-2.2-.617,1.873,1.873,0,0,1-.859-1.609,1.917,1.917,0,0,1,.881-1.653,3.658,3.658,0,0,1,2.2-.639,4.407,4.407,0,0,1,1.785.353,2.909,2.909,0,0,1,1.212,1.014,3.548,3.548,0,0,1,.419,1.917,4.209,4.209,0,0,1-.419,2.071,2.644,2.644,0,0,1-1.234,1.168,4.1,4.1,0,0,1-1.917.419,3.856,3.856,0,0,1-1.917-.441,1.829,1.829,0,0,1-.881-1.256Zm-7.845,1.609h-1.344V119.1a5.663,5.663,0,0,1-1.256.573,13.9,13.9,0,0,1-1.388.441v-.705a9.871,9.871,0,0,0,1.939-.793,3.966,3.966,0,0,0,1.19-.9h.859v6.721ZM140.709,95.168V102.4c.529.661,1.124.286,2.027-1.014h2.931a13.221,13.221,0,0,1-1.7,6.611c.22,1.41.242,2.865,1.058,3.173a7.1,7.1,0,0,0,1.5-3.085,46.917,46.917,0,0,1,1.058-6.258,12.605,12.605,0,0,1,2.732,0,7.139,7.139,0,0,0,3.041,1.234v-3.79l.859-.242v-.837a2.732,2.732,0,0,0-1.917-2.2c-.441.375-1.014.595-1.322,1.1h-2.512a2.578,2.578,0,0,1,.331-2.49,4.539,4.539,0,0,0,0-2.755L147.364,91c-.154.132-.727,0-.617.154l-.463.837.705.926c-.242,1.653-.308,4.165-1.5,4.165l-1.983.154c0,.264.309.507.463.749h1.7c.242,1.278.242,2.2-.242,2.644h-3.482v-3.35h.705v-.353c-.815-.815-1.3-1.565-1.983-1.609Zm8.131,2.8h2.336q.948.749,0,1.521v1.08H147.76v-.595c.859,0,.353-1.278,1.146-1.939Zm11.15,4.628a14.253,14.253,0,0,0,1.322,1.454h1.763c.308-.22.749-.463,1.08-.683h1.873a2.49,2.49,0,0,1,2.2-.353v.705a2.644,2.644,0,0,1-2.2.9l-.132,4.892h-.286v1.521a.97.97,0,0,0,1.5,0v-.308l5.046-.242v1.146a1.278,1.278,0,0,0,1.917,0l.132-5.6c.573-.705.242-1.653-.97-2.821l-1.851-.2v-.529h.353v-.375a47.906,47.906,0,0,1,8,.617c.771-.441.595-1.1-.242-1.873a2.754,2.754,0,0,0-1.983.309c-5.619.132-11.5.992-17.629,1.256Zm10.864-6.611.97-.992a3.57,3.57,0,0,1,.4-2.512H173.5a8.815,8.815,0,0,0,.661,2.688,2.027,2.027,0,0,0,1.939.2.375.375,0,0,0,.2-.573.683.683,0,0,1-.2-.793,6.612,6.612,0,0,1-1.146.2,32.833,32.833,0,0,1-.793-3.305H173.5v.793a3.989,3.989,0,0,1-2.2-.4,9.167,9.167,0,0,0-.771,4.275l.375.4Zm-6.17-3.019,4.407-.353V91.73l-.992.176-3,.529a.683.683,0,0,0-.419.529Zm-1.036,8.109c0-.154-.22-.286-.375-.375s.2-.353.375-.375V93.713c.264,0,1.719,1.234.771,1.322v4.892h3.107a1.036,1.036,0,0,1,.771-.573,12.317,12.317,0,0,0,1.543.2v.749a13.728,13.728,0,0,0-3.548.176c-2.2,0-1.609.705-2.644.573Zm5.024-2.2h.749V97.7a1.256,1.256,0,0,1-1.146-.375,1.675,1.675,0,0,0,.4,1.543Zm-3.636.264a1.168,1.168,0,0,0,1.322-.573.617.617,0,0,1,.749-.2,6.148,6.148,0,0,0,.375-1.873h1.9a.97.97,0,0,0-.573-1.124.749.749,0,0,1-.948.375,1.3,1.3,0,0,1,.4-1.146h.837v-.749a1.7,1.7,0,0,1-1.7-.375.375.375,0,0,0-.573-.176,6.9,6.9,0,0,1-.926,1.675,7.932,7.932,0,0,0-.573,1.146.97.97,0,0,0,1.124-.573.6.6,0,0,1,.749-.176,1.212,1.212,0,0,1-.375,1.124,1.565,1.565,0,0,0-1.5.375.617.617,0,0,0,.176.749.727.727,0,0,1,.948-.375,2.38,2.38,0,0,1-1.322,1.9Zm10.159,2.071a.529.529,0,0,0-.771-.375,3.217,3.217,0,0,0-1.5-1.322,6.39,6.39,0,0,0-2.468,1.322.639.639,0,0,1-.176-.771,1.344,1.344,0,0,1,1.124-.375,1.19,1.19,0,0,0,.375-1.124h-1.124a.661.661,0,0,0-.375-.573,2.38,2.38,0,0,1,2.2.2,3.437,3.437,0,0,1,.749-1.322,3.2,3.2,0,0,1-1.9-.573,6.369,6.369,0,0,1,2.644-.375,1.587,1.587,0,0,1,.375,1.521.793.793,0,0,0-.749.926,31.334,31.334,0,0,0,3.79,2.2,2.534,2.534,0,0,1-2.2.573Zm-8.043,3.922h.661v1.014l-.727.485v.309h1.146a2.931,2.931,0,0,0,1.212-1.807h.837v1.5a3.856,3.856,0,0,0,2.2.419l-.242,2.644c-1.3,0-2.2.617-4.1.793H167c0-.507.286-1.366-.309-1.521l.2-2.777h.309v-1.08Zm2.2-2.358h.771v1.146H169.4v-1.08Zm1.631,1.939h1.5v1.08c-.661.11-1.168-.264-1.5-1.124Zm-3.57,3.482h4.275v.727c-2.578,0-3.283.551-4.143,0Zm28.845,1.212h.948a4.407,4.407,0,0,0,.2-2.666,6.766,6.766,0,0,1,.176-4.561A5.553,5.553,0,0,0,201,101.6a14.5,14.5,0,0,1,3.041-.573v-.749a10.225,10.225,0,0,0-4.165.375,2.2,2.2,0,0,1-1.917.749,8.242,8.242,0,0,1-.551-3.79,9.036,9.036,0,0,0,.176-3.438,5.839,5.839,0,0,0-2.2.4,1.3,1.3,0,0,1,.4-1.146H193.86a3.262,3.262,0,0,0,.2-1.52l-.948-2.2H191.59a2.2,2.2,0,0,0,.573,1.917,1.1,1.1,0,0,1,.176,1.124,1.124,1.124,0,0,0-1.322.4,2.2,2.2,0,0,0-.948.749,4.1,4.1,0,0,1,2.843.375.375.375,0,0,0,.573.2.353.353,0,0,1,.375-.2,15.422,15.422,0,0,1-.948,1.917c.375,1.9.573,2.843.948,4.76a4.562,4.562,0,0,1,2.666-.573,1.278,1.278,0,0,1,.4,1.124,1.5,1.5,0,0,0-1.719.4,2.2,2.2,0,0,0-.948.749,7.911,7.911,0,0,0-3.438.4l-1.124.749a2.2,2.2,0,0,0-2.2.375.353.353,0,0,0-.2.375,2.005,2.005,0,0,0,1.9.2,11.018,11.018,0,0,0,3.438-1.146,3.79,3.79,0,0,1,2.644-.375.331.331,0,0,0,.4.176V107.2a.9.9,0,0,0-.573,1.146l1.146,1.146Zm-.4-15.976a.353.353,0,0,1,.22-.4,2.2,2.2,0,0,0-.419-1.543,1.983,1.983,0,0,0,.419-1.917,7.188,7.188,0,0,1,.2-1.168,4.738,4.738,0,0,1,1.873,1.168,8.683,8.683,0,0,0-.22,1.543.375.375,0,0,0,.419-.2,9.433,9.433,0,0,0,2.071.2v1.146h-2.688A2.2,2.2,0,0,1,195.865,93.427Zm2.336,6.743V99.4h.749a1.19,1.19,0,0,0,.375-1.124,1.256,1.256,0,0,0-1.124-.4,2.2,2.2,0,0,1,.375-2.093,2.2,2.2,0,0,0,.375-2.2l1.521.4a.6.6,0,0,1-.176.749.992.992,0,0,0-.573,1.146,1.234,1.234,0,0,1-1.146.375v.771l1.52.375a5.8,5.8,0,0,0,.375-2.2h.771a1.565,1.565,0,0,1,.375,1.5,12.163,12.163,0,0,0-1.9,2.093,1.5,1.5,0,0,0,1.719-.551.375.375,0,0,0-.2-.573,1.5,1.5,0,0,1,1.521.375.727.727,0,0,1,.375.948.617.617,0,0,1-.749.2,2.534,2.534,0,0,0-2.468.573,1.5,1.5,0,0,1-1.719.375Zm-6.875,7.448a.309.309,0,0,0-.353-.353,4.407,4.407,0,0,1,.881-2.512.705.705,0,0,1,.9-.353,3.548,3.548,0,0,1-.176,2.2.97.97,0,0,0-.529,1.08Zm9.784-1.543a.639.639,0,0,0-.2-.771,6.61,6.61,0,0,1-.948-1.719,2.424,2.424,0,0,1,1.719-.176l.771.749a2.865,2.865,0,0,1,.573,1.917Zm-9.255-5.421v-1.08h.992v.992Zm-2.093,2.2a.749.749,0,0,0-.992-.4v-.9h.793v-1.19a1.5,1.5,0,0,0-1.388-.375,8.946,8.946,0,0,0,.992-4.407,1.322,1.322,0,0,1,1.19.375,4.627,4.627,0,0,1-.992,2.755.551.551,0,0,0,.6.595,6.765,6.765,0,0,0,1.168-2.358.683.683,0,0,1,.793.2,3.9,3.9,0,0,1-1.565,3.327,1.322,1.322,0,0,0,1.366.2l-1.961,1.983Zm4.407-5.619a1.609,1.609,0,0,1-.4-1.543h1.939a.837.837,0,0,1,.595,1.146,2.2,2.2,0,0,1-2.2.4Zm.331,2.71a2.2,2.2,0,0,1-.2-1.543,1.631,1.631,0,0,1,1.565-.4,1.454,1.454,0,0,1,.375.97,7.494,7.494,0,0,0-1.741.97Zm18.753,1.565a4.98,4.98,0,0,0,2.8-2.2.881.881,0,0,1,.793-.992,15.14,15.14,0,0,1,.4-3.989,27.236,27.236,0,0,1,4.011,2.2,2.666,2.666,0,0,0,2.005,1.785,3.592,3.592,0,0,0,2.005,1.212.507.507,0,0,1,.793-.22,8.44,8.44,0,0,0,3.988-1.983v-.595a5.994,5.994,0,0,1-3.592-.617.97.97,0,0,1-.793-.595,5.2,5.2,0,0,1-3.2-.595,19.59,19.59,0,0,1-5.4-3.394,1.212,1.212,0,0,0,1.388-.595,1.322,1.322,0,0,1,1.212-.419,12.494,12.494,0,0,1,1.587-.2v-.793h.793v-.97a5.773,5.773,0,0,0-1.983-.617,4.407,4.407,0,0,0-1.807,1.41h-1.41a9.982,9.982,0,0,0-.176-1.609.353.353,0,0,0,.176-.4.639.639,0,0,1-.793-.2.4.4,0,0,0,.2-.595,10.089,10.089,0,0,0-.595-2.4,2.2,2.2,0,0,1-1.587.2.617.617,0,0,0-.22.992,16.244,16.244,0,0,1,.815,2.4c.154,1.278.22,1.917.4,3.2a23.579,23.579,0,0,0-3.394,2.2.661.661,0,0,1-.815.2v.815a2.8,2.8,0,0,0,2.6-.4,6.611,6.611,0,0,0,2.2-1.41,12.4,12.4,0,0,1-.2,3,8.11,8.11,0,0,1-1.609,4.011,5.465,5.465,0,0,0-.6,1.983Zm26.443-9.7a5.553,5.553,0,0,0,3.416-.551,1.344,1.344,0,0,0,.749-1.322,41.616,41.616,0,0,1-1.9-4.165h.749v-.749a1.7,1.7,0,0,0,1.7-.375,1.344,1.344,0,0,0,.573-1.52,2.2,2.2,0,0,0-2.071.4l-1.124,1.124h-1.322V81.527a1.476,1.476,0,0,0-1.719.375c.176.9.242,1.366.4,2.2a.727.727,0,0,1-.948.375,1.609,1.609,0,0,1,.375-1.521,32.5,32.5,0,0,0-3.394,2.2,1.234,1.234,0,0,0,.375,1.146,1.344,1.344,0,0,0,1.521-.573,1.3,1.3,0,0,1,1.5-.573.485.485,0,0,0,.749.2.639.639,0,0,1,.771-.2.749.749,0,0,1-.4.948,10.467,10.467,0,0,0-4.143,3.019.375.375,0,0,0-.2.573,1.52,1.52,0,0,0,1.719.375,1.234,1.234,0,0,1,.375-1.146,5.465,5.465,0,0,0,2.821-2.2h.948a4.407,4.407,0,0,1,.176,2.644,3.945,3.945,0,0,0-1.7,2.2Zm-7.8-3.261-.97-.97a.9.9,0,0,1-.2-1.366.881.881,0,0,0-.2-1.366,1.08,1.08,0,0,1,1.168-.595,6.437,6.437,0,0,1-.375-1.939,4.716,4.716,0,0,1-1.565-2.2,1.168,1.168,0,0,1-.4-1.388h.97a18.048,18.048,0,0,0,1.565,3.217,1.388,1.388,0,0,1,.6,1.565,1.036,1.036,0,0,0,1.168-.573,51.5,51.5,0,0,0-3.129-5.465.881.881,0,0,1,1.366.176,1.388,1.388,0,0,1,.595,1.565,6.148,6.148,0,0,1,1.939,3.129,2.38,2.38,0,0,0,1.961-2.336,1.234,1.234,0,0,0-1.168-.4v1.168l-1.961-1.961a2.2,2.2,0,0,1,2.2.4,1.212,1.212,0,0,0,0-1.168.375.375,0,0,0-.2-.573,1.344,1.344,0,0,0-1.565-.595.639.639,0,0,1-.2.771,15.27,15.27,0,0,1-2.2-3.9,1.763,1.763,0,0,0-1.565-.4.727.727,0,0,1,.375-.97,2.027,2.027,0,0,1,1.961.4,15.1,15.1,0,0,0,1.961-.771,1.1,1.1,0,0,1,.375,1.344h-.771a1.719,1.719,0,0,0-.4,1.565,2.2,2.2,0,0,0,1.961.4c.375.793.573,1.168.97,1.939a4.407,4.407,0,0,1,2.358-.375l-.793-.793a1.763,1.763,0,0,0-1.763-.375,1.388,1.388,0,0,1-.4-1.19H234.8a.881.881,0,0,1,.4-.97,5.112,5.112,0,0,1,3.129-1.543,1.322,1.322,0,0,0,.375,1.543,17.627,17.627,0,0,1,.992,2.931,1.036,1.036,0,0,1,.573,1.168A8.814,8.814,0,0,0,243,76.283a.9.9,0,0,1,1.366.2,6.963,6.963,0,0,1-.573,3.9H243a2.2,2.2,0,0,1-.4-1.939h-.97a20.98,20.98,0,0,1-4.1,2.931.837.837,0,0,0-.771.97.793.793,0,0,0-.793.2l-3.5,3.5a.836.836,0,0,0,.2.2,4.209,4.209,0,0,1-.2,2.336Zm5.267-8.572a1.851,1.851,0,0,0,1.565-.992V78.42h-1.565Zm-.97-5.09.97-.573a.551.551,0,0,0-.771-.4.639.639,0,0,0-.2.97ZM168.849,5.15C93.926,6.8,81.938,49.95,81.938,55c-.815,8.947,1.014,15.778,4.936,21l-.529-.176H71.89c3.592,15.425,16.395,23.424,30.851,26.025l-9.167,4.584c16.637,15.425,31.335,14.566,46.276,10.6l-6.743,9.409c25.209,6.06,50,6.3,72.719-.485l-7.47-9.167a49.339,49.339,0,0,0,47.488-10.115l-8.814-4.407c17.1-3.548,27.215-12.781,31.093-26.994l-15.293-.375-.705.2c4.628-6.192,6.214-14.566,3.592-25.87-1.1-6.611-17.409-43.808-86.911-44.072ZM149.942,80.426c9.938-2.2,10.754-13.6,1.3-15.425,1.058-3.305,2.865-4.8,5.465-4.407,5.024-14.9,25.408-13.023,26.6,3.327a38.123,38.123,0,0,0-.992,11.15c.881,2.4,3.438,4.033,7.228,5.112,31.027-4.231,53.151-17.629,55.84-34.575,1.168-7.558-7.735-38.321-76.576-39.665-41.075,0-75.474,19.546-74.769,39.665,1.785,16.064,23.8,30.718,55.906,34.839Zm19.37-19.568a2.2,2.2,0,1,1-2.2,2.2A2.2,2.2,0,0,1,169.312,60.857Zm-5.289-27.391a8.043,8.043,0,0,1,2.71-2.093v2.2c-.176.4-.617.441-.859.727a3.107,3.107,0,0,1-1.785-.859ZM194.874,69.1a16.527,16.527,0,0,0,3.967-2.975v3.548c-.595,0-.859.286-.815.926a4.628,4.628,0,0,0-3.085.242V69.1Zm5.509-6.743c.837.573,2.8.309,3.085.992v.815a4.782,4.782,0,0,1-2.887,2.093c.683-2.2-.154-2.534-.132-3.9ZM179.426,46.005c.529-.2.9.595,1.366.9l.639,1.124h3.063A5.465,5.465,0,0,0,188.065,52l-.22,2.578-3.944-.2c-1.014-4.275-5.2-5.553-4.407-8.308ZM175.57,11.54a110.467,110.467,0,0,0,11.966-1.124l7.008,4.077,2.732.375c.132,1.454,2.909.264,5.179-.375a2.424,2.424,0,0,0,2.953-1.609c3.416.573,1.036,2.2,3.085,3.46l-.242,8.506c-1.983.573-3.305,5.112,0,5.068l1.476,1.344c.154,3.46,1.322,4.782,3.438,3.944,2.027-.4,5.641-.331,7.669-.727l1.234-1.234h1.212c.926,3.261,3.614,4.782,7.162,7.007l.353,4.231c.11.639.6.793.705,1.454l-.242,13.067-1.366-.242c-.727-4.716-1.741-8.087-3.438-8.506l-3.834-.132a6.258,6.258,0,0,1-3.944-3.085,13.684,13.684,0,0,0-.992-6.148l-1.609-.132-.97-3.7-5.179-.485a8.528,8.528,0,0,1-4.407-5.068l-.375.992-4.914-5.641a10.643,10.643,0,0,1-7.03-4.407,2,2,0,0,1-2.468-1.851c-2.556.617-4.98.507-8.814-4.8-1.278-.551-1.9-.507-1.851.595a4.011,4.011,0,0,1-3.327-.485l2.2-1.719c-.132-.793-1.234-1.41-3.327-1.851V11.54Zm-25.8,12.34c2.2.176,2.732-.837,2.777-3.283.242-1.719,3.878-1.741,5.663-2.2,0-1.873.573-2.666,1.9-2.336a3.129,3.129,0,0,1,2.2,3.746l4.407-2.865c-.507-1.587,2.424-2.755,5.818-2.931v-.881l-6.258.507a8.065,8.065,0,0,0-6.1-1.763V11.43l.595-.507-3.217-.661c-3.967,0-4.561.309-5.289,1.763-1.939-.573-2.931-.11-3.438.948h-2.2v.97c2.666.154,1.168,2.688,2.732,4.033v2.777h-.375v2.2l.881-.286v1.014Zm6.258,14.941c.4,1.917-2.049,2.909.595,3.967-.617,1.058-1.675,2.2-.595,3.173l-2.777,2.358c-2.2.859-3.283.132-3.349-2.2l2.2-1.785a5.8,5.8,0,0,1,3.967-5.553ZM118.695,24.476c15.425,25.275,46.276,13.222,50.419,0A25.782,25.782,0,0,0,145.821,36c4.055-10.908,2.688-18.929-1.7-25.32a25.3,25.3,0,0,0-1.587,26.443,25.54,25.54,0,0,0-23.843-12.539Zm-3.063-.705c0-1.388-.529-2.777,1.587-2.38l3.173-.375v-.992l-3.768.22c-.264-2.336,3-.771,5.553-3.173l6.721-.992,6.611-2.975a19.679,19.679,0,0,0,3.746,2.777,19.018,19.018,0,0,0-.793,8.814l-3.945,2.2c-7.867-4.121-12.539-4.782-18.819-3.173ZM103.776,59.734V57.816l-3-3.526-.9-2.2.793-1.256v-2.2l.9-2.821.353-1.587.661-1.917,1.014-.573.463-2.2.22-1.124a3.658,3.658,0,0,0-3.041,0l-.132-2.821,1.587-.22,1.7-1.917.463-3.173,4.165-1.234,3.173-1.807,1.807.11a7.426,7.426,0,0,0,1.917.683l1.124.331h2.2l2.49,3.283a18.026,18.026,0,0,0,4.407,3.834,24.857,24.857,0,0,0,10.4,4.848l.661.793,1.146,1.587v1.366l-.683.9.331.551.573,1.366-.9.9c-.727.331-.749.9-1.124,1.344l-1.7.573-1.146-.573.926-2.2-.683-1.807c-.793-.309-1.587,0-2.38.9-.793-.154-1.807.264-2.358-.463l1.234-1.124-3.041-.286-2.38.771-2.358-.441-.242-2.2,1.146-1.807-.573-2.6-1.124-1.917-3.283.22-1.124.22-.683-.727L116.447,34l-1.256.331-.331.793c-.242.551-.573,1.366-.573,1.366l1.146.881,1.124.573.22,2.2-.683.441-1.917.441-1.234-.441-2.2,1.124-1.454.9-.353,1.7.573,1.917,2.931,1.939.176,2.931-3.856.793-.683,1.7-1.124.661.331,1.476v2.2l-1.234,2.358-1.014.353-1.146-.9ZM140.951,40.65l6.1-.132-.154,4.121h-1.058l-.992,35.677-.353,9.52-.705-1.058-.419-9.233-1.19-34.729-1.234-.309Z" transform="translate(809.988 -425.779)" fill="#fff" fill-rule="evenodd"/>
  </g>
</svg>
